<svg id="_1" data-name="1" xmlns="http://www.w3.org/2000/svg" viewBox="0 0 431 431"><defs><style>.cls-1{fill:#e9ae8c;fill-rule:evenodd;}</style></defs><path class="cls-1" d="M135.18,28c-2.1,2.54-1.44,2.19-7.22,1.31-5.08-.89-2.84-1.71-6.87,1.35-3.62,2.83-9.73,6-12.48,8.19,1.44,2.33,12.1,9.17,14.85,12.2-.8.54-1.44,1-2.32,1.53-1.36.88-1,.83-2.87,0-4-1.63-17-6.87-19.54-7.58-3,1.79-10.79,7.18-13.72,7.4-1.38.1-3.65.05-3.45-1.72.56-4.34,7.77-7.65,12.36-10.43,1.85-1.12,1.35-1,1.49-3.16.21-2.38,1.23-19.57,1.89-20.52.3-.3,2.81-1.77,3.28-2.09a44.86,44.86,0,0,1,1.17,4.8l2.11,9.38A30.12,30.12,0,0,0,105,33.42c2.08-1.41,4.18-2.65,6.34-4.06,10.72-7,9.16-3.05,11-9.56,1.09-3.63.82-5.68,4.22-5.61.31,6.92,2.76,11,8.62,13.82Z"/><path class="cls-1" d="M137.15,19.27a1.09,1.09,0,0,0,.69,2.07l2-.69a1.05,1.05,0,1,0-.69-2Z"/><path class="cls-1" d="M361.83,65.76c1.12.86,2.42-.87,1.3-1.64l-.86-.78A1.07,1.07,0,0,0,360.89,65Z"/><path class="cls-1" d="M355.88,61a1.1,1.1,0,0,0,1.38-1.72L355.54,58a1,1,0,1,0-1.3,1.63Z"/><path class="cls-1" d="M349.16,55.75a1,1,0,0,0,1.29-1.64l-1.73-1.29a1.08,1.08,0,1,0-1.29,1.72Z"/><path class="cls-1" d="M342.25,50.83A1.09,1.09,0,0,0,343.46,49l-1.72-1.2a1.09,1.09,0,1,0-1.21,1.81Z"/><path class="cls-1" d="M335.18,46a1.09,1.09,0,0,0,1.21-1.82l-1.81-1.12a1.09,1.09,0,0,0-1.21,1.81Z"/><path class="cls-1" d="M328,41.43a1.07,1.07,0,1,0,1.13-1.81l-1.9-1.12c-1-.69-2.33,1-1,1.9Z"/><path class="cls-1" d="M320.69,37.12a1,1,0,0,0,1-1.81l-1.9-1.12c-1.29-.6-2.24,1.29-1,1.9Z"/><path class="cls-1" d="M313.19,33.07a1.06,1.06,0,1,0,.95-1.9l-1.9-1c-1.29-.69-2.16,1.29-.95,1.9Z"/><path class="cls-1" d="M305.51,29.27a1.06,1.06,0,1,0,.95-1.89l-1.9-.95c-1.2-.61-2.24,1.29-.95,1.89Z"/><path class="cls-1" d="M297.84,25.74a1.07,1.07,0,1,0,.77-2l-1.89-.86c-1.39-.52-2.16,1.55-.87,2Z"/><path class="cls-1" d="M289.9,22.55a1.11,1.11,0,0,0,.78-2.08l-2-.68a1.06,1.06,0,0,0-.77,2Z"/><path class="cls-1" d="M282,19.61a1.09,1.09,0,0,0,.68-2.07l-2.06-.69a1.09,1.09,0,0,0-.69,2.07Z"/><path class="cls-1" d="M273.86,16.94a1,1,0,1,0,.6-2l-2.07-.61a1,1,0,1,0-.6,2Z"/><path class="cls-1" d="M265.66,14.7a1.07,1.07,0,0,0,.52-2.07l-2.07-.52a1.07,1.07,0,1,0-.51,2.07Z"/><path class="cls-1" d="M257.39,12.8a1.1,1.1,0,0,0,.43-2.16l-2.16-.43a1,1,0,1,0-.35,2.07Z"/><path class="cls-1" d="M249,11.16a1,1,0,1,0,.34-2.07c-.69-.17-1.38-.26-2.15-.43-1.21-.17-1.81,1.9-.35,2.15.78.09,1.47.26,2.16.35Z"/><path class="cls-1" d="M240.56,9.87a1,1,0,1,0,.26-2.07l-2.07-.26a1,1,0,1,0-.25,2.07Z"/><path class="cls-1" d="M232.11,9a1.08,1.08,0,0,0,.18-2.15l-2.16-.17A1.08,1.08,0,0,0,230,8.83Z"/><path class="cls-1" d="M223.66,8.49a1.08,1.08,0,0,0,.09-2.16l-2.16-.09a1.08,1.08,0,0,0-.09,2.16Z"/><path class="cls-1" d="M215.12,8.23a1.08,1.08,0,0,0,0-2.16H213c-1.29,0-1.46,2.16,0,2.16Z"/><path class="cls-1" d="M206.58,8.4a1.08,1.08,0,1,0-.08-2.16l-2.07.09a1.08,1.08,0,0,0,.08,2.16Z"/><path class="cls-1" d="M198.13,8.83A1,1,0,1,0,198,6.76l-2.16.17A1,1,0,0,0,196,9Z"/><path class="cls-1" d="M189.68,9.69c1.29-.17,1.21-2.33-.26-2.15l-2.16.26a1,1,0,0,0,.26,2.07,16.12,16.12,0,0,1,2.16-.18Z"/><path class="cls-1" d="M181.22,10.73a1,1,0,1,0-.34-2.07L178.72,9a1.05,1.05,0,0,0,.35,2.07Z"/><path class="cls-1" d="M172.77,12.19a1,1,0,1,0-.34-2.06l-2.16.34a1.1,1.1,0,0,0,.43,2.16Z"/><path class="cls-1" d="M164.49,13.92a1.07,1.07,0,0,0-.52-2.07l-2.07.43a1.07,1.07,0,1,0,.52,2.07Z"/><path class="cls-1" d="M156.21,15.9a1.07,1.07,0,0,0-.52-2.07l-2.15.52a1.08,1.08,0,0,0,.6,2.07Z"/><path class="cls-1" d="M148,18.15a1.08,1.08,0,0,0-.61-2.07l-2.07.6a1.08,1.08,0,0,0,.61,2.07Z"/></svg>