<svg id="_1" data-name="1" xmlns="http://www.w3.org/2000/svg" viewBox="0 0 431 431"><defs><style>.cls-1{fill:#e9ae8c;fill-rule:evenodd;}</style></defs><path class="cls-1" d="M295.82,28c2.1,2.54,1.44,2.19,7.22,1.31,5.08-.89,2.84-1.71,6.87,1.35,3.62,2.83,9.73,6,12.48,8.19-1.44,2.33-12.1,9.17-14.85,12.2.8.54,1.44,1,2.32,1.53,1.36.88,1,.83,2.87,0,4-1.63,17-6.87,19.54-7.58,3,1.79,10.79,7.18,13.72,7.4,1.38.1,3.65.05,3.45-1.72-.56-4.34-7.77-7.65-12.36-10.43-1.85-1.12-1.35-1-1.49-3.16-.21-2.38-1.23-19.57-1.89-20.52-.3-.3-2.81-1.77-3.28-2.09a44.86,44.86,0,0,0-1.17,4.8l-2.11,9.38A30.12,30.12,0,0,1,326,33.42c-2.08-1.41-4.18-2.65-6.34-4.06-10.72-7-9.16-3.05-11-9.56-1.09-3.63-.82-5.68-4.22-5.61-.31,6.92-2.76,11-8.62,13.82Z"/><path class="cls-1" d="M293.85,19.27a1.09,1.09,0,0,1-.69,2.07l-2-.69a1.05,1.05,0,1,1,.69-2Z"/><path class="cls-1" d="M69.17,65.76c-1.12.86-2.42-.87-1.3-1.64l.86-.78A1.07,1.07,0,0,1,70.11,65Z"/><path class="cls-1" d="M75.12,61a1.1,1.1,0,0,1-1.38-1.72L75.46,58a1,1,0,1,1,1.3,1.63Z"/><path class="cls-1" d="M81.84,55.75a1,1,0,0,1-1.29-1.64l1.73-1.29a1.08,1.08,0,1,1,1.29,1.72Z"/><path class="cls-1" d="M88.75,50.83A1.09,1.09,0,0,1,87.54,49l1.72-1.2a1.09,1.09,0,1,1,1.21,1.81Z"/><path class="cls-1" d="M95.82,46a1.09,1.09,0,0,1-1.21-1.82l1.81-1.12a1.09,1.09,0,0,1,1.21,1.81Z"/><path class="cls-1" d="M103,41.43a1.07,1.07,0,1,1-1.13-1.81l1.9-1.12c1-.69,2.33,1,1,1.9Z"/><path class="cls-1" d="M110.31,37.12a1,1,0,0,1-1-1.81l1.9-1.12c1.29-.6,2.24,1.29,1,1.9Z"/><path class="cls-1" d="M117.81,33.07a1.06,1.06,0,1,1-1-1.9l1.9-1c1.29-.69,2.16,1.29.95,1.9Z"/><path class="cls-1" d="M125.49,29.27a1.06,1.06,0,1,1-.95-1.89l1.9-.95c1.2-.61,2.24,1.29,1,1.89Z"/><path class="cls-1" d="M133.16,25.74a1.07,1.07,0,1,1-.77-2l1.89-.86c1.39-.52,2.16,1.55.87,2Z"/><path class="cls-1" d="M141.1,22.55a1.11,1.11,0,0,1-.78-2.08l2-.68a1.06,1.06,0,0,1,.77,2Z"/><path class="cls-1" d="M149,19.61a1.09,1.09,0,0,1-.68-2.07l2.06-.69a1.09,1.09,0,0,1,.69,2.07Z"/><path class="cls-1" d="M157.14,16.94a1,1,0,1,1-.6-2l2.07-.61a1,1,0,1,1,.6,2Z"/><path class="cls-1" d="M165.34,14.7a1.07,1.07,0,0,1-.52-2.07l2.07-.52a1.07,1.07,0,1,1,.51,2.07Z"/><path class="cls-1" d="M173.61,12.8a1.1,1.1,0,0,1-.43-2.16l2.16-.43a1,1,0,1,1,.35,2.07Z"/><path class="cls-1" d="M182,11.16a1,1,0,1,1-.34-2.07c.69-.17,1.38-.26,2.15-.43,1.21-.17,1.81,1.9.35,2.15-.78.09-1.47.26-2.16.35Z"/><path class="cls-1" d="M190.44,9.87a1,1,0,1,1-.26-2.07l2.07-.26a1,1,0,1,1,.25,2.07Z"/><path class="cls-1" d="M198.89,9a1.08,1.08,0,0,1-.18-2.15l2.16-.17A1.08,1.08,0,0,1,201,8.83Z"/><path class="cls-1" d="M207.34,8.49a1.08,1.08,0,0,1-.09-2.16l2.16-.09a1.08,1.08,0,0,1,.09,2.16Z"/><path class="cls-1" d="M215.88,8.23a1.08,1.08,0,0,1,0-2.16H218c1.29,0,1.46,2.16,0,2.16Z"/><path class="cls-1" d="M224.42,8.4a1.08,1.08,0,1,1,.08-2.16l2.07.09a1.08,1.08,0,0,1-.08,2.16Z"/><path class="cls-1" d="M232.87,8.83A1,1,0,1,1,233,6.76l2.16.17A1,1,0,0,1,235,9Z"/><path class="cls-1" d="M241.32,9.69c-1.29-.17-1.21-2.33.26-2.15l2.16.26a1,1,0,0,1-.26,2.07,16.12,16.12,0,0,0-2.16-.18Z"/><path class="cls-1" d="M249.78,10.73a1,1,0,1,1,.34-2.07l2.16.34a1.05,1.05,0,0,1-.35,2.07Z"/><path class="cls-1" d="M258.23,12.19a1,1,0,1,1,.34-2.06l2.16.34a1.1,1.1,0,0,1-.43,2.16Z"/><path class="cls-1" d="M266.51,13.92a1.07,1.07,0,0,1,.52-2.07l2.07.43a1.07,1.07,0,1,1-.52,2.07Z"/><path class="cls-1" d="M274.79,15.9a1.07,1.07,0,0,1,.52-2.07l2.15.52a1.08,1.08,0,0,1-.6,2.07Z"/><path class="cls-1" d="M283,18.15a1.08,1.08,0,0,1,.61-2.07l2.07.6a1.08,1.08,0,0,1-.61,2.07Z"/></svg>