<svg width="25" height="25" viewBox="0 0 25 25" fill="none" xmlns="http://www.w3.org/2000/svg">
<path d="M9.18153 18.3611C11.494 18.3611 13.6018 17.4955 15.219 16.0804L16.9727 19.7527C16.9727 19.7527 17.3334 20.0464 17.8292 20.5343C18.3368 21.0104 19.0045 21.6543 19.6445 22.3271L21.4258 24.1528L22.218 25L25 22.2183L24.1527 21.4261L22.3269 19.6451C21.7125 19.0567 21.1146 18.4515 20.5338 17.83C20.0459 17.3342 19.7521 16.9736 19.7521 16.9736L16.0795 15.2201C17.5504 13.5519 18.3623 11.4045 18.3631 9.18057C18.3631 4.11945 14.2432 0 9.18153 0C4.11988 0 0 4.11945 0 9.18057C0 14.2417 4.11988 18.3611 9.18153 18.3611Z" fill="#25464C"/>
</svg>
