<svg xmlns="http://www.w3.org/2000/svg" viewBox="0 0 87.14 40.47"><defs><style>.cls-1{fill:#25464c;}.cls-2{fill:#e9ae8c;}</style></defs><g id="Capa_2" data-name="Capa 2"><g id="Capa_1-2" data-name="Capa 1"><path class="cls-1" d="M83.59,40.47H83.5L62.62,39.35a1.85,1.85,0,0,1-1.5-1,.81.81,0,0,0-1.38-.07,1.88,1.88,0,0,1-1.6.81l-56.43-3A1.81,1.81,0,0,1,0,34.17l.06-1.1a1.78,1.78,0,0,1,1.12-1.58,1.44,1.44,0,0,0,.94-1.27,1.43,1.43,0,0,0-.79-1.36,1.77,1.77,0,0,1-.95-1.69L.5,25a1.77,1.77,0,0,1,1.12-1.57,1.45,1.45,0,0,0,.93-1.28,1.41,1.41,0,0,0-.79-1.36,1.77,1.77,0,0,1-.94-1.69l.12-2.22a1.77,1.77,0,0,1,1.12-1.58,1.44,1.44,0,0,0,.14-2.63,1.8,1.8,0,0,1-1-1.69l.12-2.22A1.78,1.78,0,0,1,2.5,7.13,1.44,1.44,0,0,0,2.64,4.5a1.76,1.76,0,0,1-1-1.69l.06-1.1A1.81,1.81,0,0,1,3.65,0L60.08,3a1.84,1.84,0,0,1,1.5,1,.81.81,0,0,0,.67.41A.79.79,0,0,0,63,4.09a1.88,1.88,0,0,1,1.6-.81L85.44,4.41A1.74,1.74,0,0,1,86.68,5a1.79,1.79,0,0,1,.46,1.31l-.06,1.1A1.77,1.77,0,0,1,86,9,1.43,1.43,0,0,0,85,10.26h0a1.44,1.44,0,0,0,.79,1.36,1.79,1.79,0,0,1,1,1.69l-.12,2.22a1.76,1.76,0,0,1-1.13,1.57,1.44,1.44,0,0,0-.14,2.64,1.77,1.77,0,0,1,1,1.68l-.12,2.23a1.76,1.76,0,0,1-1.13,1.57,1.45,1.45,0,0,0-.14,2.64,1.76,1.76,0,0,1,1,1.69l-.12,2.22a1.77,1.77,0,0,1-1.12,1.57A1.44,1.44,0,0,0,84.51,36a1.77,1.77,0,0,1,.94,1.69l-.06,1.1A1.8,1.8,0,0,1,83.59,40.47ZM60.4,37h.1a1.71,1.71,0,0,1,1.41.88.93.93,0,0,0,.76.51l20.87,1.13a.89.89,0,0,0,.94-.84l.06-1.1a.84.84,0,0,0-.45-.82,2.37,2.37,0,0,1-1.29-2.23,2.34,2.34,0,0,1,1.53-2.08.87.87,0,0,0,.53-.77L85,29.5a.86.86,0,0,0-.45-.82,2.36,2.36,0,0,1,.23-4.31.84.84,0,0,0,.53-.77l.12-2.22a.84.84,0,0,0-.44-.82,2.37,2.37,0,0,1,.23-4.32.85.85,0,0,0,.53-.76l.12-2.22a.86.86,0,0,0-.44-.82,2.35,2.35,0,0,1,.23-4.31.87.87,0,0,0,.53-.77l.06-1.1a.89.89,0,0,0-.84-.94L64.51,4.2a.92.92,0,0,0-.8.43,1.75,1.75,0,0,1-1.51.72,1.71,1.71,0,0,1-1.41-.88A.93.93,0,0,0,60,4L3.6.92a.89.89,0,0,0-.94.84l-.05,1.1a.85.85,0,0,0,.44.82A2.36,2.36,0,0,1,2.82,8a.87.87,0,0,0-.53.77L2.17,11a.85.85,0,0,0,.44.82,2.35,2.35,0,0,1-.23,4.31.86.86,0,0,0-.53.77L1.73,19.1a.86.86,0,0,0,.45.82,2.37,2.37,0,0,1,1.29,2.23,2.35,2.35,0,0,1-1.53,2.08.87.87,0,0,0-.53.77l-.12,2.22a.86.86,0,0,0,.45.82,2.36,2.36,0,0,1-.23,4.31.86.86,0,0,0-.53.77l-.06,1.1a.84.84,0,0,0,.22.64.87.87,0,0,0,.62.29l56.43,3a.92.92,0,0,0,.8-.43A1.72,1.72,0,0,1,60.4,37Z"/><path class="cls-1" d="M81.1,13.46a4.78,4.78,0,0,0-2.49.92l-3,2.66-7.19-1.75a.31.31,0,0,0-.38.28l0,.34a.3.3,0,0,0,.16.29l2.15,1.23.06.05,2.23,2.25-1.58,1.42a7.13,7.13,0,0,0-.58.53l-.15.16-2.57-.65a.32.32,0,0,0-.38.23l-.07.31a.31.31,0,0,0,.11.32l1.72,1.31a6.06,6.06,0,0,0-.41.79.39.39,0,0,0,.46.53,4.79,4.79,0,0,0,.84-.3l1.06,1.89a.31.31,0,0,0,.3.16l.32,0a.3.3,0,0,0,.27-.34l-.27-2.64.17-.13a5.79,5.79,0,0,0,.61-.5l1.62-1.36L76.05,24a.25.25,0,0,1,0,.07l.92,2.3a.32.32,0,0,0,.26.2l.35,0a.3.3,0,0,0,.32-.33l-.72-7.37,3-2.56A4.72,4.72,0,0,0,81.53,14,.39.39,0,0,0,81.1,13.46Z"/><path class="cls-1" d="M60.6,35.29h0a.23.23,0,0,1-.22-.24l.15-2.74a.24.24,0,0,1,.24-.22.23.23,0,0,1,.22.24l-.15,2.75A.23.23,0,0,1,60.6,35.29Zm.3-5.48h0a.23.23,0,0,1-.22-.24l.15-2.75a.23.23,0,1,1,.45,0l-.14,2.74A.24.24,0,0,1,60.9,29.81Zm.29-5.49h0a.23.23,0,0,1-.22-.24l.15-2.74a.24.24,0,0,1,.24-.22.23.23,0,0,1,.22.24l-.15,2.75A.22.22,0,0,1,61.19,24.32Zm.3-5.48h0a.23.23,0,0,1-.22-.24l.15-2.75a.22.22,0,0,1,.24-.21.23.23,0,0,1,.22.24l-.15,2.74A.24.24,0,0,1,61.49,18.84Zm.29-5.49h0a.22.22,0,0,1-.21-.24l.14-2.74a.23.23,0,0,1,.24-.22.23.23,0,0,1,.22.24L62,13.13A.22.22,0,0,1,61.78,13.35Zm.3-5.49h0a.22.22,0,0,1-.22-.24L62,4.88a.23.23,0,0,1,.24-.22.24.24,0,0,1,.22.24l-.15,2.75A.23.23,0,0,1,62.08,7.86Z"/><circle class="cls-1" cx="11.27" cy="8.98" r="3.78"/><path class="cls-1" d="M11.27,12.86h0A3.89,3.89,0,0,1,7.39,8.93,3.83,3.83,0,0,1,8.56,6.21h0A3.87,3.87,0,0,1,14,6.27,3.89,3.89,0,0,1,14,11.75,3.87,3.87,0,0,1,11.27,12.86ZM8.69,6.35a3.68,3.68,0,0,0,0,5.2,3.6,3.6,0,0,0,2.59,1.11A3.68,3.68,0,1,0,8.69,6.35Z"/><path class="cls-2" d="M12.19,11.16l-.36-2.23.89-.83a1.47,1.47,0,0,0,.34-.73.12.12,0,0,0-.14-.14,1.38,1.38,0,0,0-.74.32l-.86.87h0L9.11,8A.09.09,0,0,0,9,8.1v.11a.07.07,0,0,0,.05.08l1.54.87L10,9.75l-.17.17,0,.05h0L9,9.82a.09.09,0,0,0-.11.07V10a.09.09,0,0,0,0,.1s.73.36.78.42a6.84,6.84,0,0,1,.41.8.11.11,0,0,0,.09,0l.1,0a.11.11,0,0,0,.08-.11l-.14-.79h0l.06,0a1.29,1.29,0,0,0,.17-.16l.6-.57.83,1.56a.1.1,0,0,0,.09.06h.1A.1.1,0,0,0,12.19,11.16Z"/><rect class="cls-1" x="36.94" y="-4.31" width="0.23" height="38.07" transform="translate(20.36 50.93) rotate(-86.92)"/><rect class="cls-1" x="31.83" y="1.61" width="0.23" height="49.05" transform="translate(4.12 56.63) rotate(-86.92)"/><path class="cls-2" d="M17.45,9.09a.24.24,0,0,0,0-.09l0-.1c0-.05,0-.11,0-.17a.7.7,0,0,1,0-.21.46.46,0,0,1,0-.09s0,0,.05,0l0-.11h.09l.11,0h.6l.53,0a6.4,6.4,0,0,1,.64,0l0-.09,0,0,.07,0a.33.33,0,0,1,.2,0l.09.09.34,0,.36,0,.52,0h.51l.21,0,.18,0,.08.06a.24.24,0,0,0,.06.09l.08.08a1.2,1.2,0,0,1,.18.2.45.45,0,0,1,.05.34l0,.06a.18.18,0,0,1-.07.05l-.07.08h-.17l-.07,0-.06,0-.07,0-.11,0h-.51l-.44,0-.29,0-.26,0-.13.29L20,9.8a1.92,1.92,0,0,0-.12.25,2,2,0,0,0-.11.29.85.85,0,0,0-.14.21,1.33,1.33,0,0,0-.1.24.57.57,0,0,0-.15.23l-.08.21,0,.09-.06.07,0,.06a.47.47,0,0,1-.06.15l0,.07a.11.11,0,0,0,0,.05.23.23,0,0,1,0,.11.22.22,0,0,1,0,.08L19,12s0,.06,0,.08v.07l0,0,0,.07,0,0,0,0,.09.06.06.08a.4.4,0,0,1-.09.35.44.44,0,0,1-.39.13h-.09l0-.06-.1-.05a.12.12,0,0,1-.06-.06l0,0,0,0a.31.31,0,0,1-.1,0l-.07,0a.64.64,0,0,1,0-.09.48.48,0,0,1-.08-.16s0-.11,0-.17a.69.69,0,0,1,0-.13.54.54,0,0,0,0-.11,2.54,2.54,0,0,1,.12-.74c.08-.2.16-.4.24-.58s.1-.21.14-.31l.12-.32.07-.07.06,0a.75.75,0,0,1,0-.16L19,9.56l.06-.1a.46.46,0,0,1,0-.09H18.9l-.16,0-.08,0a.19.19,0,0,1-.1,0h-.69l-.11,0-.14,0,0-.06a.18.18,0,0,0-.06-.08l-.07,0Z"/><path class="cls-2" d="M20.87,10.5a.14.14,0,0,0,0-.08,1.42,1.42,0,0,0,0-.2,1.09,1.09,0,0,0,0-.18s0-.09,0-.14a.5.5,0,0,1,0-.12.25.25,0,0,0,.13-.09.41.41,0,0,0,.06-.11c.07,0,.11,0,.13,0a.49.49,0,0,1,.08.1.42.42,0,0,0,.08.12.38.38,0,0,0,.15.09l.05.11.06.11.11.22a1.11,1.11,0,0,1,.07.22,1.11,1.11,0,0,0-.08.29,1.82,1.82,0,0,0,0,.33,1.63,1.63,0,0,0,0,.31,1.12,1.12,0,0,0,.08.24l0,.08.11,0a2.18,2.18,0,0,0,.34-.14,1.24,1.24,0,0,0,.27-.17,1.26,1.26,0,0,0,.24-.22,1.72,1.72,0,0,0,.23-.28,1.33,1.33,0,0,0,.2-.35,2.83,2.83,0,0,0,.14-.41,2.9,2.9,0,0,0,.06-.41,2.62,2.62,0,0,0,0-.38.19.19,0,0,0,.1-.17l0-.06a.06.06,0,0,1,0-.05.09.09,0,0,1,0-.05.31.31,0,0,1,.16-.2l.19.13.17.13a.83.83,0,0,0,.06.25l.09.19.08.17a1.67,1.67,0,0,1,.06.2,1.18,1.18,0,0,0-.05.31,2.66,2.66,0,0,0,0,.3v.06c0,.11-.11.23-.16.35l-.12.31a.35.35,0,0,0-.05.08.36.36,0,0,0,0,.09s0,0,0,.06a.08.08,0,0,1,0,.05l-.14,0v.17l-.09,0,0,.08a1.91,1.91,0,0,1-.23.38,1.48,1.48,0,0,1-.28.28,3.27,3.27,0,0,1-.36.25l-.46.25h-.64a.23.23,0,0,0-.07-.07h-.07a.39.39,0,0,1-.17-.14,1.74,1.74,0,0,1-.13-.2l-.07-.12a.83.83,0,0,0-.08-.12l.1,0L21,12.15l0,0,0,0V12c0-.29-.07-.56-.09-.8a2,2,0,0,1,0-.66Z"/><path class="cls-2" d="M26.25,11.84s0,0,0,0h0a.17.17,0,0,1-.06-.14.35.35,0,0,0-.06-.14l0-.07s0,0,.05,0a.74.74,0,0,1,0-.26A.92.92,0,0,1,26.4,11l.14-.21a1.56,1.56,0,0,0,.16-.2s.06,0,.07,0,0,0,0,0a.36.36,0,0,0,.15-.15.37.37,0,0,0,.05-.18,2.41,2.41,0,0,1,.15-.33,1.75,1.75,0,0,1,.18-.29,1.7,1.7,0,0,1,.22-.24l.24-.15A1.08,1.08,0,0,1,28,9.07a1.32,1.32,0,0,1,.3-.08,1.13,1.13,0,0,1,.32,0A1.06,1.06,0,0,1,29,9s0,0,0,0a0,0,0,0,1,0,0,3,3,0,0,1,.57.16A1.33,1.33,0,0,1,30,9.4a2.86,2.86,0,0,1,.21.43,1.84,1.84,0,0,1,.15.47,2,2,0,0,1,0,.49,1.6,1.6,0,0,1-.13.51,1.69,1.69,0,0,1-.57.42A3.23,3.23,0,0,1,29,12a6.53,6.53,0,0,1-.77.14l-.77.12c0,.12,0,.24,0,.37a2.63,2.63,0,0,1-.06.39,1.82,1.82,0,0,1-.13.37,1.17,1.17,0,0,1-.2.34.77.77,0,0,0-.26,0l-.25,0-.1-.06a.22.22,0,0,0-.11,0,.24.24,0,0,0,0-.16l-.1-.17a.37.37,0,0,1-.07-.16.15.15,0,0,1,.09-.14.16.16,0,0,1-.05-.14l.06,0a.79.79,0,0,1,.05-.28c0-.1.06-.21.08-.31a.74.74,0,0,0,0-.29A.23.23,0,0,0,26.25,11.84ZM28,10.42a.73.73,0,0,1,0,.12.3.3,0,0,1,0,.1l0,.09-.06.1a.1.1,0,0,0,.05.06s0,0,0,.06l.18-.06.19,0,.18,0,.18-.05.21-.07.21-.05a.66.66,0,0,0,.2-.06.48.48,0,0,0,.17-.1.68.68,0,0,0-.26-.16,1.12,1.12,0,0,0-.38-.1,1.48,1.48,0,0,0-.42,0A.84.84,0,0,0,28,10.42Z"/><path class="cls-2" d="M30.08,13.13s0,0,0-.05A.54.54,0,0,1,30,13h.07a.46.46,0,0,1,0-.26,1.8,1.8,0,0,1,.06-.22c0-.08,0-.15.07-.22a.42.42,0,0,0,0-.22s0,0,0,0a.36.36,0,0,0,0-.09s0-.08,0-.12a.31.31,0,0,0,0-.1,1.93,1.93,0,0,0,.15-.4c0-.14.08-.28.11-.41s.07-.27.11-.4a1.92,1.92,0,0,1,.14-.36.33.33,0,0,1,.19,0,.36.36,0,0,1,.13.09,1.73,1.73,0,0,0,.37-.35l.33-.41a2,2,0,0,1,.37-.35.94.94,0,0,1,.5-.17l.34.25a1.18,1.18,0,0,1,.3.33l.09.07.1.07v.1a.56.56,0,0,1,.14.2,2.44,2.44,0,0,1,.1.24l.08.26a1.34,1.34,0,0,0,.09.24.2.2,0,0,0,0,.07.13.13,0,0,0,0,.06s0,0,0,.06V11a.85.85,0,0,1-.25.53,1.39,1.39,0,0,1-.49.32,3.82,3.82,0,0,1-.6.19c-.21.06-.4.11-.58.18,0,0,0,0,0,0s0,0,0,0l.29.2a1.62,1.62,0,0,0,.19.13.72.72,0,0,0,.2.09l.31.09.31.09.2.06.19,0,.27,0a1,1,0,0,1,.11.17,1.94,1.94,0,0,1,0,.2.54.54,0,0,1,0,.18.3.3,0,0,1-.06.14s0,0,0,0h.06l-.08.07-.07.09-.07.08-.11,0a1,1,0,0,1-.59,0,8,8,0,0,1-.9-.34,4.68,4.68,0,0,1-.44-.21l-.29-.17a2.11,2.11,0,0,1-.23-.19l-.24-.23,0,0s0,0,0,0a1.68,1.68,0,0,1-.12.41,1.19,1.19,0,0,1-.22.31c-.06,0-.11,0-.13,0l-.09.06c-.05,0-.08,0-.1,0l-.06,0a.1.1,0,0,0-.05,0s-.05,0-.1,0a.56.56,0,0,0,0-.12s0,0-.1,0a.13.13,0,0,0,0-.1s0,0,0-.08a.14.14,0,0,1,0-.07A.14.14,0,0,1,30.08,13.13Zm2.29-2.82a2.09,2.09,0,0,1-.2.22l-.21.19a2,2,0,0,0-.19.22.69.69,0,0,0-.12.29,2.08,2.08,0,0,0,.57-.12l.56-.2a.68.68,0,0,0-.14-.39A.83.83,0,0,0,32.37,10.31Z"/><path class="cls-2" d="M38,11.81A.76.76,0,0,0,38,12a.74.74,0,0,0,0,.14l0,.14,0,.14a1.41,1.41,0,0,1,0,.2.66.66,0,0,1-.06.2.61.61,0,0,1-.09.18.45.45,0,0,1-.13.11.72.72,0,0,1-.22.17.89.89,0,0,0-.25.14l-.16,0-.18,0a.59.59,0,0,1-.16.07l-.21.07a.79.79,0,0,1-.2,0h-.18a1.84,1.84,0,0,1-.38.08,1.36,1.36,0,0,1-.43-.05,1.16,1.16,0,0,1-.42,0,1,1,0,0,1-.34-.18,1.41,1.41,0,0,1-.25-.29,1.44,1.44,0,0,1-.16-.33,1.47,1.47,0,0,1,.06-.67,2.32,2.32,0,0,1,.24-.53,2.73,2.73,0,0,1,.36-.45c.13-.14.25-.28.38-.41h.06s0,0,0,0l0-.05a.05.05,0,0,1,.05,0,.32.32,0,0,1,.14-.14.29.29,0,0,0,.14-.13.24.24,0,0,0,.1,0l.08-.06.08,0a.19.19,0,0,1,.09,0v-.07A.5.5,0,0,0,36.3,10l.13-.16h.2l.1-.13.13-.08.17,0a.39.39,0,0,1,.16.1.17.17,0,0,0,0,.1l.07.06.07.07a.13.13,0,0,1,0,.09h.07a.4.4,0,0,0,0,.12.35.35,0,0,1,.05.12.52.52,0,0,0-.06.13.14.14,0,0,1-.08.09s0,0,0,0a0,0,0,0,1,0,0,.15.15,0,0,1,0,.08,4.41,4.41,0,0,1,.24.54C37.78,11.46,37.86,11.64,38,11.81Zm-.83.57a.31.31,0,0,1,.08-.11.32.32,0,0,0,0-.13.23.23,0,0,1,0-.09.22.22,0,0,1,0-.09,3,3,0,0,1-.22-.44,2.86,2.86,0,0,0-.21-.43l0,.05s-.05,0-.07,0a.13.13,0,0,1-.05.07l-.07,0s-.06,0-.08,0l-.07,0-.39.27a1.69,1.69,0,0,0-.35.31h-.07a1,1,0,0,1-.14.22l-.15.19a2.39,2.39,0,0,0-.13.21.77.77,0,0,0-.07.27.53.53,0,0,0,.25.12,1.46,1.46,0,0,0,.3,0,1.55,1.55,0,0,0,.31,0h.28a1.53,1.53,0,0,0,.47-.15Zm.73-4-.18.09a2.36,2.36,0,0,0-.31.22l-.24.2-.31.23a2.79,2.79,0,0,1-.33.19.79.79,0,0,1-.32.08l-.09-.09L36,9.23a.16.16,0,0,1,0-.09A.19.19,0,0,1,36,9,.34.34,0,0,1,36,8.81.19.19,0,0,1,36,8.7a.38.38,0,0,1,.13-.09.32.32,0,0,0,.1-.13,3.53,3.53,0,0,1,.34-.32,3.47,3.47,0,0,0,.34-.32.31.31,0,0,0,.13-.06l.13-.1.12-.11a.42.42,0,0,1,.14-.09s0,0,.07.07a.09.09,0,0,0,.09,0,.24.24,0,0,0,.06.14l.11.1c0,.06,0,.11.07.16a.88.88,0,0,1,0,.15.66.66,0,0,1,0,.14A.25.25,0,0,1,37.85,8.41Z"/><path class="cls-2" d="M38.29,14.12a1.09,1.09,0,0,1-.29-.51.76.76,0,0,1,0-.54,1.17,1.17,0,0,1,.16-.36,2.08,2.08,0,0,1,.27-.32,2.78,2.78,0,0,1,.32-.26l.31-.23a.32.32,0,0,1,.11-.12l.15-.09.17-.09a.86.86,0,0,0,.14-.13.82.82,0,0,0-.06-.19c0-.06-.06-.13-.09-.2l-.12-.2a1.28,1.28,0,0,1-.11-.2s0,0,0,0a0,0,0,0,1,0,0,.45.45,0,0,0,0-.23.57.57,0,0,0-.11-.22,1.14,1.14,0,0,0,.09-.19.53.53,0,0,0,0-.26.27.27,0,0,1,0-.12.61.61,0,0,1,.07-.1.41.41,0,0,0,.05-.09.16.16,0,0,0,0-.1.47.47,0,0,1,.17,0l.14.07.12.07a.14.14,0,0,0,.11,0,.15.15,0,0,0,0,.06l0,0,0,0s0,0,0,0a.75.75,0,0,1,.24.21,2.62,2.62,0,0,1,.23.32,2.9,2.9,0,0,1,.19.34,1.73,1.73,0,0,1,.12.25,2.88,2.88,0,0,0,.44-.21l.49-.25.51-.24a2.54,2.54,0,0,1,.49-.16.69.69,0,0,1,.17.17,1,1,0,0,1,.09.21l.06.21a.64.64,0,0,0,.08.19,1.06,1.06,0,0,1-.16.19.55.55,0,0,0-.14.19,2.86,2.86,0,0,0-.41.14l-.53.26a6.79,6.79,0,0,0-.78.44,1.64,1.64,0,0,1,.12.22,1.08,1.08,0,0,1,.07.18.64.64,0,0,1,.05.17.64.64,0,0,1,.1.13l.06.16a1,1,0,0,0,.07.15.25.25,0,0,0,.11.12l0,.22a1.55,1.55,0,0,1,0,.21.68.68,0,0,1,0,.19.59.59,0,0,1,0,.19.67.67,0,0,1-.2.26.84.84,0,0,0-.18.21l-.14,0-.13.05L40.68,14a2.83,2.83,0,0,0-.21-.78,7.09,7.09,0,0,0-.32-.67,6.9,6.9,0,0,0-.67.43,6,6,0,0,0-.6.53,1.05,1.05,0,0,1-.08.25.38.38,0,0,1-.11.16.44.44,0,0,1-.16.1Z"/><path class="cls-2" d="M42.81,14.06a.51.51,0,0,1-.13-.16.64.64,0,0,1-.08-.19,1.74,1.74,0,0,1-.05-.22,1.43,1.43,0,0,0,0-.22.22.22,0,0,1,.05-.13.71.71,0,0,1,.09-.07h.27l.24,0,.23,0h.25l.2-.37.18-.34a2,2,0,0,1,.11-.29l.13-.26c.05-.08.08-.16.12-.24a1.07,1.07,0,0,0,.07-.27l.16-.4a2.28,2.28,0,0,0,.11-.45l-.39.06-.22.05a.42.42,0,0,1-.31-.17l-.07-.15a1.27,1.27,0,0,0-.06-.18.65.65,0,0,0,0-.17.29.29,0,0,0-.07-.17s.06,0,.08-.08a.15.15,0,0,0,0-.11.93.93,0,0,1,.24,0h.46a.47.47,0,0,0,.19-.06H46a.67.67,0,0,0,.26.05l.3,0a1.07,1.07,0,0,1,.27.09.42.42,0,0,1,.15.24.38.38,0,0,1,.14.05.14.14,0,0,1,0,.1.49.49,0,0,1,0,.12.62.62,0,0,0,0,.13.85.85,0,0,1-.27.12l-.34,0a2.55,2.55,0,0,1-.39,0h-.4a3.3,3.3,0,0,1-.13.49c-.06.19-.13.37-.19.55s-.12.34-.17.48a1,1,0,0,0-.07.27l-.12.25-.09.18-.07.18-.1.19.43,0a.14.14,0,0,0,.06.1l.09.05a.26.26,0,0,1,.09,0,.11.11,0,0,1,0,.1.18.18,0,0,1,.16.24.39.39,0,0,1-.08.14.45.45,0,0,1-.1.13.1.1,0,0,0-.1,0,.44.44,0,0,0-.11.09,1.1,1.1,0,0,0-.36,0l-.33,0s0,0,0,0,0,0,0,0a1.09,1.09,0,0,0-.4-.07,2.15,2.15,0,0,0-.43,0l-.44.08A2.32,2.32,0,0,1,42.81,14.06Z"/><path class="cls-2" d="M46.92,15l-.2,0a1,1,0,0,1-.19-.3,1.7,1.7,0,0,1-.13-.4,3,3,0,0,1,0-.43.92.92,0,0,1,.07-.38l.06-.15.15-.38c.07-.15.14-.32.22-.51s.15-.37.23-.55l.23-.49c.07-.15.14-.26.19-.35a1.63,1.63,0,0,0,.11-.17l.09-.15c0-.08.09-.15.13-.22a.83.83,0,0,1,.13-.18.7.7,0,0,1,.16-.14.65.65,0,0,1,.22-.11l.13.06.11.09,0,.09a.09.09,0,0,0,0,.06h.05l.14,0a.31.31,0,0,0,.13,0,.35.35,0,0,1,.05.08l0,.07a2.84,2.84,0,0,1,.22.35.5.5,0,0,1,0,.38v.07a.16.16,0,0,1,0,.09.41.41,0,0,1,0,.1.49.49,0,0,0,0,.12.32.32,0,0,0,0,.13l0,.05a.53.53,0,0,0,.2,0,.44.44,0,0,0,.23-.06l.19-.12.13-.08a.31.31,0,0,1,.12-.05l.24-.23.24-.2a5.62,5.62,0,0,0,.44-.41,1.47,1.47,0,0,0,.34-.54.29.29,0,0,1,.16,0,.38.38,0,0,1,.18,0l.18.08,0,0h0a.18.18,0,0,0,.06.13l.05,0,0,0,.09.05a.18.18,0,0,1,0,.07.51.51,0,0,0,.2.27.23.23,0,0,0,0,.14.65.65,0,0,0,0,.13.08.08,0,0,1,0,.05s0,0,0,0h-.14l0,.14a.66.66,0,0,1,0,.24.71.71,0,0,1-.08.21c0,.13,0,.23,0,.31s0,.14,0,.21a1.16,1.16,0,0,1,0,.18,1.42,1.42,0,0,1-.08.18,2.21,2.21,0,0,1-.1.9,7.32,7.32,0,0,1-.29.75.36.36,0,0,1,0,.09l0,.07-.12,0-.11.06-.14.07-.15,0A.92.92,0,0,1,51,14a4.83,4.83,0,0,1,.21-1.4.1.1,0,0,0,0-.1v-.07h-.12a.09.09,0,0,0,0,.06l-.44.31a4.85,4.85,0,0,1-.49.29,3.93,3.93,0,0,1-.52.23,1.63,1.63,0,0,1-.52.09,1,1,0,0,1-1-.64l-.06-.12-.06.1-.07.13a1.65,1.65,0,0,0-.09.22,1.83,1.83,0,0,0-.08.25.43.43,0,0,0,0,.22l-.15.16a.53.53,0,0,0-.11.21s0,0,0,.06a.14.14,0,0,0,0,.06s0,0,0,.06a.08.08,0,0,1,0,0l-.06.07a.24.24,0,0,0-.06.08.24.24,0,0,0,0,.08s0,0,0,.08a.2.2,0,0,1,0,.09,2.22,2.22,0,0,1-.11.22.56.56,0,0,1-.09.14A.24.24,0,0,1,47,15Z"/><path class="cls-2" d="M52.64,13.86l.08-.06v-.13c.12-.25.25-.5.37-.73l.39-.72c0-.08.09-.16.13-.24l.14-.24a.11.11,0,0,1,0-.05.19.19,0,0,1,0-.07l.15-.22.12-.21.14-.25a1.88,1.88,0,0,1,.18-.24l0-.06h.07l.05,0h.08l.11,0a1.4,1.4,0,0,0,.39-.26c.11-.12.23-.26.35-.42l.08-.11.1.07.1,0,.15.06.25.08a.62.62,0,0,1,.2.12l0,.06c0,.05,0,.09,0,.13s0,.08,0,.12l0,.27a2.53,2.53,0,0,1,0,.29c0,.09,0,.17.05.26s0,.18,0,.26,0,.25,0,.36a1.59,1.59,0,0,0,.09.33h.08a.48.48,0,0,1,.18,0H57l0,.08,0,0,0,0a.2.2,0,0,1,.14.05.27.27,0,0,1,.08.07l0,0,0,0,.11.05-.07.12a.84.84,0,0,1-.22.25,1.27,1.27,0,0,1-.34.2s0,0,0,.08a.28.28,0,0,0,0,.09l0,.27a1.32,1.32,0,0,1,0,.28,1.58,1.58,0,0,1-.17.29,1.15,1.15,0,0,1-.21.23,1.12,1.12,0,0,1-.28.16.81.81,0,0,1-.31.06l-.13,0-.07-.06-.08-.06-.08,0,0-.09a.14.14,0,0,0,0-.09.35.35,0,0,0-.09-.11l0,0,0-.05L55.32,14l.21,0a.48.48,0,0,0,.26-.12.41.41,0,0,0,.07-.28.65.65,0,0,0-.26,0l-.21,0-.29.05a1.56,1.56,0,0,1-.31,0l-.23,0h-.07v-.08l0,0s0,0,0,0l-.07-.11a.18.18,0,0,1,0-.16.28.28,0,0,1,0-.15.31.31,0,0,0-.05.1l0,.09,0,.08h-.09s0,0,0,0a0,0,0,0,0,0,0l0,.07-.07.06,0,0,0,0a.74.74,0,0,1,0,.14l0,.12a1.59,1.59,0,0,0-.07.2.41.41,0,0,0,0,.19l0,.08s-.05.06-.09.07l-.09,0c-.05,0-.08,0-.09.05l0,.08h-.09l-.12,0h-.17L53,14.4l-.11-.08,0-.06,0-.09a.28.28,0,0,0,0-.09,1,1,0,0,0,0-.12Zm2.12-1.56-.19.26h.59l.42,0a4.21,4.21,0,0,0-.09-.49c0-.17-.06-.34-.1-.51l0,.07a3.59,3.59,0,0,0-.32.35,2.53,2.53,0,0,0-.26.37Z"/><path class="cls-2" d="M9.73,24.09,9.84,24v-.18c.15-.34.31-.68.46-1l.5-1,.17-.33a2.53,2.53,0,0,0,.16-.33v-.07a.15.15,0,0,1,0-.09,3.11,3.11,0,0,0,.2-.3c.05-.09.1-.19.14-.28l.18-.34a2.19,2.19,0,0,1,.23-.33l.07-.08h.09l.07,0h.1l.16,0a1.49,1.49,0,0,0,.51-.36,4.18,4.18,0,0,0,.45-.58l.11-.14.13.09.14.05.19.07.35.1a.61.61,0,0,1,.26.16l0,.08,0,.17,0,.15c0,.12,0,.24,0,.36s0,.25,0,.39,0,.23.08.35l.06.35c0,.16.05.32.08.47s.08.3.13.44h.1a.85.85,0,0,1,.24-.05h.12l0,.1a.1.1,0,0,0,0,.05l.06.06a.34.34,0,0,1,.2.06.45.45,0,0,1,.1.09l.05,0,0,0,.15.06-.09.17a1.25,1.25,0,0,1-.29.34,1.79,1.79,0,0,1-.44.27s0,.08,0,.11a.49.49,0,0,0,0,.12,2.23,2.23,0,0,1,0,.36,1.63,1.63,0,0,1,0,.38,1.79,1.79,0,0,1-.21.39,2.14,2.14,0,0,1-.28.32,1.65,1.65,0,0,1-.36.22,1.5,1.5,0,0,1-.42.09A.46.46,0,0,1,14,25L13.9,25l-.11-.07-.11-.05,0-.13a.13.13,0,0,0,0-.12.64.64,0,0,0-.12-.14.17.17,0,0,1-.06-.06l-.06-.06-.17-.2L13.6,24a.6.6,0,0,0,.34-.16A.55.55,0,0,0,14,23.5a.87.87,0,0,0-.35,0l-.27.05-.39.09a2.73,2.73,0,0,1-.41,0l-.31,0H12.2l0-.09a.05.05,0,0,0,0,0s0,0,0,0-.06-.08-.1-.14a.25.25,0,0,1,0-.21.39.39,0,0,1-.06-.2l-.06.13s0,.08,0,.12l0,.11-.11,0a.11.11,0,0,0,0,0,.11.11,0,0,0,0,.05l0,.09-.09.08-.05,0,0,0a1.55,1.55,0,0,1-.12.35l-.09.26a1.17,1.17,0,0,0,0,.26l0,.11a.21.21,0,0,1-.11.1l-.12.06-.12.06,0,.11-.13,0-.16,0h-.11l-.11,0-.16-.16a.56.56,0,0,0-.15-.1l0-.07a.93.93,0,0,1,0-.13.52.52,0,0,0,0-.11.43.43,0,0,0-.05-.16Zm2.78-2.16a2.71,2.71,0,0,0-.24.35h.23a4.86,4.86,0,0,0,.56,0c.17,0,.36,0,.55-.07,0-.21-.08-.43-.13-.65s-.1-.44-.16-.67l0,.09c-.15.15-.29.31-.43.48a5.34,5.34,0,0,0-.33.5Z"/><path class="cls-2" d="M16.81,22.87a2,2,0,0,1,0-.49l0-.5c0-.15,0-.32,0-.49s0-.34,0-.5,0-.31,0-.45a1.13,1.13,0,0,1,.06-.31.55.55,0,0,1,.18-.19l.2-.17.2.07a.47.47,0,0,1,.15.13.46.46,0,0,1,.09.15.26.26,0,0,1,0,.15,1.07,1.07,0,0,1,.34.36,2,2,0,0,1,.19.48,2.52,2.52,0,0,1,.09.56c0,.19,0,.38,0,.57s0,.37,0,.54a2.54,2.54,0,0,0,.07.44q.39-.54.66-1l.55-.8c.18-.25.39-.51.61-.78s.52-.56.87-.89l.17.05.12.06.12,0h.19l.06.15a.36.36,0,0,1,0,.09.76.76,0,0,0,0,.11l.07.21s0,.05,0,.09,0,.07,0,.1a.2.2,0,0,0,0,.07H22a1.23,1.23,0,0,1-.12.26.4.4,0,0,0-.08.27c-.16.2-.33.41-.53.62l-.58.67c-.19.24-.38.48-.56.73a4.79,4.79,0,0,0-.46.79.08.08,0,0,0-.07,0s0,0-.05.06l-.05.06a.07.07,0,0,1-.07,0,1,1,0,0,1-.21.51,3.1,3.1,0,0,1-.39.41.52.52,0,0,1,0,.11s0,.06,0,.08,0,.06,0,.09a.53.53,0,0,0,0,.12,1.4,1.4,0,0,1-.21.34,1,1,0,0,1-.28.2.63.63,0,0,1-.3.05.67.67,0,0,1-.29-.12.28.28,0,0,1-.1-.09l-.09-.12-.09-.11a.24.24,0,0,0-.11-.06,1.09,1.09,0,0,0,0-.18,1,1,0,0,0,0-.18.5.5,0,0,0-.05-.13s-.05-.05-.07-.05-.05-.3-.08-.47-.07-.33-.1-.5-.06-.33-.08-.49a2.29,2.29,0,0,1,0-.45.34.34,0,0,0,0-.18A.59.59,0,0,1,16.81,22.87Z"/><path class="cls-2" d="M21.56,26.26a.29.29,0,0,1-.12-.15.27.27,0,0,0-.16-.13c0-.09-.06-.18-.09-.29s-.07-.22-.11-.33L21,25a1.91,1.91,0,0,1,0-.32.83.83,0,0,1,0-.15l.06-.15a.57.57,0,0,0,0-.14.29.29,0,0,0,0-.13.07.07,0,0,0,.05-.07s0,0,.08,0a3.21,3.21,0,0,1,.08-.36,2.58,2.58,0,0,1,.1-.33,3.38,3.38,0,0,0,.11-.34,2.74,2.74,0,0,0,.11-.37.77.77,0,0,1-.25-.26,1.23,1.23,0,0,1-.14-.31,3,3,0,0,1-.1-.32,1.35,1.35,0,0,0-.11-.32.86.86,0,0,1,.21-.29,1.57,1.57,0,0,1,.3-.2,1.94,1.94,0,0,1,.36-.15l.42-.15c.26-.12.49-.22.7-.3l.62-.21.62-.17c.22-.05.47-.13.75-.21l0,0h.06s.05.05.1.05a.43.43,0,0,0,0-.05.06.06,0,0,1,0,0h.1s0,0,0,0,0,0,0-.05a.94.94,0,0,0,.3.26,2.5,2.5,0,0,0,.38.15.26.26,0,0,1,0,.11v.13a.22.22,0,0,0,0,.1,1.21,1.21,0,0,1-.26.4,1.36,1.36,0,0,1-.34.25l-.4.16-.43.13a2.65,2.65,0,0,0-.44.17,1.54,1.54,0,0,0-.42.26h-.13a.45.45,0,0,0-.11,0l-.13.05a.4.4,0,0,1-.17,0,.4.4,0,0,1-.15.1l-.17.08a.64.64,0,0,1,.06.18.62.62,0,0,0,0,.16,4.68,4.68,0,0,0,.79-.11c.29-.07.57-.12.84-.17t0,.06s0,0,0,.06a.57.57,0,0,1,.16.11l.16.13.17.1a.28.28,0,0,0,.18,0,.56.56,0,0,1,.09.17.34.34,0,0,1,0,.2l-.3.27-.31.25a2.12,2.12,0,0,1-.36.21,1.8,1.8,0,0,1-.43.11H23.9l-.08,0a.36.36,0,0,1-.22.06.7.7,0,0,0-.23.06.87.87,0,0,0-.28,0,.84.84,0,0,1-.28,0c-.08.17-.16.33-.23.51a4.26,4.26,0,0,0-.17.54,4.68,4.68,0,0,0,.59,0l.43-.1.41-.11a4.67,4.67,0,0,1,.53-.08,1.46,1.46,0,0,1,.47-.21,3.12,3.12,0,0,0,.49-.18.26.26,0,0,1,.16.07l.13.13.14.11a.16.16,0,0,0,.15,0,.17.17,0,0,1,.07.1l0,.1a.28.28,0,0,0,.05.08s.05,0,.1,0a2,2,0,0,1-.29.56,1.7,1.7,0,0,1-.42.33,2.25,2.25,0,0,1-.54.22l-.67.21a.31.31,0,0,1-.16,0H24l-.56.16a3.55,3.55,0,0,1-.65.12,2.83,2.83,0,0,1-.65,0A1.07,1.07,0,0,1,21.56,26.26Z"/><path class="cls-2" d="M27.63,24.94a.25.25,0,0,0-.11.17,1.6,1.6,0,0,1-.05.21.39.39,0,0,1-.09.17.27.27,0,0,1-.23.06s0,.05,0,.05,0,0,0,.08-.14,0-.17,0a.4.4,0,0,1-.13,0,.6.6,0,0,1-.32-.22,2.64,2.64,0,0,1-.23-.35c-.06-.13-.11-.26-.16-.39s-.09-.25-.14-.35a0,0,0,0,1,0,0h.05l-.06-.2A.29.29,0,0,0,26,24l.55-1.1.6-1.16.6-1.19c.2-.39.39-.78.58-1.17a3.82,3.82,0,0,1,.46.21,2.46,2.46,0,0,1,.41.28,1.36,1.36,0,0,1,.31.37,1,1,0,0,1,.17.46s0,0,0,0,0,0-.05,0a.18.18,0,0,1,.05.07s0,0,0,0,0,0,0,.06a.31.31,0,0,0,0,.09.07.07,0,0,0-.06,0h-.06a.27.27,0,0,1,0,.19.61.61,0,0,1-.05.12l-.06.12a.38.38,0,0,0,0,.18,0,0,0,0,0-.05,0l0,0s0,0,0,0h-.05a2.26,2.26,0,0,1,0,.45l0,.46c0,.16,0,.32,0,.48a2.37,2.37,0,0,0,.06.52,1.74,1.74,0,0,0,.6-.54,2.85,2.85,0,0,0,.38-.76,5.5,5.5,0,0,0,.23-.89c0-.32.11-.64.17-1a.94.94,0,0,0,.16-.23c0-.09.07-.18.1-.28A2.45,2.45,0,0,1,31,19.7a1.69,1.69,0,0,1,.11-.27.5.5,0,0,1,.26.09l.2.17.19.17a.52.52,0,0,0,.26.11c.08.12.15.23.21.34a.82.82,0,0,1,.13.35,1.08,1.08,0,0,0-.08.19l-.06.21a.61.61,0,0,1-.09.18.29.29,0,0,1-.15.14c0,.18-.05.33-.08.48s-.08.29-.11.44l-.09.44a3.84,3.84,0,0,0,0,.5l-.18.51a2.62,2.62,0,0,0-.15.48,1,1,0,0,0-.27.31l-.2.37s-.05,0-.05,0l-.08,0c0,.05,0,.09,0,.1s0,.06,0,.13a.78.78,0,0,0-.26.17,2.43,2.43,0,0,1-.25.2.84.84,0,0,1-.31.12,1.12,1.12,0,0,1-.46-.09,4.26,4.26,0,0,1-.74-.73,3.37,3.37,0,0,1-.51-1,.23.23,0,0,0-.13.11l-.08.18c0,.06-.05.12-.07.17a.1.1,0,0,1-.1.07.61.61,0,0,1-.07.14,1,1,0,0,0-.09.13.37.37,0,0,0-.07.14A.21.21,0,0,0,27.63,24.94Z"/><path class="cls-2" d="M32.34,21.62a.5.5,0,0,0,0-.12s0-.08,0-.13-.05-.14-.07-.22a1.2,1.2,0,0,1,0-.28.59.59,0,0,1,0-.13l.05-.06,0-.15h.41a5,5,0,0,0,.67,0l.7,0c.27,0,.55,0,.85-.06l.06-.11,0-.06.1-.05a.39.39,0,0,1,.27.05.65.65,0,0,1,.12.11l.45,0,.48,0,.7-.07q.35,0,.69,0l.27,0,.25,0,.1.08a.44.44,0,0,0,.08.11.65.65,0,0,0,.12.11,2.05,2.05,0,0,1,.24.26.6.6,0,0,1,.08.46l0,.08a.35.35,0,0,1-.09.07l-.09.11h-.09a.55.55,0,0,0-.13,0l-.1,0-.08,0-.1,0H38l-.56,0-.58.07-.4,0-.34,0c-.06.14-.12.27-.16.39s-.1.22-.16.33l-.15.35a2.77,2.77,0,0,0-.14.38,3.4,3.4,0,0,0-.18.3,1.42,1.42,0,0,0-.11.31.91.91,0,0,0-.2.32l-.1.29,0,.12a.26.26,0,0,0-.07.1l-.05.07a1,1,0,0,1-.08.21l0,.09a.12.12,0,0,0,0,.08.37.37,0,0,1-.06.14.31.31,0,0,1,0,.1.43.43,0,0,1,0,.11l0,.1a.28.28,0,0,0,0,.09l0,.07a.19.19,0,0,1,0,.09l0,0,.05,0a.19.19,0,0,0,.12.07l.09.11a.55.55,0,0,1-.11.47.61.61,0,0,1-.52.19h-.12a.21.21,0,0,1-.06-.08L34,26.53a.14.14,0,0,1-.09-.08l0,0,0,0-.13-.06-.1-.05a.68.68,0,0,0,0-.12,2,2,0,0,1-.1-.21l-.06-.23c0-.07,0-.12,0-.18a.31.31,0,0,0-.06-.13,3.26,3.26,0,0,1,.13-1c.1-.27.2-.53.31-.78s.11-.28.17-.42.1-.28.14-.43l.1-.09a.21.21,0,0,1,.08-.06.54.54,0,0,1,0-.22l.1-.22.06-.13a.41.41,0,0,0,0-.12h-.2a.86.86,0,0,1-.22,0H34l-.13,0h-.32a.4.4,0,0,0-.17,0h-.43l-.16,0a.47.47,0,0,1-.17-.07l-.06-.07c0-.06-.07-.1-.09-.1l-.1,0Z"/><path class="cls-2" d="M36.65,23.47a.32.32,0,0,0,0-.14,1.71,1.71,0,0,0,.09-.3l.06-.28a1.57,1.57,0,0,1,0-.23l.06-.19a.36.36,0,0,0,.22-.12l.12-.16a.3.3,0,0,1,.2.05.57.57,0,0,1,.1.18,1.51,1.51,0,0,0,.12.2.46.46,0,0,0,.23.17,1,1,0,0,0,0,.18A1.42,1.42,0,0,0,38,23c0,.13.09.25.13.38a1.27,1.27,0,0,1,.07.36,1.77,1.77,0,0,0-.17.46,3,3,0,0,0-.08.51,4.17,4.17,0,0,0,0,.5,2,2,0,0,0,.08.41l0,.14.19,0a4.12,4.12,0,0,0,.56-.16,3.25,3.25,0,0,0,.46-.22,2.53,2.53,0,0,0,.42-.31,3.87,3.87,0,0,0,.42-.4,3.06,3.06,0,0,0,.38-.54,3.87,3.87,0,0,0,.29-.62c.07-.22.13-.43.18-.65s.07-.42.09-.6a.31.31,0,0,0,.19-.25l0-.11a.31.31,0,0,1,0-.08s0,0,0-.07a.49.49,0,0,1,.29-.29,2.26,2.26,0,0,1,.29.23,2.73,2.73,0,0,1,.23.25,2.25,2.25,0,0,0,.06.4c0,.11.07.22.11.32s.07.19.1.28a1.16,1.16,0,0,1,0,.34,3.47,3.47,0,0,0-.13.48c0,.15-.06.31-.08.47l0,.1c-.11.17-.22.35-.32.53l-.26.48-.09.12c0,.05-.05.09-.07.14s0,0,0,.08a.18.18,0,0,1-.06.08l-.2-.08-.06.27-.14,0-.11.12a2.66,2.66,0,0,1-.92,1,5.1,5.1,0,0,1-.62.32l-.78.32-.29,0-.25,0-.23,0-.26,0a.2.2,0,0,0-.09-.11.17.17,0,0,0-.11,0A.64.64,0,0,1,37,27.2l-.17-.35-.09-.21a1,1,0,0,0-.11-.2l.18,0-.22-.27-.06-.05,0-.06v-.16c0-.47,0-.9,0-1.3a3.58,3.58,0,0,1,.19-1Z"/><path class="cls-2" d="M42.32,26s0,0-.08-.07a.91.91,0,0,0-.07-.14h.09a.8.8,0,0,1,0-.34,2.81,2.81,0,0,1,.08-.31c0-.1.06-.2.08-.29a.52.52,0,0,0,0-.3s0,0,.06,0a.34.34,0,0,0,0-.12.71.71,0,0,0,0-.15.49.49,0,0,0,0-.13,3.58,3.58,0,0,0,.19-.55c0-.18.09-.37.13-.55s.08-.37.13-.54a2.05,2.05,0,0,1,.18-.49.45.45,0,0,1,.25,0,.32.32,0,0,1,.17.12,2.48,2.48,0,0,0,.48-.49l.43-.56a3.17,3.17,0,0,1,.49-.48,1.2,1.2,0,0,1,.66-.24l.46.32a1.52,1.52,0,0,1,.41.43l.13.09.13.09v.13a1.31,1.31,0,0,1,.19.27,2.37,2.37,0,0,1,.14.32l.12.34a3,3,0,0,0,.12.32.28.28,0,0,0,0,.09.19.19,0,0,0,0,.07s0,.06,0,.09a.41.41,0,0,1,0,.12,1.14,1.14,0,0,1-.31.72,2.13,2.13,0,0,1-.65.44,4.91,4.91,0,0,1-.79.28,7.78,7.78,0,0,0-.77.25s0,0,0,0,0,0,0,.05l.39.26.26.16a1.11,1.11,0,0,0,.27.12l.41.11.42.11.27.06.25.05.37,0a.76.76,0,0,1,.15.23,2.41,2.41,0,0,1,.08.25,1,1,0,0,1,0,.25.33.33,0,0,1-.07.18s0,0,0,0h.08a.47.47,0,0,0-.1.1l-.09.12a.47.47,0,0,1-.1.1.2.2,0,0,1-.14.06,1.33,1.33,0,0,1-.79,0,10,10,0,0,1-1.22-.42c-.24-.1-.44-.18-.59-.26l-.4-.23a2.34,2.34,0,0,1-.31-.24l-.33-.3s0,0,0,0,0,0,0,0a2.19,2.19,0,0,1-.14.55,3,3,0,0,1-.27.43.22.22,0,0,0-.19,0l-.12.09a.15.15,0,0,1-.12,0l-.08,0-.08-.06s-.07,0-.13,0,0-.1-.05-.15-.06-.07-.14-.07a.21.21,0,0,0,0-.13.36.36,0,0,0,0-.1l0-.1A.25.25,0,0,1,42.32,26Zm3-3.85a1.45,1.45,0,0,1-.26.29l-.27.27a1.76,1.76,0,0,0-.24.3,1.12,1.12,0,0,0-.16.4,2.92,2.92,0,0,0,.76-.19l.75-.28a.88.88,0,0,0-.21-.52A1,1,0,0,0,45.27,22.1Z"/><path class="cls-2" d="M47.53,26l.11-.08v-.18c.15-.34.31-.67.47-1s.32-.64.49-1l.17-.33c.06-.1.11-.21.17-.33a.15.15,0,0,1,0-.07A.51.51,0,0,1,49,23a3.11,3.11,0,0,0,.2-.3l.15-.28c0-.11.11-.23.17-.34a1.72,1.72,0,0,1,.24-.33l.06-.08h.09l.07,0H50l.16,0a1.49,1.49,0,0,0,.51-.36,4.18,4.18,0,0,0,.45-.58l.11-.14.13.09.14.05.19.07.35.1a.55.55,0,0,1,.26.16l0,.08c0,.06,0,.12,0,.17l0,.15c0,.12,0,.24.05.36s0,.25,0,.39.05.23.08.35l.06.35.09.47a2.83,2.83,0,0,0,.12.44H53a.57.57,0,0,1,.24,0h.11l0,.1a.21.21,0,0,0,0,.06l.06.05a.43.43,0,0,1,.2.06.45.45,0,0,1,.1.09l0,0a.05.05,0,0,0,0,0l.15.06-.09.17a1.25,1.25,0,0,1-.29.34,1.79,1.79,0,0,1-.44.27s0,.08,0,.11a.25.25,0,0,0,0,.12c0,.12,0,.24,0,.36a1.63,1.63,0,0,1,0,.38,2.15,2.15,0,0,1-.21.4,2,2,0,0,1-.28.31,1.65,1.65,0,0,1-.36.22A1,1,0,0,1,52,27a.46.46,0,0,1-.17-.07l-.1-.07-.11-.07-.11-.05,0-.13a.13.13,0,0,0,0-.12,1,1,0,0,0-.12-.14l-.06-.06-.06-.06-.17-.2L51.4,26a.75.75,0,0,0,.35-.17.62.62,0,0,0,.07-.38.87.87,0,0,0-.35,0l-.27.06-.39.08a2.63,2.63,0,0,1-.41,0l-.31,0H50l0-.09a0,0,0,0,0,0,0,.08.08,0,0,0,0,0s-.06-.08-.1-.14a.3.3,0,0,1,0-.21.39.39,0,0,1-.06-.2l-.06.13s0,.08,0,.12l0,.11-.11,0a.11.11,0,0,0,0,.05,0,0,0,0,0,0,.05l0,.09-.09.08s0,0,0,0l-.05,0a.78.78,0,0,1,0,.18.87.87,0,0,1-.07.17l-.09.27a1.09,1.09,0,0,0,0,.25l0,.11a.21.21,0,0,1-.11.1l-.12.06a.33.33,0,0,0-.12.06l0,.12H48.5l-.16,0h-.22a1.39,1.39,0,0,0-.16-.17l-.15-.1-.05-.07a.84.84,0,0,1,0-.12.5.5,0,0,0,0-.12.43.43,0,0,0-.05-.16Zm2.78-2.16a2.25,2.25,0,0,0-.24.36h.23a4.86,4.86,0,0,0,.56,0,4.07,4.07,0,0,0,.56-.07c0-.21-.09-.43-.14-.65s-.1-.44-.16-.67l0,.09a5.19,5.19,0,0,0-.43.49,4.22,4.22,0,0,0-.33.49Z"/><path class="cls-1" d="M68.26,33.29l-.86-2.88.41,0,.42,1.44c.11.41.21.74.27,1.06h0c.11-.31.26-.64.43-1l.62-1.39.41,0-1.29,2.76Z"/><path class="cls-1" d="M70.65,30.6l-.16,2.82-.38,0,.16-2.82Z"/><path class="cls-1" d="M71.72,32.59l-.38.88-.4,0,1.23-2.77.46,0,.92,2.88-.41,0-.3-.92Zm1.06-.24-.28-.86c-.06-.19-.09-.33-.13-.48h0c0,.14-.1.29-.17.45l-.37.84Z"/><path class="cls-1" d="M74.9,30.84l.38,0-.1,1.84c-.05.79-.47,1-1,1a1.67,1.67,0,0,1-.45-.1l.08-.31a1,1,0,0,0,.36.09c.36,0,.57-.13.61-.72Z"/><path class="cls-1" d="M77.45,32.49l-1.22-.07-.06,1,1.36.07v.32l-1.75-.1.16-2.83,1.68.1,0,.31-1.3-.07-.05.88,1.23.07Z"/></g></g></svg>