<?xml version="1.0" encoding="utf-8"?>
<!-- Generator: Adobe Illustrator 24.2.1, SVG Export Plug-In . SVG Version: 6.00 Build 0)  -->
<svg version="1.1" id="Capa_1" xmlns="http://www.w3.org/2000/svg" xmlns:xlink="http://www.w3.org/1999/xlink" x="0px" y="0px"
	 viewBox="0 0 2560 606" style="enable-background:new 0 0 2560 606;" xml:space="preserve">
<style type="text/css">
	.st0{fill-rule:evenodd;clip-rule:evenodd;fill:#E9AE8C;}
	.st1{fill:#E9AE8C;}
</style>
<g>
	<rect x="-0.08" y="582.63" class="st0" width="1603.16" height="23.46"/>
	<path class="st0" d="M200.82,472.93v4.27v34.67v2.84v5.69v57.07v19.2l6.93,9.42h-19.38h-29.69H132.9l5.69-9.42h0.18v-74.85
		l-3.73-10.31h13.33h-4.27h-5.16c-1.24-15.11-14.04-27.2-29.33-27.2c-15.65,0-28.27,12.09-29.51,27.2h-5.16H70.5h13.51l-3.73,10.31
		v74.85h0.18l6.75,9.42H60.72H32.09H12.54l5.51-9.42v-19.2V520.4v-5.69v-2.84V477.2v-4.27v-12.26v-1.6L1.87,446.44H1.34v-0.53v-0.71
		h16.71v-12.27v-3.37v-2.85v-1.95h182.77v1.95v2.85v3.37v12.27h16.89v0.36v0.89h-0.89l-16,12.62v1.6V472.93z"/>
	<path class="st0" d="M205.98,499.6v19.55v1.6v1.6h1.24v32.71v2.14v12.27v2.13v29.34v3.73v1.42H421.1v-1.42v-3.73V571.6v-2.13V557.2
		v-2.14v-32.71h2.31v-1.6v-1.6V499.6v-2.67h-3.02v-18.31v-44.45v-2.84V391.5v-2.85v-81.6h4.27v-5.34h-8.53v-8h-3.02v-2.49h-0.89
		l-3.38-6.05l-3.56-6.4l-3.38,6.4l-3.38,6.05h-0.89v2.49h-50.49v8h-8.71v5.34h4.8v81.6v2.85v2.14h-20.98l-3.38-25.43l-0.71-6.75
		v-36.27h5.69v-4.45h-5.69v-4.8h-4.8v4.8h-5.69v4.45h5.69v35.38l-1.07,7.64l-3.38,25.43h-23.65v-2.14v-2.85v-81.6h4.27v-5.34h-8.54
		v-8h-49.43v-2.49h-0.89l-3.38-6.05l-3.38-6.4l-3.56,6.4l-3.2,6.05h-1.07v2.49h-4.09v8h-8.71v5.34h4.8v81.6v2.85v39.82v2.84v44.45
		v18.31h-2.13V499.6z M285.27,401.63h23.83v14.94l-1.42,2.31l-8.18,12.81h-14.22v-0.36V401.63z M322.26,401.63h20.98v29.69v0.36
		h-11.38l-8-12.81l-1.6-2.31V401.63z M289.01,467.06c0.71-12.8,10.67-22.93,23.29-23.82C299.68,444.12,289.72,454.44,289.01,467.06
		L289.01,467.06z M316.21,443.24c5.33,0.36,10.13,2.49,14.05,5.68C326.34,445.73,321.54,443.59,316.21,443.24L316.21,443.24z
		 M407.59,433.46h-51.56v-2.14v-36.98h51.56v36.98V433.46z M389.1,400.57c1.78,0,3.38,1.06,3.38,2.31v26.49h-6.75v-26.49
		C385.73,401.63,387.15,400.57,389.1,400.57L389.1,400.57z M375.77,400.57c1.78,0,3.38,1.06,3.38,2.31v26.49h-6.75v-26.49
		C372.39,401.63,373.81,400.57,375.77,400.57L375.77,400.57z M396.75,446.44h6.93v-6.93h-6.93V446.44z M360.3,446.44h7.11v-6.93
		h-7.11V446.44z M253.98,400.57c1.78,0,3.38,1.06,3.38,2.31v26.49h-6.76v-26.49C250.6,401.63,252.03,400.57,253.98,400.57
		L253.98,400.57z M240.65,400.57c1.78,0,3.2,1.06,3.2,2.31v26.49h-6.58v-26.49C237.27,401.63,238.69,400.57,240.65,400.57
		L240.65,400.57z M261.63,446.44h6.94v-6.93h-6.94V446.44z M225.18,446.44h6.94v-6.93h-6.94V446.44z M408.13,600.94h-4.8V554
		c0-14.4-21.16-26.14-21.16-26.14S361.01,539.6,361.01,554v46.94h-6.93V571.6v-2.13V557.2v-2.14v-32.71h54.05v32.71v2.14v12.27v2.13
		V600.94z M341.1,600.94h-5.51V554c0-14.4-21.16-26.14-21.16-26.14S293.27,539.6,293.27,554v46.94h-6.05V571.6v-2.13V557.2v-2.14
		v-32.71h53.87v32.71v2.14v12.27v2.13V600.94z M274.07,600.94h-6.05V554c0-14.4-21.16-26.14-21.16-26.14S225.71,539.6,225.71,554
		v46.94h-5.33V571.6v-2.13V557.2v-2.14v-32.71h53.69v32.71v2.14v12.27v2.13V600.94z"/>
	<path class="st0" d="M1097.79,593.47h3.56l-26.85-51.92c-14.05-13.51-33.25-21.69-54.22-21.69c-19.2,0-36.63,6.93-50.14,18.31
		l-28.62,55.29h5.16v12.62H879.1v-12.62h8.89l55.64-107.56v-16.18h11.91l19.73-56.54v-1.24h0.36l5.51-16h-2.13v-14.93h6.22v-2.84
		H976v-16.18h14.05c10.49-82.14,15.47-223.31,17.07-268.46h-0.36v-3.56h0.54l0.18-8.71h-2.49V66.67h6.4V48.71h7.46V23.29h2.49V0
		h2.85v23.29h2.66v25.42h7.29v17.96h6.58v14.58h-2.67l0.35,8.71h0.36v3.56h-0.18c0.89,25.43,2.67,81.6,6.23,140.63l0.18,0.53
		l-0.18,0.18c2.13,35.74,4.79,72.19,8,103.48c0.89,8.53,1.95,16.18,2.66,23.64h14.23v16.18h-9.24v2.84h6.05v14.93h-1.42l5.51,16
		l20.09,57.79h6.22v15.11l1.25-0.53l56.54,109.16h10.67v12.62h-67.56V593.47z M960.53,465.99L960.53,465.99l17.96-10.49L968,445.37
		L960.53,465.99z M970.67,437.01L970.67,437.01l16-10.49l-9.06-9.07L970.67,437.01z M980.09,410.35L980.09,410.35l11.73-7.47
		l-7.11-6.04L980.09,410.35z M1061.16,395.94L1061.16,395.94h-0.53l-6.76,6.4l11.91,6.93L1061.16,395.94z M1068.8,417.64
		L1068.8,417.64l-8.35,8.53l14.4,9.06L1068.8,417.64z M1078.23,444.66L1078.23,444.66l-11.38,10.84l19.03,11.03L1078.23,444.66z
		 M1020.8,81.25L1020.8,81.25l-4.27,3.56l-4.26-3.56H1020.8z M1015.29,86.05L1015.29,86.05l-4.98,3.91l0.35-8L1015.29,86.05z
		 M1012.63,89.96L1012.63,89.96l3.55-3.02l3.2,3.02H1012.63z M1017.61,85.87L1017.61,85.87l3.55-2.85v0.18v0.18v0.89v0.18v1.07v0.18
		v1.24v0.35v1.78L1017.61,85.87z M1021.16,93.87L1021.16,93.87l-5.34,5.51l-5.51-5.87h10.85V93.87z M1014.4,100.81L1014.4,100.81
		l-4.45,4.8l0.18-9.6L1014.4,100.81z M1009.96,107.92L1009.96,107.92l5.69-5.87l5.16,5.87H1009.96z M1016.89,100.63L1016.89,100.63
		l4.27-4.44v9.06L1016.89,100.63z M1021.16,111.47L1021.16,111.47l-5.69,5.69l-5.16-5.87h10.85V111.47z M1013.87,118.41
		L1013.87,118.41l-4.62,4.98l0.35-10.13L1013.87,118.41z M1009.07,125.88L1009.07,125.88l6.22-6.05l5.16,6.22h-11.38V125.88z
		 M1016.53,118.41L1016.53,118.41l4.63-4.62v9.96L1016.53,118.41z M1021.16,129.79L1021.16,129.79l-5.87,5.69l-5.51-6.04h11.38
		V129.79z M1013.69,136.9L1013.69,136.9l-5.16,4.98v-1.06l0.35-9.25L1013.69,136.9z M1008.89,143.83L1008.89,143.83l6.05-5.69
		l5.16,5.69H1008.89z M1016.18,136.9L1016.18,136.9l4.98-4.62v9.95L1016.18,136.9z M1021.16,148.45L1021.16,148.45l-5.87,5.16
		l-6.4-6.4h11.91l0.36,0.18V148.45z M1013.69,154.86L1013.69,154.86l-5.87,4.98l0.53-10.49L1013.69,154.86z M1008,161.97
		L1008,161.97l6.93-5.86l5.69,5.86H1008z M1016.18,154.86L1016.18,154.86l4.98-4.09v4.27v0.71v1.24v0.53v1.42v0.71L1016.18,154.86z
		 M1024.54,147.92L1024.54,147.92l0.53-0.71h11.91l-6.04,6.4l-6.4-5.51V147.92z M1008.36,147.21L1008.36,147.21v0.18V147.21z
		 M1021.16,165.52L1021.16,165.52l-6.76,5.69l-5.87-5.87h12.62V165.52z M1012.98,172.46L1012.98,172.46l-5.87,4.98l0.35-10.49
		L1012.98,172.46z M1006.76,179.75L1006.76,179.75l7.47-6.05l6.05,6.4h-13.52V179.75z M1015.64,172.46L1015.64,172.46l5.16-4.62
		v1.07v1.42v1.24v1.78v1.24v1.78v1.42v0.18L1015.64,172.46z M1020.62,183.66L1020.62,183.66l-6.76,5.87l-6.04-6.22h12.8V183.66z
		 M1012.45,190.77L1012.45,190.77l-6.22,5.51l0.36-11.38L1012.45,190.77z M1006.76,197.88L1006.76,197.88l6.94-5.87l5.87,5.87
		H1006.76z M1015.29,190.77L1015.29,190.77l5.33-4.8v1.07v0.89v2.67v1.07l-0.18,2.84v0.89v0.89L1015.29,190.77z M1007.11,183.3
		L1007.11,183.3l-0.53,1.6l0.17-1.6H1007.11z M1019.91,201.26L1019.91,201.26l-6.4,5.69l-5.69-5.69H1019.91z M1011.91,208.37
		L1011.91,208.37l-6.75,6.05l0.53-12.09L1011.91,208.37z M1006.41,216.02L1006.41,216.02l6.93-6.4l6.58,6.4H1006.41z
		 M1014.93,208.19L1014.93,208.19l5.51-4.8l-0.18,3.02v0.53v3.73v0.36l-0.18,2.14L1014.93,208.19z M1018.85,219.39L1018.85,219.39
		l-6.22,5.16l-5.16-5.16H1018.85z M1010.85,226.33L1010.85,226.33l-6.76,5.51l0.89-11.74L1010.85,226.33z M1005.16,233.97
		L1005.16,233.97l7.29-6.22l5.87,6.22H1005.16z M1014.4,226.33L1014.4,226.33l5.51-4.98v2.32l-0.36,8L1014.4,226.33z
		 M1019.38,237.36L1019.38,237.36l-6.76,5.68l-5.33-5.68H1019.38z M1010.85,244.46L1010.85,244.46l-7.83,6.76l0.89-13.87
		L1010.85,244.46z M1005.69,251.93L1005.69,251.93l6.76-5.69l5.69,5.69H1005.69z M1014.4,244.46L1014.4,244.46l4.98-4.09v0.71
		l-0.18,0.89v3.56v1.07l-0.18,2.84L1014.4,244.46z M1017.78,255.31L1017.78,255.31l-6.4,5.16l-4.98-5.16H1017.78z M1009.6,262.24
		L1009.6,262.24l-7.82,6.58l1.07-13.51L1009.6,262.24z M1004.09,269.89L1004.09,269.89l7.12-6.04l6.04,6.04H1004.09z
		 M1013.16,262.24L1013.16,262.24l5.69-4.97l-0.18,1.95v1.42l-0.35,6.76L1013.16,262.24z M1016.53,273.27L1016.53,273.27l-6.76,5.51
		l-5.33-5.51H1016.53z M1007.82,280.2L1007.82,280.2l-7.29,5.87l1.07-12.63L1007.82,280.2z M1001.96,287.84L1001.96,287.84
		l7.64-5.87l5.34,5.87H1001.96z M1011.2,280.38L1011.2,280.38l6.76-5.16c-0.18,3.73-0.35,7.82-0.71,11.56L1011.2,280.38z
		 M1016,291.4L1016,291.4l-6.76,5.15l-5.16-5.15H1016z M1007.47,298.16L1007.47,298.16l-8.35,6.58c0.36-4.27,0.71-8.89,1.07-13.33
		h0.71L1007.47,298.16z M1001.6,305.8L1001.6,305.8l7.29-6.05l5.69,6.05H1001.6z M1010.85,298.34L1010.85,298.34l6.04-4.8
		c-0.18,3.56-0.36,7.11-0.71,10.49L1010.85,298.34z M1013.16,309.18L1013.16,309.18l-5.87,4.8l-4.45-4.8H1013.16z M1005.34,315.58
		L1005.34,315.58l-7.82,6.04c0.53-3.91,0.89-8.17,1.06-12.44h0.89L1005.34,315.58z M998.58,323.94L998.58,323.94l8.18-6.76
		l6.58,6.76H998.58z M1008.71,315.75L1008.71,315.75l7.11-5.68c-0.35,3.91-0.53,8.18-1.06,11.91L1008.71,315.75z M1013.51,327.32
		L1013.51,327.32l-7.82,6.05l-5.51-6.05H1013.51z M1003.92,334.78L1003.92,334.78l-7.65,6.4h-0.54c0.36-4.44,0.71-9.06,1.24-13.69
		L1003.92,334.78z M999.82,341.18L999.82,341.18l5.69-4.62l4.26,4.62H999.82z M1007.47,335.14L1007.47,335.14l6.76-5.34
		c-0.53,3.74-0.89,7.65-1.24,11.03L1007.47,335.14z M1012.09,344.57L1012.09,344.57l-8.72,7.11l-6.58-7.11H1012.09z M1001.6,353.09
		L1001.6,353.09l-8,6.41c0.36-4.27,1.06-8.71,1.42-13.16L1001.6,353.09z M993.96,361.98L993.96,361.98l9.06-7.11l6.05,6.4v0.18
		l-0.18,0.53H993.96z M1004.98,353.27L1004.98,353.27l6.93-5.51c-0.71,3.92-1.25,7.65-1.96,10.85L1004.98,353.27z M1025.25,81.25
		L1025.25,81.25l4.44,3.56l4.09-3.56H1025.25z M1030.94,86.05L1030.94,86.05l4.26,3.38l-0.18-7.11L1030.94,86.05z M1033.25,89.96
		L1033.25,89.96l-3.38-3.02l-3.37,3.02H1033.25z M1028.45,85.87L1028.45,85.87l-3.9-3.38v0.71v0.18v0.89v0.18v1.07v0.18v1.24v0.35
		v2.14L1028.45,85.87z M1024.54,93.52L1024.54,93.52l5.86,5.87l4.98-5.69v-0.18H1024.54z M1031.65,100.81L1031.65,100.81l3.91,4.27
		l-0.18-8.35L1031.65,100.81z M1035.73,107.56L1035.73,107.56l-5.15-5.51l-5.51,5.87h10.66V107.56z M1029.16,100.63L1029.16,100.63
		l-4.61-4.8v9.96L1029.16,100.63z M1024.89,111.3L1024.89,111.3l5.87,5.87l4.8-5.87H1024.89z M1032,118.41L1032,118.41l4.27,4.27
		l-0.18-8.89L1032,118.41z M1036.45,125.16L1036.45,125.16l-5.51-5.33l-5.16,6.22h10.66V125.16z M1029.51,118.41L1029.51,118.41
		l-4.97-4.98v11.2L1029.51,118.41z M1024.54,129.43L1024.54,129.43l6.4,6.04l5.51-6.04H1024.54z M1032.36,136.9L1032.36,136.9
		l4.62,4.27l-0.36-9.07L1032.36,136.9z M1036.98,143.83L1036.98,143.83l-5.86-5.69l-4.98,5.69H1036.98z M1029.69,136.9
		L1029.69,136.9l-5.15-4.98v10.85L1029.69,136.9z M1032.36,154.86L1032.36,154.86l5.33,4.62l-0.36-9.78L1032.36,154.86z
		 M1037.88,161.79L1037.88,161.79l-6.76-5.69l-5.87,5.86h12.62V161.79z M1029.69,154.86L1029.69,154.86l-5.15-4.44v4.62v0.71v1.24
		v0.53v1.42v0.89v0.18L1029.69,154.86z M1024.89,165.35L1024.89,165.35l6.94,5.87l5.87-5.87H1024.89z M1033.25,172.46
		L1033.25,172.46l5.33,4.62l-0.53-9.42L1033.25,172.46z M1038.58,179.39L1038.58,179.39l-6.58-5.69l-6.05,6.4h12.8L1038.58,179.39z
		 M1030.59,172.46L1030.59,172.46l-5.87-4.98v1.42v1.42v1.24v1.78v1.24v1.78v1.42v0.53L1030.59,172.46z M1024.89,183.3
		L1024.89,183.3l7.29,6.22l6.22-6.22H1024.89z M1033.78,190.77L1033.78,190.77l5.69,4.98l-0.54-10.31L1033.78,190.77z
		 M1039.47,197.88L1039.47,197.88l-7.11-5.87l-5.87,5.87H1039.47z M1030.94,190.77L1030.94,190.77l-6.05-5.33v1.6v0.89v2.67v1.07
		l0.18,2.84v0.89v1.25L1030.94,190.77z M1026.32,201.26L1026.32,201.26l6.05,5.69l5.69-5.69H1026.32z M1034.14,208.37
		L1034.14,208.37l6.23,5.51l-0.54-11.02L1034.14,208.37z M1039.82,216.02L1039.82,216.02l-6.93-6.4l-6.58,6.4H1039.82z
		 M1031.12,208.19L1031.12,208.19l-6.05-5.33l0.18,3.56v0.53v3.73v0.36l0.18,2.67L1031.12,208.19z M1027.21,219.39L1027.21,219.39
		l6.22,5.16l5.15-5.16H1027.21z M1035.2,226.33L1035.2,226.33l6.05,4.98l-0.53-10.67L1035.2,226.33z M1040.89,233.97L1040.89,233.97
		l-7.11-6.22l-6.22,6.22H1040.89z M1031.83,226.33L1031.83,226.33l-6.4-5.34l0.35,2.67l0.18,8.53L1031.83,226.33z M1026.85,237.36
		L1026.85,237.36l6.4,5.68l5.69-5.68H1026.85z M1035.2,244.46L1035.2,244.46l7.29,6.41l-0.89-12.8L1035.2,244.46z M1040.36,251.93
		L1040.36,251.93l-6.58-5.69l-5.69,5.69H1040.36z M1031.83,244.46L1031.83,244.46l-5.69-4.62v1.24l0.18,0.89v3.56v1.07l0.18,3.38
		L1031.83,244.46z M1028.45,255.31L1028.45,255.31l6.05,5.16l5.33-5.16H1028.45z M1036.45,262.24L1036.45,262.24l7.29,6.05
		l-0.72-12.63L1036.45,262.24z M1042.14,269.89L1042.14,269.89l-7.11-6.04l-6.23,6.04H1042.14z M1033.07,262.24L1033.07,262.24
		l-6.22-5.33l0.18,2.31v1.42l0.18,7.47L1033.07,262.24z M1029.51,273.27L1029.51,273.27l6.93,5.51l4.98-5.51H1029.51z
		 M1038.41,280.2L1038.41,280.2l6.4,5.51l-0.9-11.56L1038.41,280.2z M1043.91,287.84L1043.91,287.84l-7.29-5.87l-5.68,5.87H1043.91z
		 M1034.67,280.38L1034.67,280.38l-7.11-5.87c0.18,4.45,0.53,8.71,0.71,12.8L1034.67,280.38z M1030.05,291.4L1030.05,291.4
		l6.76,5.15l5.16-5.15H1030.05z M1038.76,298.16L1038.76,298.16l7.82,6.23c-0.53-4.45-0.89-8.54-1.06-12.98h-0.18L1038.76,298.16z
		 M1044.63,305.8L1044.63,305.8l-7.65-6.05l-5.51,6.05H1044.63z M1035.2,298.34L1035.2,298.34l-6.58-5.34
		c0.18,3.91,0.53,7.82,0.71,11.56L1035.2,298.34z M1033.07,309.18L1033.07,309.18l5.87,4.8l4.44-4.8H1033.07z M1040.89,315.58
		L1040.89,315.58l7.11,5.69c-0.35-4.09-0.89-8-1.06-12.09h-0.18L1040.89,315.58z M1047.65,323.94L1047.65,323.94l-8.53-6.76
		l-6.22,6.76H1047.65z M1037.33,315.75L1037.33,315.75l-7.64-6.4c0.18,4.62,0.71,9.07,1.07,13.33L1037.33,315.75z M1032.72,327.32
		L1032.72,327.32l7.47,6.05l5.87-6.05H1032.72z M1042.14,334.78L1042.14,334.78l7.82,6.4c-0.53-4.26-0.89-8.71-1.42-12.98
		L1042.14,334.78z M1046.05,341.18L1046.05,341.18l-5.33-4.62l-4.45,4.62H1046.05z M1038.76,335.14L1038.76,335.14l-7.29-5.87
		c0.35,4.09,0.71,8.18,1.42,11.91L1038.76,335.14z M1033.96,344.57L1033.96,344.57l8.71,7.11l6.58-7.11H1033.96z M1044.63,353.09
		L1044.63,353.09l7.29,5.87c-0.35-3.91-1.07-8-1.43-12.09L1044.63,353.09z M1051.92,361.98L1051.92,361.98l-8.89-7.11l-6.58,6.93
		l0.18,0.18H1051.92z M1041.07,353.27L1041.07,353.27l-7.29-6.05c0.53,4.45,1.24,8.35,1.95,11.73L1041.07,353.27z M982.4,411.94
		L982.4,411.94h19.92l-8.36-7.11L982.4,411.94z M1002.66,395.94L1002.66,395.94l-8.71,5.51l-6.23-5.51H1002.66z M996.09,403.41
		L996.09,403.41l11.56-7.47h1.6l-2.13,16h-0.71L996.09,403.41z M1051.74,404.12L1051.74,404.12l-8.36,7.82h21.87L1051.74,404.12z
		 M1042.67,395.94L1042.67,395.94l8.9,5.16l5.51-5.16H1042.67z M1049.42,402.87L1049.42,402.87l-12.44-6.93l2.67,16L1049.42,402.87z
		 M972.8,440.03L972.8,440.03h27.56l-11.03-10.85L972.8,440.03z M1003.73,415.32L1003.73,415.32l-14.4,9.43l-9.42-9.43H1003.73z
		 M992.18,427.41L992.18,427.41l13.87-8.89l-3.2,19.73L992.18,427.41z M1057.61,428.83L1057.61,428.83l-11.2,11.2h29.51
		L1057.61,428.83z M1043.02,415.32L1043.02,415.32l14.59,9.07l9.06-9.07H1043.02z M1054.94,427.05L1054.94,427.05l-14.58-9.06
		l3.02,19.02l0.18,1.42L1054.94,427.05z M1064.01,458.17L1064.01,458.17l-11.74,11.56h30.76L1064.01,458.17z M1046.94,443.41
		L1046.94,443.41l16.89,10.13l10.49-10.13H1046.94z M1060.81,456.57L1060.81,456.57l-15.82-9.6l3.38,21.51L1060.81,456.57z
		 M962.31,469.73L962.31,469.73h31.11l-12.09-11.56L962.31,469.73z M998.41,443.41L998.41,443.41l-16.72,10.13l-10.66-10.13H998.41z
		 M984.54,456.57L984.54,456.57l17.06-10.14l-3.55,22.94L984.54,456.57z M1054.94,503.69L1054.94,503.69v5.51
		c1.24,0.53,2.5,1.07,3.56,1.42L1054.94,503.69z M1053.52,508.66L1053.52,508.66v-7.82l-2.31-4.44v11.38L1053.52,508.66z
		 M1049.6,507.42L1049.6,507.42v-13.87l-1.42-2.84h-0.89v15.82L1049.6,507.42z M1045.7,505.99L1045.7,505.99v-15.29h-2.14v14.76
		L1045.7,505.99z M1041.96,505.28L1041.96,505.28v-14.58h-2.31v13.87L1041.96,505.28z M1038.05,504.4L1038.05,504.4v-13.69h-2.32
		v13.34L1038.05,504.4z M1034.32,503.69L1034.32,503.69v-12.98H1032v12.62L1034.32,503.69z M1030.59,503.15L1030.59,503.15v-12.44
		h-2.32v12.27L1030.59,503.15z M1026.85,502.98L1026.85,502.98v-12.27h-2.31v12.09L1026.85,502.98z M1022.94,502.8L1022.94,502.8
		v-12.09h-2.31v12.09H1022.94z M1019.03,502.8L1019.03,502.8v-12.09h-2.14v12.09H1019.03z M1015.29,502.8L1015.29,502.8v-12.09
		h-2.31v12.27L1015.29,502.8z M1011.38,503.15L1011.38,503.15v-12.44h-2.32v12.62L1011.38,503.15z M1007.65,503.51L1007.65,503.51
		v-12.8h-2.31v12.98L1007.65,503.51z M1003.92,504.22L1003.92,504.22v-13.51h-2.32v13.87L1003.92,504.22z M1000.18,504.76
		L1000.18,504.76v-14.05h-2.31v14.76L1000.18,504.76z M996.27,505.82L996.27,505.82v-15.11h-1.6l-0.71,1.24v14.58L996.27,505.82z
		 M992.36,506.89L992.36,506.89v-11.92l-2.14,4.45v8.18L992.36,506.89z M1107.39,589.38L1107.39,589.38l9.24-11.73l-19.91-8.89
		L1107.39,589.38z M1120.01,573.74L1120.01,573.74l9.06-11.2h-33.96L1120.01,573.74z M1132.46,565.91L1132.46,565.91l-7.82,9.96
		l16.88,7.29L1132.46,565.91z M1121.25,579.78L1121.25,579.78l-10.84,13.69h36.27l-1.6-3.2L1121.25,579.78z M1090.68,557.2
		L1090.68,557.2l10.31-7.28l-17.06-6.05L1090.68,557.2z M1105.08,547.24L1105.08,547.24l9.6-6.58h-27.38L1105.08,547.24z
		 M1119.83,541.38L1119.83,541.38l-10.49,7.29l17.43,6.22L1119.83,541.38z M1105.08,551.51L1105.08,551.51l-10.85,7.64h31.82
		L1105.08,551.51z M1083.92,537.29L1083.92,537.29h30.04l-19.73-7.11L1083.92,537.29z M1079.65,535.87L1079.65,535.87l10.31-7.12
		l-17.24-6.22L1079.65,535.87z M1094.23,525.73L1094.23,525.73l10.14-6.93h-29.52L1094.23,525.73z M1108.63,520.22L1108.63,520.22
		l-10.13,7.11l17.06,6.23L1108.63,520.22z M1069.16,515.6L1069.16,515.6h37.16l-3.38-6.58h-37.15L1069.16,515.6z M935.11,589.74
		L935.11,589.74l-9.42-12.09l20.45-8.89L935.11,589.74z M922.3,573.74L922.3,573.74l-8.89-11.2h33.96L922.3,573.74z M910.21,566.09
		L910.21,566.09l7.47,9.78l-16.18,7.11L910.21,566.09z M921.06,579.78L921.06,579.78l11.02,13.69h-35.92l1.6-3.37L921.06,579.78z
		 M949.33,562.54L949.33,562.54l2.67-5.16l-10.49-7.46l17.43-6.23L952,557.38L949.33,562.54z M937.24,547.24L937.24,547.24
		l-9.42-6.58h27.38L937.24,547.24z M923.02,541.55L923.02,541.55l10.14,7.11l-17.07,6.22L923.02,541.55z M937.24,551.51
		L937.24,551.51l11.02,7.64h-32L937.24,551.51z M958.58,537.29L958.58,537.29h-30.05l19.74-7.11L958.58,537.29z M1101.16,505.64
		L1101.16,505.64h-37.16l-7.65-14.93h37.16L1101.16,505.64z M962.84,536.05L962.84,536.05l-10.48-7.3l17.78-6.22L962.84,536.05z
		 M948.26,525.73L948.26,525.73l-10.13-6.93h29.33L948.26,525.73z M933.86,520.4L933.86,520.4l10.13,6.93l-16.89,6.05L933.86,520.4z
		 M973.69,515.6L973.69,515.6h-37.34l3.38-6.58h37.34L973.69,515.6z M978.67,505.64L978.67,505.64h-37.16l7.82-14.93h37.16
		L978.67,505.64z M1011.74,405.72L1011.74,405.72h23.29l9.78,64.01h-43.21l4.98-32.72L1011.74,405.72z M1034.32,402.34
		L1034.32,402.34h-22.22l1.06-6.4h20.09L1034.32,402.34z M988.62,508.13L988.62,508.13v-5.87l-3.9,7.47
		C985.96,509.02,987.2,508.66,988.62,508.13L988.62,508.13z M1066.32,525.55L1066.32,525.55l-1.95-3.74
		c-12.98-7.65-27.92-11.91-44.09-11.91c-14.76,0-28.8,3.73-40.89,10.31l-1.78,3.56c12.62-7.11,27.2-11.38,42.67-11.38
		C1037.33,512.4,1052.81,517.2,1066.32,525.55L1066.32,525.55z"/>
	<path class="st0" d="M693.49,454.44v12.62h1.6v2.32h-0.53c45.33,28.63,19.91,37.51,25.24,43.2c-8.71-0.18-17.42-0.18-26.31,0
		h-26.67c3.38-6.22-22.93-14.4,24-43.2h-0.54v-2.32h1.6v-11.91c-0.36,0-0.71,0-1.07,0c-1.96,0-3.73-1.24-4.45-3.2
		c0.89,0.89,1.96,1.24,3.2,1.24c2.67,0,4.98-2.13,4.98-4.8c0-0.54-0.18-1.24-0.35-1.6c1.06,0.89,1.6,2.13,1.6,3.38
		C695.8,451.95,694.91,453.55,693.49,454.44L693.49,454.44z M604.95,523.6c0.53-1.06-3.73-2.32,4.09-7.11
		c7.47,4.8,3.38,6.23,4.27,7.11C610.45,523.6,607.79,523.6,604.95,523.6L604.95,523.6z M604.59,531.78h8.53v-4.63h-8.53V531.78z
		 M606.19,530.71L606.19,530.71h1.6v-2.67h-1.6V530.71z M610.1,530.71L610.1,530.71h1.42v-2.67h-1.42V530.71z M608.15,530.71
		L608.15,530.71h1.42v-2.67h-1.42V530.71z M603.52,526.62h10.85v-0.89h-10.85V526.62z M603.52,525.02h10.85v-0.89h-10.85V525.02z
		 M603.52,533.2h10.85v-0.71h-10.85V533.2z M603.52,534.26h10.85v-0.71h-10.85V534.26z M604.41,534.44h8.89v22.05h-8.89V534.44z
		 M613.3,557.92v19.02h-8.89v-19.02H613.3z M613.3,578.36v11.74h10.49v-54.41l17.6-3.56v57.97h0.71v-67.56h2.31v-0.72h20.62v-6.22
		h55.47v5.16l0,0v1.06h21.33v0.72h1.78v67.56h1.07v-58.86l17.07,4.81v54.05h11.56v-11.74h8.71v11.74h15.82v-19.03h14.23v19.03h18.13
		v4.79H555.7v-4.79h18.67v-19.03h14.4v19.03h15.65v-11.74H613.3z M588.05,481.99c-0.89-1.59,6.05-3.55-6.58-11.19
		c-12.27,7.46-5.51,9.77-6.93,11.19C578.99,481.99,583.61,481.99,588.05,481.99L588.05,481.99z M588.41,495.33h-13.69v-7.47h13.69
		V495.33z M585.92,493.73L585.92,493.73h-2.31v-4.27h2.31V493.73z M579.52,493.73L579.52,493.73h-2.31v-4.27h2.31V493.73z
		 M582.72,493.73L582.72,493.73h-2.31v-4.27h2.31V493.73z M590.54,487.51h-17.78v-1.95h17.78V487.51z M590.54,484.66h-17.78v-1.78
		h17.78V484.66z M590.54,497.64h-17.78v-1.78h17.78V497.64z M590.54,499.42h-17.78v-1.24h17.78V499.42z M830.2,606.09H555.7v-9.59
		H830.2V606.09z M588.77,499.78h-14.4v35.73h14.4V499.78z M798.39,481.99c1.06-1.59-6.05-3.55,6.76-11.19
		c12.26,7.46,5.51,9.77,6.93,11.19C807.45,481.99,803.01,481.99,798.39,481.99L798.39,481.99z M811.9,495.33v-7.47h1.96v-2.31
		h-17.78v2.31h1.96v7.47h-1.96v2.14v0.18v2.13h1.78v35.73h14.23v-35.73h1.78v-2.13v-0.18v-2.14H811.9z M800.7,493.73L800.7,493.73
		h2.31v-4.27h-2.31V493.73z M806.92,493.73L806.92,493.73h2.49v-4.27h-2.49V493.73z M803.89,493.73L803.89,493.73h2.32v-4.27h-2.32
		V493.73z M796.07,485.19h17.78v-2.31h-17.78V485.19z M812.07,537.83v30.75h-14.23v-30.75H812.07z M668.42,590.1h48.89v-64.54
		h-48.89V590.1z M781.67,523.6c-0.53-1.06,3.73-2.32-4.09-7.11c-7.65,4.8-3.38,6.23-4.27,7.11
		C776.16,523.6,778.83,523.6,781.67,523.6L781.67,523.6z M782.03,531.78h-8.53v-4.63h8.53V531.78z M780.25,530.71L780.25,530.71
		h-1.42v-2.67h1.42V530.71z M776.51,530.71L776.51,530.71h-1.42v-2.67h1.42V530.71z M778.29,530.71L778.29,530.71h-1.42v-2.67h1.42
		V530.71z M783.09,526.8h-10.84v-1.07h10.84V526.8z M783.09,525.02h-10.84v-0.89h10.84V525.02z M783.09,533.2h-10.84v-0.89h10.84
		V533.2z M783.09,534.44h-1.06v22.05h-8.71v-22.05h-1.07v-0.89h10.84V534.44z M773.32,557.92v19.02h8.71v-19.02H773.32z
		 M574.37,537.83v30.75h14.4v-30.75H574.37z M636.59,571.6v13.16l-9.06,0.18v-12.27c0-2.31,4.27-6.05,4.44-6.05
		C632.15,566.62,636.59,569.29,636.59,571.6L636.59,571.6z M636.59,549.56v12.98l-9.06,1.07v-12.98c0-2.49,4.27-6.22,4.44-6.22
		C632.15,544.22,636.59,546.89,636.59,549.56L636.59,549.56z M749.84,571.6v13.16l9.07,0.18v-12.27c0-2.31-4.44-6.05-4.62-6.05
		C754.11,566.62,749.84,569.29,749.84,571.6L749.84,571.6z M749.84,549.56v12.98l9.07,1.07v-12.98c0-2.49-4.44-6.22-4.62-6.22
		C754.11,544.22,749.84,546.89,749.84,549.56L749.84,549.56z M723.17,520.75c1.07-1.96-7.47-4.27,8.18-13.69h-0.18h-0.53v-0.71h0.53
		v-3.2c-0.18,0-0.36,0-0.53,0c-0.54,0-1.25-0.53-1.43-1.07c0.18,0.18,0.71,0.36,1.07,0.36c0.89,0,1.6-0.71,1.6-1.42
		c0-0.17,0-0.35-0.18-0.53c0.35,0.18,0.53,0.53,0.53,1.06c0,0.53-0.18,0.89-0.53,1.25v3.55h0.35v0.71h-0.35h-0.36
		c14.93,9.07,7.11,11.92,8.53,13.69H723.17z M697.4,552.4v10.14h10.31v-10.49c0-6.04-14.05-14.22-14.76-14.22
		c-0.71,0-14.76,8.18-14.76,14.22v10.49h10.14V552.4c0-1.78,4.27-4.27,4.62-4.27C693.13,548.13,697.4,550.62,697.4,552.4
		L697.4,552.4z M697.4,574.98v9.96h-9.07v-9.96c0-1.96,4.27-4.44,4.62-4.44C693.13,570.54,697.4,573.02,697.4,574.98L697.4,574.98z
		 M707.71,566.09H678.2v18.84h-4.27v-54.05l0,0h37.87v54.05h-4.09V566.09z M650.46,554.71h3.56v6.76h-3.56V554.71z M650.46,578.18
		h3.56v6.76h-3.56V578.18z M732.07,578.18h3.56v6.76h-3.56V578.18z M732.07,554.71h3.56v6.76h-3.56V554.71z M647.26,526.09
		L647.26,526.09h3.2v4.81h-3.2V526.09z M736.16,526.09L736.16,526.09h3.38v4.81h-3.38V526.09z M730.82,526.09L730.82,526.09h3.2
		v4.81h-3.2V526.09z M725.31,526.09L725.31,526.09h3.2v4.81h-3.2V526.09z M658.28,526.09L658.28,526.09h3.2v4.81h-3.2V526.09z
		 M652.77,526.09L652.77,526.09h3.2v4.81h-3.2V526.09z M727.27,565.56h4.97c-1.06,0.54-2.13,1.42-2.67,1.77
		c-1.07,0.89-2.49,2.5-2.49,4.09v14.22h13.69v-14.22c0-1.6-1.6-3.2-2.67-4.09c-0.35-0.35-1.6-1.24-2.67-1.77h5.34v-1.42h-13.51
		V565.56z M645.48,541.38h6.05c-1.07,0.54-3.02,2.14-3.56,2.49c-1.07,0.89-2.67,2.49-2.67,4.09v14.22H659v-14.22
		c0-1.6-1.6-3.2-2.67-4.09c-0.53-0.53-2.31-1.96-3.56-2.49H659v-1.42h-13.51V541.38z M645.48,565.56h5.16
		c-1.07,0.54-2.31,1.42-2.67,1.77c-1.07,0.89-2.67,2.5-2.67,4.09v14.22H659v-14.22c0-1.6-1.42-3.2-2.67-4.09
		c-0.36-0.35-1.42-1.24-2.49-1.77H659v-1.42h-13.51V565.56z M726.91,541.38h6.4c-1.25,0.54-3.2,1.96-3.56,2.49
		c-1.24,0.89-2.66,2.49-2.66,4.09v14.22h13.69v-14.22c0-1.6-1.6-3.2-2.67-4.09c-0.53-0.36-2.49-1.96-3.55-2.49h5.69v-1.42h-13.33
		V541.38z M655.08,500.49c0.36,0.18,0.53,0.53,0.53,1.06c0,0.53-0.18,0.89-0.53,1.25v3.55h0.53v0.71h-0.53h-0.35h-0.18h-0.53v-0.71
		h0.53v-3.2c-0.18,0-0.36,0-0.53,0c-0.54,0-1.07-0.53-1.43-1.07c0.36,0.18,0.71,0.36,1.07,0.36c0.89,0,1.6-0.71,1.6-1.42
		C655.26,500.84,655.26,500.66,655.08,500.49L655.08,500.49z M654.73,507.06c14.93,9.07,7.29,11.92,8.53,13.69h-16.71
		C647.79,518.8,639.08,516.49,654.73,507.06L654.73,507.06z"/>
	<path class="st0" d="M890.3,328.03h-3.19v-13.87v-8.89l-0.36,0.35l-0.53-0.35v7.29l-0.71-0.89l-0.71,1.25l-0.71,1.24l-0.89-1.24
		l-0.71-1.25l-0.89,1.25l-0.71,1.24l-0.89-1.24l-0.71-1.25l-0.89,1.25l-0.71,1.24l-0.71-1.24l-0.89-1.25l-0.71,1.25l-0.89,1.24
		l-0.71-1.24l-0.89-1.25l-0.71,1.25l-0.71,1.24l-0.89-1.24l-0.71-1.25l-0.89,1.25l-0.71,1.24l-0.89-1.24l-0.71-1.25l-0.89,1.25
		l-0.71,1.24l-0.72-1.24l-0.89-1.25l-0.71,1.25l-0.89,1.24l-0.71-1.24l-0.89-1.25l-0.71,1.25l-0.71,1.24l-0.89-1.24l-0.71-1.25
		l-0.89,1.25l-0.71,1.24l-0.89-1.24l-0.71-1.25l-0.89,1.25l-0.71,1.24l-0.71-1.24l-0.89-1.25l-0.71,1.25l-0.89,1.24l-0.71-1.24
		l-0.89-1.25l-0.71,1.25l-0.71,1.24l-0.89-1.24l-0.71-1.25l-0.89,1.25l-0.71,1.24l-0.89-1.24l-0.71-1.25l-0.89,1.25l-0.71,1.24
		l-0.71-1.24l-0.89-1.25l-0.72,1.25l-0.89,1.24l-0.71-1.24l-0.89-1.25l-0.71,1.25l-0.71,1.24l-0.89-1.24l-0.71-1.25l-0.72,1.07
		v-7.46l-0.53,0.35l-0.54-0.35v8.89v13.87h-3.02v-8.89l-0.35,0.53l-0.53-0.53v8.89v64.89h64.89v-64.89v-8.89l-0.53,0.53l-0.36-0.53
		V328.03z M892.26,606.09h-68.81v-41.06h68.81V606.09z M885.5,561.82v-38.4h-2.85v38.4h-2.14v-38.4h-3.02v38.4h-2.13v-38.4h-2.84
		v38.4h-2.31v-38.4h-2.85v38.4h-2.31v-38.4h-2.85v38.4h-2.31v-38.4h-2.85v38.4h-2.31v-38.4h-2.84v38.4h-2.14v-38.4h-3.02v38.4h-2.13
		v-38.4h-2.85v38.4h-2.31v-38.4h-2.85v38.4h-2.31v-38.4h-2.84v38.4h-2.31v-79.48h58.67v79.48H885.5z M882.66,521.28h2.85v-37.16
		h-2.85V521.28z M831.45,521.28h2.84v-37.16h-2.84V521.28z M836.61,521.28h2.85v-37.16h-2.85V521.28z M841.77,521.28h2.85v-37.16
		h-2.85V521.28z M846.74,521.28h3.02v-37.16h-3.02V521.28z M851.9,521.28h2.84v-37.16h-2.84V521.28z M857.05,521.28h2.85v-37.16
		h-2.85V521.28z M862.21,521.28h2.85v-37.16h-2.85V521.28z M867.37,521.28h2.85v-37.16h-2.85V521.28z M872.52,521.28h2.84v-37.16
		h-2.84V521.28z M877.5,521.28h3.02v-37.16h-3.02V521.28z M832.88,303.32l-2.14-1.78l-1.95,1.78l1.95,2.13L832.88,303.32z
		 M888.7,303.32l-1.95-1.78l-1.96,1.78l1.96,2.13L888.7,303.32z M892.62,317.18l-1.96-1.78l-1.77,1.78l1.77,2.13L892.62,317.18z
		 M828.61,317.18l-1.77-1.78l-1.96,1.78l1.96,2.13L828.61,317.18z M830.2,301.71v-1.24h1.07v1.24l-0.53-0.53L830.2,301.71z
		 M886.21,301.71v-1.24h0.89v1.24l-0.36-0.53L886.21,301.71z M826.3,315.58v-1.42h0.89v1.24l-0.35-0.36L826.3,315.58z M890.3,315.4
		v-1.24h0.89v1.42l-0.53-0.53L890.3,315.4z M844.79,291.4l-8.54,21.15l0.18,0.18l0.18,0.36l1.6-2.31l1.24,1.96l0.36,0.36l0.36-0.36
		l1.24-1.96l1.6,2.49l0.35-0.53l1.25-2.13l1.06,2.13l0.53,0.53l1.42-2.49l1.42,1.96l0.18,0.36l0.35-0.36l1.24-1.96l1.25,1.96
		l0.35,0.36l0.36-0.36l1.24-1.96l1.24,1.96l0.36,0.53l0.35-0.53l1.24-2.13l1.07,2.13l0.53,0.53l0.18-0.53l1.24-1.96l1.42,1.96
		l0.18,0.36l1.6-2.31l1.25,1.96l0.36,0.36l0.35-0.36l1.24-1.96l1.6,2.49l0.35-0.53l1.24-2.13l1.24,2.13l0.36,0.53l1.42-2.49
		l1.42,1.96l0.18,0.36l1.6-2.31l1.24,1.96l0.36,0.36l0.36-0.36l1.24-1.96l1.6,2.31l0.18-0.36l0.18-0.18l-8.53-21.15H844.79z
		 M847.63,305.8l-1.77-3.03l-0.53-0.71l-2.32,3.73l0.71,0.36l1.6-2.66l1.42,2.66L847.63,305.8z M860.97,298.69l-1.78-3.2l-0.36-0.71
		l-2.32,3.91l0.71,0.36l1.61-2.67l1.42,2.67L860.97,298.69z M869.85,298.69l-1.95-3.2l-0.36-0.71l-2.31,3.91l0.71,0.36l1.6-2.67
		l1.42,2.67L869.85,298.69z M874.3,305.8l-1.96-3.03l-0.35-0.71l-2.14,3.73l0.53,0.36l1.61-2.66l1.59,2.66L874.3,305.8z
		 M865.24,305.8l-1.6-3.03l-0.53-0.71l-2.31,3.73l0.71,0.36l1.6-2.66l1.6,2.66L865.24,305.8z M856.34,305.8l-1.6-3.03l-0.53-0.71
		l-2.31,3.73l0.71,0.36l1.6-2.66l1.42,2.66L856.34,305.8z M852.97,298.69l-1.61-3.2l-0.53-0.71l-2.31,3.91l0.71,0.36l1.6-2.67
		l1.43,2.67L852.97,298.69z M839.28,317.36h-6.4v8.71h6.4V317.36z M883.72,317.36h-6.22v8.71h6.22V317.36z M875.01,317.36h-6.58
		v8.71h6.58V317.36z M866.13,317.36h-6.58v8.71h6.58V317.36z M857.23,317.36h-6.58v8.71h6.58V317.36z M848.17,317.36h-6.4v8.71h6.4
		V317.36z M861.32,237.53h-5.15v-3.73h5.15V237.53z M844.61,266.16l-1.96-1.96l-1.96,1.96l1.96,1.95L844.61,266.16z M876.79,266.16
		l-1.95-1.96l-1.96,1.96l1.96,1.95L876.79,266.16z M873.77,273.8l-0.71,1.42l-0.71,1.42h-0.17l-0.54-1.42l-0.89-1.42l-0.89,1.42
		l-0.53,1.42l0,0l-0.71-1.42l-0.89-1.42l-0.71,1.42l-0.71,1.42l0,0l-0.71-1.42l-0.71-1.42l-0.9,1.42l-0.71,1.42l0,0l-0.71-1.42
		l-0.71-1.42l-0.89,1.42l-0.54,1.42h-0.18l-0.71-1.42l-0.71-1.42l-0.89,1.42l-0.53,1.42h-0.18l-0.71-1.42l-0.71-1.42l-0.89,1.42
		l-0.54,1.42h-0.17l-0.71-1.42l-0.71-1.42l-0.89,1.42l-0.54,1.42h-0.17l-0.72-1.42l-0.89-1.42l-0.71,1.42l-0.71,1.42l0,0l-0.53-1.42
		l-0.89-1.42l-0.89,1.42l-0.53,1.42h-0.18l-0.53-1.42l-0.89-1.42l-0.53,0.89v-6.22l-0.53,0.36l-0.53-0.36v8.18l0,0v13.69h33.25
		v-13.69l0,0v-8.18l-0.53,0.36l-0.53-0.36v6.22L873.77,273.8z M858.83,231.66c0,0.53-0.18,1.07-0.18,1.6h0.18
		C858.83,232.73,858.83,232.2,858.83,231.66L858.83,231.66z M858.13,238.07c-1.96,12.27-7.65,23.11-11.56,34.67v-0.18l1.42,2.49
		l0.18,0.35l1.42-2.84l1.42,2.49l0.19,0.35l0.17-0.35l1.43-2.49l1.42,2.84l0.17-0.35l1.42-2.49l1.42,2.84l0.18-0.35l1.43-2.49
		l1.24,2.49l0.18,0.35l0.18-0.35l1.42-2.49l1.42,2.84l0.18-0.35l1.43-2.49l1.42,2.84l0.18-0.35l1.42-2.49l1.07,2.49l0.35,0.35
		l0.18-0.35l1.25-2.49c0.35-0.53-10.84-29.51-11.55-34.49H858.13z M860.97,254.77l-1.78-2.84l-0.36-0.89l-2.32,3.73l0.71,0.53
		l1.61-2.66l1.42,2.66L860.97,254.77z M854.21,270.07l-1.6-3.2l-0.53-0.71l-2.32,3.91l0.71,0.36l1.61-2.85l1.42,2.85L854.21,270.07z
		 M860.97,270.07l-1.78-3.2l-0.36-0.71l-2.32,3.91l0.71,0.36l1.61-2.85l1.42,2.85L860.97,270.07z M867.72,270.07l-1.78-3.2
		l-0.53-0.71l-2.32,3.91l0.89,0.36l1.43-2.85l1.6,2.85L867.72,270.07z M857.05,262.77l-1.78-3.2l-0.53-0.71l-2.13,3.91l0.71,0.36
		l1.42-2.84l1.6,2.84L857.05,262.77z M864.88,262.77l-1.78-3.2l-0.36-0.71l-2.31,3.91l0.54,0.36l1.77-2.84l1.42,2.84L864.88,262.77z
		 M842.12,264.02v-1.25h1.07v1.25l-0.53-0.53L842.12,264.02z M874.3,264.02v-1.25h1.06v1.25l-0.53-0.53L874.3,264.02z
		 M848.88,279.31h-4.98v8.89h4.98V279.31z M873.59,279.31h-4.98v8.89h4.98V279.31z M867.37,279.31h-4.98v8.89h4.98V279.31z
		 M861.32,279.31h-4.98v8.89h4.98V279.31z M855.1,279.31h-4.98v8.89h4.98V279.31z M883.01,477.91h2.85v-40.54h-2.85V477.91z
		 M831.63,477.91h2.84v-40.54h-2.84V477.91z M836.79,477.91h2.85v-40.54h-2.85V477.91z M841.94,477.91h2.85v-40.54h-2.85V477.91z
		 M847.1,477.91h2.84v-40.54h-2.84V477.91z M852.26,477.91h2.84v-40.54h-2.84V477.91z M857.23,477.91h3.03v-40.54h-3.03V477.91z
		 M862.39,477.91h2.85v-40.54h-2.85V477.91z M867.55,477.91h2.84v-40.54h-2.84V477.91z M872.7,477.91h2.84v-40.54h-2.84V477.91z
		 M877.86,477.91h2.84v-40.54h-2.84V477.91z M883.01,435.23h2.85V397.9h-2.85V435.23z M831.63,435.23h2.84V397.9h-2.84V435.23z
		 M836.79,435.23h2.85V397.9h-2.85V435.23z M841.94,435.23h2.85V397.9h-2.85V435.23z M847.1,435.23h2.84V397.9h-2.84V435.23z
		 M852.26,435.23h2.84V397.9h-2.84V435.23z M857.23,435.23h3.03V397.9h-3.03V435.23z M862.39,435.23h2.85V397.9h-2.85V435.23z
		 M867.55,435.23h2.84V397.9h-2.84V435.23z M872.7,435.23h2.84V397.9h-2.84V435.23z M877.86,435.23h2.84V397.9h-2.84V435.23z
		 M887.99,396.3H829.5v83.2h58.49V396.3z M836.96,387.41h-3.37v3.38h3.37V387.41z M883.72,387.41h-3.37v3.38h3.37V387.41z
		 M879.46,387.41h-3.38v3.38h3.38V387.41z M875.19,387.41h-3.37v3.38h3.37V387.41z M870.92,387.41h-3.38v3.38h3.38V387.41z
		 M866.66,387.41h-3.38v3.38h3.38V387.41z M862.39,387.41h-3.37v3.38h3.37V387.41z M858.13,387.41h-3.38v3.38h3.38V387.41z
		 M853.86,387.41h-3.38v3.38h3.38V387.41z M849.59,387.41h-3.2v3.38h3.2V387.41z M845.5,387.41h-3.38v3.38h3.38V387.41z
		 M841.23,387.41h-3.38v3.38h3.38V387.41z M858.83,362.51c-0.35,0-0.71-0.17-1.06-0.17l-1.25,1.25c-0.18,0.71-0.18,1.24-0.53,1.6
		c-0.18,0.18-0.53,0.18-0.89,0c-0.35-0.53-0.35-0.53-0.89-1.07c-0.36-0.18-0.36-0.53,0-0.89c0.35-0.36,0.89-0.54,1.42-0.54
		l1.42-1.24c-0.35-0.18-0.35-0.71-0.35-1.07c0-0.18,0-0.36,0-0.54l-12.8-13.69c0,0,0-0.18,0-0.35h0.36c0-0.17,0.18-0.17,0.18,0
		l13.51,12.62c0.19-0.18,0.54-0.18,0.89-0.18c0.36,0,0.89,0.18,1.24,0.35l2.13-1.95c-0.18,0-0.35-0.18-0.35-0.36
		c-0.36-0.18-0.36-0.71,0-0.89c0.35-0.36,1.24-0.54,2.13-0.54l0.35-0.35v-0.89h1.25v1.07h-0.71l-0.54,0.54c0,0.89,0,1.78-0.35,2.14
		c-0.35,0.18-0.89,0.18-1.06,0c-0.18-0.18-0.18-0.18-0.18-0.18l-2.13,2.13c0.18,0.35,0.36,0.71,0.36,1.07
		c0,0.35-0.18,0.53-0.18,0.71c0.53,0.89,1.6,1.6,2.66,1.96c0,0,0.18,0,0.18,0.18c0,0.18,0,0.36-0.18,0.36
		c-0.35,0-0.35,0.17-0.35,0.35c-0.18,0-0.18,0.18-0.18,0.36c0,0.18-0.18,0.36-0.18,0.36c-0.36,0-0.53,0-0.53,0.17
		c-0.18,0-0.35,0.18-0.35,0.36h-0.18c-0.18,0.18-0.18,0-0.36,0c-0.35-1.24-1.06-1.95-2.13-2.67
		C859.19,362.51,859.01,362.51,858.83,362.51L858.83,362.51z M858.3,341.89c-0.36,0-0.89,0-1.25,0l-0.18-2.31h-0.18
		c0.53,0,1.07,0,1.6,0V341.89z M855.99,342.07c-0.53,0.18-1.06,0.18-1.6,0.36l-0.53-2.31l0,0c0.53-0.18,1.24-0.36,1.95-0.36l0,0
		L855.99,342.07z M853.5,342.6c-0.36,0.18-0.71,0.36-1.24,0.36l-0.89-2.13c0.54-0.18,1.07-0.35,1.61-0.53l0,0L853.5,342.6z
		 M851.55,343.32c-0.54,0.36-1.07,0.53-1.6,0.71l-1.24-1.96c0.53-0.36,1.24-0.71,1.95-0.89L851.55,343.32z M849.05,344.57
		c-0.35,0.35-0.71,0.53-1.06,0.71l-1.42-1.96c0.53-0.18,0.89-0.54,1.42-0.89L849.05,344.57z M847.28,345.81
		c-0.36,0.35-0.53,0.53-0.89,0.71l0.36,0.35c0.18-0.18,0.53-0.53,0.71-0.71h0.18l0,0l0.18-0.18c0.53-0.35,0.89-0.71,1.42-1.07l0,0
		h0.18l3.74,6.58c-0.35,0.18-0.71,0.35-0.89,0.53l0.35,0.36c1.6-1.42,3.73-2.13,6.22-2.13c2.49,0,4.98,1.07,6.76,2.66h0.71l0,0
		c-0.53-0.53-1.07-1.07-1.78-1.42l3.56-6.58h0.18l0,0c0.71,0.54,1.24,0.89,1.96,1.42l0.18,0.18l0,0c0.36,0.35,0.71,0.71,1.25,1.06
		c0.36,0.54,0.89,1.07,1.42,1.6v0.18l0.18,0.17c0.35,0.54,0.71,0.9,0.89,1.43l-6.4,3.73c-0.36-0.53-0.89-1.24-1.24-1.78v0.89
		c1.42,1.6,2.49,4.09,2.49,6.58c0,2.85-1.24,5.33-3.02,7.29c-1.96,1.78-4.45,3.03-7.11,3.03c-2.85,0-5.33-1.25-7.29-3.03
		c-1.96-1.96-3.03-4.44-3.03-7.29c0-2.31,0.71-4.45,2.13-6.05l-0.36-0.35c-0.17,0.18-0.35,0.53-0.53,0.71l-6.41-3.73
		c0.36-0.71,0.89-1.43,1.43-1.96v-0.18l0,0c0.18,0,0.18-0.18,0.36-0.35l-0.36-0.36c-0.18,0.18-0.18,0.36-0.36,0.53l-1.96-1.6
		c0.36-0.18,0.53-0.36,0.71-0.71v-0.18c0,0,0-0.18,0-0.35v-0.35l0.53-0.18c0.18-0.36,0.53-0.36,0.89-0.36
		c0.35-0.35,0.71-0.53,1.24-0.89l0,0L847.28,345.81z M844.25,349h-0.18l-1.6-1.42l0,0l0,0l1.78,1.24V349z M843.9,349.36
		c-0.35,0.36-0.71,0.89-0.89,1.42l-1.06-0.71l-1.07-0.54l0,0c0.35-0.53,0.71-1.24,1.07-1.6h0.18L843.9,349.36z M842.47,351.5
		c-0.18,0.35-0.35,0.71-0.53,1.24l-2.31-1.06c0.18-0.35,0.53-0.89,0.71-1.24l0,0L842.47,351.5z M841.41,353.63
		c-0.18,0.54-0.35,1.07-0.53,1.6l-2.13-0.71h-0.18c0.18-0.71,0.54-1.24,0.71-1.95l0,0L841.41,353.63z M840.88,355.58L840.88,355.58
		l-2.13-0.53l0,0l0,0L840.88,355.58z M840.7,356.12c-0.18,0.36-0.18,0.71-0.35,1.25l-2.31-0.36c0.18-0.53,0.18-1.07,0.35-1.6v0.17
		L840.7,356.12z M840.34,357.72L840.34,357.72l-2.13-0.18l0,0v-0.18L840.34,357.72z M840.34,358.25c-0.18,0.53-0.18,1.06-0.18,1.59
		h-2.31c0-0.71,0-1.24,0.18-1.95L840.34,358.25z M840.17,360.92c0,0.35,0,0.89,0.18,1.24l-2.49,0.18l0,0c0-0.54,0-0.89,0-1.42
		H840.17z M840.34,363.05c0.18,0.54,0.18,1.25,0.35,1.78l-2.31,0.53l0,0c-0.18-0.71-0.35-1.24-0.35-1.95l0,0L840.34,363.05z
		 M840.88,365.19L840.88,365.19L840.88,365.19l-2.13,0.53l0,0L840.88,365.19z M840.88,365.72c0.18,0.36,0.35,0.72,0.53,1.07
		l-2.31,0.89v0.18c-0.18-0.53-0.36-1.07-0.54-1.6h0.18L840.88,365.72z M841.59,367.32L841.59,367.32L841.59,367.32l-1.96,0.89l0,0
		v-0.18L841.59,367.32z M841.77,367.67c0.18,0.53,0.35,1.07,0.71,1.6l-2.13,1.25l0,0c-0.35-0.54-0.53-1.25-0.89-1.78l0.18-0.18
		L841.77,367.67z M843.01,370.17c0.18,0.36,0.35,0.71,0.71,0.89l-2.13,1.42l0,0c-0.18-0.36-0.53-0.71-0.71-1.24l0,0L843.01,370.17z
		 M844.25,371.76c0.36,0.53,0.72,0.89,1.07,1.42l-1.6,1.77h-0.18c-0.35-0.53-0.89-1.07-1.24-1.6l0,0L844.25,371.76z M846.04,373.89
		c0.35,0.18,0.53,0.54,0.89,0.71l-1.42,1.96h-0.18c-0.36-0.36-0.71-0.72-1.07-1.07l0,0L846.04,373.89z M847.63,375.32
		c0.53,0.35,0.89,0.53,1.42,0.89l-1.06,2.14h-0.18c-0.53-0.36-1.07-0.71-1.6-1.24l0,0L847.63,375.32z M849.94,376.75
		c0.35,0.17,0.71,0.35,1.06,0.53l-0.89,2.13c-0.53-0.18-1.07-0.36-1.42-0.71l0,0L849.94,376.75z M851.9,377.63
		c0.53,0.17,1.07,0.35,1.6,0.53l-0.53,2.31l0,0c-0.71-0.18-1.42-0.36-1.96-0.53L851.9,377.63z M853.86,378.34L853.86,378.34
		L853.86,378.34l-0.36,1.95l0,0h-0.18L853.86,378.34z M854.39,378.52c0.36,0,0.89,0.18,1.25,0.18l-0.36,2.31l0,0
		c-0.53,0-1.06-0.18-1.42-0.18l0,0L854.39,378.52z M855.99,378.88h0.18l-0.36,1.95l0,0L855.99,378.88z M856.52,378.88
		c0.53,0,1.25,0.18,1.78,0.18v2.31c-0.72,0-1.42,0-2.14-0.18l0,0L856.52,378.88z M859.19,379.05c0.35,0,0.89,0,1.24-0.18l0.36,2.31
		v0.18c-0.53,0-1.06,0-1.6,0V379.05z M861.5,378.88c0.53-0.17,1.07-0.17,1.6-0.35l0.53,2.31l0,0c-0.53,0.18-1.25,0.18-1.95,0.36l0,0
		L861.5,378.88z M863.63,378.34L863.63,378.34l0.53,1.95l0,0h-0.18L863.63,378.34L863.63,378.34z M863.99,378.16
		c0.35,0,0.72-0.18,1.25-0.36l0.89,2.14v0.18c-0.54,0.18-0.89,0.36-1.42,0.36l0,0L863.99,378.16z M865.59,377.63h0.18l0.71,1.96l0,0
		L865.59,377.63z M866.13,377.46c0.53-0.18,1.06-0.54,1.42-0.71l1.24,1.95v0.17c-0.53,0.18-1.24,0.53-1.78,0.89v-0.17L866.13,377.46
		z M868.43,376.21c0.36-0.18,0.71-0.36,1.07-0.71l1.42,1.96c-0.36,0.35-0.89,0.53-1.24,0.89l0,0L868.43,376.21z M869.85,375.32
		L869.85,375.32L869.85,375.32l1.24,1.6l0,0L869.85,375.32z M870.21,374.96c0.53-0.36,0.89-0.71,1.25-1.07l1.78,1.6l0,0
		c-0.53,0.53-1.06,1.07-1.6,1.42l0,0L870.21,374.96z M872.17,373.19c0.35-0.36,0.53-0.71,0.71-0.89l1.96,1.42
		c-0.18,0.36-0.53,0.71-0.89,1.06L872.17,373.19z M873.59,371.41c0.36-0.36,0.71-0.89,0.89-1.42l2.13,1.24
		c-0.35,0.71-0.71,1.24-1.07,1.78h-0.18L873.59,371.41z M875.01,369.27c0.18-0.36,0.35-0.72,0.53-1.07l2.32,0.89
		c-0.36,0.53-0.54,0.89-0.71,1.43h-0.18L875.01,369.27z M875.9,367.32c0.18-0.54,0.53-1.07,0.53-1.6l2.32,0.54h0.18
		c-0.36,0.71-0.53,1.42-0.71,1.95L875.9,367.32z M876.79,364.83c0-0.35,0.18-0.89,0.18-1.24l2.49,0.35
		c-0.18,0.36-0.18,0.89-0.35,1.42l0,0L876.79,364.83z M877.14,363.05L877.14,363.05l2.14,0.36l0,0h-0.18L877.14,363.05z
		 M877.14,362.51c0.18-0.53,0.18-1.06,0.18-1.59h2.32c0,0.71,0,1.24-0.18,1.95L877.14,362.51z M877.32,359.85
		c0-0.35,0-0.71-0.18-1.07l2.49-0.35l0,0c0,0.35,0,0.89,0,1.42H877.32z M877.14,358.25L877.14,358.25v-0.18l2.14-0.18l0,0v0.18
		L877.14,358.25z M877.14,357.72c-0.18-0.54-0.18-1.07-0.36-1.61l2.32-0.54v-0.17c0.18,0.71,0.35,1.42,0.35,2.14l0,0L877.14,357.72z
		 M876.61,355.23c-0.18-0.54-0.35-0.89-0.53-1.24l2.32-0.89l0,0c0.18,0.53,0.36,0.89,0.36,1.42l0,0L876.61,355.23z M875.9,353.45
		L875.9,353.45l1.96-0.89l0,0v0.17L875.9,353.45z M875.72,353.09c-0.18-0.53-0.36-1.06-0.71-1.6l1.96-1.07h0.18
		c0.35,0.53,0.53,1.24,0.89,1.78L875.72,353.09z M874.48,350.78c-0.18-0.35-0.36-0.71-0.53-1.06l1.78-1.43
		c0.35,0.35,0.71,0.89,0.89,1.24L874.48,350.78z M873.24,348.82c-0.36-0.35-0.71-0.71-1.06-1.24l1.77-1.6
		c0.36,0.54,0.89,1.07,1.24,1.42v0.17L873.24,348.82z M871.46,347.05c-0.18-0.36-0.54-0.71-0.89-0.89l1.43-1.95
		c0.35,0.36,0.89,0.71,1.24,1.06L871.46,347.05z M870.21,345.81L870.21,345.81l1.42-1.6l0,0l-1.25,1.6H870.21z M869.85,345.63
		c-0.53-0.36-0.89-0.72-1.42-1.07l1.24-1.96c0.53,0.36,1.07,0.72,1.6,1.08L869.85,345.63z M867.55,344.21
		c-0.36-0.36-0.71-0.53-1.07-0.71l0.89-2.14l0,0c0.54,0.17,0.89,0.35,1.42,0.71L867.55,344.21z M865.59,343.14
		c-0.53-0.18-1.07-0.36-1.6-0.54l0.72-2.31l0,0c0.53,0.18,1.24,0.53,1.78,0.71l0,0L865.59,343.14z M863.1,342.43
		c-0.36-0.18-0.89-0.18-1.24-0.36l0.35-2.31c0.53,0.18,1.06,0.18,1.42,0.36l0,0L863.1,342.43z M861.5,342.07h-0.18l0,0l0.36-2.13
		l0,0L861.5,342.07z M860.97,342.07c-0.54-0.18-1.24-0.18-1.78-0.18v-2.31c0.71,0,1.42,0,2.13,0L860.97,342.07z M850.12,344.57
		c0.53-0.36,0.89-0.54,1.43-0.89h0.18l0.53-0.18l0,0c0.53-0.18,0.89-0.36,1.42-0.54h0.18l0.36-0.18h0.35
		c0.53-0.18,1.07-0.18,1.6-0.35l0,0h0.18h0.54h0.18v-0.18c0.35,0,0.89,0,1.25,0v7.47c-1.6,0.17-3.2,0.53-4.45,1.24L850.12,344.57z
		 M859.19,342.25c0.53,0,1.06,0,1.6,0.18l0,0h0.18h0.53h0.18c0.53,0.17,0.89,0.17,1.24,0.35l0,0h0.18l0.53,0.18h0.18
		c0.53,0.18,1.07,0.36,1.6,0.54v0.18h0.18c0.18,0,0.36,0.17,0.54,0.17l0,0l0.18,0.18l0,0c0.36,0,0.71,0.36,1.06,0.54l-3.73,6.4
		c-1.42-0.71-2.84-1.07-4.44-1.24V342.25z M874.66,351.85c0.36,0.54,0.53,1.07,0.71,1.6l0,0l0.18,0.17c0,0.18,0,0.36,0.18,0.36v0.18
		l0,0c0.18,0.53,0.35,1.24,0.53,1.95l0,0l0,0c0.35,1.25,0.53,2.49,0.53,3.91h-7.47c0-1.6-0.53-3.2-1.06-4.45L874.66,351.85z
		 M876.79,360.92c0,0.53,0,1.06-0.18,1.59l0,0l0,0c0,0.72-0.18,1.43-0.35,2.14l0,0l0,0c-0.36,1.6-0.89,3.02-1.6,4.44l-6.58-3.73
		c0.71-1.42,1.07-2.85,1.24-4.45H876.79z M874.12,369.81c-0.18,0.54-0.53,1.07-0.89,1.6l-0.36,0.35l-0.18,0.18l0,0
		c-0.35,0.36-0.53,0.71-0.71,0.89l-0.36,0.18l-0.18,0.36l0,0l-0.36,0.18h0.18c-0.54,0.35-0.89,0.71-1.25,1.06h-0.18v0.18l-0.18,0.18
		c-0.53,0.36-0.89,0.54-1.42,0.89l-3.74-6.58c0.54-0.36,1.25-0.89,1.78-1.42c0.53-0.53,1.06-1.07,1.42-1.78L874.12,369.81
		L874.12,369.81L874.12,369.81z M867.37,376.39c-0.35,0.18-0.89,0.53-1.42,0.71v-0.18l-0.36,0.18l-0.18,0.18l-0.35,0.18l0,0l0,0
		c-0.36,0-0.72,0.18-1.07,0.35l0,0h-0.17c-0.18,0-0.54,0.18-0.71,0.18h-0.18l0,0c-0.71,0.18-1.24,0.36-1.95,0.36h-0.36l0,0
		c-0.53,0.18-0.89,0.18-1.42,0.18v-7.47c1.6-0.18,3.02-0.53,4.44-1.24L867.37,376.39z M858.3,378.52c-0.53,0-1.07,0-1.6-0.18l0,0
		l0,0c-0.18,0-0.36,0-0.53,0h-0.18h-0.18c-0.53-0.18-0.89-0.18-1.24-0.36l0,0l0,0c-0.89-0.18-1.77-0.53-2.66-0.89h-0.18l0,0
		c-0.53-0.18-1.07-0.53-1.6-0.71l3.74-6.58c1.42,0.71,2.84,1.07,4.45,1.24V378.52z M849.23,375.85c-0.36-0.18-0.89-0.53-1.42-0.89
		h0.18l-0.18-0.18l-0.53-0.18v-0.17h-0.18l0,0c-0.18-0.36-0.53-0.54-0.89-0.89h0.18l-0.18-0.18l-0.35-0.36l-0.36-0.18
		c-0.35-0.35-0.71-0.71-1.07-1.24h0.18h-0.18l-0.35-0.54l-0.18-0.18c-0.18-0.35-0.35-0.71-0.53-1.07l0,0l0,0h-0.17l6.58-3.73
		c0.53,0.71,0.89,1.24,1.6,1.78c0.54,0.53,1.07,1.06,1.78,1.6L849.23,375.85L849.23,375.85L849.23,375.85z M842.83,369.09
		c-0.36-0.54-0.54-1.07-0.71-1.78l0,0h-0.18c-0.18-0.54-0.36-1.24-0.54-1.78l0,0l0,0c-0.18-0.36-0.18-0.53-0.18-0.89l0,0l0,0
		c-0.35-1.24-0.53-2.49-0.53-3.74h7.47c0,1.59,0.53,3.02,1.24,4.45L842.83,369.09z M840.7,360.03c0-0.53,0-1.24,0.18-1.77l0,0l0,0
		c0-0.36,0-0.53,0-0.89l0,0l0,0c0.18-0.36,0.18-0.89,0.35-1.25l0,0l0,0c0-0.36,0-0.54,0.18-0.71v-0.18l0,0
		c0.18-0.54,0.36-1.07,0.54-1.42l0,0l0.18-0.35v-0.18c0-0.18,0.18-0.18,0.18-0.36l0,0l0,0c0.18-0.35,0.36-0.71,0.54-1.07l6.58,3.73
		c-0.71,1.43-1.24,2.85-1.24,4.45H840.7z M882.84,336.2h-24c13.16,0,24,10.85,24,24.18V336.2z M863.99,340.3L863.99,340.3h0.18
		l-0.53,2.13L863.99,340.3z M873.24,345.81L873.24,345.81h0.18l-1.42,1.6l-0.18-0.18L873.24,345.81z M878.75,355.05L878.75,355.05
		L878.75,355.05l-2.14,0.53L878.75,355.05z M878.75,365.72L878.75,365.72L878.75,365.72l-2.14-0.53l0,0L878.75,365.72z
		 M873.41,374.96L873.41,374.96l-0.18,0.18l-1.42-1.6h0.18L873.41,374.96z M844.25,375.14L844.25,375.14l-0.18-0.18l1.42-1.42h0.18
		L844.25,375.14z M853.32,340.3L853.32,340.3h0.18l0.36,2.13L853.32,340.3z M867.01,341.36L867.01,341.36l-0.89,1.96L867.01,341.36z
		 M875.37,347.94L875.37,347.94l-1.78,1.42v-0.18L875.37,347.94z M877.86,368.56L877.86,368.56L877.86,368.56l-2.14-0.89l0,0
		L877.86,368.56z M875.01,373.19L875.01,373.19L875.01,373.19l-1.78-1.24L875.01,373.19z M861.15,381.01L861.15,381.01l-0.18-2.13
		L861.15,381.01z M850.65,379.59L850.65,379.59l-0.18-0.18l0.89-1.95L850.65,379.59z M845.86,376.75L845.86,376.75v-0.18l1.42-1.61
		L845.86,376.75z M842.12,372.83L842.12,372.83L842.12,372.83l1.77-1.24L842.12,372.83z M838.21,362.87L838.21,362.87l2.13-0.18
		L838.21,362.87z M839.63,352.21L839.63,352.21l1.96,0.89L839.63,352.21z M846.39,343.85L846.39,343.85v-0.17l1.24,1.77v0.18
		L846.39,343.85z M851.01,341.18L851.01,341.18L851.01,341.18l0.89,1.96l-0.18,0.18L851.01,341.18z M856.34,339.94L856.34,339.94
		l0.18,2.13L856.34,339.94z M858.83,336.2h-24.18v24.18C834.65,347.05,845.5,336.2,858.83,336.2L858.83,336.2z M834.65,360.39v24.18
		h24.18C845.5,384.57,834.65,373.72,834.65,360.39L834.65,360.39z M858.83,384.57h24v-24.18
		C882.84,373.72,871.99,384.57,858.83,384.57L858.83,384.57z M858.83,383.32c-12.62,0-22.94-10.31-22.94-22.94
		c0-12.45,10.31-22.75,22.94-22.75c12.45,0,22.76,10.31,22.76,22.75C881.59,373.01,871.28,383.32,858.83,383.32L858.83,383.32z
		 M879.1,381.89c-1.06,0-1.78-0.71-1.78-1.95c0-0.89,0.72-1.6,1.78-1.6c0.89,0,1.78,0.71,1.78,1.6
		C880.88,381.19,879.99,381.89,879.1,381.89L879.1,381.89z M879.1,342.07c-1.06,0-1.78-0.89-1.78-1.77c0-1.07,0.72-1.77,1.78-1.77
		c0.89,0,1.78,0.71,1.78,1.77C880.88,341.18,879.99,342.07,879.1,342.07L879.1,342.07z M838.74,342.07c-1.07,0-1.78-0.89-1.78-1.77
		c0-1.07,0.71-1.77,1.78-1.77c1.07,0,1.78,0.71,1.78,1.77C840.52,341.18,839.81,342.07,838.74,342.07L838.74,342.07z M838.74,381.89
		c-1.07,0-1.78-0.71-1.78-1.95c0-0.89,0.71-1.6,1.78-1.6c1.07,0,1.78,0.71,1.78,1.6C840.52,381.19,839.81,381.89,838.74,381.89
		L838.74,381.89z M883.54,335.49v49.79h-49.6v-49.79H883.54z M883.72,330.16h-3.37v3.55h3.37V330.16z M836.96,330.16h-3.37v3.55
		h3.37V330.16z M841.23,330.16h-3.38v3.55h3.38V330.16z M845.5,330.16h-3.38v3.55h3.38V330.16z M849.59,330.16h-3.2v3.55h3.2V330.16
		z M853.86,330.16h-3.38v3.55h3.38V330.16z M858.13,330.16h-3.38v3.55h3.38V330.16z M862.39,330.16h-3.37v3.55h3.37V330.16z
		 M866.66,330.16h-3.38v3.55h3.38V330.16z M870.92,330.16h-3.38v3.55h3.38V330.16z M875.19,330.16h-3.37v3.55h3.37V330.16z
		 M879.46,330.16h-3.38v3.55h3.38V330.16z M831.63,390.43h0.71v-60.27h-0.71V390.43z M828.08,390.43h0.89v-60.27h-0.89V390.43z
		 M829.85,390.43h0.89v-60.27h-0.89V390.43z M885.15,390.43h1.06v-60.27h-1.06V390.43z M888.7,390.43h0.89v-60.27h-0.89V390.43z
		 M886.93,390.43h0.89v-60.27h-0.89V390.43z"/>
	<path class="st0" d="M1545.83,385.1v-2.49l-7.29-3.55v12.27L1545.83,385.1z M1385.28,318.96h53.16v15.47h-53.16V318.96z
		 M1438.44,336.92v23.65h-53.16v-23.65H1438.44z M1438.44,364.3v42.49h-53.16V364.3H1438.44z M1398.79,323.76h9.07v1.95h-9.07
		V323.76z M1429.91,344.57v10.84h-8.54v-10.84c0-1.96,2.14-3.56,4.27-3.56C1428.13,341,1429.91,342.6,1429.91,344.57L1429.91,344.57
		z M1416.4,344.57v10.84h-8.54v-10.84c0-1.96,1.78-3.56,4.27-3.56C1414.43,341,1416.4,342.6,1416.4,344.57L1416.4,344.57z
		 M1402.71,344.57v10.84h-8.54v-10.84c0-1.96,1.78-3.56,4.27-3.56C1400.74,341,1402.71,342.6,1402.71,344.57L1402.71,344.57z
		 M1416.04,376.21h9.07v1.78h-9.07V376.21z M1404.84,376.57h9.07v1.77h-9.07V376.57z M1411.24,378.88h9.06v1.95h-9.06V378.88z
		 M1416.57,382.25h9.06v1.96h-9.06V382.25z M1405.9,382.25h9.06v1.96h-9.06V382.25z M1398.97,400.39h8.89v1.95h-8.89V400.39z
		 M1394.52,398.08h9.07v1.96h-9.07V398.08z M1390.08,395.59h9.07v1.78h-9.07V395.59z M1424.57,395.05h9.07v1.96h-9.07V395.05z
		 M1419.41,321.62h9.06v1.96h-9.06V321.62z M1405.19,328.2h9.06v1.96h-9.06V328.2z M1315.76,457.28h89.97v70.41h-89.97V457.28z
		 M1405.73,530.71v75.38h-89.97v-75.38H1405.73z M1381.9,586.36h15.29v3.21h-15.29V586.36z M1367.5,554.18h15.29v3.2h-15.29V554.18z
		 M1348.83,554.89h15.3v3.2h-15.3V554.89z M1359.5,558.98h15.29v3.2h-15.29V558.98z M1368.39,564.67h15.3v3.2h-15.3V564.67z
		 M1350.43,564.67h15.11v3.2h-15.11V564.67z M1338.34,595.43h15.29v3.2h-15.29V595.43z M1331.05,591.34h15.29v3.2h-15.29V591.34z
		 M1323.77,587.07h15.29v3.38h-15.29V587.07z M1344.74,500.84v18.31h-14.4v-18.31c0-3.38,3.2-6.23,7.29-6.23
		C1341.54,494.62,1344.74,497.46,1344.74,500.84L1344.74,500.84z M1391.32,500.84v18.31h-14.4v-18.31c0-3.38,3.02-6.23,7.11-6.23
		C1387.94,494.62,1391.32,497.46,1391.32,500.84L1391.32,500.84z M1368.03,500.84v18.31h-14.4v-18.31c0-3.38,3.2-6.23,7.11-6.23
		C1364.83,494.62,1368.03,497.46,1368.03,500.84L1368.03,500.84z M1338.16,465.64h15.29v3.19h-15.29V465.64z M1373.37,461.9h15.29
		v3.21h-15.29V461.9z M1349,472.93h15.3v3.38H1349V472.93z M1315.76,481.46h89.97v3.2h-89.97V481.46z M1412.13,282.33l-17.78,14.94
		h36.63L1412.13,282.33z M1427.42,297.8v19.91h-29.33V297.8H1427.42z M1409.46,305.45h6.04v-5.87h-6.04V305.45z M1564.85,369.81
		l-25.07,21.16h51.92L1564.85,369.81z M1586.01,392.39v28.27h15.83v122.86h-74.5V420.66h17.96v-28.27H1586.01z M1561.11,401.99h8.36
		v-8.35h-8.36V401.99z M1546,427.59h12.62v2.49H1546V427.59z M1589.92,456.75v14.93h-11.91v-14.93c0-2.85,2.49-5.16,5.87-5.16
		C1587.07,451.59,1589.92,453.9,1589.92,456.75L1589.92,456.75z M1570.72,456.75v14.93h-11.91v-14.93c0-2.85,2.67-5.16,5.87-5.16
		C1567.87,451.59,1570.72,453.9,1570.72,456.75L1570.72,456.75z M1551.52,456.75v14.93h-11.92v-14.93c0-2.85,2.67-5.16,5.87-5.16
		C1548.85,451.59,1551.52,453.9,1551.52,456.75L1551.52,456.75z M1570.19,500.66h12.62v2.67h-12.62V500.66z M1554.71,501.19h12.62
		v2.67h-12.62V501.19z M1563.61,504.58h12.8v2.84h-12.8V504.58z M1571.07,509.38h12.62v2.66h-12.62V509.38z M1555.96,509.38h12.8
		v2.66h-12.8V509.38z M1546.18,534.8h12.62v2.67h-12.62V534.8z M1540.14,531.42h12.62v2.66h-12.62V531.42z M1534.09,528.04h12.62
		v2.67h-12.62V528.04z M1582.28,527.33h12.62v2.49h-12.62V527.33z M1574.99,424.57h12.62v2.48h-12.62V424.57z M1555.07,433.64h12.62
		v2.67h-12.62V433.64z M1527.33,440.57h74.5v3.55h-74.5V440.57z M1527.33,478.97h74.5v7.47h-74.5V478.97z M1360.92,395.76
		l-30.4,25.43h62.93L1360.92,395.76z M1386.7,422.61v32.18h-49.42v-32.18H1386.7z M1356.48,434.7h10.13v-10.13h-10.13V434.7z
		 M1408.04,506.89l2.49-1.24v19.02l4.09-1.78v-19.02l8.54-4.09v19.02l3.91-1.95v-19.02l8.53-4.09v19.02l4.09-1.96v-19.02l8.53-4.09
		v19.02l3.91-1.95v-19.03l8.53-4.09v19.02l4.09-1.78v-19.2l8.53-4.09v19.02l3.91-1.78v-19.02l8.53-4.27v19.02l4.09-1.78v-19.02
		l8.35-4.09v19.02l4.09-1.96v-19.02l8.53-4.09v19.02l3.91-1.96v-19.02l8.54-4.09v19.03l1.78-0.71v64l-116.99,56.19V506.89z
		 M1538.54,391.32v3.91l-3.38-1.6v-16.36l-7.47-3.56v16.54l-3.38-1.78v-16.36l-7.29-3.56v16.54l-3.56-1.78v-16.36l-7.11-3.55v16.53
		l-3.55-1.78V361.8l-7.3-3.37v16.17l-3.37-1.6v-16.35l-7.47-3.56v16.36l-3.38-1.6V351.5l-7.29-3.56v16.36l-3.37-1.61v-16.35
		l-7.47-3.56v16.36l-3.38-1.6v-16.36l-7.29-3.55v16.35l-3.55-1.6v-16.36l-7.12-3.55v16.35l-0.89-0.35v55.12l84.1,40.35v-25.6h18.85
		v-27.03H1538.54z"/>
	<path class="st0" d="M575.26,315.4l-2.85,26.67L478,331.76l2.84-26.67L575.26,315.4z M500.05,558.8
		c49.25,0,91.74,19.56,108.99,47.29H390.7C408.31,578.36,450.62,558.8,500.05,558.8L500.05,558.8z M458.09,486.8l100.27,11.03
		l-0.53,6.04l-100.46-11.02L458.09,486.8z M496.85,262.95l72.19,7.82l0.53-5.33l-72.19-7.83L496.85,262.95z M478.89,296.02
		l100.45,10.85l-0.71,6.22l-100.27-11.02L478.89,296.02z M474.8,334.07l100.27,11.03l-0.53,6.23L474.09,340.3L474.8,334.07z
		 M470.71,372.3l100.28,11.02l-0.71,6.04L470,378.52L470.71,372.3z M466.44,410.35l100.45,11.02l-0.89,6.22l-100.27-11.02
		L466.44,410.35z M462.35,448.57l100.28,11.03l-0.71,6.22l-100.27-11.03L462.35,448.57z M559.61,302.96l3.38-30.58l-60.63-6.58
		l-3.38,30.58L559.61,302.96z M518.36,280.91l-1.07,10.85l-10.49-1.06l1.07-10.85c0.36-3.02,3.02-5.33,5.86-4.98
		C516.58,275.22,518.72,277.89,518.36,280.91L518.36,280.91z M554.45,285l-1.24,10.84l-10.49-1.24l1.24-10.84
		c0.36-3.03,3.02-5.16,5.87-4.8C552.67,279.13,554.81,281.8,554.45,285L554.45,285z M536.49,283.04l-1.24,10.85l-10.49-1.24
		L526,281.8c0.18-3.02,2.84-5.33,5.87-4.79C534.72,277.18,536.67,279.84,536.49,283.04L536.49,283.04z M490.62,311.5l-1.95,17.6
		l-6.22-0.71l1.95-17.6c0.18-1.42,1.6-2.49,3.38-2.32C489.56,308.64,490.8,309.89,490.62,311.5L490.62,311.5z M551.61,474.17
		L551.61,474.17l-2.14,17.6l-6.05-0.71l1.96-17.6c0.18-1.42,1.6-2.49,3.38-2.31C550.36,471.51,551.61,472.75,551.61,474.17
		L551.61,474.17z M542.89,473.1L542.89,473.1l-1.95,17.79l-6.22-0.72l1.95-17.6c0.18-1.42,1.6-2.49,3.38-2.31
		C541.83,470.44,543.07,471.87,542.89,473.1L542.89,473.1z M534.18,472.39L534.18,472.39l-1.96,17.43l-6.05-0.54l1.78-17.78
		c0.18-1.42,1.77-2.32,3.55-2.13C533.12,469.55,534.36,470.8,534.18,472.39L534.18,472.39z M525.65,471.33L525.65,471.33l-1.96,17.6
		l-6.22-0.71l1.96-17.6c0.18-1.43,1.6-2.32,3.38-2.32C524.58,468.66,525.83,469.91,525.65,471.33L525.65,471.33z M516.94,470.26
		L516.94,470.26l-1.95,17.78l-6.05-0.71l1.78-17.6c0.18-1.43,1.78-2.49,3.38-2.31C515.87,467.59,517.12,469.01,516.94,470.26
		L516.94,470.26z M508.4,469.55L508.4,469.55l-1.96,17.42l-6.22-0.53l1.78-17.78c0.18-1.42,1.78-2.31,3.56-2.13
		C507.34,466.7,508.58,467.95,508.4,469.55L508.4,469.55z M499.69,468.48L499.69,468.48l-1.95,17.6l-6.22-0.71l1.95-17.43
		c0.18-1.6,1.78-2.49,3.38-2.49C498.63,465.82,499.87,467.06,499.69,468.48L499.69,468.48z M490.98,467.59L490.98,467.59l-1.78,17.6
		l-6.4-0.71l1.96-17.61c0.18-1.42,1.78-2.48,3.56-2.31C489.91,464.75,491.16,466.17,490.98,467.59L490.98,467.59z M482.45,466.7
		L482.45,466.7l-1.96,17.6l-6.22-0.71l1.96-17.61c0.18-1.42,1.78-2.49,3.38-2.31C481.2,463.86,482.63,465.11,482.45,466.7
		L482.45,466.7z M473.73,465.64L473.73,465.64l-1.78,17.6l-6.4-0.71l1.95-17.42c0.18-1.6,1.6-2.49,3.38-2.49
		C472.67,462.98,473.91,464.22,473.73,465.64L473.73,465.64z M555.7,435.59L555.7,435.59l-1.78,17.6l-6.4-0.71l1.95-17.61
		c0.18-1.42,1.6-2.31,3.38-2.31C554.63,432.92,555.87,434.17,555.7,435.59L555.7,435.59z M547.16,434.7L547.16,434.7l-2.13,17.6
		l-6.05-0.71l1.96-17.61c0.18-1.42,1.6-2.48,3.38-2.31C545.92,431.86,547.16,433.28,547.16,434.7L547.16,434.7z M538.45,433.81
		L538.45,433.81l-1.96,17.61l-6.22-0.71l1.96-17.78c0.18-1.24,1.6-2.31,3.38-2.13C537.38,430.97,538.63,432.21,538.45,433.81
		L538.45,433.81z M529.92,432.75L529.92,432.75l-2.13,17.6l-6.05-0.53l1.77-17.61c0.36-1.6,1.78-2.49,3.56-2.49
		C528.67,430.08,529.92,431.32,529.92,432.75L529.92,432.75z M521.21,431.86L521.21,431.86l-1.96,17.61l-6.22-0.72l1.96-17.6
		c0.18-1.42,1.6-2.49,3.38-2.31C520.14,429.01,521.38,430.44,521.21,431.86L521.21,431.86z M512.49,430.97L512.49,430.97l-1.96,17.6
		l-6.04-0.71l1.78-17.78c0.18-1.25,1.78-2.32,3.38-2.14C511.43,428.12,512.67,429.37,512.49,430.97L512.49,430.97z M503.96,429.91
		L503.96,429.91L502,447.5l-6.22-0.53l1.96-17.6c0-1.6,1.6-2.49,3.38-2.49C502.89,427.23,504.13,428.48,503.96,429.91L503.96,429.91
		z M495.25,429.01L495.25,429.01l-1.96,17.61l-6.05-0.71l1.78-17.6c0.18-1.42,1.78-2.49,3.38-2.13
		C494.18,426.17,495.42,427.59,495.25,429.01L495.25,429.01z M486.54,428.12L486.54,428.12l-1.78,17.61l-6.4-0.71l1.95-17.78
		c0.18-1.24,1.78-2.31,3.56-2.13C485.47,425.28,486.89,426.53,486.54,428.12L486.54,428.12z M478,427.05L478,427.05l-1.96,17.61
		l-6.22-0.54l1.96-17.6c0.18-1.6,1.78-2.49,3.38-2.49C476.76,424.39,478.18,425.64,478,427.05L478,427.05z M559.96,397.01
		L559.96,397.01l-1.95,17.6l-6.22-0.53l1.95-17.78c0.18-1.43,1.6-2.32,3.38-2.14C558.72,394.34,560.14,395.59,559.96,397.01
		L559.96,397.01z M551.25,396.12L551.25,396.12l-1.78,17.61l-6.4-0.71l1.96-17.6c0.18-1.42,1.78-2.49,3.38-2.31
		C550.18,393.28,551.43,394.7,551.25,396.12L551.25,396.12z M542.72,395.23L542.72,395.23l-1.95,17.6l-6.22-0.71l1.95-17.6
		c0.18-1.42,1.6-2.49,3.38-2.31C541.47,392.39,542.72,393.63,542.72,395.23L542.72,395.23z M534.01,394.16L534.01,394.16l-1.95,17.6
		l-6.22-0.53l1.96-17.6c0.18-1.6,1.6-2.49,3.38-2.31C532.94,391.5,534.18,392.74,534.01,394.16L534.01,394.16z M525.47,393.28
		L525.47,393.28l-2.14,17.6l-6.05-0.71l1.78-17.6c0.35-1.42,1.78-2.49,3.55-2.31C524.22,390.43,525.47,391.85,525.47,393.28
		L525.47,393.28z M516.76,392.39L516.76,392.39l-1.95,17.6l-6.22-0.71l1.95-17.6c0.18-1.42,1.6-2.5,3.38-2.32
		C515.69,389.54,516.94,390.97,516.76,392.39L516.76,392.39z M508.05,391.5L508.05,391.5l-1.96,17.42l-6.05-0.53l1.78-17.6
		c0.18-1.61,1.78-2.49,3.56-2.31C506.98,388.65,508.23,389.9,508.05,391.5L508.05,391.5z M499.51,390.43L499.51,390.43l-1.96,17.6
		l-6.22-0.71l1.95-17.6c0-1.43,1.6-2.5,3.38-2.14C498.45,387.76,499.69,389.01,499.51,390.43L499.51,390.43z M490.8,389.54
		L490.8,389.54l-1.95,17.6l-6.05-0.71l1.78-17.61c0.18-1.42,1.77-2.49,3.38-2.31C489.73,386.7,490.98,388.12,490.8,389.54
		L490.8,389.54z M482.27,388.65L482.27,388.65l-1.96,17.43l-6.4-0.53l1.96-17.61c0.18-1.6,1.78-2.48,3.56-2.31
		C481.2,385.81,482.45,387.05,482.27,388.65L482.27,388.65z M564.05,358.61L564.05,358.61l-1.77,17.42l-6.22-0.53l1.96-17.78
		c0-1.43,1.6-2.32,3.2-2.14C562.99,355.76,564.41,357.01,564.05,358.61L564.05,358.61z M555.52,357.54L555.52,357.54l-1.96,17.6
		l-6.22-0.71l1.96-17.42c0.18-1.6,1.6-2.49,3.38-2.49C554.28,354.87,555.7,356.12,555.52,357.54L555.52,357.54z M546.8,356.48
		L546.8,356.48l-1.78,17.78l-6.4-0.71l2.14-17.6c0-1.42,1.6-2.49,3.2-2.13C545.74,353.8,546.98,355.23,546.8,356.48L546.8,356.48z
		 M538.28,355.76L538.28,355.76l-1.96,17.61l-6.22-0.71l1.96-17.79c0.18-1.24,1.6-2.31,3.38-2.13
		C537.03,352.92,538.28,354.16,538.28,355.76L538.28,355.76z M529.56,354.69L529.56,354.69l-1.95,17.6l-6.22-0.71l1.95-17.43
		c0.18-1.6,1.6-2.49,3.38-2.49C528.5,352.03,529.74,353.27,529.56,354.69L529.56,354.69z M521.03,353.8L521.03,353.8l-2.14,17.61
		l-6.05-0.71l1.78-17.61c0.36-1.42,1.78-2.48,3.56-2.13C519.78,350.96,521.03,352.39,521.03,353.8L521.03,353.8z M512.31,352.92
		L512.31,352.92l-1.96,17.61l-6.22-0.71l1.96-17.6c0.18-1.42,1.6-2.49,3.38-2.31C511.25,350.07,512.49,351.32,512.31,352.92
		L512.31,352.92z M503.6,351.85L503.6,351.85l-1.95,17.6l-6.05-0.71l1.77-17.42c0.36-1.6,1.78-2.5,3.56-2.5
		C502.54,349.18,503.78,350.43,503.6,351.85L503.6,351.85z M495.07,350.96L495.07,350.96l-1.96,17.6l-6.22-0.71l1.96-17.6
		c0.18-1.43,1.6-2.49,3.38-2.14C494,348.12,495.25,349.53,495.07,350.96L495.07,350.96z M486.36,350.07L486.36,350.07l-1.96,17.6
		l-6.04-0.71l1.78-17.6c0.18-1.42,1.78-2.49,3.38-2.31C485.29,347.23,486.54,348.47,486.36,350.07L486.36,350.07z M568.32,320.02
		L568.32,320.02l-1.96,17.61l-6.22-0.71l1.96-17.78c0.18-1.24,1.78-2.31,3.56-2.13C567.25,317.18,568.5,318.43,568.32,320.02
		L568.32,320.02z M559.61,318.96L559.61,318.96l-1.78,17.61l-6.22-0.54l1.95-17.6c0-1.6,1.6-2.5,3.2-2.5
		C558.54,316.29,559.96,317.54,559.61,318.96L559.61,318.96z M551.07,318.07L551.07,318.07l-1.96,17.6l-6.22-0.71l1.96-17.6
		c0.18-1.43,1.6-2.49,3.38-2.14C550.01,315.22,551.25,316.65,551.07,318.07L551.07,318.07z M542.36,317.18L542.36,317.18l-1.78,17.6
		l-6.4-0.71l2.13-17.61c0-1.42,1.6-2.49,3.2-2.31C541.3,314.34,542.72,315.58,542.36,317.18L542.36,317.18z M533.83,316.11
		L533.83,316.11l-1.95,17.6l-6.22-0.53l1.96-17.61c0.18-1.6,1.6-2.49,3.38-2.49C532.58,313.45,533.83,314.69,533.83,316.11
		L533.83,316.11z M525.12,315.22L525.12,315.22l-1.96,17.6l-6.22-0.71l1.96-17.61c0.18-1.42,1.6-2.49,3.38-2.13
		C524.05,312.38,525.29,313.8,525.12,315.22L525.12,315.22z M516.58,314.34L516.58,314.34l-1.95,17.6l-6.22-0.71l1.95-17.61
		c0.18-1.42,1.6-2.49,3.38-2.31C515.34,311.5,516.58,312.73,516.58,314.34L516.58,314.34z M507.87,313.27L507.87,313.27l-1.96,17.6
		l-6.22-0.53l1.96-17.61c0.18-1.6,1.6-2.48,3.38-2.31C506.8,310.61,508.05,311.85,507.87,313.27L507.87,313.27z M499.34,312.38
		L499.34,312.38l-2.14,17.6l-6.04-0.71l1.78-17.6c0.35-1.42,1.78-2.49,3.56-2.14C498.09,309.53,499.34,310.96,499.34,312.38
		L499.34,312.38z M571.17,353.63l-2.84,26.49l-94.41-10.31l2.84-26.49L571.17,353.63z M567.08,391.85l-3.02,26.49l-94.41-10.32
		l3.02-26.49L567.08,391.85z M562.81,430.08l-2.85,26.49l-94.4-10.32l2.84-26.49L562.81,430.08z M558.72,468.12l-3.02,26.67
		l-94.23-10.31l2.84-26.67L558.72,468.12z M554.45,506.35l-6.05,56.18c-1.42-0.36-2.84-0.71-4.45-1.25l4.63-41.07
		c0.35-4.08-3.2-7.64-8.18-8.35c-4.98-0.54-9.24,2.31-9.6,6.58l-4.27,39.47c-1.6-0.18-3.02-0.36-4.62-0.54l4.27-39.47
		c0.36-4.09-3.2-7.82-8-8.36c-4.8-0.54-9.25,2.31-9.6,6.4l-4.45,40.18c-1.42-0.18-2.84-0.18-4.09-0.18h-0.53l4.44-40.54
		c0.35-4.09-3.2-7.82-8-8.36c-4.98-0.53-9.25,2.32-9.78,6.4l-4.62,43.39c-1.6,0.18-3.2,0.35-4.8,0.53l4.8-44.45
		c0.53-3.92-3.2-7.82-8-8.36c-4.8-0.53-9.25,2.31-9.6,6.58l-5.51,49.61c-1.78,0.35-3.73,0.89-5.51,1.42l7.11-66.13L554.45,506.35z"
		/>
	<path class="st0" d="M1184.2,599.87l-68.1,0.71l9.07-11.02l0,0l3.38-3.91l0,0l2.14-2.66l0,0l3.37-3.92l0,0l2.13-2.66l0,0l3.2-3.74
		l44.98-54.05l45.34,53.16c-0.36,0.35-0.89,0.89-1.25,1.24l28.63-26.67v-0.71v0.71c5.69,4.98,11.38,9.96,17.07,14.76
		c3.91-6.22,10.67-14.05,19.2-13.15l0,0c14.75,0.53,16.89,23.29,16.89,23.29l-7.83,0.18l0.18,4.45c2.85,2.84,4.98,6.4,6.22,10.31
		c0.18,0.18,0.18,0.36,0.36,0.54l0.54,0.71l0.18,0.53c0.35,0.71,0.53,1.43,1.07,2.32l-31.47,0.18c10.49,0,20.98-0.18,31.47-0.18
		l-0.53-0.89l-0.36-0.89l-0.18-0.54c0.35,0.71,0.53,1.43,1.07,2.32c0.35,1.07,1.6,4.09,1.78,5.15l16.53,0.72
		c2.67,0.71,4.09,0.53,5.87,9.24l-51.2,0.36c0.17,0.89-24.18-0.36-24.18-0.36l-51.92-0.53c0,0,0-3.2-0.35-4.63L1184.2,599.87z
		 M1233.44,579.42L1233.44,579.42c0.71,0.18,1.42,0.54,2.31,0.89C1234.86,579.96,1234.16,579.6,1233.44,579.42L1233.44,579.42z
		 M1245.36,582.98c0.71,0,1.24,0,1.95,0.17C1246.6,582.98,1246.07,582.98,1245.36,582.98L1245.36,582.98z M1256.2,599.16
		c-0.53-0.53-1.24-0.89-1.96-1.24C1254.96,598.27,1255.67,598.63,1256.2,599.16L1256.2,599.16z M1309.18,586.71
		c-0.18-0.18-0.18-0.36-0.36-0.54l0,0L1309.18,586.71z"/>
	<path class="st0" d="M1282.51,478.62v5.34h-27.2v28.62h11.74l-8.18,2.66v90.85h-17.96v-90.67l-8.35-2.84h11.91v-28.62h-90.5v28.62
		h11.91l-8.18,2.66v90.85h-18.14v-90.67l-8-2.84h11.73v-28.62h-27.2v-5.34h-7.29v-3.91h34.49v-15.47h-8.18v-6.05
		c-11.2-1.6-22.75-3.55-34.31-5.87v-13.16c-4.27-0.71-8.71-1.6-13.16-2.66v-10.67c-4.98-0.89-10.13-1.96-15.11-3.02
		c0-3.2,0-6.4,0-9.61c85.52,14.4,169.97,13.51,253.35,0c0,3.21,0,6.4,0,9.61c-4.98,1.06-9.96,2.13-15.11,3.02v10.67
		c-4.27,1.06-8.72,1.96-13.16,2.84v12.98c-11.2,2.5-22.76,4.62-34.31,6.22v5.69h-8.01v15.47h34.32v3.91H1282.51z M1162.15,456.22
		v3.02h-8.18v15.47h37.16v-17.07C1181.53,457.46,1171.93,456.93,1162.15,456.22L1162.15,456.22z M1244.47,459.24h-8.17v-2.84
		c-9.43,0.89-19.2,1.24-28.81,1.42v16.89h36.98V459.24z"/>
</g>
<g>
	<polygon class="st1" points="1589,582.27 2562,582.27 2562,606 1590.89,606 	"/>
	<path class="st1" d="M1784.22,486.96l-0.5-66.8l-3.99-1v-8.97l5.48-0.5l-1-98.21l-45.86-11.97l-26.92,1l-1.99,284.66l5.55-0.04
		l2.93-280.63h11.47l-2.45,280.54l14.91-0.12V572.7l-4.98-5.48l-1.5-9.97l14.96,0.5v-59.33l-13.46-1v-13.46l13.46-0.5l1-65.81
		l-12.96-1.49l-1-12.46h14.46c0,0,0-59.82,0-61.32l8.48,0.5l-1.5,62.32l13.96,1.99l0.5,12.46l-14.46-1.5l-0.5,66.31l13.46,1.5
		l0.5,12.46l-12.96,0.5v58.83l9.47,1.49l-2.2,25.48l7.18-0.06v-12.96l4.49-1.99l-1-10.47l3.49,0.5l2.99-61.32l-5.48-1v-9.97
		L1784.22,486.96z M1742.84,336.9l-0.5-14.96l13.46,3.49l0.5,12.96L1742.84,336.9z M1776.24,343.38l-7.98-1l-0.5-17.95l-25.92-6.48
		l-1.49-9.47l35.89,8.97V343.38z"/>
	<path class="st1" d="M1863.23,319.95c-3.49-0.5-4.49,5.98-4.49,5.98s-28.92-4.49-40.38,0.5l-1.5,263.22l3.56,0.06l2.92-239.35
		c4.98-0.5,8.97-2,8.97,1.99c0,3.66-1.68,203.95-1.96,237.53l25.92,0.43l1.96-257.4l4.98,0.5l-0.98,257.01l13.94,0.23l2.99-265.22
		C1879.19,325.43,1866.72,320.45,1863.23,319.95z"/>
	<path class="st1" d="M1985,330.42l-17.95-20.94l-25.42-16.95l-11.47,33.4l-3.99,152.55c0,0-9.47,111.67-8.48,114.17
		c1,2.49,72.78,2.99,72.78,2.99L1985,330.42z M1953.6,583.17c0,0-8.48-204.9-8.48-207.39c0-2.49-6.48-44.87-6.48-44.87
		s1.5-22.93,1.5-25.92l3.99-3.49l21.94,18.94L1953.6,583.17z"/>
	<path class="st1" d="M2055.06,313.47l5.48-1l-1.47,283.08l30.89,0.59c0,0-1.5-71.79-3.99-91.23c-2.5-19.44-13.46-67.3-13.46-67.3
		l1-125.63c0,0-7.98-5.49-17.95-4.49c-9.97,1-22.43,4.49-22.43,4.49c0,4.49-1,117.15-1,117.15s-12.46,41.88-16.95,86.25
		c-4.49,44.37-3.99,79.27-3.99,79.27l41.42,0.78L2055.06,313.47z M2035.11,408.69l1.5-78.77l12.46-16.45c0,0,0.5,41.38,0,51.35
		C2048.58,374.79,2035.11,408.69,2035.11,408.69z"/>
	<path class="st1" d="M1690.33,259.19c0-0.35-0.04-3.05-0.12-6.06c-0.96-0.64-1.98-1.24-3.05-1.78l1.01-2.01
		c0.67,0.34,1.32,0.7,1.96,1.07c-0.09-2.54-0.21-4.89-0.36-5.85c-0.37-2.44-3.94-3-5.44-4.69c-1.5-1.69-4.69-5.06-4.69-5.63
		c0-0.56,0-1.88-0.94-2.06s-1.31-1.31-1.69-3s-3.19-1.5-3.19-1.5s0.94-0.94,1.5-1.69c0.56-0.75,0.38-1.69-0.19-3
		c-0.56-1.31-1.31-2.25-0.38-2.44c0.94-0.19,0.94-2.25,1.31-4.12c0.38-1.88,0.19-3.94-0.75-4.32c-0.94-0.38-1.87-2.06-2.44-3.37
		c-0.56-1.31-1.88-2.25-1.88-3.75c0-1.5-0.38-3.56-0.38-4.69c0-1.13,0.75-2.81,0.38-4.5c-0.38-1.69-1.13-4.5-0.19-5.44
		c0.94-0.94,0.56-2.25,0.19-2.81c-0.38-0.56-1.13-2.06-0.38-3.75c0.75-1.69-1.13-4.32-1.13-4.32l0.37-5.81l-1.13-0.19l-0.75,2.44
		c0,0-1.5,2.06-1.69,0.19c-0.19-1.88-2.81-3.19-2.81-3.19s-0.75-7.5-1.31-8.07c-0.56-0.56-2.81-3.56-2.81-3.56l-0.56-48.01
		l-1.13-1.88l-0.19-17.63l-1.13-1.31l-0.19-4.69l-0.75-21.57l-1.31,0.19l-0.19,21.19l-0.38,4.69l-0.94,1.88l0.56,17.82
		c0,0-0.94,1.12-1.13,1.69c-0.19,0.56,0,48.96-0.19,49.52c-0.19,0.56-1.88,2.06-2.63,3.38c-0.75,1.31-1.13,5.44-1.13,7.5
		c0,2.06-0.94,2.06-0.94,2.06l-0.38-4.31l-1.13,0.19v3.56l-0.75,1.69l-1.31,0.19l-0.38-2.25l-1.5,0.19l0.19,5.81
		c0,0,0.75,1.88-0.37,2.44c-1.13,0.56,1.12,2.44,0.75,3c-0.38,0.56-1.69,3.38-0.94,5.44c0.75,2.06,2.25,2.44,1.69,2.63
		c-0.56,0.19-1.69,1.87-2.63,2.81c-0.94,0.94,0,3.56,0,3.56s1.13,6.38,0,7.31c-1.13,0.94-2.44,4.31-2.44,5.44
		c0,1.12,2.81,2.62,3.75,3.19c0.94,0.56,0,1.31-1.31,1.31c-1.31,0-1.69,3.75-1.88,4.31c-0.19,0.56-0.94,3-1.69,4.69
		c-0.75,1.69,4.13,3,3.75,3c-0.37,0-4.69,3.37-5.81,3.94c-1.13,0.56-0.56,2.44-2.62,3.38c-2.06,0.94-3.38,4.87-4.69,5.63
		c-1.31,0.75-4.88,3.75-5.06,4.31c-0.19,0.56,0,13.51-0.19,14.63c-0.19,1.12,0.38,2.44,1.88,3.38c1.5,0.94,3,1.87,1.69,2.25
		c-1.31,0.38-2.44,3-2.01,4.88c0.87,3.85,3.91,2.45,3.91,2.45s1.96,3.91,3.91,6.36c1.96,2.45,5.38,0.49,7.83,0.98
		c2.45,0.49,7.83,6.36,7.83,6.36s-6.23,298.71-6.23,300.18h40.4c0,0-16.63-299.45-16.26-301.14c0.37-1.69,6-5.44,6.75-6
		c0.75-0.56,1.69-0.56,3.56-1.13c1.88-0.56,3.75-2.44,3.75-2.44s2.25,0.38,3,0c0.75-0.38,0.94-1.5,1.5-2.25
		c0.56-0.75,0.38,2.44,0.38,2.44s2.63,0.56,3.75-0.19c1.13-0.75,1.13-6,1.31-7.31c0.19-1.31-1.31-0.94-2.44-1.88
		s-2.81,0.75-2.25-0.38c0.56-1.12-0.19-3.19-0.19-3.19s3.56-1.69,4.69-2.63C1690.14,262,1690.33,259.93,1690.33,259.19z
		 M1624.22,254.08l-1.26-1.86c1.01-0.68,2.19-1.35,3.49-1.99l0.98,2.03C1626.22,252.84,1625.14,253.46,1624.22,254.08z
		 M1672.51,244.88l-0.3,2.23c-1.2-0.16-2.47-0.3-3.78-0.42l0.2-2.24C1669.97,244.57,1671.28,244.72,1672.51,244.88z M1652.49,244.14
		l0.14,2.25c-1.24,0.08-2.52,0.19-3.79,0.32l-0.24-2.24C1649.91,244.34,1651.22,244.22,1652.49,244.14z M1645.82,244.82l0.32,2.23
		c-1.26,0.18-2.52,0.38-3.76,0.62l-0.41-2.21C1643.24,245.22,1644.54,245.01,1645.82,244.82z M1632.75,247.76l0.69,2.14
		c-1.25,0.4-2.45,0.83-3.55,1.28l-0.84-2.09C1630.2,248.62,1631.44,248.17,1632.75,247.76z M1631.63,273.26
		c-2.28,0-4.13-1.85-4.13-4.13c0-2.28,1.85-4.13,4.13-4.13c2.28,0,4.13,1.85,4.13,4.13
		C1635.75,271.41,1633.91,273.26,1631.63,273.26z M1677.58,272.99c-2.28,0-4.13-1.85-4.13-4.13c0-2.28,1.85-4.13,4.13-4.13
		c2.28,0,4.13,1.85,4.13,4.13C1681.71,271.14,1679.86,272.99,1677.58,272.99z M1635.43,246.96c1.22-0.33,2.5-0.65,3.8-0.94l0.49,2.2
		c-1.26,0.28-2.5,0.59-3.69,0.91L1635.43,246.96z M1659.16,246.27c-1.27-0.01-2.53-0.02-3.82,0.01l-0.05-2.25
		c1.32-0.03,2.6-0.02,3.9-0.01L1659.16,246.27z M1657.59,202.42c0.07,0.25,0.11,0.52,0.11,0.79c0,1.71-1.39,3.1-3.09,3.1
		c-1.6,0-2.91-1.21-3.08-2.77c-0.7,1.11-1.83,1.83-3.11,1.83c-2.12,0-3.84-1.97-3.84-4.41c0-2.43,1.72-4.41,3.84-4.41
		c2.12,0,3.85,1.97,3.85,4.41c0,0.08-0.01,0.16-0.01,0.25c0.57-0.66,1.41-1.09,2.36-1.09c0.82,0,1.57,0.32,2.12,0.85
		c-0.1-0.33-0.15-0.68-0.15-1.04c0-1.97,1.6-3.56,3.56-3.56c1.66,0,3.06,1.14,3.45,2.68c0.51-0.82,1.42-1.37,2.46-1.37
		c1.61,0,2.91,1.3,2.91,2.91c0,1.6-1.3,2.91-2.91,2.91c-1.27,0-2.34-0.82-2.73-1.95c-0.59,1.16-1.79,1.95-3.18,1.95
		C1659.14,203.49,1658.24,203.08,1657.59,202.42z M1665.71,246.49c-1.21-0.07-2.5-0.13-3.82-0.17l0.07-2.25
		c1.35,0.04,2.65,0.1,3.89,0.18L1665.71,246.49z M1667.52,269.11c-2.64,0-4.78-2.14-4.78-4.78c0-2.64,2.14-4.78,4.78-4.78
		c2.64,0,4.78,2.14,4.78,4.78C1672.3,266.97,1670.16,269.11,1667.52,269.11z M1642.4,270.23c-2.64,0-4.78-2.14-4.78-4.78
		c0-2.64,2.14-4.78,4.78-4.78c2.64,0,4.78,2.14,4.78,4.78C1647.19,268.09,1645.05,270.23,1642.4,270.23z M1654.86,268.72
		c-2.64,0-4.78-2.14-4.78-4.78c0-2.64,2.14-4.78,4.78-4.78c2.64,0,4.78,2.14,4.78,4.78C1659.64,266.58,1657.5,268.72,1654.86,268.72
		z M1678.6,248.29c-1.18-0.28-2.42-0.54-3.7-0.77l0.39-2.22c1.33,0.23,2.63,0.5,3.85,0.79L1678.6,248.29z M1684.73,250.24
		c-1.11-0.46-2.31-0.87-3.54-1.25l0.65-2.16c1.3,0.39,2.55,0.84,3.73,1.32L1684.73,250.24z"/>
	<path class="st1" d="M2537.46,479.6l-0.36-8.56l-55.28-21.4l-115.18-1.43l-0.71-7.84l-25.68-0.36l0.36-41.73l3.21-3.92l-1.78-6.42
		l-3.21-0.71c0,0-1.07-5.35-2.14-6.06c-1.07-0.71-1.43-2.5-1.43-2.5l0.35-17.83c0,0-0.71-7.85-4.28-10.7
		c-3.57-2.85-6.42-3.92-6.42-3.92s-7.49,2.85-9.27,7.13c-1.78,4.28-3.57,7.85-3.21,10.7c0.35,2.85-0.36,14.62-0.36,14.62l-4.28,1.43
		l1.78,6.42h-4.28c0,0-1.07,9.27,0,10.7c1.07,1.43,1.07,27.82,1.07,29.24c0,1.43-0.71,12.84-0.71,12.84l-23.54,0.36l-1.43,5.71
		L2163.02,445l-51.71,17.12l-8.56,3.92l-0.35,9.63l-4.64,1.07l5.35,8.2l-0.33,99.11l208.2,1.34c-0.22-10.88,1.1-33.17,1.1-36.26
		c0-3.21,5.35-8.56,10.34-8.56c4.99,0,9.99,2.85,9.99,9.27c0,5.03-0.44,26.9-0.63,36.14l33.08,0.95l121.25,0.35l48.85-1.07
		l2.14-59.2l0.36-36.73v-5.71l3.92-2.85L2537.46,479.6z M2507.28,501.74h8.27v23.16h-8.27V501.74z M2471.31,473.41h13.23v4.13
		h-13.23V473.41z M2481.23,501.53v22.53h-8.68v-22.53H2481.23z M2446.91,473.21h13.23v3.93h-13.23V473.21z M2456.84,501.74v22.33
		h-8.89v-22.33H2456.84z M2422.72,473.41h12.81v3.52h-12.81V473.41z M2432.03,501.94v21.92h-8.89v-21.92H2432.03z M2396.46,473.41
		h13.65v3.52h-13.65V473.41z M2407.42,501.74v22.53h-9.51v-22.53H2407.42z M2371.25,473h13.85v3.93h-13.85V473z M2381.99,501.53
		v21.71h-9.51v-21.71H2381.99z M2343.54,457.49h17.16v7.03h-17.16V457.49z M2329.66,366.41l3.68-0.47l-0.59,18.19l-3.21,0.59
		L2329.66,366.41z M2320.74,366.65l1.31-0.12c0,0-0.12,0.48-0.24,1.43c-0.12,0.95,0.36,1.9,1.43,2.38c1.07,0.47,2.38,0,3.09-1.43
		c0.72-1.43,0-2.38,0-2.38l1.19,0.12l-0.36,18.78l-2.85-1.78l-3.21,2.14l-0.71-2.02L2320.74,366.65z M2314.56,365.94l4.16,0.6
		l0.24,8.91l-0.83,0.24l-0.12,4.88l-3.68-0.6L2314.56,365.94z M2324.31,386.26l12.6,8.32l-24.37-0.36L2324.31,386.26z
		 M2325.04,422.18c-3.94,0-7.13-3.19-7.13-7.13c0-3.94,3.2-7.13,7.13-7.13c3.94,0,7.13,3.19,7.13,7.13
		C2332.17,418.99,2328.98,422.18,2325.04,422.18z M2329.28,436.41v7.03h-10.75v-7.03H2329.28z M2286.06,456.46h17.16v7.24h-17.16
		V456.46z M2260.23,471.35h14.68v3.72h-14.68V471.35z M2272.22,500.09v22.33h-10.34v-22.33H2272.22z M2234.59,470.73h13.85v4.75
		h-13.85V470.73z M2246.37,499.88v22.54h-10.55v-22.54H2246.37z M2208.95,470.73h14.88v3.93h-14.88V470.73z M2220.53,499.26v22.53
		h-10.13v-22.53H2220.53z M2183.52,470.11h13.85v4.14h-13.85V470.11z M2195.51,499.05v21.92h-10.54v-21.92H2195.51z M2158.71,469.69
		h13.65v4.13h-13.65V469.69z M2169.88,498.22v22.12h-10.55v-22.12H2169.88z M2123.77,498.02h10.34v22.95h-10.34V498.02z
		 M2133.9,571.41h-10.33v-20.47h10.33V571.41z M2134.11,543.08h-9.72v-10.96h9.72V543.08z M2169.88,571.62h-9.3v-19.64h9.3V571.62z
		 M2160.99,543.71v-11.37h8.68v11.37H2160.99z M2194.89,572.24h-9.3v-20.05h9.3V572.24z M2194.89,544.53H2186v-11.16h8.89V544.53z
		 M2220.32,572.65h-9.3V552.8h9.3V572.65z M2220.32,544.74h-8.48v-11.16h8.48V544.74z M2245.55,573.07h-8.89v-19.85h8.89V573.07z
		 M2245.96,545.16h-8.89V534.4h8.89V545.16z M2271.18,573.89h-8.48v-20.26h8.48V573.89z M2271.6,545.98h-8.48v-11.16h8.48V545.98z
		 M2299.92,574.72h-8.69v-20.05h8.69V574.72z M2352.43,575.34h-8.68v-20.67h8.68V575.34z M2362.58,534.62
		c-0.48,1.43-0.48,8.32-0.48,8.32l-3.33,0.24c0,0,0-3.57,0-4.52c0-0.95-1.19-6.42-2.14-6.66c-0.95-0.24-12.84,0-14.5,0
		c-1.66,0-1.66,2.62-2.14,4.04c-0.47,1.43-0.24,6.66-0.24,6.66l-3.81,0.95c0,0,0.71-4.52,0.24-6.18c-0.47-1.67-1.18-5.23-1.18-5.23
		s-8.09-0.71-7.37,0.47c0.71,1.19-0.48,5.95-2.86,6.42c-2.37,0.47-4.99-0.95-6.18-3.09c-1.19-2.14,0.95-4.28,0-4.52
		c-0.95-0.24-7.13-0.24-8.32,0c-1.19,0.24-0.71,11.17-0.71,11.17s-3.33,0.24-4.28,0c-0.95-0.24,0-5.23,0-6.9
		c0-1.66-0.24-4.28-0.95-4.52c-0.71-0.24-16.16-0.48-17.35-0.24c-1.19,0.24-0.24,3.33-0.48,4.28c-0.24,0.95-0.24,6.66-0.24,6.66
		l-3.8,0.24c0,0-0.24-3.09,0-4.75c0.24-1.67,0-3.8-0.71-5.23c-0.71-1.43-0.71-3.8-0.71-3.8l83.45,0.95c0,0,0,0,0.24,0.95
		C2364.96,531.29,2363.06,533.2,2362.58,534.62z M2291.65,523.65v-22.53h9.51v22.53H2291.65z M2317.7,524.69v-22.95h9.92v22.95
		H2317.7z M2344.16,525.1v-23.36h9.51v23.36H2344.16z M2276.78,481.73l46.72-21.04l47.07,22.11L2276.78,481.73z M2381.38,574.3
		h-9.31v-19.43h9.31V574.3z M2381.38,546.39h-8.27v-10.96h8.27V546.39z M2405.98,546.19h-7.44v-10.13h7.44V546.19z M2430.99,574.3
		h-8.89v-19.64h8.89V574.3z M2422.93,546.39v-10.54h7.86v10.54H2422.93z M2455.8,573.89h-8.89v-19.23h8.89V573.89z M2456.01,545.77
		h-8.07v-10.34h8.07V545.77z M2479.99,573.68h-8.48v-19.44h8.48V573.68z M2480.61,546.39h-7.86v-10.54h7.86V546.39z M2515.14,573.48
		h-8.68v-19.23h8.68V573.48z M2507.69,546.6v-10.75h6.82v10.75H2507.69z"/>
</g>
</svg>
