<svg xmlns="http://www.w3.org/2000/svg" viewBox="0 0 800 302.45"><defs><style>.cls-1,.cls-2{fill:#e9ae8c;}.cls-2{fill-rule:evenodd;}</style></defs><g id="Capa_2" data-name="Capa 2"><g id="_1" data-name="1"><rect class="cls-1" y="290.74" width="800" height="11.71"/><path class="cls-2" d="M100.25,236v61.75l3.46,4.7H66.36l2.84-4.7h.09V260.4l-1.86-5.15h1.95a14.73,14.73,0,0,0-29.37,0h2L40.1,260.4v37.35h.09l3.37,4.7H6.3l2.75-4.7V229.08L1,222.78H.71v-.62H9.05V212h91.2v10.2h8.43v.62h-.44l-8,6.3V236Z"/><path class="cls-2" d="M102.83,249.31v11.35h.62v41.79H210.18V260.66h1.15V248h-1.5V153.22H212v-2.66H207.7v-4h-1.51v-1.24h-.45l-1.68-3-1.78-3.2-1.68,3.2-1.69,3h-.44v1.24h-25.2v4h-4.35v2.66h2.4v43.21H160.85l-1.69-12.69-.35-3.37v-18.1h2.84v-2.22h-2.84v-2.4h-2.4v2.4h-2.83v2.22h2.83v17.66l-.53,3.81-1.68,12.69H142.4V153.22h2.13v-2.66h-4.26v-4H115.6v-1.24h-.44l-1.69-3-1.68-3.2-1.78,3.2-1.59,3h-.54v1.24h-2v4H101.5v2.66h2.39V248h-1.06Zm39.57-48.89h11.89v7.45l-.71,1.15-4.08,6.4h-7.1v-15Zm18.45,0h10.47v15h-5.68l-4-6.4-.8-1.15Zm-16.59,32.65a12.53,12.53,0,0,1,11.62-11.89,12.6,12.6,0,0,0-11.62,11.89Zm13.58-11.89a12.31,12.31,0,0,1,7,2.84,12.31,12.31,0,0,0-7-2.84Zm45.6-4.88H177.71V196.78h25.73V216.3Zm-9.23-16.41c.89,0,1.69.53,1.69,1.15v13.22h-3.38V201c0-.62.71-1.15,1.69-1.15Zm-6.65,0c.88,0,1.68.53,1.68,1.15v13.22h-3.37V201c0-.62.71-1.15,1.69-1.15ZM198,222.78h3.46v-3.46H198Zm-18.19,0h3.55v-3.46h-3.55Zm-53.06-22.89c.89,0,1.69.53,1.69,1.15v13.22H125.1V201c0-.62.71-1.15,1.68-1.15Zm-6.65,0c.89,0,1.6.53,1.6,1.15v13.22h-3.29V201c0-.62.71-1.15,1.69-1.15Zm10.47,22.89h3.46v-3.46H130.6Zm-18.19,0h3.46v-3.46h-3.46Zm91.29,77.1h-2.39V276.45c0-7.18-10.56-13-10.56-13s-10.56,5.86-10.56,13v23.43h-3.46V260.66h27v39.22Zm-33.45,0h-2.74V276.45c0-7.18-10.56-13-10.56-13s-10.56,5.86-10.56,13v23.43h-3V260.66h26.88v39.22Zm-33.44,0h-3V276.45c0-7.18-10.56-13-10.56-13s-10.55,5.86-10.55,13v23.43H110V260.66h26.8v39.22Z"/><path class="cls-2" d="M547.85,296.15h1.78l-13.4-25.91a39,39,0,0,0-52.08-1.68l-14.28,27.59h2.57v6.3H438.73v-6.3h4.43l27.77-53.67V234.4h5.95l9.84-28.21v-.63h.18l2.75-8h-1.06v-7.45h3.1v-1.42h-4.61v-8.08h7c5.23-41,7.72-111.43,8.52-134h-.18V44.89h.26l.09-4.35h-1.24V33.27h3.2v-9h3.72V11.62h1.24V0h1.42V11.62h1.33V24.31h3.64v9h3.28v7.27H518l.18,4.35h.18v1.78h-.09c.44,12.68,1.33,40.72,3.11,70.18l.08.26-.08.09c1.06,17.83,2.39,36,4,51.64.44,4.25,1,8.07,1.33,11.79h7.09v8.08h-4.61v1.42h3v7.45h-.71l2.75,8,10,28.84h3.1v7.54l.62-.26,28.21,54.47h5.33v6.3H547.85Zm-68.49-63.61h0l9-5.24-5.23-5.05Zm5.06-14.46h0l8-5.24-4.52-4.52Zm4.7-13.31h0L495,201l-3.55-3Zm40.46-7.19h-.27l-3.37,3.19,5.94,3.46Zm3.81,10.83h0l-4.17,4.25,7.19,4.53Zm4.7,13.48h0l-5.67,5.41,9.49,5.5ZM509.44,40.54h0l-2.13,1.78-2.13-1.78Zm-2.75,2.4h0l-2.49,2,.18-4Zm-1.33,2h0l1.77-1.51,1.6,1.51Zm2.48-2h0l1.77-1.42v3Zm1.77,4h0L507,49.59l-2.75-2.92h5.41Zm-3.37,3.46h0L504,52.7l.09-4.79ZM504,53.85h0l2.84-2.93,2.58,2.93Zm3.46-3.63h0L509.61,48v4.52Zm2.13,5.41h0l-2.84,2.84-2.57-2.93h5.41ZM506,59.09h0l-2.31,2.48.17-5Zm-2.4,3.72h0l3.11-3,2.57,3.1h-5.68Zm3.73-3.72h0l2.3-2.31v5Zm2.3,5.68h0l-2.92,2.83-2.76-3h5.68Zm-3.72,3.54h0l-2.58,2.49v-.53l.18-4.62Zm-2.4,3.47h0l3-2.85,2.57,2.85Zm3.64-3.47h0l2.48-2.3v5Zm2.48,5.77h0l-2.92,2.57-3.2-3.19h5.95l.17.09Zm-3.72,3.19h0L503,79.76l.27-5.23Zm-2.84,3.55h0l3.46-2.92,2.84,2.92Zm4.08-3.55h0l2.48-2v4.44Zm4.17-3.46h0l.27-.35h5.94l-3,3.19-3.2-2.75Zm-8.07-.35h0v0Zm6.38,9.14h0l-3.37,2.84-2.93-2.93h6.3Zm-4.08,3.46h0l-2.92,2.48.17-5.23Zm-3.1,3.64h0l3.72-3,3,3.19h-6.74Zm4.43-3.64h0l2.58-2.31v5.06Zm2.49,5.59h0L506,94.58l-3-3.11h6.39Zm-4.08,3.55h0L502.16,98l.18-5.68Zm-2.84,3.55h0l3.46-2.93,2.93,2.93Zm4.26-3.55h0l2.66-2.4v2.84l-.09,1.42V98Zm-4.08-3.73h0l-.27.8.09-.8Zm6.38,9h0l-3.19,2.84L503,100.43ZM505,104h0l-3.37,3,.27-6Zm-2.75,3.82h0l3.46-3.2,3.28,3.2Zm4.26-3.91h0l2.75-2.39-.09,1.5v2.31l-.09,1.07Zm1.95,5.59h0l-3.1,2.57-2.58-2.57Zm-4,3.46h0l-3.37,2.75.44-5.85Zm-2.84,3.82h0l3.64-3.11,2.93,3.11Zm4.61-3.82h0l2.75-2.48v1.15l-.17,4Zm2.49,5.5h0l-3.37,2.84-2.67-2.84ZM504.47,122h0l-3.91,3.37.45-6.92Zm-2.57,3.73h0l3.37-2.84,2.84,2.84Zm4.34-3.73h0l2.49-2v.36l-.09.44v2.31l-.09,1.41Zm1.69,5.41h0L504.74,130l-2.49-2.58Zm-4.09,3.46h0l-3.9,3.29.53-6.75Zm-2.74,3.82h0l3.55-3,3,3Zm4.52-3.82h0l2.84-2.48-.09,1v.7l-.17,3.37Zm1.69,5.5h0l-3.38,2.75-2.65-2.75ZM503,139.82h0l-3.64,2.93.53-6.3ZM500,143.64h0l3.81-2.93,2.67,2.93Zm4.62-3.73h0l3.37-2.57c-.09,1.86-.18,3.9-.36,5.77Zm2.39,5.5h0L503.67,148l-2.57-2.57Zm-4.26,3.38h0l-4.17,3.28c.18-2.13.36-4.44.54-6.66h.35Zm-2.93,3.81h0l3.64-3,2.84,3Zm4.62-3.73h0l3-2.39c-.09,1.77-.17,3.54-.35,5.23Zm1.15,5.41h0l-2.93,2.4-2.22-2.4Zm-3.9,3.2h0l-3.9,3c.26-2,.44-4.07.53-6.21h.44Zm-3.37,4.17h0l4.08-3.37,3.28,3.37Zm5-4.08h0l3.55-2.84c-.18,2-.26,4.08-.53,5.94Zm2.4,5.77h0l-3.9,3-2.75-3ZM501,167.06h0l-3.82,3.19h-.26c.17-2.21.35-4.52.62-6.83Zm-2,3.19h0l2.84-2.3,2.12,2.3Zm3.81-3h0l3.37-2.67c-.26,1.87-.44,3.82-.62,5.51Zm2.31,4.7h0l-4.35,3.55-3.28-3.55Zm-5.24,4.26h0l-4,3.2c.18-2.14.53-4.35.71-6.57ZM496,180.63h0l4.52-3.54,3,3.19v.09l-.09.26Zm5.5-4.34h0l3.46-2.75c-.35,2-.62,3.81-1,5.41ZM511.66,40.54h0l2.21,1.78,2-1.78Zm2.84,2.4h0l2.12,1.69-.09-3.55Zm1.15,2h0L514,43.38l-1.68,1.51Zm-2.4-2h0l-1.95-1.69v3.47Zm-1.95,3.82h0l2.93,2.92,2.48-2.83v-.09Zm3.55,3.63h0l1.95,2.13-.09-4.17Zm2,3.38h0l-2.57-2.76-2.75,2.93h5.32Zm-3.28-3.46h0l-2.31-2.4v5Zm-2.13,5.32h0l2.93,2.93,2.39-2.93ZM515,59.09h0l2.13,2.13-.09-4.44Zm2.21,3.37h0L514.5,59.8l-2.58,3.1h5.32Zm-3.46-3.37h0L511.3,56.6v5.59Zm-2.48,5.5h0l3.2,3,2.74-3Zm3.91,3.72h0l2.3,2.13-.18-4.52Zm2.3,3.47h0l-2.93-2.85-2.48,2.85Zm-3.64-3.47h0l-2.57-2.48v5.41Zm1.34,9h0l2.66,2.31-.18-4.88ZM518,80.73h0l-3.38-2.83-2.92,2.92H518Zm-4.09-3.46h0l-2.57-2.21v4.79Zm-2.39,5.24h0l3.46,2.93,2.93-2.93Zm4.17,3.55h0l2.66,2.31L518,83.66Zm2.66,3.46h0L515,86.68l-3,3.19h6.39Zm-4-3.46h0l-2.93-2.49V89Zm-2.84,5.41h0l3.64,3.11,3.1-3.11Zm4.43,3.73h0l2.84,2.48-.26-5.14Zm2.84,3.55h0l-3.54-2.93-2.93,2.93ZM514.5,95.2h0l-3-2.66v3.1l.09,1.42v1.07Zm-2.31,5.23h0l3,2.84,2.83-2.84Zm3.9,3.55h0l3.11,2.75-.27-5.5Zm2.84,3.82h0l-3.46-3.2-3.28,3.2Zm-4.35-3.91h0l-3-2.66.09,1.77v2.31l.09,1.33Zm-2,5.59h0l3.11,2.57,2.57-2.57Zm4,3.46h0l3,2.49-.27-5.33Zm2.84,3.82h0l-3.55-3.11-3.1,3.11Zm-4.52-3.82h0l-3.19-2.66.17,1.33.09,4.26Zm-2.49,5.5h0l3.2,2.84,2.84-2.84Zm4.17,3.55h0l3.64,3.2-.44-6.39Zm2.58,3.73h0l-3.29-2.84-2.84,2.84ZM514.94,122h0l-2.84-2.31v.63l.09.44v2.31l.09,1.68Zm-1.69,5.41h0l3,2.58,2.66-2.58Zm4,3.46h0l3.64,3-.35-6.3Zm2.84,3.82h0l-3.55-3-3.1,3Zm-4.52-3.82h0l-3.11-2.66.09,1.16v.7l.09,3.73Zm-1.78,5.5h0l3.46,2.75,2.49-2.75Zm4.44,3.46h0l3.2,2.75-.45-5.76Zm2.75,3.82h0l-3.64-2.93-2.83,2.93Zm-4.61-3.73h0L512.81,137c.09,2.22.26,4.35.35,6.39Zm-2.31,5.5h0l3.37,2.57,2.57-2.57Zm4.35,3.38h0l3.9,3.1c-.26-2.22-.44-4.26-.53-6.48h-.09Zm2.93,3.81h0l-3.82-3-2.75,3Zm-4.71-3.73h0l-3.28-2.66c.09,1.95.27,3.9.36,5.77Zm-1.06,5.41h0l2.93,2.4,2.21-2.4Zm3.9,3.2h0l3.55,2.84c-.18-2-.44-4-.53-6h-.09Zm3.37,4.17h0l-4.25-3.37-3.11,3.37Zm-5.14-4.08h0l-3.82-3.2c.09,2.31.36,4.53.54,6.66Zm-2.31,5.77h0l3.73,3,2.93-3Zm4.7,3.72h0l3.91,3.19c-.27-2.12-.45-4.34-.71-6.47Zm2,3.19h0l-2.67-2.3-2.21,2.3Zm-3.64-3h0l-3.64-2.93c.18,2,.36,4.08.71,5.94Zm-2.4,4.7h0l4.35,3.55,3.28-3.55Zm5.33,4.26h0l3.63,2.93c-.17-2-.53-4-.71-6Zm3.63,4.43h0l-4.43-3.54-3.29,3.46.09.08Zm-5.41-4.34h0l-3.64-3c.27,2.22.62,4.17,1,5.86Zm-29.28,29.27h9.94L496,202Zm10.11-8h0L496,200.33l-3.11-2.75Zm-3.28,3.73h0l5.77-3.73h.8l-1.06,8h-.36Zm27.78.35h0l-4.18,3.9h10.92Zm-4.53-4.08h0l4.44,2.57,2.75-2.57Zm3.37,3.46h0l-6.21-3.46,1.33,8Zm-38.24,18.54h13.75l-5.5-5.41Zm15.44-12.33h0L493.73,212l-4.7-4.71Zm-5.77,6h0l6.92-4.43-1.6,9.85Zm32.65.71h0l-5.59,5.59h14.73Zm-7.27-6.74h0l7.27,4.53,4.53-4.53Zm5.94,5.86h0l-7.27-4.53,1.5,9.5.09.71ZM531,228.63h0l-5.86,5.77h15.35Zm-8.52-7.36h0l8.43,5.06,5.23-5.06Zm6.92,6.57h0l-7.9-4.8,1.69,10.74Zm-49.15,6.56h15.52l-6-5.77Zm18-13.13h0l-8.34,5.06-5.32-5.06Zm-6.92,6.57h0l8.51-5.06-1.77,11.44Zm35.13,23.51h0v2.75c.62.26,1.25.53,1.78.71Zm-.71,2.48h0v-3.9l-1.15-2.22v5.68Zm-2-.62h0v-6.92l-.71-1.42h-.44v7.9Zm-1.95-.71h0v-7.63h-1.07v7.36Zm-1.87-.36h0v-7.27h-1.15v6.92Zm-2-.44h0v-6.83h-1.15v6.66Zm-1.86-.35h0v-6.48H515v6.3Zm-1.86-.27h0v-6.21h-1.16V251Zm-1.87-.09h0v-6.12H511.3v6Zm-2-.09h0v-6h-1.15v6Zm-1.95,0h0v-6h-1.07v6Zm-1.86,0h0v-6h-1.16V251Zm-1.95.18h0v-6.21h-1.16v6.3Zm-1.87.18h0v-6.39h-1.15v6.48Zm-1.86.35h0v-6.74h-1.16v6.92Zm-1.86.27h0v-7H498v7.36Zm-2,.53h0v-7.54h-.8l-.35.62v7.28Zm-1.95.53h0V247l-1.06,2.22v4.08Zm57.4,41.17h0l4.62-5.85-9.94-4.44Zm6.3-7.81h0l4.53-5.59h-17Zm6.21-3.9h0l-3.9,5,8.43,3.63Zm-5.59,6.92h0l-5.41,6.83h18.1l-.8-1.6Zm-15.25-11.27h0l5.14-3.63-8.52-3Zm7.18-5h0l4.79-3.28H542.62Zm7.36-2.93h0l-5.23,3.64,8.69,3.11Zm-7.36,5.06h0L546.08,279H562Zm-10.56-7.1h15l-9.85-3.54Zm-2.13-.7h0l5.15-3.56-8.61-3.1Zm7.28-5.06h0l5.06-3.46H536.41Zm7.18-2.75h0l-5,3.55,8.51,3.1Zm-19.69-2.31h18.54L550.42,254H531.88Zm-66.9,37h0l-4.7-6,10.2-4.44Zm-6.39-8h0l-4.43-5.59h16.94Zm-6-3.81h0l3.73,4.88-8.08,3.55Zm5.42,6.83h0l5.5,6.83H447.24l.8-1.68Zm14.1-8.61h0l1.33-2.57-5.23-3.72,8.69-3.11-3.46,6.83Zm-6-7.63h0L463,269.8H476.7Zm-7.1-2.84h0l5.06,3.55-8.52,3.11Zm7.1,5h0l5.5,3.82h-16Zm10.65-7.1h-15l9.85-3.54Zm71.15-15.79H531l-3.82-7.45h18.54Zm-69,15.18h0l-5.23-3.65,8.87-3.1Zm-7.27-5.15h0l-5.06-3.46h14.64Zm-7.19-2.67h0l5.06,3.47-8.43,3Zm19.88-2.39H467.29L469,254h18.63Zm2.48-5H469.87l3.9-7.45h18.54Zm16.5-49.86h11.62l4.89,31.94H499.85l2.49-16.32Zm11.27-1.69H505.09l.53-3.19h10Zm-22.8,52.79h0v-2.92l-1.95,3.72a13.7,13.7,0,0,1,1.95-.8Zm38.77,8.7h0l-1-1.86a43.34,43.34,0,0,0-42.41-.8l-.89,1.77a43.12,43.12,0,0,1,44.27.89Z"/><path class="cls-2" d="M346.1,226.77v6.3h.8v1.15h-.27c22.63,14.29,9.94,18.72,12.6,21.56-4.34-.09-8.69-.09-13.13,0H332.79c1.69-3.1-11.44-7.18,12-21.56h-.27v-1.15h.8v-5.95h-.53a2.38,2.38,0,0,1-2.22-1.59,2.17,2.17,0,0,0,1.6.62,2.46,2.46,0,0,0,2.48-2.4,2.25,2.25,0,0,0-.17-.79,2.17,2.17,0,0,1,.79,1.68,2.49,2.49,0,0,1-1.15,2.13Zm-44.18,34.51c.26-.53-1.86-1.15,2-3.55,3.72,2.4,1.68,3.11,2.13,3.55Zm-.18,4.08H306v-2.3h-4.26Zm.8-.53h.8V263.5h-.8Zm1.95,0h.71V263.5h-.71Zm-1,0h.7V263.5h-.7Zm-2.31-2h5.41v-.44h-5.41Zm0-.8h5.41v-.44h-5.41Zm0,4.08h5.41v-.35h-5.41Zm0,.53h5.41v-.35h-5.41Zm.44.09h4.44v11h-4.44Zm4.44,11.72v9.49h-4.44v-9.49Zm0,10.2v5.86h5.23V267.32l8.79-1.78v28.93h.35V260.75h1.15v-.35h10.3v-3.11h27.68v2.57h0v.54h10.64v.35h.89v33.72h.53V265.1l8.52,2.4v27h5.77v-5.86h4.34v5.86h7.9V285h7.1v9.5h9.05v2.39h-137v-2.39h9.32V285h7.18v9.5h7.81v-5.86Zm-12.6-48.09c-.45-.8,3-1.77-3.28-5.59-6.12,3.73-2.75,4.88-3.46,5.59Zm.18,6.66h-6.83v-3.73h6.83Zm-1.25-.8h-1.15v-2.13h1.15Zm-3.19,0h-1.15v-2.13h1.15Zm1.6,0h-1.16v-2.13h1.16Zm3.9-3.11h-8.87v-1h8.87Zm0-1.42h-8.87V241h8.87Zm0,6.48h-8.87v-.89h8.87Zm0,.89h-8.87v-.62h8.87Zm119.6,53.23h-137v-4.79h137Zm-120.49-53h-7.18v17.83h7.18Zm104.61-8.88c.53-.8-3-1.77,3.37-5.59,6.12,3.73,2.75,4.88,3.46,5.59Zm6.74,6.66v-3.73h1V242.3h-8.88v1.15h1v3.73h-1v2.22h.89v17.83h7.1V249.4h.89v-2.22Zm-5.59-.8h1.15v-2.13H399.6Zm3.11,0H404v-2.13h-1.24Zm-1.51,0h1.15v-2.13H401.2Zm-3.91-4.26h8.88V241h-8.88Zm8,26.26v15.35h-7.1V268.38Zm-71.69,26.09H358V262.26h-24.4Zm56.52-33.19c-.27-.53,1.86-1.15-2-3.55-3.82,2.4-1.69,3.11-2.13,3.55Zm.17,4.08H386v-2.3h4.25Zm-.88-.53h-.71V263.5h.71Zm-1.87,0h-.71V263.5h.71Zm.89,0h-.71V263.5h.71Zm2.39-1.95H385.4v-.53h5.41Zm0-.89H385.4v-.44h5.41Zm0,4.08H385.4v-.44h5.41Zm0,.62h-.53v11h-4.34v-11h-.54v-.44h5.41Zm-4.87,11.72v9.49h4.34v-9.49Zm-99.28-10v15.35h7.18V268.38Zm31,16.86v6.56l-4.52.09v-6.12c0-1.15,2.12-3,2.21-3s2.31,1.34,2.31,2.49Zm0-11v6.47l-4.52.54v-6.48c0-1.25,2.12-3.11,2.21-3.11s2.31,1.25,2.31,2.58Zm56.51,11v6.56l4.53.09v-6.12c0-1.15-2.22-3-2.31-3s-2.22,1.34-2.22,2.49Zm0-11v6.47l4.53.54v-6.48c0-1.25-2.22-3.11-2.31-3.11s-2.22,1.25-2.22,2.58Zm-13.3-14.38c.53-1-3.73-2.13,4.08-6.83h-.36v-.35h.27v-1.6h-.27a.9.9,0,0,1-.71-.53,1,1,0,0,0,.54.17.77.77,0,0,0,.79-.71.35.35,0,0,0-.08-.26.54.54,0,0,1,.26.53.82.82,0,0,1-.26.62v1.78h.17V253H365c7.45,4.53,3.55,6,4.26,6.83Zm-12.87,15.8v5h5.15v-5.23c0-3-7-7.1-7.37-7.1s-7.36,4.08-7.36,7.1v5.23h5.06v-5c0-.89,2.13-2.14,2.3-2.14s2.22,1.25,2.22,2.14Zm0,11.26v5h-4.52v-5c0-1,2.13-2.21,2.3-2.21s2.22,1.24,2.22,2.21Zm5.15-4.43H338.47v9.4h-2.13v-27h18.9v27h-2Zm-28.57-5.68h1.78v3.37h-1.78Zm0,11.71h1.78v3.37h-1.78Zm40.72,0h1.78v3.37h-1.78Zm0-11.71h1.78v3.37h-1.78ZM323,262.52h1.6v2.4H323Zm44.36,0h1.69v2.4h-1.69Zm-2.66,0h1.6v2.4h-1.6Zm-2.75,0h1.6v2.4H362Zm-33.45,0h1.6v2.4h-1.6Zm-2.75,0h1.6v2.4h-1.6ZM363,282.22h2.48a12.05,12.05,0,0,0-1.33.89,3.09,3.09,0,0,0-1.24,2v7.1h6.83v-7.1a3.21,3.21,0,0,0-1.33-2,7,7,0,0,0-1.33-.89h2.66v-.71H363Zm-40.81-12.07h3a20.31,20.31,0,0,0-1.77,1.25,3.21,3.21,0,0,0-1.33,2v7.09h6.83v-7.09a3.21,3.21,0,0,0-1.33-2,7.58,7.58,0,0,0-1.78-1.25h3.11v-.7h-6.74Zm0,12.07h2.57a7,7,0,0,0-1.33.89,3.21,3.21,0,0,0-1.33,2v7.1h6.83v-7.1a2.89,2.89,0,0,0-1.33-2,5.79,5.79,0,0,0-1.24-.89h2.57v-.71h-6.74Zm40.63-12.07H366a6,6,0,0,0-1.78,1.25,2.89,2.89,0,0,0-1.33,2v7.09h6.83v-7.09a3.21,3.21,0,0,0-1.33-2,20.31,20.31,0,0,0-1.77-1.25h2.84v-.7h-6.66Zm-35.84-20.4a.52.52,0,0,1,.26.53.79.79,0,0,1-.26.62v1.78h.26V253h-.79v-.35h.26v-1.6h-.26c-.27,0-.54-.27-.72-.53a1.26,1.26,0,0,0,.54.17.78.78,0,0,0,.8-.71.32.32,0,0,0-.09-.26Zm-.18,3.28c7.45,4.53,3.64,6,4.26,6.83h-8.34c.62-1-3.73-2.13,4.08-6.83Z"/><path class="cls-2" d="M444.31,163.69h-1.59V152.33l-.18.18-.27-.18V156l-.35-.44-.35.62-.36.62-.44-.62-.36-.62-.44.62-.36.62-.44-.62-.35-.62-.45.62-.35.62-.36-.62-.44-.62-.36.62-.44.62-.36-.62-.44-.62-.35.62-.36.62-.44-.62-.36-.62-.44.62-.36.62-.44-.62-.35-.62-.45.62-.35.62-.36-.62-.44-.62-.36.62-.44.62-.35-.62-.45-.62-.35.62-.36.62-.44-.62-.36-.62-.44.62-.36.62-.44-.62-.35-.62-.45.62-.35.62-.36-.62-.44-.62-.36.62-.44.62-.35-.62-.45-.62-.35.62-.36.62-.44-.62-.35-.62-.45.62-.36.62-.44-.62-.35-.62-.45.62-.35.62-.35-.62-.45-.62-.36.62-.44.62-.35-.62-.45-.62-.35.62-.36.62-.44-.62-.35-.62-.36.53v-3.73l-.27.18-.26-.18v11.36h-1.51v-4.44l-.18.27-.26-.27v36.82h32.38V159.25l-.27.27-.18-.27Zm1,138.76H411V282h34.33Zm-3.37-22.09V261.19H440.5v19.17h-1.07V261.19h-1.5v19.17h-1.07V261.19h-1.42v19.17h-1.15V261.19h-1.42v19.17h-1.15V261.19H430.3v19.17h-1.16V261.19h-1.42v19.17h-1.15V261.19h-1.42v19.17h-1.06V261.19h-1.51v19.17h-1.06V261.19h-1.43v19.17h-1.15V261.19h-1.42v19.17h-1.15V261.19H415v19.17h-1.16V240.7h29.28v39.66Zm-1.42-20.23h1.42V241.59H440.5Zm-25.55,0h1.42V241.59H415Zm2.57,0h1.42V241.59h-1.42Zm2.57,0h1.43V241.59h-1.43Zm2.49,0h1.51V241.59h-1.51Zm2.57,0h1.42V241.59h-1.42Zm2.57,0h1.42V241.59h-1.42Zm2.58,0h1.42V241.59H430.3Zm2.57,0h1.42V241.59h-1.42Zm2.57,0h1.42V241.59h-1.42Zm2.49,0h1.5V241.59h-1.5ZM415.66,151.36l-1.07-.89-1,.89,1,1.06Zm27.86,0-1-.89-1,.89,1,1.06Zm2,6.92-1-.89-.88.89.88,1.06Zm-31.94,0-.89-.89-1,.89,1,1.06Zm.8-7.72v-.62h.53v.62l-.27-.27Zm27.94,0v-.62h.45v.62l-.18-.27Zm-29.89,6.92v-.71h.44v.62l-.18-.18Zm31.93-.09v-.62h.45v.71l-.27-.27Zm-22.71-12L417.34,156l.09.09.09.18.8-1.16.62,1,.18.18.18-.18.62-1,.79,1.25.18-.27.63-1.06.53,1.06.26.27.71-1.25.71,1,.09.18.18-.18.62-1,.62,1,.18.18.18-.18.62-1,.62,1,.17.27.18-.27.62-1.06.54,1.06.26.27.09-.27.62-1,.71,1,.09.18.8-1.16.62,1,.18.18.18-.18.62-1,.79,1.25.18-.27.62-1.06.62,1.06.18.27.71-1.25.71,1,.09.18.8-1.16.62,1,.18.18.18-.18.62-1,.79,1.16.09-.18.09-.09-4.26-10.56ZM423,152.6l-.88-1.51-.27-.35-1.16,1.86.36.18.8-1.33.71,1.33Zm6.66-3.55-.89-1.6-.18-.35-1.15,2,.35.18.8-1.33.71,1.33Zm4.43,0-1-1.6-.18-.35-1.15,2,.35.18.8-1.33.71,1.33Zm2.22,3.55-1-1.51-.18-.35-1.07,1.86.27.18.8-1.33.79,1.33Zm-4.52,0-.8-1.51-.27-.35-1.15,1.86.35.18.8-1.33.8,1.33Zm-4.44,0-.8-1.51-.26-.35-1.16,1.86.36.18.8-1.33.7,1.33Zm-1.68-3.55-.81-1.6-.26-.35-1.15,2,.35.18.8-1.33.71,1.33Zm-6.84,9.32h-3.19v4.34h3.19Zm22.18,0h-3.1v4.34H441Zm-4.34,0H433.4v4.34h3.29Zm-4.44,0H429v4.34h3.28Zm-4.44,0h-3.28v4.34h3.28Zm-4.52,0h-3.2v4.34h3.2Zm6.56-39.84h-2.57v-1.86h2.57Zm-8.33,14.29-1-1-1,1,1,1Zm16.05,0-1-1-1,1,1,1Zm-1.51,3.81-.35.71-.35.71h-.09l-.27-.71-.44-.71-.45.71-.27.71h0l-.35-.71-.44-.71-.36.71-.35.71h0l-.36-.71-.35-.71-.45.71-.35.71h0l-.36-.71-.35-.71-.44.71-.27.71h-.09l-.35-.71-.36-.71-.44.71-.27.71h-.09l-.35-.71-.36-.71-.44.71-.27.71h-.08l-.36-.71-.35-.71-.45.71-.27.71h-.08l-.36-.71-.44-.71-.36.71-.35.71h0l-.27-.71-.44-.71-.44.71-.27.71h-.09l-.26-.71-.45-.71-.27.44V134l-.26.18-.27-.18v4.08h0v6.83h16.59v-6.83h0V134l-.26.18-.27-.18v3.1Zm-7.45-21c0,.27-.09.54-.09.8h.09v-.8Zm-.35,3.2c-1,6.12-3.82,11.53-5.77,17.3V136l.71,1.24.09.18L424,136l.71,1.24.09.18.08-.18.72-1.24.71,1.42.08-.18.71-1.24.71,1.42.09-.18.71-1.24.62,1.24.09.18.09-.18.71-1.24.71,1.42.09-.18.71-1.24.71,1.42.09-.18.71-1.24.53,1.24.17.18.09-.18.63-1.24c.17-.27-5.42-14.73-5.77-17.21Zm1.42,8.34-.89-1.42-.18-.45-1.15,1.87.35.26.8-1.33.71,1.33Zm-3.37,7.63-.8-1.6-.27-.35-1.15,2,.35.18.8-1.43L426,135Zm3.37,0-.89-1.6-.18-.35-1.15,2,.35.18.8-1.43.71,1.43Zm3.37,0-.89-1.6-.26-.35-1.16,2,.44.18.72-1.43.79,1.43Zm-5.33-3.64-.88-1.6-.27-.35-1.06,1.95.35.18.71-1.42.8,1.42Zm3.91,0-.89-1.6-.18-.35-1.15,1.95.27.18.88-1.42.71,1.42Zm-11.36.62v-.62h.53v.62l-.26-.26Zm16.06,0v-.62h.53v.62l-.26-.26Zm-12.69,7.63h-2.48v4.44h2.48Zm12.33,0h-2.48v4.44H436Zm-3.1,0h-2.49v4.44h2.49Zm-3,0h-2.48v4.44h2.48Zm-3.1,0h-2.49v4.44h2.49Zm13.93,99.1h1.42V218.25h-1.42Zm-25.64,0h1.42V218.25H415Zm2.57,0H419V218.25h-1.42Zm2.57,0h1.42V218.25h-1.42Zm2.58,0h1.41V218.25h-1.41Zm2.57,0h1.42V218.25h-1.42Zm2.48,0h1.51V218.25h-1.51Zm2.57,0h1.43V218.25h-1.43Zm2.58,0h1.42V218.25H433Zm2.57,0H437V218.25h-1.42Zm2.58,0h1.41V218.25h-1.41Zm2.57-21.29h1.42V198.56h-1.42Zm-25.64,0h1.42V198.56H415Zm2.57,0H419V198.56h-1.42Zm2.57,0h1.42V198.56h-1.42Zm2.58,0h1.41V198.56h-1.41Zm2.57,0h1.42V198.56h-1.42Zm2.48,0h1.51V198.56h-1.51Zm2.57,0h1.43V198.56h-1.43Zm2.58,0h1.42V198.56H433Zm2.57,0H437V198.56h-1.42Zm2.58,0h1.41V198.56h-1.41Zm5.05-19.43H414v41.52h29.19Zm-25.46-4.44H416V195h1.69Zm23.33,0h-1.68V195H441Zm-2.13,0h-1.68V195h1.68Zm-2.13,0h-1.68V195h1.68Zm-2.13,0H433V195h1.68Zm-2.12,0h-1.69V195h1.69Zm-2.14,0H428.7V195h1.68Zm-2.12,0h-1.69V195h1.69Zm-2.13,0h-1.69V195h1.69Zm-2.13,0h-1.6V195H424Zm-2,0h-1.69V195H422Zm-2.13,0h-1.69V195h1.69Zm8.78-12.42c-.17,0-.35-.09-.53-.09l-.62.63c-.09.35-.09.62-.27.79a.39.39,0,0,1-.44,0,2.87,2.87,0,0,0-.44-.53c-.18-.09-.18-.26,0-.44a1,1,0,0,1,.7-.27l.71-.62c-.17-.09-.17-.36-.17-.53v-.27l-6.39-6.83v-.18h.17c0-.08.09-.08.09,0l6.75,6.3a.66.66,0,0,1,.44-.09,1.57,1.57,0,0,1,.62.18l1.07-1a.19.19,0,0,1-.18-.18.25.25,0,0,1,0-.45,1.69,1.69,0,0,1,1.06-.26l.18-.18v-.45H432V177h-.35l-.27.26c0,.45,0,.89-.18,1.07a.55.55,0,0,1-.53,0l-.09-.09-1.06,1.07a1.2,1.2,0,0,1,.18.53c0,.17-.09.26-.09.35a2.49,2.49,0,0,0,1.33,1,.09.09,0,0,1,.09.09c0,.09,0,.18-.09.18s-.18.08-.18.17-.09.09-.09.18a.31.31,0,0,1-.09.18c-.18,0-.26,0-.26.09a.18.18,0,0,0-.18.17H430c-.09.09-.09,0-.18,0a2.26,2.26,0,0,0-1.06-1.33Zm-.26-10.29h-.63l-.08-1.15h.71Zm-1.16.09c-.26.09-.53.09-.8.18l-.26-1.16h0a3.1,3.1,0,0,1,1-.18h0ZM426,171a1.26,1.26,0,0,1-.62.18l-.45-1.06.81-.27h0Zm-1,.36a3.2,3.2,0,0,1-.81.36l-.62-1a3.27,3.27,0,0,1,1-.45Zm-1.25.62a1.85,1.85,0,0,1-.53.36l-.71-1a3.43,3.43,0,0,0,.71-.44Zm-.88.62a1.58,1.58,0,0,1-.45.36l.18.17c.09-.09.27-.26.35-.35H423l.09-.09c.27-.17.44-.35.71-.53h.09l1.86,3.28a2.11,2.11,0,0,0-.44.27l.18.18a4.55,4.55,0,0,1,3.1-1.07,5.16,5.16,0,0,1,3.37,1.33h.36a3.66,3.66,0,0,0-.89-.71l1.77-3.28h.09l1,.71.09.09h0a4.35,4.35,0,0,0,.62.53,6.28,6.28,0,0,0,.71.8v.09l.09.08a3.48,3.48,0,0,1,.44.72L433.05,177c-.18-.27-.45-.62-.62-.89v.44a5.18,5.18,0,0,1,1.24,3.29,5.08,5.08,0,0,1-8.69,3.63,5,5,0,0,1-1.51-3.63,4.47,4.47,0,0,1,1.06-3l-.18-.18c-.09.09-.18.27-.26.36l-3.2-1.86a3.73,3.73,0,0,1,.71-1v-.09h0c.09,0,.09-.09.18-.18l-.18-.18c-.08.09-.08.18-.18.27l-1-.8a.7.7,0,0,0,.35-.35v-.44l.27-.09c.09-.18.26-.18.45-.18a2.91,2.91,0,0,1,.62-.44h0Zm-1.52,1.6h-.08l-.8-.71h0l.88.62Zm-.17.18a1.92,1.92,0,0,0-.45.71l-.53-.36-.53-.27h0a7.19,7.19,0,0,1,.53-.79h.09Zm-.71,1.06a4.75,4.75,0,0,0-.27.62l-1.15-.53c.09-.18.27-.44.35-.62h0Zm-.53,1.06-.27.8-1.06-.35h-.09c.09-.36.27-.62.35-1h0Zm-.27,1h0l-1.06-.27h0Zm-.09.27a5.49,5.49,0,0,0-.18.62l-1.15-.18c.09-.26.09-.53.18-.8v.09Zm-.18.8h0l-1.06-.09h0v-.09Zm0,.26a2.76,2.76,0,0,0-.08.8h-1.16a3.55,3.55,0,0,1,.09-1Zm-.08,1.33a1.63,1.63,0,0,0,.08.62l-1.24.09h0v-.71Zm.08,1.07c.09.27.09.62.18.89l-1.15.26h0a3.68,3.68,0,0,1-.18-1h0Zm.27,1.06h0l-1.06.27h0Zm0,.27.27.53-1.15.44v.09l-.27-.79h.09Zm.36.8h0l-1,.44h0v-.09Zm.08.17a3,3,0,0,0,.36.8l-1.07.63h0c-.17-.27-.26-.63-.44-.89l.09-.09Zm.62,1.25a.87.87,0,0,0,.36.44l-1.06.71h0a3.77,3.77,0,0,1-.36-.62h0Zm.62.8c.19.26.36.44.54.71l-.8.88H421c-.18-.26-.44-.53-.62-.8h0Zm.9,1.06c.17.09.26.27.44.35l-.71,1h-.09c-.18-.18-.35-.36-.54-.53h0Zm.79.71c.27.18.45.26.71.44l-.53,1.07h-.09a6,6,0,0,1-.8-.62h0Zm1.15.71.54.27-.45,1.06a2,2,0,0,1-.71-.35h0Zm1,.44.8.27-.26,1.15h0l-1-.26Zm1,.36h0l-.18,1h-.09Zm.26.09c.18,0,.45.09.62.09l-.17,1.15h0c-.27,0-.53-.09-.71-.09h0Zm.8.17h.09l-.18,1h0Zm.27,0c.26,0,.62.09.89.09v1.16a4.3,4.3,0,0,1-1.07-.09h0Zm1.33.09a1.49,1.49,0,0,0,.62-.09l.18,1.16v.09h-.8Zm1.15-.09c.27-.08.53-.08.8-.17L431,190h0c-.27.09-.63.09-1,.18h0Zm1.07-.26h0l.26,1h-.09l-.17-1Zm.17-.09a2.29,2.29,0,0,0,.63-.18l.44,1.07v.08a2.07,2.07,0,0,1-.71.18h0Zm.8-.27h.09l.36,1h0Zm.27-.08A5.17,5.17,0,0,0,433,188l.62,1v.08a4.14,4.14,0,0,0-.89.45v-.09Zm1.15-.63a1.87,1.87,0,0,0,.53-.35l.71,1c-.17.17-.44.26-.62.44h0Zm.71-.44h0l.62.8h0Zm.18-.18a3.79,3.79,0,0,0,.62-.53l.89.8h0a6.38,6.38,0,0,1-.8.71h0Zm1-.88c.17-.18.26-.36.35-.45l1,.71a2.15,2.15,0,0,1-.45.53Zm.7-.89a1.92,1.92,0,0,0,.45-.71l1.06.62a7.22,7.22,0,0,1-.53.89h-.09Zm.72-1.07c.08-.18.17-.35.26-.53l1.16.44a2.69,2.69,0,0,0-.36.72h-.09Zm.44-1a2.77,2.77,0,0,0,.26-.8l1.16.27h.09a6.28,6.28,0,0,0-.36,1Zm.44-1.24c0-.18.09-.45.09-.62l1.24.17c-.08.18-.08.45-.17.71h0Zm.18-.89h0l1.07.18h-.09Zm0-.27a2.43,2.43,0,0,0,.09-.8H439a3.62,3.62,0,0,1-.09,1Zm.09-1.33a1.12,1.12,0,0,0-.09-.53l1.24-.18h0v.71Zm-.09-.8h0v-.09l1.07-.08h0v.08Zm0-.26c-.09-.27-.09-.53-.18-.8l1.16-.27v-.09a4.42,4.42,0,0,1,.17,1.07h0Zm-.27-1.25a4.84,4.84,0,0,0-.26-.62l1.15-.44h0a2,2,0,0,1,.18.71h0Zm-.35-.88h0l1-.45h0V176Zm-.09-.18a3.48,3.48,0,0,0-.35-.8l1-.53h.09c.18.27.27.62.45.89Zm-.62-1.15-.27-.53.89-.72a2.85,2.85,0,0,1,.44.62Zm-.62-1a3.72,3.72,0,0,1-.53-.62l.88-.8a5.72,5.72,0,0,0,.62.71v.09Zm-.89-.89a1.1,1.1,0,0,0-.44-.44l.71-1c.18.17.44.35.62.53Zm-.62-.62h0l.71-.79h0l-.62.79Zm-.18-.08c-.27-.18-.44-.36-.71-.54l.62-1,.8.54Zm-1.15-.71a2,2,0,0,0-.53-.36l.44-1.07h0a2.64,2.64,0,0,1,.71.36Zm-1-.54-.8-.27.36-1.15h0c.27.09.62.27.89.36h0Zm-1.24-.35c-.18-.09-.44-.09-.62-.18l.18-1.16c.26.09.53.09.71.18h0Zm-.8-.18h-.09l.18-1.07h0Zm-.26,0a3,3,0,0,0-.89-.09v-1.15h1.06Zm-5.42,1.24c.27-.17.45-.26.72-.44h.08l.27-.09h0c.27-.09.44-.18.71-.27h.09l.18-.09h.17c.27-.09.53-.09.8-.17h.44v-.09h.63v3.73a5.62,5.62,0,0,0-2.22.62Zm4.53-1.15a2.43,2.43,0,0,1,.8.09H430a4.09,4.09,0,0,1,.62.17h.09l.27.09h.09l.8.27v.09H432c.09,0,.18.09.27.09h0l.09.09h0c.18,0,.35.17.53.26l-1.86,3.2a6.08,6.08,0,0,0-2.22-.62Zm7.72,4.79a3.1,3.1,0,0,1,.35.8h0l.09.08c0,.09,0,.18.09.18v.09h0c.09.27.18.62.27,1h0a7.18,7.18,0,0,1,.26,1.95h-3.73a5.75,5.75,0,0,0-.53-2.22Zm1.06,4.52a2.43,2.43,0,0,1-.09.8h0a5,5,0,0,1-.17,1.07h0a9.7,9.7,0,0,1-.8,2.21l-3.29-1.86a6.08,6.08,0,0,0,.62-2.22Zm-1.33,4.44a4,4,0,0,1-.44.8l-.18.18-.09.08h0c-.17.18-.26.36-.35.45l-.18.09-.09.17h0l-.18.09h.09a5,5,0,0,0-.62.53h-.09V187l-.09.09c-.26.18-.44.27-.71.44l-1.86-3.28a6.15,6.15,0,0,0,.89-.71,3.61,3.61,0,0,0,.71-.88l3.19,1.86Zm-3.37,3.28a5.17,5.17,0,0,1-.71.36v-.09l-.18.09-.08.09-.18.09h0a1.26,1.26,0,0,0-.54.17h-.08c-.09,0-.27.09-.36.09h-.09a3.68,3.68,0,0,1-1,.18h-.18a1.93,1.93,0,0,1-.71.09v-3.73a6.28,6.28,0,0,0,2.22-.62Zm-4.52,1.07a2.4,2.4,0,0,1-.8-.09h-.45a6.18,6.18,0,0,1-.62-.18h0a8,8,0,0,1-1.33-.44h-.09c-.26-.09-.53-.27-.8-.36l1.87-3.28a6.28,6.28,0,0,0,2.22.62Zm-4.53-1.34a6.11,6.11,0,0,1-.71-.44h.09l-.09-.09-.26-.09v-.08h-.09c-.09-.18-.27-.27-.45-.45h.09l-.09-.09-.17-.17-.18-.09a4.29,4.29,0,0,1-.54-.62h0l-.17-.27-.09-.09-.27-.53h-.09l3.29-1.86a3.69,3.69,0,0,0,.79.88,8.92,8.92,0,0,0,.89.8l-1.95,3.19Zm-3.19-3.37a2.59,2.59,0,0,1-.36-.88h-.09c-.09-.27-.17-.62-.26-.89h0a.79.79,0,0,1-.09-.44h0a6.71,6.71,0,0,1-.27-1.87h3.73a4.84,4.84,0,0,0,.62,2.22Zm-1.07-4.52a3,3,0,0,1,.09-.89h0v-.44h0c.09-.18.09-.44.18-.62h0c0-.18,0-.27.09-.36v-.09h0a6.89,6.89,0,0,1,.26-.71h0l.09-.17v-.09c0-.09.09-.09.09-.18h0l.27-.53,3.28,1.86a4.84,4.84,0,0,0-.62,2.22Zm21-11.89h-12a12.06,12.06,0,0,1,12,12.07Zm-9.41,2h.09l-.26,1.07Zm4.62,2.75h.09l-.71.8-.09-.09Zm2.75,4.61h0l-1.07.27Zm0,5.33h0l-1.07-.27h0Zm-2.66,4.61h0l-.09.09-.71-.8h.09Zm-14.56.09h0l-.08-.09.71-.71h.09Zm4.53-17.39H426l.18,1.07Zm6.83.53h0l-.44,1Zm4.17,3.29h0l-.89.71v-.09Zm1.25,10.29h0l-1.07-.45h0Zm-1.42,2.31h0l-.89-.63Zm-6.92,3.9h0l-.09-1.07Zm-5.24-.71h0l-.09-.09.44-1ZM422.14,188h0v-.09l.71-.8Zm-1.87-1.95h0l.89-.62Zm-1.95-5h0l1.06-.09Zm.71-5.32h0l1,.44Zm3.37-4.17h0v-.09l.62.89v.09Zm2.31-1.34h0l.44,1-.09.09Zm2.66-.62h0l.09,1.07Zm1.24-1.86H416.55v12.07a12.08,12.08,0,0,1,12.06-12.07Zm-12.06,12.07V191.9h12.06a12.07,12.07,0,0,1-12.06-12.06Zm12.06,12.06h12V179.84a12.06,12.06,0,0,1-12,12.06Zm0-.62A11.4,11.4,0,1,1,440,179.84a11.46,11.46,0,0,1-11.36,11.44Zm10.12-.71a.86.86,0,0,1-.89-1,.82.82,0,0,1,.89-.8.87.87,0,0,1,.88.8.9.9,0,0,1-.88,1Zm0-19.87a.9.9,0,0,1-.89-.89.84.84,0,0,1,.89-.88.88.88,0,0,1,.88.88,1,1,0,0,1-.88.89Zm-20.14,0a.89.89,0,0,1-.89-.89.89.89,0,0,1,1.77,0,.89.89,0,0,1-.88.89Zm0,19.87a.86.86,0,0,1-.89-1,.89.89,0,0,1,1.77,0,.86.86,0,0,1-.88,1Zm22.35-23.16v24.85H416.19V167.41Zm.09-2.65h-1.68v1.77H441Zm-23.33,0H416v1.77h1.69Zm2.13,0h-1.69v1.77h1.69Zm2.13,0h-1.69v1.77H422Zm2,0h-1.6v1.77H424Zm2.13,0h-1.69v1.77h1.69Zm2.13,0h-1.69v1.77h1.69Zm2.12,0H428.7v1.77h1.68Zm2.14,0h-1.69v1.77h1.69Zm2.12,0H433v1.77h1.68Zm2.13,0h-1.68v1.77h1.68Zm2.13,0h-1.68v1.77h1.68ZM415,194.83h.35V164.76H415Zm-1.78,0h.45V164.76h-.45Zm.89,0h.44V164.76h-.44Zm27.59,0h.53V164.76h-.53Zm1.78,0H444V164.76h-.44Zm-.89,0h.44V164.76h-.44Z"/><path class="cls-2" d="M771.43,192.17v-1.24l-3.64-1.78v6.12Zm-80.11-33h26.52v7.72H691.32Zm26.52,9v11.8H691.32v-11.8Zm0,13.66V203H691.32v-21.2Zm-19.78-20.23h4.52v1h-4.52Zm15.53,10.38v5.41h-4.27v-5.41a2.05,2.05,0,0,1,2.14-1.77,1.93,1.93,0,0,1,2.13,1.77Zm-6.75,0v5.41h-4.26v-5.41a1.93,1.93,0,0,1,2.13-1.77,2,2,0,0,1,2.13,1.77Zm-6.83,0v5.41h-4.26v-5.41a1.93,1.93,0,0,1,2.13-1.77,2,2,0,0,1,2.13,1.77Zm6.66,15.79h4.52v.89h-4.52Zm-5.6.18h4.53v.89h-4.53Zm3.2,1.15h4.52v1h-4.52Zm2.66,1.69h4.53v1h-4.53Zm-5.32,0h4.52v1h-4.52Zm-3.46,9.05h4.43v1h-4.43Zm-2.22-1.15h4.52v1h-4.52Zm-2.22-1.25h4.53v.89h-4.53Zm17.21-.26h4.53v1h-4.53Zm-2.57-36.65h4.52v1h-4.52Zm-7.1,3.29h4.53v1h-4.53Zm-44.63,64.41h44.9v35.13h-44.9Zm44.9,36.64v37.62h-44.9V264.83ZM689.63,292.6h7.63v1.6h-7.63Zm-7.19-16.06h7.63v1.6h-7.63Zm-9.31.36h7.63v1.6h-7.63Zm5.32,2h7.63v1.59h-7.63Zm4.44,2.84h7.63v1.59h-7.63Zm-9,0h7.54v1.59h-7.54Zm-6,15.35h7.63v1.59h-7.63Zm-3.63-2h7.63v1.59h-7.63ZM660.62,293h7.63v1.69h-7.63Zm10.47-43v9.13H663.9v-9.13a3.63,3.63,0,0,1,7.19,0Zm23.24,0v9.13h-7.18v-9.13a3.31,3.31,0,0,1,3.55-3.11,3.46,3.46,0,0,1,3.63,3.11Zm-11.62,0v9.13h-7.19v-9.13a3.63,3.63,0,0,1,7.19,0ZM667.8,232.36h7.63V234H667.8Zm17.57-1.87H693v1.6h-7.63ZM673.21,236h7.64v1.68h-7.64Zm-16.59,4.26h44.9v1.59h-44.9Zm48.09-99.37-8.87,7.45h18.28Zm7.63,7.72v9.93H697.7v-9.93Zm-9,3.81h3v-2.93h-3Zm77.54,32.12L768.41,195.1h25.91Zm10.56,11.27v14.1h7.9v61.31H762.2V209.91h9v-14.1Zm-12.42,4.79h4.17v-4.17h-4.17Zm-7.54,12.77h6.3v1.25h-6.3Zm21.91,14.56v7.45h-5.94v-7.45a2.72,2.72,0,0,1,2.93-2.58,2.86,2.86,0,0,1,3,2.58Zm-9.58,0v7.45h-5.94v-7.45a2.78,2.78,0,0,1,2.92-2.58,2.87,2.87,0,0,1,3,2.58Zm-9.58,0v7.45h-5.95v-7.45a3,3,0,0,1,5.95,0Zm9.32,21.91h6.3v1.33h-6.3Zm-7.72.26h6.3v1.34h-6.3Zm4.43,1.69h6.39v1.42H780.3Zm3.73,2.4h6.3v1.33H784Zm-7.54,0h6.39v1.33h-6.39Zm-4.88,12.68h6.3v1.33h-6.3Zm-3-1.68h6.3v1.33h-6.3Zm-3-1.69h6.3v1.33h-6.3Zm24-.35h6.3v1.24h-6.3ZM786,211.87h6.3v1.24H786ZM776,216.39h6.3v1.33H776Zm-13.84,3.46h37.18v1.77H762.2Zm0,19.16h37.18v3.73H762.2Zm-83-41.52L664,210.18H695.4ZM692,210.89V227H667.36V210.89Zm-15.08,6H682v-5h-5.06Zm25.73,36,1.24-.62v9.5l2-.89v-9.49l4.26-2v9.49l1.95-1v-9.49l4.26-2v9.49l2-1v-9.5l4.26-2v9.49l1.95-1v-9.49l4.26-2v9.49l2-.89v-9.58l4.26-2v9.49l2-.89v-9.49l4.25-2.13v9.49l2-.88v-9.49l4.17-2v9.49l2-1v-9.49l4.26-2v9.49l1.95-1v-9.5l4.26-2v9.5l.89-.36v31.94l-58.38,28Zm65.12-57.67v2l-1.68-.8v-8.16l-3.73-1.78v8.25l-1.68-.89v-8.16l-3.64-1.77v8.25l-1.78-.89v-8.16l-3.55-1.77v8.25l-1.77-.89v-8.16l-3.64-1.69v8.07l-1.68-.79V178l-3.73-1.78v8.16l-1.69-.8V175.4l-3.63-1.77v8.16l-1.69-.8v-8.16l-3.72-1.78v8.17l-1.69-.8v-8.17l-3.64-1.77v8.16l-1.77-.79v-8.17l-3.55-1.77v8.16l-.45-.18V201.4l42,20.14V208.76h9.41V195.27Z"/><path class="cls-2" d="M287.1,157.39l-1.42,13.31-47.11-5.15,1.42-13.3ZM249.57,278.85c24.58,0,45.78,9.76,54.39,23.6H195c8.78-13.84,29.9-23.6,54.56-23.6Zm-20.94-35.93,50,5.5-.26,3-50.13-5.51ZM248,131.22l36,3.9.26-2.66-36-3.9Zm-9,16.5,50.13,5.41-.35,3.11-50-5.5Zm-2,19,50,5.5-.26,3.1-50.13-5.5Zm-2,19.07,50,5.5-.35,3-50-5.41Zm-2.13,19,50.13,5.5-.44,3.1-50-5.5Zm-2,19.07,50,5.5-.35,3.11-50-5.5Zm48.53-72.66L281,135.92l-30.25-3.28L249,147.9Zm-20.58-11-.53,5.41-5.24-.53.54-5.41a2.63,2.63,0,1,1,5.23.53Zm18,2-.62,5.41-5.23-.62.62-5.41a2.66,2.66,0,0,1,2.92-2.4,2.61,2.61,0,0,1,2.31,3Zm-9-1-.62,5.41-5.23-.62.62-5.41a2.51,2.51,0,0,1,2.92-2.39,2.66,2.66,0,0,1,2.31,3Zm-22.89,14.2-1,8.78-3.11-.35,1-8.79a1.46,1.46,0,0,1,1.69-1.15,1.42,1.42,0,0,1,1.42,1.51Zm30.43,81.18h0l-1.06,8.78-3-.35,1-8.79a1.45,1.45,0,0,1,1.68-1.15,1.69,1.69,0,0,1,1.42,1.51Zm-4.35-.53h0L270,245l-3.11-.36,1-8.78a1.58,1.58,0,0,1,3.1.27Zm-4.34-.36h0l-1,8.7-3-.27.89-8.87a1.51,1.51,0,0,1,1.78-1.07,1.41,1.41,0,0,1,1.33,1.51Zm-4.26-.53h0l-1,8.78-3.1-.35,1-8.78c.09-.72.8-1.16,1.69-1.16.89.18,1.51.8,1.42,1.51Zm-4.35-.53h0l-1,8.87-3-.36.88-8.78a1.51,1.51,0,0,1,1.69-1.15,1.44,1.44,0,0,1,1.42,1.42Zm-4.26-.36h0l-1,8.7-3.11-.27.89-8.87a1.5,1.5,0,0,1,1.77-1.07,1.42,1.42,0,0,1,1.42,1.51Zm-4.35-.53h0l-1,8.78-3.11-.35,1-8.7a1.58,1.58,0,0,1,1.68-1.24c.89.18,1.51.8,1.42,1.51Zm-4.34-.44h0l-.89,8.78-3.19-.35,1-8.79a1.55,1.55,0,0,1,1.78-1.15,1.46,1.46,0,0,1,1.33,1.51Zm-4.26-.45h0l-1,8.79-3.1-.36,1-8.78a1.51,1.51,0,0,1,1.69-1.15,1.47,1.47,0,0,1,1.42,1.5Zm-4.35-.53h0l-.89,8.78-3.19-.35,1-8.7a1.51,1.51,0,0,1,1.68-1.24c.89.18,1.51.8,1.42,1.51Zm40.9-15h0l-.89,8.78-3.19-.35,1-8.79a1.52,1.52,0,0,1,1.68-1.15c.89.17,1.51.8,1.42,1.51Zm-4.26-.45h0L272,225.71l-3-.36,1-8.78a1.45,1.45,0,0,1,1.68-1.15,1.59,1.59,0,0,1,1.42,1.5Zm-4.34-.44h0l-1,8.78-3.11-.35,1-8.88a1.48,1.48,0,0,1,1.69-1.06,1.42,1.42,0,0,1,1.42,1.51Zm-4.26-.53h0l-1.07,8.78-3-.26.88-8.79a1.62,1.62,0,0,1,3.2.27Zm-4.35-.45h0l-1,8.79-3.1-.36,1-8.78a1.58,1.58,0,0,1,3.1.35Zm-4.35-.44h0l-1,8.78-3-.35.89-8.87a1.52,1.52,0,0,1,1.68-1.07,1.42,1.42,0,0,1,1.42,1.51Zm-4.26-.53h0l-1,8.78-3.11-.27,1-8.78c0-.8.8-1.24,1.69-1.24.88.18,1.5.8,1.41,1.51Zm-4.34-.45h0l-1,8.79-3-.36.89-8.78a1.39,1.39,0,0,1,1.69-1.07,1.35,1.35,0,0,1,1.42,1.42Zm-4.35-.44h0l-.89,8.78-3.19-.35,1-8.87a1.58,1.58,0,0,1,1.78-1.07,1.34,1.34,0,0,1,1.33,1.51Zm-4.26-.53h0l-1,8.78-3.11-.27,1-8.78a1.56,1.56,0,0,1,1.68-1.24c.8.18,1.51.8,1.42,1.51Zm40.9-15h0l-1,8.79-3.11-.27,1-8.87a1.39,1.39,0,0,1,1.68-1.07c.8.09,1.51.71,1.42,1.42Zm-4.34-.44h0l-.89,8.78-3.2-.35,1-8.79a1.5,1.5,0,0,1,1.68-1.15,1.48,1.48,0,0,1,1.43,1.51Zm-4.26-.44h0l-1,8.78-3.11-.36,1-8.78a1.45,1.45,0,0,1,1.68-1.15,1.55,1.55,0,0,1,1.43,1.51Zm-4.35-.54h0l-1,8.79-3.1-.27,1-8.78a1.41,1.41,0,0,1,1.69-1.16c.89.09,1.51.71,1.42,1.42Zm-4.26-.44h0L261.19,205l-3-.35.89-8.78a1.63,1.63,0,0,1,3.19.35Zm-4.35-.44h0l-1,8.78-3.11-.36,1-8.78a1.45,1.45,0,0,1,1.68-1.15,1.47,1.47,0,0,1,1.42,1.51Zm-4.34-.45h0l-1,8.7-3-.27.89-8.78a1.49,1.49,0,0,1,1.77-1.16,1.41,1.41,0,0,1,1.34,1.51Zm-4.26-.53h0l-1,8.78-3.1-.35,1-8.78a1.31,1.31,0,0,1,1.69-1.07,1.41,1.41,0,0,1,1.42,1.42Zm-4.35-.44h0l-1,8.78-3-.35.88-8.79a1.51,1.51,0,0,1,1.69-1.15,1.47,1.47,0,0,1,1.42,1.51Zm-4.26-.45h0l-1,8.7-3.19-.27,1-8.78a1.47,1.47,0,0,1,1.77-1.15,1.41,1.41,0,0,1,1.42,1.5Zm40.81-15h0l-.88,8.69-3.11-.26,1-8.87c0-.71.79-1.16,1.59-1.07s1.6.71,1.42,1.51Zm-4.26-.53h0l-1,8.78-3.11-.35,1-8.7a1.51,1.51,0,0,1,1.68-1.24c.8.18,1.51.8,1.42,1.51Zm-4.35-.53h0l-.88,8.87-3.19-.36,1.06-8.78a1.27,1.27,0,0,1,1.6-1.07,1.32,1.32,0,0,1,1.41,1.34Zm-4.25-.36h0l-1,8.78-3.1-.35,1-8.87a1.47,1.47,0,0,1,1.69-1.07,1.54,1.54,0,0,1,1.42,1.51ZM264.3,177h0l-1,8.78-3.1-.35,1-8.7a1.52,1.52,0,0,1,1.69-1.24c.89.18,1.51.8,1.42,1.51Zm-4.26-.45h0L259,185.34l-3-.36.89-8.78a1.66,1.66,0,0,1,3.19.35Zm-4.35-.44h0l-1,8.79-3.11-.36,1-8.78a1.47,1.47,0,0,1,1.68-1.16,1.42,1.42,0,0,1,1.42,1.51Zm-4.34-.53h0l-1,8.78-3-.35.89-8.7a1.68,1.68,0,0,1,1.78-1.24,1.53,1.53,0,0,1,1.33,1.51Zm-4.26-.44h0l-1,8.78-3.1-.36,1-8.78a1.6,1.6,0,0,1,3.11.36Zm-4.35-.45h0l-1,8.78-3-.35.88-8.78a1.52,1.52,0,0,1,1.69-1.16,1.42,1.42,0,0,1,1.42,1.51Zm40.9-15h0l-1,8.78-3.1-.35,1-8.88a1.57,1.57,0,0,1,1.77-1.06,1.4,1.4,0,0,1,1.33,1.51Zm-4.35-.54h0l-.88,8.79-3.11-.27,1-8.78c0-.8.8-1.25,1.59-1.25.89.18,1.6.81,1.42,1.51Zm-4.25-.44h0l-1,8.78-3.11-.35,1-8.78a1.6,1.6,0,0,1,3.11.35Zm-4.35-.44h0l-.89,8.78-3.19-.35,1.06-8.79a1.36,1.36,0,0,1,1.6-1.15c.89.09,1.6.71,1.42,1.51Zm-4.26-.54h0l-1,8.79-3.1-.27,1-8.78a1.52,1.52,0,0,1,1.69-1.24,1.68,1.68,0,0,1,1.42,1.5Zm-4.35-.44h0l-1,8.78-3.11-.35,1-8.79a1.6,1.6,0,0,1,3.1.36Zm-4.26-.44h0l-1,8.78-3.11-.35,1-8.79a1.45,1.45,0,0,1,1.68-1.15,1.54,1.54,0,0,1,1.42,1.51Zm-4.34-.53h0l-1,8.78-3.11-.26,1-8.79a1.39,1.39,0,0,1,1.69-1.15c.88.09,1.51.71,1.42,1.42Zm-4.26-.45h0l-1.07,8.79-3-.36.88-8.78a1.48,1.48,0,0,1,1.78-1.07,1.46,1.46,0,0,1,1.42,1.42Zm35.84,20.58-1.42,13.22-47.11-5.14L238,171.32Zm-2,19.08-1.51,13.22-47.11-5.15,1.51-13.21Zm-2.13,19.08-1.42,13.22-47.11-5.15,1.42-13.22Zm-2,19-1.51,13.31-47-5.14,1.42-13.31Zm-2.13,19.08-3,28c-.71-.18-1.41-.35-2.21-.62l2.3-20.49c.18-2-1.59-3.82-4.08-4.17s-4.61,1.15-4.79,3.28l-2.13,19.7-2.31-.27,2.13-19.7c.18-2-1.59-3.9-4-4.17s-4.61,1.16-4.79,3.2l-2.22,20a16.17,16.17,0,0,0-2-.09h-.26l2.21-20.23c.18-2-1.59-3.9-4-4.17s-4.61,1.16-4.88,3.2l-2.3,21.65-2.4.26,2.4-22.18c.26-2-1.6-3.9-4-4.17s-4.61,1.15-4.79,3.28l-2.75,24.76c-.89.17-1.86.44-2.75.7l3.55-33Z"/><path class="cls-2" d="M591,299.34l-34,.36,4.53-5.5h0l1.68-1.95h0l1.07-1.33h0l1.68-2h0l1.07-1.33h0l1.59-1.86,22.45-27,22.63,26.53c-.19.17-.45.44-.63.62l14.29-13.31v0c2.84,2.48,5.67,5,8.51,7.36,2-3.1,5.33-7,9.59-6.56h0c7.36.26,8.43,11.62,8.43,11.62l-3.91.09.09,2.22a12.71,12.71,0,0,1,3.1,5.14c.09.09.09.18.18.27l.27.35.09.27a12.08,12.08,0,0,0,.53,1.15l-15.7.09c5.23,0,10.46-.09,15.7-.09l-.27-.44-.17-.44-.09-.27a12.08,12.08,0,0,0,.53,1.15c.18.54.8,2,.89,2.58l8.25.35c1.33.36,2,.27,2.92,4.61l-25.54.18c.08.44-12.07-.18-12.07-.18l-25.91-.26a13.64,13.64,0,0,0-.18-2.31Zm24.58-10.2h0a11.83,11.83,0,0,1,1.15.44,11.83,11.83,0,0,0-1.15-.44Zm5.94,1.78a4.06,4.06,0,0,1,1,.08,4.06,4.06,0,0,0-1-.08ZM626.9,299a3.58,3.58,0,0,0-1-.62,3.58,3.58,0,0,1,1,.62Zm26.44-6.21c-.09-.09-.09-.18-.18-.27h0Z"/><path class="cls-2" d="M640,238.84v2.66H626.46v14.28h5.86l-4.08,1.33v45.34h-9V257.2l-4.17-1.42h5.95V241.5H575.89v14.28h5.94l-4.08,1.33v45.34h-9V257.2l-4-1.42h5.85V241.5H557v-2.66h-3.64v-2h17.21v-7.72h-4.08v-3c-5.58-.8-11.35-1.77-17.12-2.93v-6.56c-2.13-.36-4.35-.8-6.57-1.33V210c-2.48-.44-5-1-7.53-1.5v-4.8a385,385,0,0,0,126.42,0v4.8c-2.48.52-5,1.06-7.54,1.5v5.33c-2.13.53-4.35,1-6.56,1.41v6.48c-5.59,1.25-11.36,2.31-17.13,3.11v2.84h-4v7.72h17.12v2ZM580,227.66v1.51h-4.08v7.72h18.54v-8.52c-4.79-.09-9.58-.35-14.46-.71Zm41.08,1.51H617v-1.42c-4.71.44-9.58.62-14.38.71v8.43h18.46Z"/></g></g></svg>