<?xml version="1.0" encoding="utf-8"?>
<!-- Generator: Adobe Illustrator 24.2.1, SVG Export Plug-In . SVG Version: 6.00 Build 0)  -->
<svg version="1.1" id="Capa_1" xmlns="http://www.w3.org/2000/svg" xmlns:xlink="http://www.w3.org/1999/xlink" x="0px" y="0px"
	 viewBox="0 0 320 254.91" style="enable-background:new 0 0 320 254.91;" xml:space="preserve">
<style type="text/css">
	.st0{clip-path:url(#SVGID_2_);}
	.st1{fill-rule:evenodd;clip-rule:evenodd;fill:#E9AE8C;}
</style>
<g>
	<defs>
		<rect id="SVGID_1_" width="320" height="255"/>
	</defs>
	<clipPath id="SVGID_2_">
		<use xlink:href="#SVGID_1_"  style="overflow:visible;"/>
	</clipPath>
	<g class="st0">
		<rect x="-119.84" y="245.82" class="st1" width="610.35" height="8.93"/>
		<path class="st1" d="M-43.35,204.05v1.63v13.2v1.08v2.17v21.73v7.31l2.64,3.59h-7.38h-11.3h-9.81l2.17-3.59h0.07v-28.5l-1.42-3.92
			h5.08h-1.62h-1.96c-0.47-5.75-5.35-10.36-11.17-10.36c-5.96,0-10.76,4.6-11.24,10.36h-1.96h-1.69h5.14l-1.42,3.92v28.5h0.07
			l2.57,3.59h-10.09h-10.9h-7.45l2.1-3.59v-7.31v-21.73v-2.17v-1.08v-13.2v-1.63v-4.67v-0.61l-6.16-4.81h-0.2v-0.2v-0.27h6.36v-4.67
			v-1.28v-1.08v-0.74h69.58v0.74v1.08v1.28v4.67h6.43v0.14v0.34h-0.34l-6.09,4.81v0.61V204.05z"/>
		<path class="st1" d="M-41.39,214.21v7.44v0.61v0.61h0.47v12.45v0.81v4.67v0.81v11.17v1.42v0.54h81.43v-0.54v-1.42v-11.17v-0.81
			v-4.67v-0.81v-12.45h0.88v-0.61v-0.61v-7.44v-1.01h-1.15v-6.97V189.3v-1.08v-15.16v-1.09V140.9h1.62v-2.03h-3.25v-3.05h-1.15
			v-0.95h-0.34l-1.29-2.3l-1.35-2.44l-1.29,2.44l-1.29,2.3h-0.34v0.95H12.35v3.05H9.04v2.03h1.83v31.07v1.09v0.81H2.88l-1.29-9.68
			l-0.27-2.57V147.8h2.17v-1.69H1.32v-1.83h-1.83v1.83h-2.17v1.69h2.17v13.47l-0.41,2.91l-1.29,9.68h-9v-0.81v-1.09V140.9h1.62
			v-2.03h-3.25v-3.05h-18.82v-0.95h-0.34l-1.29-2.3l-1.29-2.44l-1.35,2.44l-1.22,2.3h-0.41v0.95h-1.56v3.05h-3.32v2.03h1.83v31.07
			v1.09v15.16v1.08v16.92v6.97h-0.81V214.21z M-11.2,176.91h9.07v5.69l-0.54,0.88l-3.11,4.88h-5.42v-0.14V176.91z M2.88,176.91h7.99
			v11.3v0.14H6.53l-3.05-4.88l-0.61-0.88V176.91z M-9.78,201.82c0.27-4.87,4.06-8.73,8.87-9.07
			C-5.72,193.09-9.51,197.01-9.78,201.82L-9.78,201.82z M0.58,192.75c2.03,0.14,3.86,0.95,5.35,2.16
			C4.43,193.7,2.61,192.88,0.58,192.75L0.58,192.75z M35.37,189.03H15.74v-0.81v-14.08h19.63v14.08V189.03z M28.33,176.5
			c0.68,0,1.29,0.41,1.29,0.88v10.09h-2.57v-10.09C27.04,176.91,27.58,176.5,28.33,176.5L28.33,176.5z M23.25,176.5
			c0.68,0,1.29,0.41,1.29,0.88v10.09h-2.57v-10.09C21.97,176.91,22.51,176.5,23.25,176.5L23.25,176.5z M31.24,193.97h2.64v-2.64
			h-2.64V193.97z M17.36,193.97h2.71v-2.64h-2.71V193.97z M-23.12,176.5c0.68,0,1.29,0.41,1.29,0.88v10.09h-2.57v-10.09
			C-24.4,176.91-23.86,176.5-23.12,176.5L-23.12,176.5z M-28.19,176.5c0.68,0,1.22,0.41,1.22,0.88v10.09h-2.5v-10.09
			C-29.48,176.91-28.94,176.5-28.19,176.5L-28.19,176.5z M-20.21,193.97h2.64v-2.64h-2.64V193.97z M-34.08,193.97h2.64v-2.64h-2.64
			V193.97z M35.57,252.79h-1.83v-17.87c0-5.48-8.05-9.95-8.05-9.95s-8.06,4.47-8.06,9.95v17.87h-2.64v-11.17v-0.81v-4.67v-0.81
			v-12.45h20.58v12.45v0.81v4.67v0.81V252.79z M10.05,252.79h-2.1v-17.87c0-5.48-8.06-9.95-8.06-9.95s-8.05,4.47-8.05,9.95v17.87
			h-2.3v-11.17v-0.81v-4.67v-0.81v-12.45h20.51v12.45v0.81v4.67v0.81V252.79z M-15.47,252.79h-2.3v-17.87
			c0-5.48-8.05-9.95-8.05-9.95s-8.05,4.47-8.05,9.95v17.87h-2.03v-11.17v-0.81v-4.67v-0.81v-12.45h20.44v12.45v0.81v4.67v0.81
			V252.79z"/>
		<path class="st1" d="M298.14,249.94h1.35l-10.22-19.77c-5.35-5.14-12.66-8.26-20.64-8.26c-7.31,0-13.95,2.64-19.09,6.97
			l-10.9,21.05h1.96v4.8h-25.72v-4.8h3.38L239.45,209v-6.16h4.54l7.51-21.53v-0.47h0.14l2.1-6.09h-0.81v-5.69h2.37v-1.08h-3.52
			v-6.16h5.35c3.99-31.27,5.89-85.02,6.5-102.21h-0.14v-1.35h0.2l0.07-3.32h-0.95v-5.55h2.44v-6.84h2.84v-9.68h0.95V24h1.08v8.87
			h1.01v9.68h2.77v6.84h2.51v5.55h-1.01l0.13,3.32h0.14v1.35h-0.07c0.34,9.68,1.01,31.07,2.37,53.54l0.07,0.2l-0.07,0.07
			c0.81,13.61,1.83,27.48,3.05,39.4c0.34,3.25,0.74,6.16,1.01,9h5.42v6.16h-3.52v1.08h2.3v5.69h-0.54l2.1,6.09l7.65,22h2.37v5.75
			l0.48-0.2l21.52,41.56h4.06v4.8h-25.72V249.94z M245.88,201.41L245.88,201.41l6.84-3.99l-3.99-3.86L245.88,201.41z M249.74,190.38
			L249.74,190.38l6.09-3.99l-3.45-3.45L249.74,190.38z M253.33,180.23L253.33,180.23l4.47-2.85l-2.71-2.3L253.33,180.23z
			 M284.19,174.74L284.19,174.74h-0.2l-2.57,2.44l4.54,2.64L284.19,174.74z M287.1,183L287.1,183l-3.18,3.25l5.48,3.45L287.1,183z
			 M290.69,193.29L290.69,193.29l-4.33,4.13l7.24,4.2L290.69,193.29z M268.83,54.93L268.83,54.93l-1.62,1.35l-1.62-1.35H268.83z
			 M266.73,56.76L266.73,56.76l-1.9,1.49l0.13-3.05L266.73,56.76z M265.71,58.25L265.71,58.25l1.35-1.15l1.22,1.15H265.71z
			 M267.61,56.69L267.61,56.69l1.35-1.08v0.07v0.07v0.34v0.07v0.41v0.07v0.47v0.13v0.68L267.61,56.69z M268.96,59.74L268.96,59.74
			l-2.03,2.1l-2.1-2.23h4.13V59.74z M266.39,62.38L266.39,62.38l-1.69,1.83l0.07-3.66L266.39,62.38z M264.7,65.09L264.7,65.09
			l2.17-2.23l1.96,2.23H264.7z M267.34,62.31L267.34,62.31l1.63-1.69v3.45L267.34,62.31z M268.96,66.44L268.96,66.44l-2.17,2.17
			l-1.96-2.23h4.13V66.44z M266.19,69.08L266.19,69.08l-1.76,1.9l0.13-3.86L266.19,69.08z M264.36,71.92L264.36,71.92l2.37-2.3
			l1.96,2.37h-4.33V71.92z M267.2,69.08L267.2,69.08l1.76-1.76v3.79L267.2,69.08z M268.96,73.41L268.96,73.41l-2.23,2.17l-2.1-2.3
			h4.33V73.41z M266.12,76.12L266.12,76.12l-1.96,1.89v-0.41l0.13-3.52L266.12,76.12z M264.29,78.76L264.29,78.76l2.3-2.17
			l1.96,2.17H264.29z M267.07,76.12L267.07,76.12l1.9-1.76v3.79L267.07,76.12z M268.96,80.52L268.96,80.52l-2.23,1.96l-2.44-2.44
			h4.54l0.14,0.07V80.52z M266.12,82.96L266.12,82.96l-2.23,1.9l0.2-3.99L266.12,82.96z M263.95,85.66L263.95,85.66l2.64-2.23
			l2.17,2.23H263.95z M267.07,82.96L267.07,82.96l1.9-1.56v1.62v0.27v0.47v0.2v0.54v0.27L267.07,82.96z M270.25,80.32L270.25,80.32
			l0.2-0.27h4.53l-2.3,2.44l-2.44-2.1V80.32z M264.09,80.05L264.09,80.05v0.07V80.05z M268.96,87.02L268.96,87.02l-2.57,2.17
			l-2.23-2.23h4.81V87.02z M265.85,89.66L265.85,89.66l-2.23,1.89l0.13-3.99L265.85,89.66z M263.48,92.43L263.48,92.43l2.84-2.3
			l2.3,2.44h-5.15V92.43z M266.86,89.66L266.86,89.66l1.96-1.76v0.41v0.54v0.47V90v0.47v0.68v0.54v0.07L266.86,89.66z M268.76,93.92
			L268.76,93.92l-2.57,2.23l-2.3-2.37h4.87V93.92z M265.65,96.63L265.65,96.63l-2.37,2.1l0.14-4.33L265.65,96.63z M263.48,99.34
			L263.48,99.34l2.64-2.23l2.23,2.23H263.48z M266.73,96.63L266.73,96.63l2.03-1.83v0.41v0.34v1.02v0.41l-0.07,1.08v0.34v0.34
			L266.73,96.63z M263.62,93.79L263.62,93.79l-0.2,0.61l0.07-0.61H263.62z M268.49,100.62L268.49,100.62l-2.44,2.17l-2.17-2.17
			H268.49z M265.44,103.33L265.44,103.33l-2.57,2.3l0.2-4.6L265.44,103.33z M263.35,106.24L263.35,106.24l2.64-2.44l2.5,2.44H263.35
			z M266.59,103.26L266.59,103.26l2.1-1.83l-0.07,1.15v0.2v1.42v0.14l-0.07,0.81L266.59,103.26z M268.08,107.53L268.08,107.53
			l-2.37,1.96l-1.96-1.96H268.08z M265.04,110.17L265.04,110.17l-2.57,2.1l0.34-4.47L265.04,110.17z M262.87,113.08L262.87,113.08
			l2.77-2.37l2.23,2.37H262.87z M266.39,110.17L266.39,110.17l2.1-1.9v0.88l-0.14,3.05L266.39,110.17z M268.29,114.37L268.29,114.37
			l-2.57,2.16l-2.03-2.16H268.29z M265.04,117.07L265.04,117.07l-2.98,2.57l0.34-5.28L265.04,117.07z M263.08,119.91L263.08,119.91
			l2.57-2.17l2.17,2.17H263.08z M266.39,117.07L266.39,117.07l1.9-1.56v0.27l-0.07,0.34v1.35v0.41l-0.07,1.08L266.39,117.07z
			 M267.68,121.2L267.68,121.2l-2.44,1.96l-1.9-1.96H267.68z M264.56,123.84L264.56,123.84l-2.98,2.5l0.41-5.15L264.56,123.84z
			 M262.46,126.75L262.46,126.75l2.71-2.3l2.3,2.3H262.46z M265.92,123.84L265.92,123.84l2.17-1.89l-0.07,0.74v0.54l-0.13,2.57
			L265.92,123.84z M267.2,128.04L267.2,128.04l-2.57,2.1l-2.03-2.1H267.2z M263.89,130.68L263.89,130.68l-2.78,2.23l0.41-4.81
			L263.89,130.68z M261.65,133.59L261.65,133.59l2.91-2.23l2.03,2.23H261.65z M265.17,130.75L265.17,130.75l2.57-1.96
			c-0.07,1.42-0.13,2.98-0.27,4.4L265.17,130.75z M267,134.94L267,134.94l-2.57,1.96l-1.96-1.96H267z M263.75,137.51L263.75,137.51
			l-3.18,2.5c0.14-1.63,0.27-3.39,0.41-5.08h0.27L263.75,137.51z M261.52,140.42L261.52,140.42l2.77-2.3l2.17,2.3H261.52z
			 M265.04,137.58L265.04,137.58l2.3-1.83c-0.07,1.36-0.14,2.71-0.27,4L265.04,137.58z M265.92,141.71L265.92,141.71l-2.23,1.83
			l-1.69-1.83H265.92z M262.94,144.15L262.94,144.15l-2.98,2.3c0.2-1.49,0.34-3.11,0.4-4.74h0.34L262.94,144.15z M260.37,147.33
			L260.37,147.33l3.11-2.57l2.51,2.57H260.37z M264.22,144.21L264.22,144.21l2.71-2.16c-0.13,1.49-0.2,3.11-0.41,4.53L264.22,144.21
			z M266.05,148.62L266.05,148.62l-2.98,2.3l-2.1-2.3H266.05z M262.4,151.46L262.4,151.46l-2.91,2.44h-0.2
			c0.14-1.69,0.27-3.45,0.47-5.21L262.4,151.46z M260.84,153.89L260.84,153.89l2.17-1.76l1.62,1.76H260.84z M263.75,151.59
			L263.75,151.59l2.57-2.03c-0.2,1.42-0.34,2.91-0.47,4.2L263.75,151.59z M265.51,155.18L265.51,155.18l-3.32,2.71l-2.5-2.71H265.51
			z M261.52,158.43L261.52,158.43l-3.05,2.44c0.14-1.63,0.41-3.32,0.54-5.01L261.52,158.43z M258.61,161.81L258.61,161.81l3.45-2.71
			l2.3,2.44v0.07l-0.07,0.2H258.61z M262.8,158.5L262.8,158.5l2.64-2.1c-0.27,1.49-0.48,2.91-0.75,4.13L262.8,158.5z M270.52,54.93
			L270.52,54.93l1.69,1.35l1.56-1.35H270.52z M272.69,56.76L272.69,56.76l1.62,1.29l-0.07-2.71L272.69,56.76z M273.57,58.25
			L273.57,58.25l-1.29-1.15L271,58.25H273.57z M271.74,56.69L271.74,56.69l-1.49-1.29v0.27v0.07v0.34v0.07v0.41v0.07v0.47v0.13v0.81
			L271.74,56.69z M270.25,59.6L270.25,59.6l2.23,2.23l1.9-2.17V59.6H270.25z M272.96,62.38L272.96,62.38l1.49,1.62l-0.07-3.18
			L272.96,62.38z M274.51,64.95L274.51,64.95l-1.96-2.1l-2.1,2.23h4.06V64.95z M272.01,62.31L272.01,62.31l-1.76-1.83v3.79
			L272.01,62.31z M270.38,66.37L270.38,66.37l2.23,2.23l1.83-2.23H270.38z M273.09,69.08L273.09,69.08l1.62,1.62l-0.07-3.38
			L273.09,69.08z M274.78,71.65L274.78,71.65l-2.1-2.03l-1.96,2.37h4.06V71.65z M272.14,69.08L272.14,69.08l-1.89-1.9v4.26
			L272.14,69.08z M270.25,73.28L270.25,73.28l2.44,2.3l2.1-2.3H270.25z M273.23,76.12L273.23,76.12l1.76,1.62l-0.14-3.45
			L273.23,76.12z M274.99,78.76L274.99,78.76l-2.23-2.17l-1.9,2.17H274.99z M272.21,76.12L272.21,76.12l-1.96-1.9v4.13L272.21,76.12
			z M273.23,82.96L273.23,82.96l2.03,1.76l-0.14-3.72L273.23,82.96z M275.33,85.6L275.33,85.6l-2.57-2.16l-2.23,2.23h4.81V85.6z
			 M272.21,82.96L272.21,82.96l-1.96-1.69v1.76v0.27v0.47v0.2v0.54v0.34v0.07L272.21,82.96z M270.38,86.95L270.38,86.95l2.64,2.23
			l2.23-2.23H270.38z M273.57,89.66L273.57,89.66l2.03,1.76l-0.2-3.59L273.57,89.66z M275.6,92.3L275.6,92.3l-2.5-2.17l-2.3,2.44
			h4.87L275.6,92.3z M272.55,89.66L272.55,89.66l-2.23-1.9v0.54v0.54v0.47V90v0.47v0.68v0.54v0.2L272.55,89.66z M270.38,93.79
			L270.38,93.79l2.78,2.37l2.37-2.37H270.38z M273.77,96.63L273.77,96.63l2.17,1.9l-0.2-3.93L273.77,96.63z M275.94,99.34
			L275.94,99.34l-2.71-2.23L271,99.34H275.94z M272.69,96.63L272.69,96.63l-2.3-2.03v0.61v0.34v1.02v0.41l0.07,1.08v0.34v0.47
			L272.69,96.63z M270.93,100.62L270.93,100.62l2.3,2.17l2.17-2.17H270.93z M273.9,103.33L273.9,103.33l2.37,2.1l-0.2-4.2
			L273.9,103.33z M276.07,106.24L276.07,106.24l-2.64-2.44l-2.5,2.44H276.07z M272.75,103.26L272.75,103.26l-2.3-2.03l0.07,1.35v0.2
			v1.42v0.14l0.07,1.02L272.75,103.26z M271.27,107.53L271.27,107.53l2.37,1.96l1.96-1.96H271.27z M274.31,110.17L274.31,110.17
			l2.3,1.9l-0.2-4.06L274.31,110.17z M276.48,113.08L276.48,113.08l-2.71-2.37l-2.37,2.37H276.48z M273.03,110.17L273.03,110.17
			l-2.44-2.03l0.13,1.02l0.07,3.25L273.03,110.17z M271.13,114.37L271.13,114.37l2.44,2.16l2.17-2.16H271.13z M274.31,117.07
			L274.31,117.07l2.77,2.44l-0.34-4.87L274.31,117.07z M276.27,119.91L276.27,119.91l-2.5-2.17l-2.17,2.17H276.27z M273.03,117.07
			L273.03,117.07l-2.17-1.76v0.47l0.07,0.34v1.35v0.41l0.07,1.29L273.03,117.07z M271.74,121.2L271.74,121.2l2.3,1.96l2.03-1.96
			H271.74z M274.78,123.84L274.78,123.84l2.78,2.3l-0.27-4.81L274.78,123.84z M276.95,126.75L276.95,126.75l-2.71-2.3l-2.37,2.3
			H276.95z M273.5,123.84L273.5,123.84l-2.37-2.03l0.07,0.88v0.54l0.07,2.84L273.5,123.84z M272.14,128.04L272.14,128.04l2.64,2.1
			l1.9-2.1H272.14z M275.53,130.68L275.53,130.68l2.44,2.1l-0.34-4.4L275.53,130.68z M277.63,133.59L277.63,133.59l-2.78-2.23
			l-2.16,2.23H277.63z M274.11,130.75L274.11,130.75l-2.71-2.23c0.07,1.69,0.2,3.32,0.27,4.87L274.11,130.75z M272.35,134.94
			L272.35,134.94l2.57,1.96l1.96-1.96H272.35z M275.67,137.51L275.67,137.51l2.98,2.37c-0.2-1.69-0.34-3.25-0.4-4.94h-0.07
			L275.67,137.51z M277.9,140.42L277.9,140.42l-2.91-2.3l-2.1,2.3H277.9z M274.31,137.58L274.31,137.58l-2.5-2.03
			c0.07,1.49,0.2,2.98,0.27,4.4L274.31,137.58z M273.5,141.71L273.5,141.71l2.23,1.83l1.69-1.83H273.5z M276.48,144.15
			L276.48,144.15l2.71,2.17c-0.13-1.56-0.34-3.05-0.41-4.6h-0.07L276.48,144.15z M279.05,147.33L279.05,147.33l-3.25-2.57
			l-2.37,2.57H279.05z M275.12,144.21L275.12,144.21l-2.91-2.44c0.07,1.76,0.27,3.45,0.41,5.08L275.12,144.21z M273.36,148.62
			L273.36,148.62l2.84,2.3l2.23-2.3H273.36z M276.95,151.46L276.95,151.46l2.98,2.44c-0.2-1.62-0.34-3.32-0.54-4.94L276.95,151.46z
			 M278.44,153.89L278.44,153.89l-2.03-1.76l-1.69,1.76H278.44z M275.67,151.59L275.67,151.59l-2.77-2.23
			c0.13,1.56,0.27,3.12,0.54,4.53L275.67,151.59z M273.84,155.18L273.84,155.18l3.32,2.71l2.5-2.71H273.84z M277.9,158.43
			L277.9,158.43l2.78,2.23c-0.13-1.49-0.41-3.05-0.54-4.6L277.9,158.43z M280.67,161.81L280.67,161.81l-3.39-2.71l-2.5,2.64
			l0.07,0.07H280.67z M276.54,158.5L276.54,158.5l-2.77-2.3c0.2,1.69,0.47,3.18,0.74,4.47L276.54,158.5z M254.21,180.83
			L254.21,180.83h7.58l-3.18-2.71L254.21,180.83z M261.92,174.74L261.92,174.74l-3.31,2.1l-2.37-2.1H261.92z M259.42,177.59
			L259.42,177.59l4.4-2.85h0.61l-0.81,6.09h-0.27L259.42,177.59z M280.61,177.86L280.61,177.86l-3.18,2.98h8.33L280.61,177.86z
			 M277.15,174.74L277.15,174.74l3.39,1.96l2.1-1.96H277.15z M279.72,177.38L279.72,177.38l-4.74-2.64l1.02,6.09L279.72,177.38z
			 M250.55,191.53L250.55,191.53h10.49l-4.2-4.13L250.55,191.53z M262.33,182.12L262.33,182.12l-5.48,3.59l-3.59-3.59H262.33z
			 M257.93,186.72L257.93,186.72l5.28-3.38l-1.22,7.51L257.93,186.72z M282.84,187.26L282.84,187.26l-4.26,4.27h11.23L282.84,187.26
			z M277.29,182.12L277.29,182.12l5.55,3.45l3.45-3.45H277.29z M281.82,186.59L281.82,186.59l-5.55-3.45l1.15,7.24l0.07,0.54
			L281.82,186.59z M285.28,198.43L285.28,198.43l-4.47,4.4h11.71L285.28,198.43z M278.78,192.82L278.78,192.82l6.43,3.86l3.99-3.86
			H278.78z M284.06,197.83L284.06,197.83l-6.02-3.66l1.29,8.19L284.06,197.83z M246.56,202.83L246.56,202.83h11.85l-4.6-4.4
			L246.56,202.83z M260.3,192.82L260.3,192.82l-6.37,3.86l-4.06-3.86H260.3z M255.02,197.83L255.02,197.83l6.5-3.86l-1.35,8.73
			L255.02,197.83z M281.82,215.76L281.82,215.76v2.1c0.47,0.2,0.95,0.41,1.36,0.54L281.82,215.76z M281.28,217.66L281.28,217.66
			v-2.98l-0.88-1.69v4.33L281.28,217.66z M279.79,217.18L279.79,217.18v-5.28l-0.54-1.08h-0.34v6.02L279.79,217.18z M278.3,216.64
			L278.3,216.64v-5.82h-0.81v5.62L278.3,216.64z M276.88,216.37L276.88,216.37v-5.55H276v5.28L276.88,216.37z M275.39,216.03
			L275.39,216.03v-5.21h-0.88v5.08L275.39,216.03z M273.97,215.76L273.97,215.76v-4.94h-0.88v4.81L273.97,215.76z M272.55,215.56
			L272.55,215.56v-4.74h-0.88v4.67L272.55,215.56z M271.13,215.49L271.13,215.49v-4.67h-0.88v4.6L271.13,215.49z M269.64,215.43
			L269.64,215.43v-4.6h-0.88v4.6H269.64z M268.15,215.43L268.15,215.43v-4.6h-0.81v4.6H268.15z M266.73,215.43L266.73,215.43v-4.6
			h-0.88v4.67L266.73,215.43z M265.24,215.56L265.24,215.56v-4.74h-0.88v4.81L265.24,215.56z M263.82,215.7L263.82,215.7v-4.87
			h-0.88v4.94L263.82,215.7z M262.4,215.97L262.4,215.97v-5.14h-0.88v5.28L262.4,215.97z M260.98,216.17L260.98,216.17v-5.35h-0.88
			v5.62L260.98,216.17z M259.49,216.58L259.49,216.58v-5.75h-0.61l-0.27,0.47v5.55L259.49,216.58z M258,216.98L258,216.98v-4.54
			l-0.81,1.69v3.11L258,216.98z M301.79,248.39L301.79,248.39l3.52-4.47l-7.58-3.39L301.79,248.39z M306.6,242.43L306.6,242.43
			l3.45-4.26h-12.93L306.6,242.43z M311.34,239.45L311.34,239.45l-2.98,3.79l6.43,2.77L311.34,239.45z M307.07,244.73L307.07,244.73
			l-4.13,5.21h13.81l-0.61-1.22L307.07,244.73z M295.43,236.14L295.43,236.14l3.92-2.77l-6.5-2.3L295.43,236.14z M300.91,232.35
			L300.91,232.35l3.65-2.5h-10.42L300.91,232.35z M306.53,230.11L306.53,230.11l-3.99,2.78l6.63,2.37L306.53,230.11z M300.91,233.97
			L300.91,233.97l-4.13,2.91h12.12L300.91,233.97z M292.86,228.56L292.86,228.56h11.44l-7.51-2.71L292.86,228.56z M291.23,228.02
			L291.23,228.02l3.92-2.71l-6.56-2.37L291.23,228.02z M296.78,224.16L296.78,224.16l3.86-2.64H289.4L296.78,224.16z M302.27,222.06
			L302.27,222.06l-3.86,2.71l6.5,2.37L302.27,222.06z M287.24,220.3L287.24,220.3h14.15l-1.29-2.5h-14.14L287.24,220.3z
			 M236.2,248.52L236.2,248.52l-3.59-4.6l7.78-3.39L236.2,248.52z M231.33,242.43L231.33,242.43l-3.38-4.26h12.93L231.33,242.43z
			 M226.72,239.52L226.72,239.52l2.84,3.72l-6.16,2.71L226.72,239.52z M230.85,244.73L230.85,244.73l4.2,5.21h-13.67l0.61-1.28
			L230.85,244.73z M241.62,238.17L241.62,238.17l1.02-1.96l-3.99-2.84l6.63-2.37l-2.64,5.21L241.62,238.17z M237.01,232.35
			L237.01,232.35l-3.59-2.5h10.42L237.01,232.35z M231.6,230.18L231.6,230.18l3.86,2.71l-6.5,2.37L231.6,230.18z M237.01,233.97
			L237.01,233.97l4.2,2.91h-12.18L237.01,233.97z M245.14,228.56L245.14,228.56H233.7l7.51-2.71L245.14,228.56z M299.42,216.51
			L299.42,216.51h-14.15l-2.91-5.69h14.15L299.42,216.51z M246.76,228.08L246.76,228.08l-3.99-2.78l6.77-2.37L246.76,228.08z
			 M241.21,224.16L241.21,224.16l-3.86-2.64h11.17L241.21,224.16z M235.73,222.12L235.73,222.12l3.86,2.64l-6.43,2.3L235.73,222.12z
			 M250.89,220.3L250.89,220.3h-14.22l1.29-2.5h14.21L250.89,220.3z M252.79,216.51L252.79,216.51h-14.15l2.98-5.69h14.15
			L252.79,216.51z M265.38,178.47L265.38,178.47h8.87l3.72,24.37h-16.45l1.9-12.46L265.38,178.47z M273.97,177.18L273.97,177.18
			h-8.46l0.41-2.44h7.65L273.97,177.18z M256.58,217.45L256.58,217.45v-2.23l-1.49,2.84C255.56,217.79,256.04,217.66,256.58,217.45
			L256.58,217.45z M286.16,224.09L286.16,224.09l-0.74-1.42c-4.94-2.91-10.63-4.53-16.79-4.53c-5.62,0-10.97,1.42-15.57,3.92
			l-0.68,1.36c4.8-2.71,10.36-4.33,16.25-4.33C275.12,219.08,281.01,220.91,286.16,224.09L286.16,224.09z"/>
		<path class="st1" d="M144.21,197.01v4.81h0.61v0.88h-0.2c17.26,10.9,7.58,14.28,9.61,16.45c-3.32-0.07-6.63-0.07-10.02,0h-10.15
			c1.29-2.37-8.73-5.48,9.14-16.45h-0.2v-0.88h0.61v-4.54c-0.14,0-0.27,0-0.41,0c-0.74,0-1.42-0.47-1.69-1.22
			c0.34,0.34,0.75,0.47,1.22,0.47c1.01,0,1.9-0.81,1.9-1.83c0-0.2-0.07-0.47-0.13-0.61c0.4,0.34,0.61,0.81,0.61,1.29
			C145.09,196.06,144.75,196.67,144.21,197.01L144.21,197.01z M110.5,223.34c0.2-0.41-1.42-0.88,1.56-2.71
			c2.84,1.83,1.29,2.37,1.62,2.71C112.6,223.34,111.59,223.34,110.5,223.34L110.5,223.34z M110.37,226.46h3.25v-1.76h-3.25V226.46z
			 M110.98,226.05L110.98,226.05h0.61v-1.02h-0.61V226.05z M112.47,226.05L112.47,226.05h0.54v-1.02h-0.54V226.05z M111.72,226.05
			L111.72,226.05h0.54v-1.02h-0.54V226.05z M109.96,224.49h4.13v-0.34h-4.13V224.49z M109.96,223.89h4.13v-0.34h-4.13V223.89z
			 M109.96,227h4.13v-0.27h-4.13V227z M109.96,227.4h4.13v-0.27h-4.13V227.4z M110.3,227.47h3.38v8.39h-3.38V227.47z M113.68,236.41
			v7.24h-3.38v-7.24H113.68z M113.68,244.19v4.47h3.99v-20.71l6.7-1.36v22.07h0.27v-25.72h0.88v-0.27h7.85v-2.37h21.12v1.96l0,0
			v0.41h8.12v0.27h0.68v25.72h0.41v-22.41l6.5,1.83v20.58h4.4v-4.47h3.32v4.47h6.02v-7.24h5.42v7.24h6.9v1.83H91.75v-1.83h7.11
			v-7.24h5.48v7.24h5.96v-4.47H113.68z M104.07,207.5c-0.34-0.61,2.3-1.35-2.5-4.26c-4.67,2.84-2.1,3.72-2.64,4.26
			C100.62,207.5,102.38,207.5,104.07,207.5L104.07,207.5z M104.21,212.58H99v-2.84h5.21V212.58z M103.26,211.97L103.26,211.97h-0.88
			v-1.62h0.88V211.97z M100.82,211.97L100.82,211.97h-0.88v-1.62h0.88V211.97z M102.04,211.97L102.04,211.97h-0.88v-1.62h0.88
			V211.97z M105.02,209.6h-6.77v-0.74h6.77V209.6z M105.02,208.52h-6.77v-0.68h6.77V208.52z M105.02,213.46h-6.77v-0.68h6.77V213.46
			z M105.02,214.14h-6.77v-0.47h6.77V214.14z M196.26,254.75H91.75v-3.65h104.51V254.75z M104.34,214.27h-5.48v13.6h5.48V214.27z
			 M184.15,207.5c0.4-0.61-2.3-1.35,2.57-4.26c4.67,2.84,2.1,3.72,2.64,4.26C187.6,207.5,185.91,207.5,184.15,207.5L184.15,207.5z
			 M189.29,212.58v-2.84h0.74v-0.88h-6.77v0.88h0.75v2.84h-0.75v0.81v0.07v0.81h0.68v13.6h5.42v-13.6h0.68v-0.81v-0.07v-0.81H189.29
			z M185.03,211.97L185.03,211.97h0.88v-1.62h-0.88V211.97z M187.4,211.97L187.4,211.97h0.95v-1.62h-0.95V211.97z M186.25,211.97
			L186.25,211.97h0.88v-1.62h-0.88V211.97z M183.27,208.72h6.77v-0.88h-6.77V208.72z M189.36,228.76v11.71h-5.42v-11.71H189.36z
			 M134.67,248.66h18.61v-24.57h-18.61V248.66z M177.79,223.34c-0.2-0.41,1.42-0.88-1.56-2.71c-2.91,1.83-1.29,2.37-1.62,2.71
			C175.69,223.34,176.7,223.34,177.79,223.34L177.79,223.34z M177.92,226.46h-3.25v-1.76h3.25V226.46z M177.24,226.05L177.24,226.05
			h-0.54v-1.02h0.54V226.05z M175.82,226.05L175.82,226.05h-0.54v-1.02h0.54V226.05z M176.5,226.05L176.5,226.05h-0.54v-1.02h0.54
			V226.05z M178.33,224.56h-4.13v-0.41h4.13V224.56z M178.33,223.89h-4.13v-0.34h4.13V223.89z M178.33,227h-4.13v-0.34h4.13V227z
			 M178.33,227.47h-0.41v8.39h-3.32v-8.39h-0.41v-0.34h4.13V227.47z M174.6,236.41v7.24h3.32v-7.24H174.6z M98.86,228.76v11.71h5.48
			v-11.71H98.86z M122.55,241.62v5.01l-3.45,0.07v-4.67c0-0.88,1.62-2.3,1.69-2.3C120.86,239.72,122.55,240.74,122.55,241.62
			L122.55,241.62z M122.55,233.23v4.94l-3.45,0.41v-4.94c0-0.95,1.62-2.37,1.69-2.37C120.86,231.2,122.55,232.21,122.55,233.23
			L122.55,233.23z M165.67,241.62v5.01l3.45,0.07v-4.67c0-0.88-1.69-2.3-1.76-2.3C167.29,239.72,165.67,240.74,165.67,241.62
			L165.67,241.62z M165.67,233.23v4.94l3.45,0.41v-4.94c0-0.95-1.69-2.37-1.76-2.37C167.29,231.2,165.67,232.21,165.67,233.23
			L165.67,233.23z M155.52,222.26c0.41-0.74-2.84-1.62,3.11-5.21h-0.07h-0.2v-0.27h0.2v-1.22c-0.07,0-0.14,0-0.2,0
			c-0.2,0-0.47-0.2-0.54-0.41c0.07,0.07,0.27,0.14,0.41,0.14c0.34,0,0.61-0.27,0.61-0.54c0-0.07,0-0.13-0.07-0.2
			c0.13,0.07,0.2,0.2,0.2,0.41c0,0.2-0.07,0.34-0.2,0.48v1.35h0.13v0.27h-0.13h-0.14c5.69,3.45,2.71,4.54,3.25,5.21H155.52z
			 M145.7,234.31v3.86h3.93v-3.99c0-2.3-5.35-5.41-5.62-5.41c-0.27,0-5.62,3.11-5.62,5.41v3.99h3.86v-3.86
			c0-0.68,1.62-1.63,1.76-1.63C144.08,232.68,145.7,233.63,145.7,234.31L145.7,234.31z M145.7,242.9v3.79h-3.45v-3.79
			c0-0.74,1.62-1.69,1.76-1.69C144.08,241.21,145.7,242.16,145.7,242.9L145.7,242.9z M149.63,239.52h-11.24v7.17h-1.62v-20.58l0,0
			h14.42v20.58h-1.56V239.52z M127.83,235.19h1.35v2.57h-1.35V235.19z M127.83,244.12h1.35v2.57h-1.35V244.12z M158.9,244.12h1.35
			v2.57h-1.35V244.12z M158.9,235.19h1.35v2.57h-1.35V235.19z M126.61,224.29L126.61,224.29h1.22v1.83h-1.22V224.29z M160.46,224.29
			L160.46,224.29h1.29v1.83h-1.29V224.29z M158.43,224.29L158.43,224.29h1.22v1.83h-1.22V224.29z M156.33,224.29L156.33,224.29h1.22
			v1.83h-1.22V224.29z M130.81,224.29L130.81,224.29h1.22v1.83h-1.22V224.29z M128.71,224.29L128.71,224.29h1.22v1.83h-1.22V224.29z
			 M157.07,239.32h1.89c-0.41,0.2-0.81,0.54-1.01,0.68c-0.41,0.34-0.95,0.95-0.95,1.56v5.42h5.21v-5.42c0-0.61-0.61-1.22-1.02-1.56
			c-0.13-0.13-0.61-0.47-1.02-0.68h2.03v-0.54h-5.14V239.32z M125.94,230.11h2.3c-0.41,0.2-1.15,0.81-1.35,0.95
			c-0.41,0.34-1.02,0.95-1.02,1.56v5.41h5.21v-5.41c0-0.61-0.61-1.22-1.02-1.56c-0.2-0.2-0.88-0.75-1.35-0.95h2.37v-0.54h-5.14
			V230.11z M125.94,239.32h1.96c-0.41,0.2-0.88,0.54-1.01,0.68c-0.41,0.34-1.02,0.95-1.02,1.56v5.42h5.21v-5.42
			c0-0.61-0.54-1.22-1.02-1.56c-0.14-0.13-0.54-0.47-0.95-0.68h1.96v-0.54h-5.14V239.32z M156.94,230.11h2.44
			c-0.47,0.2-1.22,0.75-1.36,0.95c-0.47,0.34-1.01,0.95-1.01,1.56v5.41h5.21v-5.41c0-0.61-0.61-1.22-1.02-1.56
			c-0.2-0.14-0.95-0.75-1.35-0.95h2.17v-0.54h-5.08V230.11z M129.59,214.54c0.14,0.07,0.2,0.2,0.2,0.41c0,0.2-0.07,0.34-0.2,0.48
			v1.35h0.2v0.27h-0.2h-0.13h-0.07h-0.2v-0.27h0.2v-1.22c-0.07,0-0.14,0-0.2,0c-0.2,0-0.41-0.2-0.54-0.41
			c0.14,0.07,0.27,0.14,0.41,0.14c0.34,0,0.61-0.27,0.61-0.54C129.66,214.68,129.66,214.61,129.59,214.54L129.59,214.54z
			 M129.46,217.05c5.69,3.45,2.78,4.54,3.25,5.21h-6.36C126.82,221.52,123.5,220.64,129.46,217.05L129.46,217.05z"/>
		<path class="st1" d="M219.14,148.89h-1.22v-5.28v-3.38l-0.14,0.13l-0.2-0.13V143l-0.27-0.34l-0.27,0.47l-0.27,0.47l-0.34-0.47
			l-0.27-0.47l-0.34,0.47l-0.27,0.47l-0.34-0.47l-0.27-0.47l-0.34,0.47l-0.27,0.47l-0.27-0.47l-0.34-0.47l-0.27,0.47l-0.34,0.47
			l-0.27-0.47l-0.34-0.47l-0.27,0.47l-0.27,0.47l-0.34-0.47l-0.27-0.47l-0.34,0.47l-0.27,0.47l-0.34-0.47l-0.27-0.47l-0.34,0.47
			l-0.27,0.47l-0.27-0.47l-0.34-0.47l-0.27,0.47l-0.34,0.47l-0.27-0.47l-0.34-0.47l-0.27,0.47l-0.27,0.47l-0.34-0.47l-0.27-0.47
			l-0.34,0.47l-0.27,0.47l-0.34-0.47l-0.27-0.47l-0.34,0.47l-0.27,0.47l-0.27-0.47l-0.34-0.47l-0.27,0.47l-0.34,0.47l-0.27-0.47
			l-0.34-0.47l-0.27,0.47l-0.27,0.47l-0.34-0.47l-0.27-0.47l-0.34,0.47l-0.27,0.47l-0.34-0.47l-0.27-0.47l-0.34,0.47l-0.27,0.47
			l-0.27-0.47l-0.34-0.47l-0.27,0.47l-0.34,0.47l-0.27-0.47l-0.34-0.47l-0.27,0.47l-0.27,0.47l-0.34-0.47l-0.27-0.47l-0.27,0.41
			v-2.84l-0.2,0.13l-0.2-0.13v3.38v5.28h-1.15v-3.38l-0.13,0.2l-0.2-0.2v3.38v24.71h24.7v-24.71v-3.38l-0.2,0.2l-0.14-0.2V148.89z
			 M219.89,254.75h-26.2v-15.63h26.2V254.75z M217.32,237.9v-14.62h-1.08v14.62h-0.81v-14.62h-1.15v14.62h-0.81v-14.62h-1.08v14.62
			h-0.88v-14.62h-1.08v14.62h-0.88v-14.62h-1.08v14.62h-0.88v-14.62h-1.08v14.62h-0.88v-14.62h-1.08v14.62h-0.81v-14.62h-1.15v14.62
			h-0.81v-14.62h-1.08v14.62h-0.88v-14.62h-1.08v14.62h-0.88v-14.62h-1.08v14.62h-0.88v-30.26h22.34v30.26H217.32z M216.23,222.46
			h1.08v-14.15h-1.08V222.46z M196.74,222.46h1.08v-14.15h-1.08V222.46z M198.7,222.46h1.08v-14.15h-1.08V222.46z M200.67,222.46
			h1.08v-14.15h-1.08V222.46z M202.56,222.46h1.15v-14.15h-1.15V222.46z M204.52,222.46h1.08v-14.15h-1.08V222.46z M206.49,222.46
			h1.08v-14.15h-1.08V222.46z M208.45,222.46h1.08v-14.15h-1.08V222.46z M210.41,222.46h1.08v-14.15h-1.08V222.46z M212.38,222.46
			h1.08v-14.15h-1.08V222.46z M214.27,222.46h1.15v-14.15h-1.15V222.46z M197.28,139.48l-0.81-0.68l-0.74,0.68l0.74,0.81
			L197.28,139.48z M218.53,139.48l-0.74-0.68l-0.74,0.68l0.74,0.81L218.53,139.48z M220.02,144.76l-0.75-0.68l-0.68,0.68l0.68,0.81
			L220.02,144.76z M195.66,144.76l-0.67-0.68l-0.74,0.68l0.74,0.81L195.66,144.76z M196.26,138.87v-0.47h0.41v0.47l-0.2-0.2
			L196.26,138.87z M217.59,138.87v-0.47h0.34v0.47l-0.14-0.2L217.59,138.87z M194.78,144.15v-0.54h0.34v0.47l-0.13-0.14
			L194.78,144.15z M219.14,144.08v-0.47h0.34v0.54l-0.2-0.2L219.14,144.08z M201.82,134.94l-3.25,8.05l0.07,0.07l0.07,0.14
			l0.61-0.88l0.47,0.74l0.14,0.14l0.14-0.14l0.47-0.74l0.61,0.95l0.13-0.2l0.48-0.81l0.41,0.81l0.2,0.2l0.54-0.95l0.54,0.74
			l0.07,0.14l0.13-0.14l0.47-0.74l0.48,0.74l0.13,0.14l0.14-0.14l0.47-0.74l0.47,0.74l0.14,0.2l0.13-0.2l0.47-0.81l0.41,0.81
			l0.2,0.2l0.07-0.2l0.47-0.74l0.54,0.74l0.07,0.14l0.61-0.88l0.48,0.74l0.14,0.14l0.13-0.14l0.47-0.74l0.61,0.95l0.13-0.2
			l0.47-0.81l0.47,0.81l0.14,0.2l0.54-0.95l0.54,0.74l0.07,0.14l0.61-0.88l0.47,0.74l0.14,0.14l0.14-0.14l0.47-0.74l0.61,0.88
			l0.07-0.14l0.07-0.07l-3.25-8.05H201.82z M202.9,140.42l-0.68-1.15l-0.2-0.27l-0.88,1.42l0.27,0.14l0.61-1.01l0.54,1.01
			L202.9,140.42z M207.98,137.72l-0.68-1.22l-0.14-0.27l-0.88,1.49l0.27,0.14l0.61-1.02l0.54,1.02L207.98,137.72z M211.36,137.72
			l-0.74-1.22l-0.14-0.27l-0.88,1.49l0.27,0.14l0.61-1.02l0.54,1.02L211.36,137.72z M213.05,140.42l-0.74-1.15l-0.13-0.27
			l-0.81,1.42l0.2,0.14l0.61-1.01l0.61,1.01L213.05,140.42z M209.6,140.42l-0.61-1.15l-0.2-0.27l-0.88,1.42l0.27,0.14l0.61-1.01
			l0.61,1.01L209.6,140.42z M206.21,140.42l-0.61-1.15l-0.2-0.27l-0.88,1.42l0.27,0.14l0.61-1.01l0.54,1.01L206.21,140.42z
			 M204.93,137.72l-0.61-1.22l-0.2-0.27l-0.88,1.49l0.27,0.14l0.61-1.02l0.54,1.02L204.93,137.72z M199.72,144.83h-2.44v3.32h2.44
			V144.83z M216.64,144.83h-2.37v3.32h2.37V144.83z M213.32,144.83h-2.51v3.32h2.51V144.83z M209.94,144.83h-2.51v3.32h2.51V144.83z
			 M206.55,144.83h-2.5v3.32h2.5V144.83z M203.1,144.83h-2.44v3.32h2.44V144.83z M208.11,114.43h-1.96v-1.42h1.96V114.43z
			 M201.75,125.33l-0.75-0.74l-0.74,0.74l0.74,0.74L201.75,125.33z M214,125.33l-0.74-0.74l-0.74,0.74l0.74,0.74L214,125.33z
			 M212.85,128.24l-0.27,0.54l-0.27,0.54h-0.07l-0.2-0.54l-0.34-0.54l-0.34,0.54l-0.2,0.54l0,0l-0.27-0.54l-0.34-0.54l-0.27,0.54
			l-0.27,0.54l0,0l-0.27-0.54l-0.27-0.54l-0.34,0.54l-0.27,0.54l0,0l-0.27-0.54l-0.27-0.54l-0.34,0.54l-0.2,0.54h-0.07l-0.27-0.54
			l-0.27-0.54l-0.34,0.54l-0.2,0.54h-0.07l-0.27-0.54l-0.27-0.54l-0.34,0.54l-0.2,0.54h-0.07l-0.27-0.54l-0.27-0.54l-0.34,0.54
			l-0.2,0.54h-0.06l-0.27-0.54l-0.34-0.54l-0.27,0.54l-0.27,0.54l0,0l-0.2-0.54l-0.34-0.54l-0.34,0.54l-0.2,0.54h-0.07l-0.2-0.54
			l-0.34-0.54l-0.2,0.34v-2.37l-0.2,0.14l-0.2-0.14v3.12l0,0v5.21h12.66v-5.21l0,0v-3.12l-0.2,0.14l-0.2-0.14v2.37L212.85,128.24z
			 M207.16,112.2c0,0.2-0.07,0.41-0.07,0.61h0.07C207.16,112.6,207.16,112.4,207.16,112.2L207.16,112.2z M206.89,114.64
			c-0.75,4.67-2.91,8.8-4.4,13.2v-0.07l0.54,0.95l0.07,0.13l0.54-1.08l0.54,0.95l0.07,0.13l0.06-0.13l0.54-0.95l0.54,1.08l0.07-0.13
			l0.54-0.95l0.54,1.08l0.07-0.13l0.54-0.95l0.47,0.95l0.07,0.13l0.07-0.13l0.54-0.95l0.54,1.08l0.07-0.13l0.54-0.95l0.54,1.08
			l0.07-0.13l0.54-0.95l0.41,0.95l0.13,0.13l0.07-0.13l0.47-0.95c0.13-0.2-4.13-11.24-4.4-13.13H206.89z M207.98,121l-0.68-1.08
			l-0.14-0.34l-0.88,1.42l0.27,0.2l0.61-1.01l0.54,1.01L207.98,121z M205.4,126.82l-0.61-1.22l-0.2-0.27l-0.88,1.49l0.27,0.14
			l0.61-1.09l0.54,1.09L205.4,126.82z M207.98,126.82l-0.68-1.22l-0.14-0.27l-0.88,1.49l0.27,0.14l0.61-1.09l0.54,1.09
			L207.98,126.82z M210.55,126.82l-0.68-1.22l-0.2-0.27l-0.88,1.49l0.34,0.14l0.54-1.09l0.61,1.09L210.55,126.82z M206.49,124.04
			l-0.68-1.22l-0.2-0.27l-0.81,1.49l0.27,0.14l0.54-1.08l0.61,1.08L206.49,124.04z M209.47,124.04l-0.68-1.22l-0.14-0.27l-0.88,1.49
			l0.2,0.14l0.68-1.08l0.54,1.08L209.47,124.04z M200.8,124.52v-0.48h0.41v0.48l-0.2-0.2L200.8,124.52z M213.05,124.52v-0.48h0.4
			v0.48l-0.2-0.2L213.05,124.52z M203.37,130.34h-1.9v3.38h1.9V130.34z M212.78,130.34h-1.9v3.38h1.9V130.34z M210.41,130.34h-1.9
			v3.38h1.9V130.34z M208.11,130.34h-1.9v3.38h1.9V130.34z M205.74,130.34h-1.9v3.38h1.9V130.34z M216.37,205.95h1.08v-15.43h-1.08
			V205.95z M196.81,205.95h1.08v-15.43h-1.08V205.95z M198.77,205.95h1.08v-15.43h-1.08V205.95z M200.73,205.95h1.08v-15.43h-1.08
			V205.95z M202.7,205.95h1.08v-15.43h-1.08V205.95z M204.66,205.95h1.08v-15.43h-1.08V205.95z M206.55,205.95h1.15v-15.43h-1.15
			V205.95z M208.52,205.95h1.08v-15.43h-1.08V205.95z M210.48,205.95h1.08v-15.43h-1.08V205.95z M212.44,205.95h1.08v-15.43h-1.08
			V205.95z M214.41,205.95h1.08v-15.43h-1.08V205.95z M216.37,189.7h1.08v-14.21h-1.08V189.7z M196.81,189.7h1.08v-14.21h-1.08
			V189.7z M198.77,189.7h1.08v-14.21h-1.08V189.7z M200.73,189.7h1.08v-14.21h-1.08V189.7z M202.7,189.7h1.08v-14.21h-1.08V189.7z
			 M204.66,189.7h1.08v-14.21h-1.08V189.7z M206.55,189.7h1.15v-14.21h-1.15V189.7z M208.52,189.7h1.08v-14.21h-1.08V189.7z
			 M210.48,189.7h1.08v-14.21h-1.08V189.7z M212.44,189.7h1.08v-14.21h-1.08V189.7z M214.41,189.7h1.08v-14.21h-1.08V189.7z
			 M218.26,174.88h-22.27v31.68h22.27V174.88z M198.84,171.49h-1.28v1.29h1.28V171.49z M216.64,171.49h-1.28v1.29h1.28V171.49z
			 M215.02,171.49h-1.29v1.29h1.29V171.49z M213.39,171.49h-1.28v1.29h1.28V171.49z M211.77,171.49h-1.29v1.29h1.29V171.49z
			 M210.14,171.49h-1.29v1.29h1.29V171.49z M208.52,171.49h-1.28v1.29h1.28V171.49z M206.89,171.49h-1.29v1.29h1.29V171.49z
			 M205.27,171.49h-1.29v1.29h1.29V171.49z M203.64,171.49h-1.22v1.29h1.22V171.49z M202.09,171.49h-1.29v1.29h1.29V171.49z
			 M200.46,171.49h-1.29v1.29h1.29V171.49z M207.16,162.02c-0.13,0-0.27-0.07-0.41-0.07l-0.48,0.48c-0.07,0.27-0.07,0.47-0.2,0.61
			c-0.07,0.07-0.2,0.07-0.34,0c-0.13-0.2-0.13-0.2-0.34-0.41c-0.14-0.07-0.14-0.2,0-0.34c0.13-0.14,0.34-0.21,0.54-0.21l0.54-0.47
			c-0.13-0.07-0.13-0.27-0.13-0.41c0-0.07,0-0.14,0-0.2l-4.87-5.21c0,0,0-0.07,0-0.13h0.14c0-0.07,0.07-0.07,0.07,0l5.14,4.81
			c0.07-0.07,0.21-0.07,0.34-0.07c0.14,0,0.34,0.07,0.47,0.13l0.81-0.74c-0.07,0-0.13-0.07-0.13-0.14c-0.14-0.07-0.14-0.27,0-0.34
			c0.13-0.14,0.47-0.2,0.81-0.2l0.13-0.13v-0.34h0.48v0.41h-0.27l-0.21,0.2c0,0.34,0,0.68-0.13,0.81c-0.13,0.07-0.34,0.07-0.4,0
			c-0.07-0.07-0.07-0.07-0.07-0.07l-0.81,0.81c0.07,0.13,0.14,0.27,0.14,0.41c0,0.13-0.07,0.2-0.07,0.27
			c0.2,0.34,0.61,0.61,1.01,0.74c0,0,0.07,0,0.07,0.07c0,0.07,0,0.14-0.07,0.14c-0.13,0-0.13,0.07-0.13,0.13
			c-0.07,0-0.07,0.07-0.07,0.14c0,0.07-0.07,0.14-0.07,0.14c-0.14,0-0.2,0-0.2,0.07c-0.07,0-0.13,0.07-0.13,0.14h-0.07
			c-0.07,0.07-0.07,0-0.14,0c-0.13-0.47-0.41-0.74-0.81-1.02C207.3,162.02,207.23,162.02,207.16,162.02L207.16,162.02z
			 M206.96,154.16c-0.14,0-0.34,0-0.48,0l-0.07-0.88h-0.07c0.2,0,0.41,0,0.61,0V154.16z M206.08,154.23
			c-0.2,0.07-0.4,0.07-0.61,0.14l-0.2-0.88l0,0c0.2-0.07,0.47-0.14,0.74-0.14l0,0L206.08,154.23z M205.13,154.43
			c-0.14,0.07-0.27,0.14-0.47,0.14l-0.34-0.81c0.2-0.07,0.41-0.13,0.61-0.2l0,0L205.13,154.43z M204.39,154.71
			c-0.21,0.14-0.41,0.2-0.61,0.27l-0.47-0.75c0.2-0.14,0.47-0.27,0.74-0.34L204.39,154.71z M203.44,155.18
			c-0.13,0.13-0.27,0.2-0.4,0.27l-0.54-0.74c0.2-0.07,0.34-0.2,0.54-0.34L203.44,155.18z M202.76,155.65
			c-0.14,0.13-0.2,0.2-0.34,0.27l0.14,0.13c0.07-0.07,0.2-0.2,0.27-0.27h0.07l0,0l0.07-0.07c0.2-0.13,0.34-0.27,0.54-0.41l0,0h0.07
			l1.42,2.51c-0.13,0.07-0.27,0.13-0.34,0.2l0.13,0.14c0.61-0.54,1.42-0.81,2.37-0.81c0.95,0,1.89,0.41,2.57,1.01h0.27l0,0
			c-0.2-0.2-0.41-0.41-0.68-0.54l1.35-2.51h0.07l0,0c0.27,0.2,0.47,0.34,0.74,0.54l0.07,0.07l0,0c0.14,0.13,0.27,0.27,0.48,0.4
			c0.14,0.2,0.34,0.41,0.54,0.61v0.07l0.07,0.07c0.13,0.21,0.27,0.34,0.34,0.54l-2.44,1.42c-0.14-0.2-0.34-0.47-0.47-0.68v0.34
			c0.54,0.61,0.95,1.56,0.95,2.51c0,1.08-0.47,2.03-1.15,2.77c-0.75,0.68-1.69,1.15-2.71,1.15c-1.08,0-2.03-0.48-2.77-1.15
			c-0.75-0.74-1.15-1.69-1.15-2.77c0-0.88,0.27-1.69,0.81-2.3l-0.14-0.13c-0.07,0.07-0.13,0.2-0.2,0.27l-2.44-1.42
			c0.14-0.27,0.34-0.54,0.54-0.75v-0.07l0,0c0.07,0,0.07-0.07,0.14-0.13l-0.14-0.14c-0.07,0.07-0.07,0.14-0.14,0.2l-0.74-0.61
			c0.14-0.07,0.2-0.14,0.27-0.27v-0.07c0,0,0-0.07,0-0.13v-0.13l0.2-0.07c0.07-0.14,0.2-0.14,0.34-0.14
			c0.13-0.13,0.27-0.2,0.47-0.34l0,0L202.76,155.65z M201.61,156.87h-0.07l-0.61-0.54l0,0l0,0l0.68,0.47V156.87z M201.48,157.01
			c-0.13,0.14-0.27,0.34-0.34,0.54l-0.41-0.27l-0.41-0.21l0,0c0.13-0.2,0.27-0.47,0.41-0.61h0.07L201.48,157.01z M200.93,157.82
			c-0.07,0.13-0.13,0.27-0.2,0.47l-0.88-0.41c0.07-0.13,0.2-0.34,0.27-0.47l0,0L200.93,157.82z M200.53,158.63
			c-0.07,0.2-0.13,0.41-0.2,0.61l-0.81-0.27h-0.07c0.07-0.27,0.2-0.47,0.27-0.74l0,0L200.53,158.63z M200.33,159.38L200.33,159.38
			l-0.81-0.2l0,0l0,0L200.33,159.38z M200.26,159.58c-0.07,0.14-0.07,0.27-0.13,0.48l-0.88-0.14c0.07-0.2,0.07-0.41,0.13-0.61v0.07
			L200.26,159.58z M200.12,160.19L200.12,160.19l-0.81-0.07l0,0v-0.07L200.12,160.19z M200.12,160.39c-0.07,0.2-0.07,0.41-0.07,0.61
			h-0.88c0-0.27,0-0.47,0.07-0.74L200.12,160.39z M200.06,161.41c0,0.13,0,0.34,0.07,0.47l-0.95,0.07l0,0c0-0.2,0-0.34,0-0.54
			H200.06z M200.12,162.22c0.07,0.21,0.07,0.48,0.13,0.68l-0.88,0.2l0,0c-0.07-0.27-0.13-0.47-0.13-0.74l0,0L200.12,162.22z
			 M200.33,163.03L200.33,163.03L200.33,163.03l-0.81,0.2l0,0L200.33,163.03z M200.33,163.23c0.07,0.14,0.13,0.27,0.2,0.41
			l-0.88,0.34v0.07c-0.07-0.2-0.14-0.41-0.2-0.61h0.07L200.33,163.23z M200.6,163.85L200.6,163.85L200.6,163.85l-0.74,0.34l0,0
			v-0.07L200.6,163.85z M200.67,163.98c0.07,0.2,0.13,0.41,0.27,0.61l-0.81,0.48l0,0c-0.13-0.2-0.2-0.48-0.34-0.68l0.07-0.07
			L200.67,163.98z M201.14,164.93c0.07,0.14,0.13,0.27,0.27,0.34l-0.81,0.54l0,0c-0.07-0.14-0.2-0.27-0.27-0.47l0,0L201.14,164.93z
			 M201.61,165.54c0.14,0.2,0.27,0.34,0.41,0.54l-0.61,0.68h-0.07c-0.13-0.2-0.34-0.41-0.47-0.61l0,0L201.61,165.54z M202.29,166.35
			c0.13,0.07,0.2,0.2,0.34,0.27l-0.54,0.75h-0.07c-0.14-0.14-0.27-0.27-0.41-0.41l0,0L202.29,166.35z M202.9,166.89
			c0.2,0.13,0.34,0.2,0.54,0.34l-0.4,0.81h-0.07c-0.2-0.14-0.41-0.27-0.61-0.47l0,0L202.9,166.89z M203.78,167.43
			c0.13,0.07,0.27,0.13,0.41,0.2l-0.34,0.81c-0.2-0.07-0.41-0.14-0.54-0.27l0,0L203.78,167.43z M204.52,167.77
			c0.2,0.07,0.41,0.13,0.61,0.2l-0.2,0.88l0,0c-0.27-0.07-0.54-0.14-0.75-0.2L204.52,167.77z M205.27,168.04L205.27,168.04
			L205.27,168.04l-0.14,0.74l0,0h-0.07L205.27,168.04z M205.47,168.11c0.14,0,0.34,0.07,0.47,0.07l-0.14,0.88l0,0
			c-0.2,0-0.41-0.07-0.54-0.07l0,0L205.47,168.11z M206.08,168.24h0.07l-0.14,0.74l0,0L206.08,168.24z M206.28,168.24
			c0.2,0,0.48,0.07,0.68,0.07v0.88c-0.27,0-0.54,0-0.81-0.07l0,0L206.28,168.24z M207.3,168.31c0.13,0,0.34,0,0.47-0.07l0.14,0.88
			v0.07c-0.2,0-0.41,0-0.61,0V168.31z M208.18,168.24c0.2-0.07,0.41-0.07,0.61-0.13l0.2,0.88l0,0c-0.2,0.07-0.47,0.07-0.74,0.14l0,0
			L208.18,168.24z M208.99,168.04L208.99,168.04l0.2,0.74l0,0h-0.07L208.99,168.04L208.99,168.04z M209.12,167.97
			c0.13,0,0.27-0.07,0.48-0.14l0.34,0.81v0.07c-0.2,0.07-0.34,0.14-0.54,0.14l0,0L209.12,167.97z M209.74,167.77h0.07l0.27,0.74l0,0
			L209.74,167.77z M209.94,167.7c0.2-0.07,0.4-0.2,0.54-0.27l0.47,0.74v0.07c-0.2,0.07-0.47,0.2-0.68,0.34v-0.07L209.94,167.7z
			 M210.82,167.23c0.14-0.07,0.27-0.14,0.41-0.27l0.54,0.75c-0.14,0.13-0.34,0.2-0.47,0.34l0,0L210.82,167.23z M211.36,166.89
			L211.36,166.89L211.36,166.89l0.47,0.61l0,0L211.36,166.89z M211.49,166.75c0.2-0.14,0.34-0.27,0.48-0.41l0.68,0.61l0,0
			c-0.2,0.2-0.4,0.41-0.61,0.54l0,0L211.49,166.75z M212.24,166.08c0.13-0.14,0.2-0.27,0.27-0.34l0.74,0.54
			c-0.07,0.14-0.2,0.27-0.34,0.41L212.24,166.08z M212.78,165.4c0.14-0.14,0.27-0.34,0.34-0.54l0.81,0.47
			c-0.13,0.27-0.27,0.47-0.41,0.68h-0.07L212.78,165.4z M213.32,164.59c0.07-0.14,0.13-0.27,0.2-0.41l0.88,0.34
			c-0.14,0.2-0.2,0.34-0.27,0.54h-0.07L213.32,164.59z M213.66,163.85c0.07-0.2,0.2-0.41,0.2-0.61l0.88,0.2h0.07
			c-0.14,0.27-0.2,0.54-0.27,0.74L213.66,163.85z M214,162.9c0-0.13,0.07-0.34,0.07-0.47l0.95,0.13c-0.07,0.14-0.07,0.34-0.13,0.54
			l0,0L214,162.9z M214.13,162.22L214.13,162.22l0.81,0.14l0,0h-0.07L214.13,162.22z M214.13,162.02c0.07-0.2,0.07-0.4,0.07-0.61
			h0.88c0,0.27,0,0.47-0.07,0.74L214.13,162.02z M214.2,161c0-0.13,0-0.27-0.07-0.41l0.95-0.13l0,0c0,0.13,0,0.34,0,0.54H214.2z
			 M214.13,160.39L214.13,160.39v-0.07l0.81-0.07l0,0v0.07L214.13,160.39z M214.13,160.19c-0.07-0.2-0.07-0.41-0.14-0.61l0.88-0.2
			v-0.07c0.07,0.27,0.13,0.54,0.13,0.81l0,0L214.13,160.19z M213.93,159.24c-0.07-0.2-0.13-0.34-0.2-0.47l0.88-0.34l0,0
			c0.07,0.2,0.14,0.34,0.14,0.54l0,0L213.93,159.24z M213.66,158.57L213.66,158.57l0.75-0.34l0,0v0.07L213.66,158.57z
			 M213.59,158.43c-0.07-0.2-0.14-0.41-0.27-0.61l0.74-0.41h0.07c0.13,0.2,0.2,0.47,0.34,0.68L213.59,158.43z M213.12,157.55
			c-0.07-0.13-0.14-0.27-0.2-0.4l0.68-0.54c0.13,0.13,0.27,0.34,0.34,0.47L213.12,157.55z M212.65,156.8
			c-0.14-0.13-0.27-0.27-0.4-0.47l0.67-0.61c0.14,0.2,0.34,0.41,0.47,0.54v0.07L212.65,156.8z M211.97,156.13
			c-0.07-0.14-0.2-0.27-0.34-0.34l0.54-0.74c0.13,0.14,0.34,0.27,0.47,0.41L211.97,156.13z M211.49,155.65L211.49,155.65l0.54-0.61
			l0,0l-0.48,0.61H211.49z M211.36,155.59c-0.2-0.14-0.34-0.27-0.54-0.41l0.47-0.75c0.2,0.14,0.41,0.27,0.61,0.41L211.36,155.59z
			 M210.48,155.05c-0.14-0.14-0.27-0.2-0.41-0.27l0.34-0.81l0,0c0.2,0.07,0.34,0.13,0.54,0.27L210.48,155.05z M209.74,154.64
			c-0.2-0.07-0.41-0.14-0.61-0.21l0.27-0.88l0,0c0.2,0.07,0.47,0.2,0.68,0.27l0,0L209.74,154.64z M208.79,154.37
			c-0.14-0.07-0.34-0.07-0.47-0.14l0.13-0.88c0.2,0.07,0.41,0.07,0.54,0.14l0,0L208.79,154.37z M208.18,154.23h-0.07l0,0l0.14-0.81
			l0,0L208.18,154.23z M207.98,154.23c-0.2-0.07-0.47-0.07-0.68-0.07v-0.88c0.27,0,0.54,0,0.81,0L207.98,154.23z M203.85,155.18
			c0.2-0.14,0.34-0.2,0.54-0.34h0.07l0.2-0.07l0,0c0.2-0.07,0.34-0.14,0.54-0.21h0.07l0.14-0.07h0.13c0.2-0.07,0.41-0.07,0.61-0.13
			l0,0h0.07h0.2h0.07v-0.07c0.13,0,0.34,0,0.48,0v2.85c-0.61,0.07-1.22,0.2-1.69,0.47L203.85,155.18z M207.3,154.3
			c0.2,0,0.41,0,0.61,0.07l0,0h0.07h0.2h0.07c0.2,0.07,0.34,0.07,0.47,0.13l0,0h0.07l0.2,0.07h0.07c0.2,0.07,0.41,0.14,0.61,0.21
			v0.07h0.07c0.07,0,0.14,0.07,0.2,0.07l0,0l0.07,0.07l0,0c0.14,0,0.27,0.14,0.4,0.2l-1.42,2.44c-0.54-0.27-1.08-0.41-1.69-0.47
			V154.3z M213.19,157.96c0.14,0.2,0.2,0.41,0.27,0.61l0,0l0.07,0.07c0,0.07,0,0.14,0.07,0.14v0.07l0,0c0.07,0.2,0.13,0.47,0.2,0.74
			l0,0l0,0c0.13,0.48,0.2,0.95,0.2,1.49h-2.84c0-0.61-0.2-1.22-0.41-1.69L213.19,157.96z M214,161.41c0,0.2,0,0.41-0.07,0.61l0,0
			l0,0c0,0.27-0.07,0.54-0.13,0.82l0,0l0,0c-0.14,0.61-0.34,1.15-0.61,1.69l-2.5-1.42c0.27-0.54,0.41-1.09,0.47-1.69H214z
			 M212.98,164.79c-0.07,0.2-0.2,0.41-0.34,0.61l-0.14,0.13l-0.07,0.07l0,0c-0.13,0.14-0.2,0.27-0.27,0.34l-0.14,0.07l-0.07,0.14
			l0,0l-0.14,0.07h0.07c-0.2,0.13-0.34,0.27-0.48,0.4h-0.07v0.07l-0.07,0.07c-0.2,0.14-0.34,0.2-0.54,0.34l-1.42-2.5
			c0.21-0.14,0.48-0.34,0.68-0.54c0.2-0.2,0.4-0.41,0.54-0.68L212.98,164.79L212.98,164.79L212.98,164.79z M210.41,167.3
			c-0.13,0.07-0.34,0.2-0.54,0.27v-0.07l-0.14,0.07l-0.07,0.07l-0.13,0.07l0,0l0,0c-0.14,0-0.27,0.07-0.41,0.13l0,0h-0.07
			c-0.07,0-0.2,0.07-0.27,0.07h-0.07l0,0c-0.27,0.07-0.47,0.14-0.74,0.14h-0.14l0,0c-0.2,0.07-0.34,0.07-0.54,0.07v-2.84
			c0.61-0.07,1.15-0.2,1.69-0.47L210.41,167.3z M206.96,168.11c-0.2,0-0.41,0-0.61-0.07l0,0l0,0c-0.07,0-0.14,0-0.2,0h-0.07h-0.07
			c-0.2-0.07-0.34-0.07-0.47-0.14l0,0l0,0c-0.34-0.07-0.67-0.2-1.01-0.34h-0.07l0,0c-0.2-0.07-0.41-0.2-0.61-0.27l1.42-2.51
			c0.54,0.27,1.08,0.41,1.69,0.47V168.11z M203.51,167.09c-0.14-0.07-0.34-0.2-0.54-0.34h0.07l-0.07-0.07l-0.2-0.07v-0.07h-0.07l0,0
			c-0.07-0.14-0.2-0.2-0.34-0.34h0.07l-0.07-0.07l-0.13-0.14l-0.14-0.07c-0.13-0.13-0.27-0.27-0.41-0.47h0.07h-0.07l-0.13-0.2
			l-0.07-0.07c-0.07-0.13-0.13-0.27-0.2-0.41l0,0l0,0h-0.07l2.5-1.42c0.2,0.27,0.34,0.47,0.61,0.68c0.2,0.2,0.41,0.41,0.68,0.61
			L203.51,167.09L203.51,167.09L203.51,167.09z M201.07,164.52c-0.14-0.2-0.2-0.41-0.27-0.68l0,0h-0.07
			c-0.07-0.2-0.14-0.47-0.2-0.68l0,0l0,0c-0.07-0.14-0.07-0.2-0.07-0.34l0,0l0,0c-0.13-0.47-0.2-0.95-0.2-1.42h2.84
			c0,0.61,0.2,1.15,0.47,1.69L201.07,164.52z M200.26,161.07c0-0.2,0-0.47,0.07-0.68l0,0l0,0c0-0.14,0-0.2,0-0.34l0,0l0,0
			c0.07-0.14,0.07-0.34,0.13-0.48l0,0l0,0c0-0.14,0-0.2,0.07-0.27v-0.07l0,0c0.07-0.2,0.14-0.41,0.2-0.54l0,0l0.07-0.13v-0.07
			c0-0.07,0.07-0.07,0.07-0.14l0,0l0,0c0.07-0.13,0.14-0.27,0.2-0.41l2.5,1.42c-0.27,0.54-0.47,1.09-0.47,1.69H200.26z M216.3,152
			h-9.14c5.01,0,9.14,4.13,9.14,9.21V152z M209.12,153.56L209.12,153.56h0.07l-0.2,0.81L209.12,153.56z M212.65,155.65
			L212.65,155.65h0.07l-0.54,0.61l-0.07-0.07L212.65,155.65z M214.75,159.17L214.75,159.17L214.75,159.17l-0.81,0.2L214.75,159.17z
			 M214.75,163.23L214.75,163.23L214.75,163.23l-0.81-0.2l0,0L214.75,163.23z M212.71,166.75L212.71,166.75l-0.07,0.07l-0.54-0.61
			h0.07L212.71,166.75z M201.61,166.82L201.61,166.82l-0.07-0.07l0.54-0.54h0.07L201.61,166.82z M205.06,153.56L205.06,153.56h0.07
			l0.14,0.81L205.06,153.56z M210.28,153.96L210.28,153.96l-0.34,0.75L210.28,153.96z M213.46,156.47L213.46,156.47l-0.68,0.54
			v-0.07L213.46,156.47z M214.41,164.32L214.41,164.32L214.41,164.32l-0.81-0.34l0,0L214.41,164.32z M213.32,166.08L213.32,166.08
			L213.32,166.08l-0.68-0.47L213.32,166.08z M208.04,169.06L208.04,169.06l-0.07-0.81L208.04,169.06z M204.05,168.52L204.05,168.52
			l-0.07-0.07l0.34-0.74L204.05,168.52z M202.22,167.43L202.22,167.43v-0.07l0.54-0.61L202.22,167.43z M200.8,165.94L200.8,165.94
			L200.8,165.94l0.68-0.47L200.8,165.94z M199.31,162.15L199.31,162.15l0.81-0.07L199.31,162.15z M199.85,158.09L199.85,158.09
			l0.74,0.34L199.85,158.09z M202.42,154.91L202.42,154.91v-0.07l0.47,0.68v0.07L202.42,154.91z M204.18,153.89L204.18,153.89
			L204.18,153.89l0.34,0.75l-0.07,0.07L204.18,153.89z M206.21,153.42L206.21,153.42l0.07,0.81L206.21,153.42z M207.16,152h-9.21
			v9.21C197.96,156.13,202.09,152,207.16,152L207.16,152z M197.96,161.21v9.21h9.21C202.09,170.41,197.96,166.28,197.96,161.21
			L197.96,161.21z M207.16,170.41h9.14v-9.21C216.3,166.28,212.17,170.41,207.16,170.41L207.16,170.41z M207.16,169.94
			c-4.81,0-8.73-3.93-8.73-8.73c0-4.74,3.93-8.66,8.73-8.66c4.74,0,8.66,3.92,8.66,8.66C215.83,166.01,211.9,169.94,207.16,169.94
			L207.16,169.94z M214.88,169.39c-0.41,0-0.68-0.27-0.68-0.74c0-0.34,0.27-0.61,0.68-0.61c0.34,0,0.68,0.27,0.68,0.61
			C215.56,169.12,215.22,169.39,214.88,169.39L214.88,169.39z M214.88,154.23c-0.41,0-0.68-0.34-0.68-0.68
			c0-0.41,0.27-0.68,0.68-0.68c0.34,0,0.68,0.27,0.68,0.68C215.56,153.89,215.22,154.23,214.88,154.23L214.88,154.23z
			 M199.51,154.23c-0.41,0-0.68-0.34-0.68-0.68c0-0.41,0.27-0.68,0.68-0.68c0.41,0,0.68,0.27,0.68,0.68
			C200.19,153.89,199.92,154.23,199.51,154.23L199.51,154.23z M199.51,169.39c-0.41,0-0.68-0.27-0.68-0.74
			c0-0.34,0.27-0.61,0.68-0.61c0.41,0,0.68,0.27,0.68,0.61C200.19,169.12,199.92,169.39,199.51,169.39L199.51,169.39z
			 M216.57,151.73v18.96h-18.88v-18.96H216.57z M216.64,149.7h-1.28v1.35h1.28V149.7z M198.84,149.7h-1.28v1.35h1.28V149.7z
			 M200.46,149.7h-1.29v1.35h1.29V149.7z M202.09,149.7h-1.29v1.35h1.29V149.7z M203.64,149.7h-1.22v1.35h1.22V149.7z M205.27,149.7
			h-1.29v1.35h1.29V149.7z M206.89,149.7h-1.29v1.35h1.29V149.7z M208.52,149.7h-1.28v1.35h1.28V149.7z M210.14,149.7h-1.29v1.35
			h1.29V149.7z M211.77,149.7h-1.29v1.35h1.29V149.7z M213.39,149.7h-1.28v1.35h1.28V149.7z M215.02,149.7h-1.29v1.35h1.29V149.7z
			 M196.81,172.65h0.27V149.7h-0.27V172.65z M195.45,172.65h0.34V149.7h-0.34V172.65z M196.13,172.65h0.34V149.7h-0.34V172.65z
			 M217.18,172.65h0.4V149.7h-0.4V172.65z M218.53,172.65h0.34V149.7h-0.34V172.65z M217.86,172.65h0.34V149.7h-0.34V172.65z"/>
		<path class="st1" d="M468.71,170.61v-0.95l-2.77-1.35v4.67L468.71,170.61z M407.59,145.43h20.24v5.89h-20.24V145.43z
			 M427.83,152.27v9h-20.24v-9H427.83z M427.83,162.69v16.18h-20.24v-16.18H427.83z M412.73,147.26h3.45v0.74h-3.45V147.26z
			 M424.58,155.18v4.13h-3.25v-4.13c0-0.75,0.81-1.36,1.63-1.36C423.9,153.83,424.58,154.43,424.58,155.18L424.58,155.18z
			 M419.44,155.18v4.13h-3.25v-4.13c0-0.75,0.68-1.36,1.63-1.36C418.69,153.83,419.44,154.43,419.44,155.18L419.44,155.18z
			 M414.23,155.18v4.13h-3.25v-4.13c0-0.75,0.68-1.36,1.63-1.36C413.48,153.83,414.23,154.43,414.23,155.18L414.23,155.18z
			 M419.3,167.23h3.45v0.68h-3.45V167.23z M415.04,167.37h3.45v0.68h-3.45V167.37z M417.47,168.24h3.45v0.74h-3.45V168.24z
			 M419.5,169.53h3.45v0.75h-3.45V169.53z M415.44,169.53h3.45v0.75h-3.45V169.53z M412.8,176.44h3.38v0.74h-3.38V176.44z
			 M411.11,175.56h3.45v0.74h-3.45V175.56z M409.42,174.61h3.45v0.68h-3.45V174.61z M422.55,174.4H426v0.75h-3.45V174.4z
			 M420.59,146.45h3.45v0.75h-3.45V146.45z M415.17,148.95h3.45v0.75h-3.45V148.95z M381.12,198.1h34.25v26.81h-34.25V198.1z
			 M415.38,226.05v28.7h-34.25v-28.7H415.38z M406.3,247.24h5.82v1.22h-5.82V247.24z M400.82,234.98h5.82v1.22h-5.82V234.98z
			 M393.71,235.26h5.82v1.22h-5.82V235.26z M397.78,236.81h5.82v1.22h-5.82V236.81z M401.16,238.98h5.82v1.22h-5.82V238.98z
			 M394.32,238.98h5.75v1.22h-5.75V238.98z M389.72,250.69h5.82v1.22h-5.82V250.69z M386.95,249.13h5.82v1.22h-5.82V249.13z
			 M384.17,247.51h5.82v1.29h-5.82V247.51z M392.16,214.68v6.97h-5.48v-6.97c0-1.29,1.22-2.37,2.78-2.37
			C390.94,212.31,392.16,213.39,392.16,214.68L392.16,214.68z M409.89,214.68v6.97h-5.48v-6.97c0-1.29,1.15-2.37,2.71-2.37
			C408.61,212.31,409.89,213.39,409.89,214.68L409.89,214.68z M401.02,214.68v6.97h-5.48v-6.97c0-1.29,1.22-2.37,2.71-2.37
			C399.81,212.31,401.02,213.39,401.02,214.68L401.02,214.68z M389.65,201.28h5.82v1.22h-5.82V201.28z M403.05,199.85h5.82v1.22
			h-5.82V199.85z M393.78,204.05h5.82v1.29h-5.82V204.05z M381.12,207.3h34.25v1.22h-34.25V207.3z M417.81,131.49l-6.77,5.69h13.94
			L417.81,131.49z M423.63,137.38v7.58h-11.17v-7.58H423.63z M416.8,140.29h2.3v-2.24h-2.3V140.29z M475.96,164.79l-9.54,8.05h19.77
			L475.96,164.79z M484.01,173.39v10.76h6.03v46.77h-28.36v-46.77h6.84v-10.76H484.01z M474.53,177.04h3.18v-3.18h-3.18V177.04z
			 M468.78,186.79h4.8v0.95h-4.8V186.79z M485.5,197.89v5.68h-4.54v-5.68c0-1.09,0.95-1.96,2.23-1.96
			C484.42,195.93,485.5,196.81,485.5,197.89L485.5,197.89z M478.19,197.89v5.68h-4.54v-5.68c0-1.09,1.01-1.96,2.23-1.96
			C477.11,195.93,478.19,196.81,478.19,197.89L478.19,197.89z M470.88,197.89v5.68h-4.54v-5.68c0-1.09,1.02-1.96,2.24-1.96
			C469.86,195.93,470.88,196.81,470.88,197.89L470.88,197.89z M477.99,214.61h4.81v1.02h-4.81V214.61z M472.1,214.81h4.81v1.02
			h-4.81V214.81z M475.48,216.1h4.87v1.08h-4.87V216.1z M478.33,217.93h4.81v1.01h-4.81V217.93z M472.57,217.93h4.87v1.01h-4.87
			V217.93z M468.85,227.61h4.81v1.02h-4.81V227.61z M466.55,226.32h4.81v1.01h-4.81V226.32z M464.25,225.03h4.81v1.02h-4.81V225.03z
			 M482.59,224.76h4.8v0.95h-4.8V224.76z M479.82,185.64h4.8v0.95h-4.8V185.64z M472.23,189.09h4.81v1.02h-4.81V189.09z
			 M461.67,191.73h28.36v1.35h-28.36V191.73z M461.67,206.35h28.36v2.84h-28.36V206.35z M398.32,174.67l-11.57,9.68h23.96
			L398.32,174.67z M408.13,184.9v12.25h-18.82V184.9H408.13z M396.63,189.5h3.86v-3.86h-3.86V189.5z M416.25,216.98l0.95-0.47v7.24
			l1.56-0.68v-7.24l3.25-1.56v7.24l1.49-0.74v-7.24l3.25-1.56v7.24l1.56-0.74v-7.24l3.25-1.56v7.24l1.49-0.74v-7.24l3.25-1.56v7.24
			l1.56-0.68v-7.31l3.25-1.56v7.24l1.49-0.68v-7.24l3.25-1.62v7.24l1.56-0.68v-7.24l3.18-1.56v7.24l1.56-0.75v-7.24l3.25-1.56v7.24
			l1.49-0.75v-7.24l3.25-1.56v7.24l0.68-0.27v24.37l-44.54,21.39V216.98z M465.94,172.98v1.49l-1.29-0.61v-6.23l-2.85-1.36v6.3
			l-1.29-0.68v-6.23l-2.77-1.36v6.3l-1.36-0.68v-6.23l-2.71-1.35v6.29l-1.35-0.68v-6.23l-2.78-1.28v6.16l-1.28-0.61v-6.23
			l-2.84-1.36v6.23l-1.29-0.61v-6.23l-2.78-1.36v6.23l-1.28-0.61v-6.22l-2.84-1.36v6.23l-1.29-0.61v-6.23l-2.78-1.35v6.23
			l-1.35-0.61v-6.23l-2.71-1.35v6.22l-0.34-0.13v20.98l32.02,15.36v-9.75h7.17v-10.29H465.94z"/>
		<path class="st1" d="M99.2,144.08l-1.08,10.15l-35.94-3.92l1.08-10.15L99.2,144.08z M70.57,236.75c18.75,0,34.93,7.45,41.49,18
			H28.94C35.64,244.19,51.75,236.75,70.57,236.75L70.57,236.75z M54.59,209.33l38.18,4.2l-0.2,2.3l-38.25-4.2L54.59,209.33z
			 M69.35,124.11l27.48,2.98l0.2-2.03l-27.48-2.98L69.35,124.11z M62.51,136.7l38.24,4.13l-0.27,2.37L62.31,139L62.51,136.7z
			 M60.95,151.19l38.18,4.2l-0.2,2.37l-38.25-4.2L60.95,151.19z M59.4,165.74l38.18,4.2l-0.27,2.3l-38.18-4.13L59.4,165.74z
			 M57.77,180.23l38.24,4.2l-0.34,2.37l-38.18-4.2L57.77,180.23z M56.22,194.78l38.18,4.2l-0.27,2.37l-38.18-4.2L56.22,194.78z
			 M93.24,139.34l1.29-11.64l-23.08-2.51l-1.29,11.64L93.24,139.34z M77.54,130.95l-0.41,4.13l-3.99-0.41l0.41-4.13
			c0.14-1.15,1.15-2.03,2.23-1.9C76.86,128.78,77.67,129.8,77.54,130.95L77.54,130.95z M91.28,132.51l-0.47,4.13l-3.99-0.47
			l0.47-4.13c0.14-1.15,1.15-1.96,2.23-1.83C90.6,130.27,91.42,131.29,91.28,132.51L91.28,132.51z M84.44,131.76l-0.47,4.13
			l-3.99-0.47l0.47-4.13c0.07-1.15,1.08-2.03,2.23-1.83C83.77,129.53,84.51,130.54,84.44,131.76L84.44,131.76z M66.98,142.59
			l-0.74,6.7l-2.37-0.27l0.74-6.7c0.07-0.54,0.61-0.95,1.29-0.88C66.57,141.51,67.05,141.98,66.98,142.59L66.98,142.59z
			 M90.2,204.53L90.2,204.53l-0.81,6.7l-2.3-0.27l0.74-6.7c0.07-0.54,0.61-0.95,1.29-0.88C89.72,203.51,90.2,203.99,90.2,204.53
			L90.2,204.53z M86.88,204.12L86.88,204.12l-0.74,6.77l-2.37-0.27l0.74-6.7c0.07-0.54,0.61-0.95,1.29-0.88
			C86.47,203.11,86.95,203.65,86.88,204.12L86.88,204.12z M83.56,203.85L83.56,203.85l-0.74,6.64l-2.3-0.2l0.68-6.77
			c0.07-0.54,0.68-0.88,1.35-0.81C83.16,202.77,83.63,203.24,83.56,203.85L83.56,203.85z M80.31,203.44L80.31,203.44l-0.75,6.7
			l-2.37-0.27l0.74-6.7c0.07-0.54,0.61-0.88,1.29-0.88C79.91,202.43,80.38,202.9,80.31,203.44L80.31,203.44z M77,203.04L77,203.04
			l-0.74,6.77l-2.3-0.27l0.68-6.7c0.07-0.54,0.68-0.95,1.29-0.88C76.59,202.02,77.06,202.56,77,203.04L77,203.04z M73.75,202.77
			L73.75,202.77L73,209.4l-2.37-0.2l0.68-6.77c0.07-0.54,0.68-0.88,1.35-0.81C73.34,201.68,73.82,202.16,73.75,202.77L73.75,202.77z
			 M70.43,202.36L70.43,202.36l-0.74,6.7l-2.37-0.27l0.74-6.63c0.07-0.61,0.68-0.95,1.29-0.95
			C70.03,201.35,70.5,201.82,70.43,202.36L70.43,202.36z M67.11,202.02L67.11,202.02l-0.68,6.7L64,208.45l0.75-6.7
			c0.07-0.54,0.68-0.95,1.35-0.88C66.71,200.94,67.18,201.48,67.11,202.02L67.11,202.02z M63.87,201.68L63.87,201.68l-0.74,6.7
			l-2.37-0.27l0.74-6.7c0.07-0.54,0.68-0.95,1.29-0.88C63.39,200.6,63.93,201.07,63.87,201.68L63.87,201.68z M60.55,201.28
			L60.55,201.28l-0.68,6.7l-2.44-0.27l0.74-6.63c0.07-0.61,0.61-0.95,1.29-0.95C60.14,200.26,60.62,200.74,60.55,201.28
			L60.55,201.28z M91.75,189.84L91.75,189.84l-0.68,6.7l-2.44-0.27l0.74-6.7c0.07-0.54,0.61-0.88,1.29-0.88
			C91.35,188.82,91.82,189.3,91.75,189.84L91.75,189.84z M88.5,189.5L88.5,189.5l-0.81,6.7l-2.3-0.27l0.74-6.7
			c0.07-0.54,0.61-0.95,1.29-0.88C88.03,188.42,88.5,188.96,88.5,189.5L88.5,189.5z M85.19,189.16L85.19,189.16l-0.74,6.7
			l-2.37-0.27l0.75-6.77c0.07-0.47,0.61-0.88,1.29-0.81C84.78,188.08,85.26,188.55,85.19,189.16L85.19,189.16z M81.94,188.76
			L81.94,188.76l-0.81,6.7l-2.3-0.2l0.68-6.7c0.14-0.61,0.68-0.95,1.35-0.95C81.46,187.74,81.94,188.21,81.94,188.76L81.94,188.76z
			 M78.62,188.42L78.62,188.42l-0.75,6.7l-2.37-0.27l0.75-6.7c0.07-0.54,0.61-0.95,1.29-0.88
			C78.22,187.33,78.69,187.88,78.62,188.42L78.62,188.42z M75.3,188.08L75.3,188.08l-0.74,6.7l-2.3-0.27l0.68-6.77
			c0.07-0.48,0.68-0.88,1.29-0.81C74.9,186.99,75.37,187.47,75.3,188.08L75.3,188.08z M72.06,187.67L72.06,187.67l-0.74,6.7
			l-2.37-0.2l0.75-6.7c0-0.61,0.61-0.95,1.29-0.95C71.65,186.66,72.12,187.13,72.06,187.67L72.06,187.67z M68.74,187.33
			L68.74,187.33l-0.74,6.7l-2.3-0.27l0.68-6.7c0.07-0.54,0.68-0.95,1.29-0.81C68.33,186.25,68.81,186.79,68.74,187.33L68.74,187.33z
			 M65.42,186.99L65.42,186.99l-0.68,6.7l-2.44-0.27l0.74-6.77c0.07-0.47,0.68-0.88,1.35-0.81
			C65.02,185.91,65.56,186.39,65.42,186.99L65.42,186.99z M62.17,186.59L62.17,186.59l-0.74,6.7l-2.37-0.2l0.74-6.7
			c0.07-0.61,0.68-0.95,1.29-0.95C61.7,185.57,62.24,186.05,62.17,186.59L62.17,186.59z M93.38,175.15L93.38,175.15l-0.74,6.7
			l-2.37-0.2l0.74-6.77c0.07-0.54,0.61-0.88,1.29-0.81C92.9,174.13,93.45,174.61,93.38,175.15L93.38,175.15z M90.06,174.81
			L90.06,174.81l-0.68,6.7l-2.44-0.27l0.74-6.7c0.07-0.54,0.68-0.95,1.29-0.88C89.65,173.73,90.13,174.27,90.06,174.81L90.06,174.81
			z M86.81,174.47L86.81,174.47l-0.74,6.7l-2.37-0.27l0.74-6.7c0.07-0.54,0.61-0.95,1.29-0.88
			C86.34,173.39,86.81,173.86,86.81,174.47L86.81,174.47z M83.49,174.07L83.49,174.07l-0.74,6.7l-2.37-0.2l0.75-6.7
			c0.07-0.61,0.61-0.95,1.29-0.88C83.09,173.05,83.56,173.52,83.49,174.07L83.49,174.07z M80.25,173.73L80.25,173.73l-0.81,6.7
			l-2.3-0.27l0.68-6.7c0.13-0.54,0.68-0.95,1.35-0.88C79.77,172.65,80.25,173.19,80.25,173.73L80.25,173.73z M76.93,173.39
			L76.93,173.39l-0.74,6.7l-2.37-0.27l0.74-6.7c0.07-0.54,0.61-0.95,1.29-0.88C76.52,172.31,77,172.85,76.93,173.39L76.93,173.39z
			 M73.61,173.05L73.61,173.05l-0.75,6.63l-2.3-0.2l0.68-6.7c0.07-0.61,0.68-0.95,1.35-0.88C73.21,171.97,73.68,172.44,73.61,173.05
			L73.61,173.05z M70.36,172.65L70.36,172.65l-0.74,6.7l-2.37-0.27l0.74-6.7c0-0.54,0.61-0.95,1.29-0.81
			C69.96,171.63,70.43,172.1,70.36,172.65L70.36,172.65z M67.05,172.31L67.05,172.31l-0.74,6.7l-2.3-0.27l0.68-6.7
			c0.07-0.54,0.68-0.95,1.29-0.88C66.64,171.22,67.11,171.76,67.05,172.31L67.05,172.31z M63.8,171.97L63.8,171.97l-0.74,6.64
			l-2.44-0.2l0.74-6.7c0.07-0.61,0.68-0.95,1.35-0.88C63.39,170.88,63.87,171.36,63.8,171.97L63.8,171.97z M94.93,160.53
			L94.93,160.53l-0.68,6.63l-2.37-0.2l0.74-6.77c0-0.54,0.61-0.88,1.22-0.82C94.53,159.44,95.07,159.92,94.93,160.53L94.93,160.53z
			 M91.69,160.12L91.69,160.12l-0.74,6.7l-2.37-0.27l0.75-6.63c0.07-0.61,0.61-0.95,1.29-0.95
			C91.21,159.11,91.75,159.58,91.69,160.12L91.69,160.12z M88.37,159.72L88.37,159.72l-0.68,6.77l-2.44-0.27l0.81-6.7
			c0-0.54,0.61-0.95,1.22-0.81C87.96,158.7,88.44,159.24,88.37,159.72L88.37,159.72z M85.12,159.44L85.12,159.44l-0.75,6.7
			l-2.37-0.27l0.74-6.77c0.07-0.47,0.61-0.88,1.29-0.81C84.65,158.36,85.12,158.84,85.12,159.44L85.12,159.44z M81.8,159.04
			L81.8,159.04l-0.74,6.7l-2.37-0.27l0.74-6.63c0.07-0.61,0.61-0.95,1.29-0.95C81.4,158.02,81.87,158.5,81.8,159.04L81.8,159.04z
			 M78.55,158.7L78.55,158.7l-0.81,6.7l-2.3-0.27l0.68-6.7c0.14-0.54,0.68-0.95,1.35-0.81C78.08,157.62,78.55,158.16,78.55,158.7
			L78.55,158.7z M75.24,158.36L75.24,158.36l-0.74,6.7l-2.37-0.27l0.75-6.7c0.07-0.54,0.61-0.95,1.29-0.88
			C74.83,157.28,75.3,157.75,75.24,158.36L75.24,158.36z M71.92,157.96L71.92,157.96l-0.74,6.7l-2.3-0.27l0.68-6.63
			c0.14-0.61,0.68-0.95,1.35-0.95C71.51,156.94,71.99,157.42,71.92,157.96L71.92,157.96z M68.67,157.62L68.67,157.62l-0.75,6.7
			l-2.37-0.27l0.75-6.7c0.07-0.54,0.61-0.95,1.29-0.81C68.26,156.53,68.74,157.07,68.67,157.62L68.67,157.62z M65.35,157.28
			L65.35,157.28l-0.74,6.7l-2.3-0.27l0.68-6.7c0.07-0.54,0.68-0.95,1.29-0.88C64.95,156.2,65.42,156.67,65.35,157.28L65.35,157.28z
			 M96.56,145.84L96.56,145.84l-0.75,6.7l-2.37-0.27l0.74-6.77c0.07-0.47,0.68-0.88,1.35-0.81
			C96.15,144.76,96.63,145.23,96.56,145.84L96.56,145.84z M93.24,145.43L93.24,145.43l-0.68,6.7l-2.37-0.21l0.74-6.7
			c0-0.61,0.61-0.95,1.22-0.95C92.84,144.42,93.38,144.89,93.24,145.43L93.24,145.43z M89.99,145.1L89.99,145.1l-0.74,6.7
			l-2.37-0.27l0.74-6.7c0.07-0.54,0.61-0.95,1.29-0.81C89.59,144.01,90.06,144.56,89.99,145.1L89.99,145.1z M86.68,144.76
			L86.68,144.76l-0.68,6.7l-2.44-0.27l0.81-6.7c0-0.54,0.61-0.95,1.22-0.88C86.27,143.67,86.81,144.15,86.68,144.76L86.68,144.76z
			 M83.43,144.35L83.43,144.35l-0.74,6.7l-2.37-0.2l0.74-6.7c0.07-0.61,0.61-0.95,1.29-0.95C82.95,143.34,83.43,143.81,83.43,144.35
			L83.43,144.35z M80.11,144.01L80.11,144.01l-0.74,6.7L77,150.44l0.74-6.7c0.07-0.54,0.61-0.95,1.29-0.81
			C79.7,142.93,80.18,143.47,80.11,144.01L80.11,144.01z M76.86,143.67L76.86,143.67l-0.74,6.7l-2.37-0.27l0.74-6.7
			c0.07-0.54,0.61-0.95,1.29-0.88C76.39,142.59,76.86,143.06,76.86,143.67L76.86,143.67z M73.55,143.27L73.55,143.27l-0.75,6.7
			l-2.37-0.2l0.75-6.7c0.07-0.61,0.61-0.95,1.29-0.88C73.14,142.25,73.61,142.73,73.55,143.27L73.55,143.27z M70.3,142.93
			L70.3,142.93l-0.81,6.7l-2.3-0.27l0.68-6.7c0.13-0.54,0.68-0.95,1.35-0.81C69.82,141.84,70.3,142.39,70.3,142.93L70.3,142.93z
			 M97.64,158.63l-1.08,10.09l-35.94-3.93l1.08-10.09L97.64,158.63z M96.09,173.19l-1.15,10.09l-35.94-3.93l1.15-10.08L96.09,173.19
			z M94.46,187.74l-1.08,10.09l-35.94-3.93l1.08-10.09L94.46,187.74z M92.9,202.22l-1.15,10.16l-35.88-3.93l1.08-10.15L92.9,202.22z
			 M91.28,216.78l-2.3,21.39c-0.54-0.14-1.08-0.27-1.69-0.48l1.76-15.64c0.13-1.55-1.22-2.91-3.11-3.18
			c-1.89-0.2-3.52,0.88-3.66,2.5l-1.62,15.03c-0.61-0.07-1.15-0.14-1.76-0.2l1.62-15.03c0.14-1.56-1.22-2.98-3.05-3.18
			c-1.83-0.2-3.52,0.88-3.66,2.44l-1.69,15.3c-0.54-0.07-1.08-0.07-1.56-0.07h-0.2l1.69-15.44c0.13-1.56-1.22-2.98-3.05-3.18
			c-1.9-0.2-3.52,0.88-3.72,2.44L63.53,236c-0.61,0.07-1.22,0.13-1.83,0.2l1.83-16.92c0.2-1.49-1.22-2.98-3.05-3.18
			c-1.83-0.2-3.52,0.88-3.66,2.5l-2.1,18.89c-0.68,0.13-1.42,0.34-2.1,0.54l2.71-25.18L91.28,216.78z"/>
		<path class="st1" d="M331.04,252.38l-25.93,0.27l3.45-4.2l0,0l1.29-1.49l0,0l0.81-1.01l0,0l1.28-1.49l0,0l0.81-1.01l0,0l1.22-1.42
			l17.13-20.58l17.26,20.24c-0.14,0.13-0.34,0.34-0.48,0.47l10.9-10.15v-0.27v0.27c2.17,1.9,4.33,3.79,6.5,5.62
			c1.49-2.37,4.06-5.35,7.31-5.01l0,0c5.62,0.2,6.43,8.87,6.43,8.87l-2.98,0.07l0.07,1.69c1.08,1.08,1.9,2.44,2.37,3.92
			c0.07,0.07,0.07,0.14,0.14,0.2l0.2,0.27l0.07,0.2c0.13,0.27,0.2,0.54,0.41,0.88l-11.98,0.07c3.99,0,7.99-0.07,11.98-0.07
			l-0.2-0.34l-0.14-0.34l-0.07-0.2c0.13,0.27,0.2,0.54,0.41,0.88c0.13,0.41,0.61,1.56,0.68,1.96l6.29,0.27
			c1.02,0.27,1.56,0.2,2.23,3.52l-19.49,0.14c0.07,0.34-9.21-0.14-9.21-0.14l-19.77-0.2c0,0,0-1.22-0.13-1.76L331.04,252.38z
			 M349.78,244.6L349.78,244.6c0.27,0.07,0.54,0.2,0.88,0.34C350.32,244.8,350.05,244.67,349.78,244.6L349.78,244.6z M354.32,245.95
			c0.27,0,0.47,0,0.74,0.07C354.79,245.95,354.59,245.95,354.32,245.95L354.32,245.95z M358.45,252.11c-0.2-0.2-0.47-0.34-0.74-0.47
			C357.97,251.77,358.24,251.91,358.45,252.11L358.45,252.11z M378.62,247.37c-0.07-0.07-0.07-0.14-0.14-0.2l0,0L378.62,247.37z"/>
		<path class="st1" d="M368.47,206.22v2.03h-10.36v10.9h4.47l-3.11,1.01v34.59h-6.84v-34.52l-3.18-1.08h4.53v-10.9h-34.45v10.9h4.54
			l-3.11,1.01v34.59h-6.91v-34.52l-3.05-1.08h4.47v-10.9h-10.36v-2.03h-2.77v-1.49h13.13v-5.89h-3.11v-2.3
			c-4.26-0.61-8.66-1.35-13.06-2.23v-5.01c-1.63-0.27-3.32-0.61-5.01-1.01v-4.06c-1.9-0.34-3.86-0.74-5.75-1.15
			c0-1.22,0-2.44,0-3.66c32.56,5.48,64.71,5.14,96.46,0c0,1.22,0,2.44,0,3.66c-1.9,0.4-3.79,0.81-5.75,1.15v4.06
			c-1.63,0.41-3.32,0.74-5.01,1.08v4.94c-4.26,0.95-8.67,1.76-13.06,2.37v2.17h-3.05v5.89h13.07v1.49H368.47z M322.64,197.69v1.15
			h-3.11v5.89h14.15v-6.5C330.02,198.16,326.36,197.96,322.64,197.69L322.64,197.69z M353.98,198.84h-3.11v-1.08
			c-3.59,0.34-7.31,0.47-10.97,0.54v6.43h14.08V198.84z"/>
	</g>
</g>
</svg>
