<?xml version="1.0" encoding="utf-8"?>
<!-- Generator: Adobe Illustrator 24.2.1, SVG Export Plug-In . SVG Version: 6.00 Build 0)  -->
<svg version="1.1" id="Capa_1" xmlns="http://www.w3.org/2000/svg" xmlns:xlink="http://www.w3.org/1999/xlink" x="0px" y="0px"
	 viewBox="0 0 768 424.86" style="enable-background:new 0 0 768 424.86;" xml:space="preserve">
<style type="text/css">
	.st0{clip-path:url(#SVGID_2_);}
	.st1{fill-rule:evenodd;clip-rule:evenodd;fill:#E9AE8C;}
</style>
<g>
	<defs>
		<rect id="SVGID_1_" width="768" height="425"/>
	</defs>
	<clipPath id="SVGID_2_">
		<use xlink:href="#SVGID_1_"  style="overflow:visible;"/>
	</clipPath>
	<g class="st0">
		<rect x="-62.53" y="409.7" class="st1" width="1017.25" height="14.89"/>
		<path class="st1" d="M64.95,340.09v2.71v22v1.8v3.61v36.21v12.19l4.4,5.98h-12.3H38.21H21.86l3.61-5.98h0.11v-47.5l-2.37-6.54
			h8.46h-2.71h-3.27c-0.79-9.59-8.91-17.26-18.61-17.26c-9.93,0-17.94,7.67-18.73,17.26h-3.27h-2.82h8.57l-2.37,6.54v47.5h0.11
			l4.29,5.98h-16.81h-18.16h-12.41l3.5-5.98v-12.19v-36.21v-3.61v-1.8v-22v-2.71v-7.78v-1.02l-10.27-8.01h-0.34v-0.34v-0.45h10.6
			v-7.78v-2.14v-1.81v-1.24H64.95v1.24v1.81v2.14v7.78h10.72v0.23v0.56H75.1l-10.15,8.01v1.02V340.09z"/>
		<path class="st1" d="M68.22,357.01v12.41v1.02v1.01h0.79v20.76v1.35v7.79v1.35v18.62v2.37v0.9h135.72v-0.9v-2.37V402.7v-1.35
			v-7.79v-1.35v-20.76h1.47v-1.01v-1.02v-12.41v-1.69h-1.92V343.7v-28.21v-1.8v-25.27v-1.81v-51.78h2.71v-3.39h-5.41v-5.08h-1.92
			v-1.58h-0.56l-2.14-3.84l-2.26-4.06l-2.14,4.06l-2.14,3.84h-0.56v1.58H157.8v5.08h-5.53v3.39h3.05v51.78v1.81v1.35H142
			l-2.14-16.14l-0.45-4.29v-23.01h3.61v-2.82h-3.61v-3.05h-3.05v3.05h-3.61v2.82h3.61v22.45l-0.68,4.85l-2.14,16.14h-15v-1.35v-1.81
			v-51.78h2.71v-3.39h-5.42v-5.08H84.47v-1.58H83.9l-2.14-3.84l-2.14-4.06l-2.26,4.06l-2.03,3.84h-0.68v1.58h-2.6v5.08h-5.53v3.39
			h3.04v51.78v1.81v25.27v1.8v28.21v11.62h-1.35V357.01z M118.54,294.85h15.12v9.48l-0.9,1.46l-5.19,8.13h-9.03v-0.23V294.85z
			 M142,294.85h13.31v18.84v0.23h-7.22l-5.08-8.13l-1.01-1.46V294.85z M120.91,336.36c0.45-8.12,6.77-14.55,14.78-15.11
			C127.68,321.81,121.36,328.35,120.91,336.36L120.91,336.36z M138.17,321.25c3.38,0.23,6.43,1.58,8.91,3.61
			C144.6,322.83,141.55,321.47,138.17,321.25L138.17,321.25z M196.15,315.04h-32.72v-1.35v-23.47h32.72v23.47V315.04z
			 M184.42,294.17c1.13,0,2.14,0.68,2.14,1.46v16.81h-4.29v-16.81C182.28,294.85,183.18,294.17,184.42,294.17L184.42,294.17z
			 M175.96,294.17c1.13,0,2.14,0.68,2.14,1.46v16.81h-4.29v-16.81C173.82,294.85,174.72,294.17,175.96,294.17L175.96,294.17z
			 M189.27,323.28h4.4v-4.4h-4.4V323.28z M166.15,323.28h4.51v-4.4h-4.51V323.28z M98.68,294.17c1.13,0,2.14,0.68,2.14,1.46v16.81
			h-4.29v-16.81C96.54,294.85,97.44,294.17,98.68,294.17L98.68,294.17z M90.22,294.17c1.13,0,2.03,0.68,2.03,1.46v16.81h-4.17
			v-16.81C88.08,294.85,88.98,294.17,90.22,294.17L90.22,294.17z M103.53,323.28h4.4v-4.4h-4.4V323.28z M80.41,323.28h4.4v-4.4h-4.4
			V323.28z M196.49,421.31h-3.05v-29.78c0-9.14-13.42-16.58-13.42-16.58s-13.43,7.45-13.43,16.58v29.78h-4.4V402.7v-1.35v-7.79
			v-1.35v-20.76h34.3v20.76v1.35v7.79v1.35V421.31z M153.96,421.31h-3.5v-29.78c0-9.14-13.43-16.58-13.43-16.58
			s-13.42,7.45-13.42,16.58v29.78h-3.84V402.7v-1.35v-7.79v-1.35v-20.76h34.18v20.76v1.35v7.79v1.35V421.31z M111.43,421.31h-3.84
			v-29.78c0-9.14-13.42-16.58-13.42-16.58s-13.42,7.45-13.42,16.58v29.78h-3.38V402.7v-1.35v-7.79v-1.35v-20.76h34.07v20.76v1.35
			v7.79v1.35V421.31z"/>
		<path class="st1" d="M634.1,416.57h2.26l-17.04-32.94c-8.91-8.57-21.1-13.76-34.41-13.76c-12.19,0-23.24,4.4-31.82,11.62
			l-18.16,35.09h3.27v8.01h-42.87v-8.01h5.64l35.31-68.25v-10.27h7.56l12.52-35.88v-0.79h0.23l3.5-10.15h-1.35v-9.48h3.95v-1.8
			h-5.87v-10.27h8.91c6.66-52.12,9.81-141.69,10.83-170.35h-0.23v-2.26h0.34l0.11-5.53h-1.58v-9.25h4.06v-11.4h4.74V54.78h1.58V40
			h1.81v14.78h1.69v16.13h4.62v11.4h4.18v9.25h-1.69l0.22,5.53h0.23v2.26h-0.11c0.57,16.13,1.69,51.78,3.95,89.24l0.11,0.34
			l-0.11,0.11c1.35,22.68,3.04,45.81,5.08,65.66c0.56,5.41,1.24,10.27,1.69,15h9.03v10.27h-5.87v1.8h3.84v9.48h-0.9l3.5,10.15
			l12.75,36.67h3.94v9.59l0.79-0.34l35.87,69.27h6.77v8.01H634.1V416.57z M547.01,335.69L547.01,335.69l11.4-6.66l-6.66-6.43
			L547.01,335.69z M553.44,317.3L553.44,317.3l10.15-6.65l-5.75-5.75L553.44,317.3z M559.42,300.38L559.42,300.38l7.45-4.74
			l-4.51-3.83L559.42,300.38z M610.86,291.24L610.86,291.24h-0.34l-4.29,4.06l7.56,4.4L610.86,291.24z M615.71,305L615.71,305
			l-5.3,5.41l9.14,5.75L615.71,305z M621.69,322.15L621.69,322.15l-7.22,6.88l12.07,7L621.69,322.15z M585.25,91.55L585.25,91.55
			l-2.71,2.26l-2.7-2.26H585.25z M581.76,94.6L581.76,94.6l-3.16,2.48l0.22-5.08L581.76,94.6z M580.07,97.08L580.07,97.08l2.26-1.92
			l2.03,1.92H580.07z M583.23,94.49L583.23,94.49l2.26-1.81v0.11v0.11v0.56v0.11v0.68v0.11v0.79v0.22v1.13L583.23,94.49z
			 M585.48,99.56L585.48,99.56l-3.39,3.5l-3.5-3.72h6.88V99.56z M581.19,103.96L581.19,103.96l-2.82,3.05l0.11-6.09L581.19,103.96z
			 M578.37,108.48L578.37,108.48l3.61-3.72l3.27,3.72H578.37z M582.77,103.85L582.77,103.85l2.71-2.82v5.75L582.77,103.85z
			 M585.48,110.73L585.48,110.73l-3.61,3.61l-3.27-3.72h6.88V110.73z M580.85,115.13L580.85,115.13l-2.93,3.16l0.22-6.43
			L580.85,115.13z M577.81,119.87L577.81,119.87l3.95-3.84l3.27,3.95h-7.22V119.87z M582.54,115.13L582.54,115.13l2.94-2.93v6.32
			L582.54,115.13z M585.48,122.35L585.48,122.35l-3.72,3.61l-3.5-3.83h7.22V122.35z M580.74,126.87L580.74,126.87l-3.27,3.16v-0.68
			l0.22-5.87L580.74,126.87z M577.69,131.27L577.69,131.27l3.84-3.61l3.27,3.61H577.69z M582.32,126.87L582.32,126.87l3.16-2.93
			v6.32L582.32,126.87z M585.48,134.2L585.48,134.2l-3.72,3.27l-4.06-4.06h7.56l0.23,0.11V134.2z M580.74,138.26L580.74,138.26
			l-3.72,3.16l0.34-6.66L580.74,138.26z M577.13,142.77L577.13,142.77l4.4-3.72l3.61,3.72H577.13z M582.32,138.26L582.32,138.26
			l3.16-2.59v2.71v0.45v0.79v0.34v0.9v0.45L582.32,138.26z M587.63,133.86L587.63,133.86l0.34-0.45h7.56l-3.83,4.06l-4.06-3.5
			V133.86z M577.36,133.41L577.36,133.41v0.11V133.41z M585.48,145.03L585.48,145.03l-4.29,3.61l-3.72-3.72h8.01V145.03z
			 M580.29,149.43L580.29,149.43l-3.72,3.16l0.22-6.66L580.29,149.43z M576.34,154.06L576.34,154.06l4.74-3.84l3.84,4.06h-8.58
			V154.06z M581.98,149.43L581.98,149.43l3.27-2.93v0.68v0.9v0.79v1.13v0.79v1.13v0.9v0.11L581.98,149.43z M585.14,156.54
			L585.14,156.54l-4.29,3.72l-3.83-3.95h8.12V156.54z M579.95,161.05L579.95,161.05l-3.95,3.5l0.23-7.22L579.95,161.05z
			 M576.34,165.56L576.34,165.56l4.4-3.72l3.72,3.72H576.34z M581.76,161.05L581.76,161.05l3.38-3.04v0.68v0.56v1.69v0.68l-0.11,1.8
			v0.56v0.56L581.76,161.05z M576.57,156.31L576.57,156.31l-0.34,1.01l0.11-1.01H576.57z M584.69,167.71L584.69,167.71l-4.06,3.61
			l-3.61-3.61H584.69z M579.61,172.22L579.61,172.22l-4.29,3.84l0.34-7.67L579.61,172.22z M576.12,177.07L576.12,177.07l4.4-4.06
			l4.17,4.06H576.12z M581.53,172.11L581.53,172.11l3.5-3.05l-0.11,1.92v0.34v2.37v0.23l-0.11,1.35L581.53,172.11z M584.01,179.21
			L584.01,179.21l-3.95,3.27l-3.27-3.27H584.01z M578.94,183.61L578.94,183.61l-4.29,3.5l0.57-7.45L578.94,183.61z M575.33,188.46
			L575.33,188.46l4.62-3.95l3.72,3.95H575.33z M581.19,183.61L581.19,183.61l3.5-3.16v1.47l-0.23,5.08L581.19,183.61z
			 M584.35,190.61L584.35,190.61l-4.29,3.61l-3.39-3.61H584.35z M578.94,195.12L578.94,195.12l-4.97,4.29l0.57-8.8L578.94,195.12z
			 M575.67,199.86L575.67,199.86l4.29-3.61l3.61,3.61H575.67z M581.19,195.12L581.19,195.12l3.16-2.6v0.45l-0.11,0.56v2.26v0.68
			l-0.11,1.8L581.19,195.12z M583.34,202L583.34,202l-4.06,3.27l-3.16-3.27H583.34z M578.14,206.4L578.14,206.4l-4.96,4.17
			l0.68-8.58L578.14,206.4z M574.65,211.25L574.65,211.25l4.52-3.83l3.83,3.83H574.65z M580.4,206.4L580.4,206.4l3.61-3.16
			l-0.11,1.24v0.9l-0.22,4.29L580.4,206.4z M582.54,213.4L582.54,213.4l-4.29,3.5l-3.38-3.5H582.54z M577.02,217.8L577.02,217.8
			l-4.63,3.72l0.68-8.01L577.02,217.8z M573.3,222.65L573.3,222.65l4.85-3.72l3.39,3.72H573.3z M579.16,217.91L579.16,217.91
			l4.29-3.27c-0.11,2.37-0.22,4.96-0.45,7.33L579.16,217.91z M582.21,224.9L582.21,224.9l-4.29,3.27l-3.27-3.27H582.21z
			 M576.79,229.19L576.79,229.19l-5.3,4.17c0.23-2.71,0.45-5.64,0.68-8.46h0.45L576.79,229.19z M573.07,234.04L573.07,234.04
			l4.62-3.84l3.61,3.84H573.07z M578.94,229.3L578.94,229.3l3.83-3.05c-0.11,2.26-0.23,4.51-0.45,6.66L578.94,229.3z M580.4,236.18
			L580.4,236.18l-3.72,3.05l-2.82-3.05H580.4z M575.44,240.24L575.44,240.24l-4.96,3.83c0.34-2.48,0.56-5.19,0.67-7.9h0.56
			L575.44,240.24z M571.15,245.55L571.15,245.55l5.19-4.29l4.18,4.29H571.15z M577.58,240.36L577.58,240.36l4.51-3.6
			c-0.22,2.48-0.34,5.19-0.68,7.55L577.58,240.36z M580.63,247.69L580.63,247.69l-4.96,3.84l-3.5-3.84H580.63z M574.54,252.43
			L574.54,252.43l-4.85,4.06h-0.34c0.23-2.82,0.45-5.75,0.79-8.68L574.54,252.43z M571.94,256.49L571.94,256.49l3.61-2.93l2.71,2.93
			H571.94z M576.79,252.65L576.79,252.65l4.29-3.39c-0.34,2.37-0.56,4.86-0.79,7L576.79,252.65z M579.73,258.64L579.73,258.64
			l-5.53,4.51l-4.17-4.51H579.73z M573.07,264.05L573.07,264.05l-5.08,4.06c0.23-2.71,0.68-5.53,0.9-8.35L573.07,264.05z
			 M568.22,269.69L568.22,269.69l5.75-4.51l3.84,4.06v0.11l-0.11,0.34H568.22z M575.21,264.16L575.21,264.16l4.4-3.5
			c-0.45,2.48-0.79,4.85-1.24,6.88L575.21,264.16z M588.08,91.55L588.08,91.55l2.82,2.26l2.6-2.26H588.08z M591.69,94.6L591.69,94.6
			l2.71,2.14l-0.11-4.51L591.69,94.6z M593.15,97.08L593.15,97.08l-2.15-1.92l-2.14,1.92H593.15z M590.1,94.49L590.1,94.49
			l-2.48-2.15v0.45v0.11v0.56v0.11v0.68v0.11v0.79v0.22v1.35L590.1,94.49z M587.63,99.34L587.63,99.34l3.72,3.72l3.16-3.61v-0.11
			H587.63z M592.14,103.96L592.14,103.96l2.48,2.71l-0.11-5.3L592.14,103.96z M594.73,108.25L594.73,108.25l-3.27-3.5l-3.5,3.72
			h6.77V108.25z M590.56,103.85L590.56,103.85l-2.93-3.05v6.32L590.56,103.85z M587.85,110.62L587.85,110.62l3.72,3.72l3.04-3.72
			H587.85z M592.36,115.13L592.36,115.13l2.71,2.71l-0.11-5.64L592.36,115.13z M595.18,119.42L595.18,119.42l-3.49-3.38l-3.27,3.95
			h6.77V119.42z M590.78,115.13L590.78,115.13l-3.15-3.16v7.11L590.78,115.13z M587.63,122.13L587.63,122.13l4.06,3.83l3.49-3.83
			H587.63z M592.59,126.87L592.59,126.87l2.93,2.71l-0.23-5.75L592.59,126.87z M595.52,131.27L595.52,131.27l-3.72-3.61l-3.16,3.61
			H595.52z M590.89,126.87L590.89,126.87l-3.27-3.16v6.88L590.89,126.87z M592.59,138.26L592.59,138.26l3.38,2.93l-0.23-6.21
			L592.59,138.26z M596.09,142.66L596.09,142.66l-4.29-3.61l-3.72,3.72h8.01V142.66z M590.89,138.26L590.89,138.26l-3.27-2.82v2.93
			v0.45v0.79v0.34v0.9v0.56v0.11L590.89,138.26z M587.85,144.92L587.85,144.92l4.4,3.72l3.72-3.72H587.85z M593.15,149.43
			L593.15,149.43l3.39,2.93l-0.34-5.98L593.15,149.43z M596.54,153.83L596.54,153.83l-4.17-3.61l-3.84,4.06h8.12L596.54,153.83z
			 M591.46,149.43L591.46,149.43l-3.72-3.16v0.9v0.9v0.79v1.13v0.79v1.13v0.9v0.34L591.46,149.43z M587.85,156.31L587.85,156.31
			l4.63,3.95l3.95-3.95H587.85z M593.49,161.05L593.49,161.05l3.61,3.16l-0.34-6.54L593.49,161.05z M597.1,165.56L597.1,165.56
			l-4.51-3.72l-3.72,3.72H597.1z M591.69,161.05L591.69,161.05l-3.84-3.38v1.01v0.56v1.69v0.68l0.11,1.8v0.56v0.79L591.69,161.05z
			 M588.75,167.71L588.75,167.71l3.84,3.61l3.61-3.61H588.75z M593.71,172.22L593.71,172.22l3.95,3.5l-0.34-6.99L593.71,172.22z
			 M597.32,177.07L597.32,177.07l-4.4-4.06l-4.17,4.06H597.32z M591.8,172.11L591.8,172.11l-3.84-3.38l0.11,2.26v0.34v2.37v0.23
			l0.11,1.69L591.8,172.11z M589.32,179.21L589.32,179.21l3.95,3.27l3.27-3.27H589.32z M594.39,183.61L594.39,183.61l3.84,3.16
			l-0.34-6.77L594.39,183.61z M598,188.46L598,188.46l-4.51-3.95l-3.95,3.95H598z M592.25,183.61L592.25,183.61l-4.06-3.39
			l0.22,1.69l0.11,5.41L592.25,183.61z M589.09,190.61L589.09,190.61l4.06,3.61l3.61-3.61H589.09z M594.39,195.12L594.39,195.12
			l4.62,4.06l-0.56-8.12L594.39,195.12z M597.66,199.86L597.66,199.86l-4.17-3.61l-3.61,3.61H597.66z M592.25,195.12L592.25,195.12
			l-3.61-2.93v0.79l0.11,0.56v2.26v0.68l0.11,2.14L592.25,195.12z M590.1,202L590.1,202l3.84,3.27l3.38-3.27H590.1z M595.18,206.4
			L595.18,206.4l4.63,3.84l-0.45-8.01L595.18,206.4z M598.79,211.25L598.79,211.25l-4.51-3.83l-3.95,3.83H598.79z M593.04,206.4
			L593.04,206.4l-3.95-3.38l0.11,1.47v0.9l0.11,4.74L593.04,206.4z M590.78,213.4L590.78,213.4l4.4,3.5l3.16-3.5H590.78z
			 M596.42,217.8L596.42,217.8l4.06,3.5l-0.57-7.33L596.42,217.8z M599.92,222.65L599.92,222.65l-4.63-3.72l-3.61,3.72H599.92z
			 M594.05,217.91L594.05,217.91l-4.51-3.72c0.11,2.82,0.34,5.53,0.45,8.12L594.05,217.91z M591.12,224.9L591.12,224.9l4.29,3.27
			l3.27-3.27H591.12z M596.65,229.19L596.65,229.19l4.96,3.95c-0.34-2.82-0.56-5.42-0.67-8.24h-0.11L596.65,229.19z M600.37,234.04
			L600.37,234.04l-4.85-3.84l-3.49,3.84H600.37z M594.39,229.3L594.39,229.3l-4.17-3.39c0.11,2.48,0.34,4.96,0.45,7.34L594.39,229.3
			z M593.04,236.18L593.04,236.18l3.72,3.05l2.82-3.05H593.04z M598,240.24L598,240.24l4.51,3.61c-0.22-2.59-0.56-5.08-0.68-7.67
			h-0.11L598,240.24z M602.29,245.55L602.29,245.55l-5.42-4.29l-3.95,4.29H602.29z M595.74,240.36L595.74,240.36l-4.85-4.06
			c0.11,2.93,0.45,5.76,0.68,8.46L595.74,240.36z M592.81,247.69L592.81,247.69l4.74,3.84l3.72-3.84H592.81z M598.79,252.43
			L598.79,252.43l4.96,4.06c-0.34-2.71-0.56-5.53-0.9-8.24L598.79,252.43z M601.27,256.49L601.27,256.49l-3.38-2.93l-2.82,2.93
			H601.27z M596.65,252.65L596.65,252.65l-4.62-3.72c0.22,2.6,0.45,5.19,0.9,7.56L596.65,252.65z M593.6,258.64L593.6,258.64
			l5.53,4.51l4.17-4.51H593.6z M600.37,264.05L600.37,264.05l4.63,3.72c-0.22-2.48-0.68-5.08-0.91-7.67L600.37,264.05z M605,269.69
			L605,269.69l-5.64-4.51l-4.17,4.4l0.11,0.11H605z M598.11,264.16L598.11,264.16l-4.62-3.84c0.34,2.82,0.79,5.3,1.24,7.45
			L598.11,264.16z M560.88,301.39L560.88,301.39h12.64l-5.3-4.51L560.88,301.39z M573.74,291.24L573.74,291.24l-5.52,3.5l-3.95-3.5
			H573.74z M569.57,295.98L569.57,295.98l7.34-4.74h1.01l-1.35,10.15h-0.45L569.57,295.98z M604.89,296.43L604.89,296.43l-5.3,4.96
			h13.88L604.89,296.43z M599.13,291.24L599.13,291.24l5.65,3.27l3.49-3.27H599.13z M603.42,295.64L603.42,295.64l-7.9-4.4
			l1.7,10.15L603.42,295.64z M554.79,319.22L554.79,319.22h17.49l-7-6.88L554.79,319.22z M574.42,303.53L574.42,303.53l-9.14,5.98
			l-5.98-5.98H574.42z M567.09,311.21L567.09,311.21l8.8-5.64l-2.03,12.52L567.09,311.21z M608.61,312.11L608.61,312.11l-7.11,7.11
			h18.72L608.61,312.11z M599.35,303.53L599.35,303.53l9.25,5.75l5.75-5.75H599.35z M606.91,310.98L606.91,310.98l-9.25-5.75
			l1.92,12.07l0.11,0.9L606.91,310.98z M612.67,330.72L612.67,330.72l-7.45,7.33h19.52L612.67,330.72z M601.84,321.36L601.84,321.36
			l10.72,6.43l6.65-6.43H601.84z M610.64,329.71L610.64,329.71l-10.04-6.09l2.14,13.65L610.64,329.71z M548.14,338.06L548.14,338.06
			h19.74l-7.67-7.33L548.14,338.06z M571.04,321.36L571.04,321.36l-10.61,6.43l-6.77-6.43H571.04z M562.24,329.71L562.24,329.71
			l10.83-6.43l-2.25,14.55L562.24,329.71z M606.91,359.61L606.91,359.61v3.5c0.79,0.34,1.58,0.68,2.26,0.9L606.91,359.61z
			 M606.01,362.76L606.01,362.76v-4.96l-1.47-2.82v7.22L606.01,362.76z M603.53,361.97L603.53,361.97v-8.8l-0.9-1.8h-0.56v10.04
			L603.53,361.97z M601.05,361.07L601.05,361.07v-9.7h-1.36v9.36L601.05,361.07z M598.68,360.62L598.68,360.62v-9.25h-1.47v8.8
			L598.68,360.62z M596.2,360.06L596.2,360.06v-8.69h-1.47v8.46L596.2,360.06z M593.83,359.61L593.83,359.61v-8.24h-1.47v8.01
			L593.83,359.61z M591.46,359.27L591.46,359.27v-7.9h-1.47v7.79L591.46,359.27z M589.09,359.16L589.09,359.16v-7.79h-1.46v7.67
			L589.09,359.16z M586.61,359.04L586.61,359.04v-7.67h-1.47v7.67H586.61z M584.13,359.04L584.13,359.04v-7.67h-1.36v7.67H584.13z
			 M581.76,359.04L581.76,359.04v-7.67h-1.47v7.79L581.76,359.04z M579.28,359.27L579.28,359.27v-7.9h-1.47v8.01L579.28,359.27z
			 M576.91,359.49L576.91,359.49v-8.12h-1.47v8.24L576.91,359.49z M574.54,359.94L574.54,359.94v-8.57h-1.47v8.8L574.54,359.94z
			 M572.17,360.28L572.17,360.28v-8.91h-1.47v9.36L572.17,360.28z M569.69,360.96L569.69,360.96v-9.59h-1.02l-0.45,0.79v9.25
			L569.69,360.96z M567.21,361.64L567.21,361.64v-7.56l-1.36,2.82v5.19L567.21,361.64z M640.2,413.98L640.2,413.98l5.86-7.44
			l-12.64-5.64L640.2,413.98z M648.2,404.05L648.2,404.05l5.75-7.11h-21.55L648.2,404.05z M656.1,399.09L656.1,399.09l-4.96,6.32
			l10.71,4.62L656.1,399.09z M648.99,407.89L648.99,407.89l-6.88,8.69h23.01l-1.01-2.03L648.99,407.89z M629.59,393.56
			L629.59,393.56l6.54-4.62l-10.83-3.84L629.59,393.56z M638.73,387.24L638.73,387.24l6.09-4.17h-17.37L638.73,387.24z
			 M648.09,383.52L648.09,383.52l-6.66,4.63l11.06,3.95L648.09,383.52z M638.73,389.95L638.73,389.95l-6.88,4.85h20.19
			L638.73,389.95z M625.31,380.93L625.31,380.93h19.06l-12.52-4.51L625.31,380.93z M622.6,380.03L622.6,380.03l6.54-4.52
			l-10.94-3.95L622.6,380.03z M631.85,373.59L631.85,373.59l6.43-4.4h-18.73L631.85,373.59z M640.98,370.09L640.98,370.09
			l-6.43,4.51l10.83,3.95L640.98,370.09z M615.94,367.16L615.94,367.16h23.58l-2.15-4.17H613.8L615.94,367.16z M530.88,414.21
			L530.88,414.21l-5.98-7.67l12.97-5.64L530.88,414.21z M522.75,404.05L522.75,404.05l-5.64-7.11h21.55L522.75,404.05z
			 M515.08,399.2L515.08,399.2l4.74,6.2l-10.27,4.51L515.08,399.2z M521.97,407.89L521.97,407.89l6.99,8.69h-22.79l1.01-2.14
			L521.97,407.89z M539.9,396.95L539.9,396.95l1.7-3.27l-6.66-4.74l11.06-3.95l-4.4,8.69L539.9,396.95z M532.23,387.24
			L532.23,387.24l-5.98-4.17h17.37L532.23,387.24z M523.21,383.63L523.21,383.63l6.43,4.51l-10.83,3.95L523.21,383.63z
			 M532.23,389.95L532.23,389.95l6.99,4.85h-20.31L532.23,389.95z M545.77,380.93L545.77,380.93H526.7l12.52-4.51L545.77,380.93z
			 M636.25,360.85L636.25,360.85h-23.58l-4.85-9.48h23.58L636.25,360.85z M548.47,380.14L548.47,380.14l-6.65-4.63l11.28-3.95
			L548.47,380.14z M539.22,373.59L539.22,373.59l-6.43-4.4h18.61L539.22,373.59z M530.09,370.21L530.09,370.21l6.43,4.4l-10.72,3.84
			L530.09,370.21z M555.36,367.16L555.36,367.16h-23.69l2.14-4.17h23.69L555.36,367.16z M558.52,360.85L558.52,360.85h-23.58
			l4.96-9.48h23.58L558.52,360.85z M579.5,297.44L579.5,297.44h14.78l6.21,40.61h-27.42l3.16-20.76L579.5,297.44z M593.83,295.3
			L593.83,295.3h-14.1l0.68-4.06h12.75L593.83,295.3z M564.83,362.42L564.83,362.42v-3.72l-2.48,4.74
			C563.14,362.99,563.93,362.76,564.83,362.42L564.83,362.42z M614.14,373.48L614.14,373.48l-1.24-2.37
			c-8.24-4.85-17.72-7.55-27.98-7.55c-9.37,0-18.28,2.37-25.95,6.54l-1.13,2.26c8.01-4.51,17.26-7.22,27.08-7.22
			C595.74,365.13,605.56,368.18,614.14,373.48L614.14,373.48z"/>
		<path class="st1" d="M377.56,328.35v8.01h1.02v1.47h-0.34c28.77,18.16,12.63,23.8,16.02,27.41c-5.53-0.11-11.06-0.11-16.69,0
			h-16.92c2.14-3.95-14.55-9.14,15.23-27.41h-0.34v-1.47h1.02v-7.56c-0.23,0-0.45,0-0.68,0c-1.24,0-2.37-0.79-2.82-2.03
			c0.56,0.57,1.24,0.79,2.03,0.79c1.69,0,3.16-1.35,3.16-3.05c0-0.34-0.11-0.79-0.22-1.01c0.67,0.56,1.01,1.35,1.01,2.14
			C379.03,326.77,378.46,327.79,377.56,328.35L377.56,328.35z M321.38,372.24c0.34-0.68-2.37-1.47,2.59-4.51
			c4.74,3.04,2.15,3.95,2.71,4.51C324.88,372.24,323.19,372.24,321.38,372.24L321.38,372.24z M321.15,377.43h5.41v-2.94h-5.41
			V377.43z M322.17,376.75L322.17,376.75h1.02v-1.7h-1.02V376.75z M324.65,376.75L324.65,376.75h0.9v-1.7h-0.9V376.75z
			 M323.41,376.75L323.41,376.75h0.9v-1.7h-0.9V376.75z M320.48,374.16h6.88v-0.56h-6.88V374.16z M320.48,373.14h6.88v-0.57h-6.88
			V373.14z M320.48,378.33h6.88v-0.45h-6.88V378.33z M320.48,379.01h6.88v-0.45h-6.88V379.01z M321.04,379.12h5.64v13.99h-5.64
			V379.12z M326.68,394.01v12.07h-5.64v-12.07H326.68z M326.68,406.99v7.45h6.66v-34.52l11.17-2.26v36.78h0.45v-42.87h1.47v-0.45
			h13.09v-3.95h35.2v3.27l0,0v0.68h13.54v0.45h1.13v42.87h0.68v-37.35l10.83,3.05v34.3h7.33v-7.45h5.53v7.45h10.04v-12.07h9.03
			v12.07h11.5v3.04H290.13v-3.04h11.85v-12.07h9.14v12.07h9.93v-7.45H326.68z M310.66,345.84c-0.57-1.01,3.84-2.25-4.17-7.1
			c-7.78,4.73-3.5,6.2-4.4,7.1C304.91,345.84,307.84,345.84,310.66,345.84L310.66,345.84z M310.89,354.3h-8.69v-4.74h8.69V354.3z
			 M309.31,353.29L309.31,353.29h-1.47v-2.71h1.47V353.29z M305.25,353.29L305.25,353.29h-1.47v-2.71h1.47V353.29z M307.28,353.29
			L307.28,353.29h-1.47v-2.71h1.47V353.29z M312.24,349.34h-11.28v-1.24h11.28V349.34z M312.24,347.53h-11.28v-1.13h11.28V347.53z
			 M312.24,355.77h-11.28v-1.13h11.28V355.77z M312.24,356.9h-11.28v-0.79h11.28V356.9z M464.31,424.58H290.13v-6.09h174.18V424.58z
			 M311.11,357.12h-9.14v22.67h9.14V357.12z M444.12,345.84c0.67-1.01-3.84-2.25,4.29-7.1c7.78,4.73,3.5,6.2,4.4,7.1
			C449.88,345.84,447.06,345.84,444.12,345.84L444.12,345.84z M452.7,354.3v-4.74h1.24v-1.46h-11.28v1.46h1.24v4.74h-1.24v1.36v0.11
			v1.35h1.13v22.67h9.03v-22.67h1.13v-1.35v-0.11v-1.36H452.7z M445.59,353.29L445.59,353.29h1.47v-2.71h-1.47V353.29z
			 M449.54,353.29L449.54,353.29h1.58v-2.71h-1.58V353.29z M447.62,353.29L447.62,353.29h1.47v-2.71h-1.47V353.29z M442.66,347.87
			h11.28v-1.46h-11.28V347.87z M452.81,381.27v19.51h-9.03v-19.51H452.81z M361.66,414.44h31.02v-40.95h-31.02V414.44z
			 M433.52,372.24c-0.34-0.68,2.37-1.47-2.59-4.51c-4.85,3.04-2.14,3.95-2.71,4.51C430.02,372.24,431.71,372.24,433.52,372.24
			L433.52,372.24z M433.74,377.43h-5.41v-2.94h5.41V377.43z M432.62,376.75L432.62,376.75h-0.9v-1.7h0.9V376.75z M430.25,376.75
			L430.25,376.75h-0.9v-1.7h0.9V376.75z M431.38,376.75L431.38,376.75h-0.9v-1.7h0.9V376.75z M434.42,374.27h-6.88v-0.68h6.88
			V374.27z M434.42,373.14h-6.88v-0.57h6.88V373.14z M434.42,378.33h-6.88v-0.56h6.88V378.33z M434.42,379.12h-0.68v13.99h-5.53
			v-13.99h-0.68v-0.56h6.88V379.12z M428.22,394.01v12.07h5.53v-12.07H428.22z M301.98,381.27v19.51h9.14v-19.51H301.98z
			 M341.46,402.7v8.35l-5.75,0.11v-7.78c0-1.47,2.71-3.84,2.82-3.84C338.64,399.54,341.46,401.23,341.46,402.7L341.46,402.7z
			 M341.46,388.71v8.24l-5.75,0.68v-8.24c0-1.58,2.71-3.95,2.82-3.95C338.64,385.33,341.46,387.02,341.46,388.71L341.46,388.71z
			 M413.32,402.7v8.35l5.75,0.11v-7.78c0-1.47-2.82-3.84-2.93-3.84C416.03,399.54,413.32,401.23,413.32,402.7L413.32,402.7z
			 M413.32,388.71v8.24l5.75,0.68v-8.24c0-1.58-2.82-3.95-2.93-3.95C416.03,385.33,413.32,387.02,413.32,388.71L413.32,388.71z
			 M396.4,370.43c0.68-1.24-4.74-2.71,5.19-8.69h-0.11h-0.34v-0.45h0.34v-2.03c-0.11,0-0.23,0-0.34,0c-0.34,0-0.79-0.34-0.9-0.68
			c0.11,0.11,0.45,0.23,0.68,0.23c0.56,0,1.01-0.45,1.01-0.9c0-0.11,0-0.22-0.11-0.34c0.22,0.11,0.34,0.34,0.34,0.68
			c0,0.34-0.11,0.56-0.34,0.79v2.25h0.22v0.45h-0.22h-0.23c9.48,5.76,4.51,7.56,5.41,8.69H396.4z M380.04,390.52v6.43h6.54v-6.66
			c0-3.83-8.91-9.02-9.37-9.02c-0.45,0-9.36,5.19-9.36,9.02v6.66h6.43v-6.43c0-1.13,2.71-2.71,2.93-2.71
			C377.34,387.81,380.04,389.39,380.04,390.52L380.04,390.52z M380.04,404.84v6.32h-5.75v-6.32c0-1.24,2.71-2.82,2.93-2.82
			C377.34,402.02,380.04,403.6,380.04,404.84L380.04,404.84z M386.59,399.2h-18.73v11.96h-2.71v-34.29l0,0h24.03v34.29h-2.59V399.2z
			 M350.26,391.98h2.26v4.29h-2.26V391.98z M350.26,406.87h2.26v4.29h-2.26V406.87z M402.04,406.87h2.26v4.29h-2.26V406.87z
			 M402.04,391.98h2.26v4.29h-2.26V391.98z M348.23,373.82L348.23,373.82h2.03v3.05h-2.03V373.82z M404.64,373.82L404.64,373.82
			h2.14v3.05h-2.14V373.82z M401.25,373.82L401.25,373.82h2.03v3.05h-2.03V373.82z M397.76,373.82L397.76,373.82h2.03v3.05h-2.03
			V373.82z M355.22,373.82L355.22,373.82h2.03v3.05h-2.03V373.82z M351.73,373.82L351.73,373.82h2.03v3.05h-2.03V373.82z
			 M399,398.86h3.16c-0.68,0.34-1.35,0.9-1.69,1.13c-0.68,0.56-1.58,1.58-1.58,2.6v9.03h8.69v-9.03c0-1.01-1.02-2.03-1.69-2.6
			c-0.22-0.22-1.02-0.79-1.69-1.13h3.39v-0.9H399V398.86z M347.1,383.52h3.84c-0.68,0.34-1.92,1.36-2.26,1.58
			c-0.68,0.57-1.69,1.58-1.69,2.59v9.02h8.69v-9.02c0-1.02-1.02-2.03-1.69-2.59c-0.34-0.34-1.47-1.24-2.26-1.58h3.95v-0.9h-8.57
			V383.52z M347.1,398.86h3.27c-0.68,0.34-1.47,0.9-1.69,1.13c-0.68,0.56-1.69,1.58-1.69,2.6v9.03h8.69v-9.03
			c0-1.01-0.9-2.03-1.69-2.6c-0.23-0.22-0.9-0.79-1.58-1.13h3.27v-0.9h-8.57V398.86z M398.77,383.52h4.06
			c-0.79,0.34-2.03,1.24-2.26,1.58c-0.79,0.57-1.69,1.58-1.69,2.59v9.02h8.69v-9.02c0-1.02-1.02-2.03-1.69-2.59
			c-0.34-0.23-1.58-1.24-2.26-1.58h3.61v-0.9h-8.46V383.52z M353.19,357.57c0.23,0.11,0.34,0.34,0.34,0.68
			c0,0.34-0.11,0.56-0.34,0.79v2.25h0.34v0.45h-0.34h-0.22h-0.11h-0.34v-0.45h0.34v-2.03c-0.11,0-0.23,0-0.34,0
			c-0.34,0-0.68-0.34-0.9-0.68c0.23,0.11,0.45,0.23,0.68,0.23c0.57,0,1.02-0.45,1.02-0.9C353.31,357.8,353.31,357.69,353.19,357.57
			L353.19,357.57z M352.97,361.75c9.48,5.76,4.63,7.56,5.41,8.69h-10.6C348.57,369.19,343.04,367.73,352.97,361.75L352.97,361.75z"
			/>
		<path class="st1" d="M502.45,248.14h-2.03v-8.8v-5.64l-0.23,0.22l-0.34-0.22v4.62l-0.45-0.56l-0.45,0.79l-0.45,0.79l-0.56-0.79
			l-0.45-0.79l-0.56,0.79l-0.45,0.79l-0.56-0.79l-0.45-0.79l-0.56,0.79l-0.45,0.79l-0.45-0.79l-0.56-0.79l-0.45,0.79l-0.56,0.79
			l-0.45-0.79l-0.56-0.79l-0.45,0.79l-0.45,0.79l-0.57-0.79l-0.45-0.79l-0.56,0.79l-0.45,0.79l-0.57-0.79l-0.45-0.79l-0.56,0.79
			l-0.45,0.79l-0.46-0.79l-0.56-0.79l-0.45,0.79l-0.56,0.79l-0.45-0.79l-0.56-0.79l-0.45,0.79l-0.45,0.79l-0.57-0.79l-0.45-0.79
			l-0.56,0.79l-0.45,0.79l-0.56-0.79l-0.45-0.79l-0.57,0.79l-0.45,0.79l-0.45-0.79l-0.57-0.79l-0.45,0.79l-0.56,0.79l-0.45-0.79
			l-0.56-0.79l-0.45,0.79l-0.45,0.79l-0.56-0.79l-0.45-0.79l-0.57,0.79l-0.45,0.79l-0.56-0.79l-0.45-0.79l-0.56,0.79l-0.45,0.79
			l-0.45-0.79l-0.56-0.79l-0.45,0.79l-0.56,0.79l-0.45-0.79l-0.56-0.79l-0.45,0.79l-0.45,0.79l-0.56-0.79l-0.45-0.79l-0.46,0.68
			v-4.74l-0.34,0.22l-0.34-0.22v5.64v8.8h-1.91v-5.64l-0.22,0.34l-0.34-0.34v5.64v41.18h41.17v-41.18v-5.64l-0.34,0.34l-0.23-0.34
			V248.14z M503.69,424.58h-43.66v-26.06h43.66V424.58z M499.4,396.49v-24.37h-1.81v24.37h-1.35v-24.37h-1.92v24.37h-1.35v-24.37
			h-1.8v24.37h-1.47v-24.37h-1.81v24.37h-1.46v-24.37h-1.81v24.37h-1.47v-24.37h-1.81v24.37h-1.47v-24.37h-1.8v24.37h-1.35v-24.37
			h-1.92v24.37h-1.35v-24.37h-1.81v24.37h-1.47v-24.37h-1.81v24.37h-1.47v-24.37h-1.8v24.37h-1.47v-50.43h37.23v50.43H499.4z
			 M497.6,370.77h1.81v-23.58h-1.81V370.77z M465.11,370.77h1.8v-23.58h-1.8V370.77z M468.38,370.77h1.81v-23.58h-1.81V370.77z
			 M471.65,370.77h1.81v-23.58h-1.81V370.77z M474.81,370.77h1.92v-23.58h-1.92V370.77z M478.08,370.77h1.8v-23.58h-1.8V370.77z
			 M481.35,370.77h1.81v-23.58h-1.81V370.77z M484.62,370.77h1.81v-23.58h-1.81V370.77z M487.89,370.77h1.81v-23.58h-1.81V370.77z
			 M491.17,370.77h1.8v-23.58h-1.8V370.77z M494.32,370.77h1.92v-23.58h-1.92V370.77z M466.01,232.46l-1.36-1.13l-1.24,1.13
			l1.24,1.35L466.01,232.46z M501.43,232.46l-1.24-1.13l-1.24,1.13l1.24,1.35L501.43,232.46z M503.92,241.26l-1.24-1.13l-1.13,1.13
			l1.13,1.35L503.92,241.26z M463.3,241.26l-1.12-1.13l-1.24,1.13l1.24,1.35L463.3,241.26z M464.31,231.44v-0.79h0.68v0.79
			l-0.34-0.34L464.31,231.44z M499.85,231.44v-0.79h0.57v0.79l-0.23-0.34L499.85,231.44z M461.84,240.24v-0.9h0.56v0.79l-0.22-0.23
			L461.84,240.24z M502.45,240.13v-0.79h0.56v0.9l-0.34-0.34L502.45,240.13z M473.57,224.9l-5.42,13.42l0.11,0.11l0.11,0.23
			l1.02-1.47l0.79,1.24l0.23,0.23l0.23-0.23l0.79-1.24l1.02,1.58l0.22-0.34l0.79-1.35l0.68,1.35l0.34,0.34l0.9-1.58l0.9,1.24
			l0.11,0.23l0.22-0.23l0.79-1.24l0.79,1.24l0.22,0.23l0.23-0.23l0.79-1.24l0.79,1.24l0.23,0.34l0.22-0.34l0.79-1.35l0.68,1.35
			l0.34,0.34l0.11-0.34l0.79-1.24l0.9,1.24l0.11,0.23l1.01-1.47l0.79,1.24l0.23,0.23l0.22-0.23l0.79-1.24l1.01,1.58l0.22-0.34
			l0.79-1.35l0.79,1.35l0.23,0.34l0.9-1.58l0.9,1.24l0.11,0.23l1.01-1.47l0.79,1.24l0.23,0.23l0.23-0.23l0.79-1.24l1.01,1.47
			l0.11-0.23l0.11-0.11l-5.42-13.42H473.57z M475.37,234.04l-1.13-1.92l-0.34-0.45l-1.47,2.37l0.45,0.23l1.02-1.69l0.9,1.69
			L475.37,234.04z M483.84,229.53l-1.13-2.03l-0.23-0.45l-1.47,2.48l0.45,0.23l1.02-1.7l0.9,1.7L483.84,229.53z M489.47,229.53
			l-1.24-2.03l-0.23-0.45l-1.47,2.48l0.45,0.23l1.01-1.7l0.9,1.7L489.47,229.53z M492.3,234.04l-1.24-1.92l-0.22-0.45l-1.36,2.37
			l0.34,0.23l1.02-1.69l1.01,1.69L492.3,234.04z M486.54,234.04l-1.02-1.92l-0.34-0.45l-1.47,2.37l0.45,0.23l1.02-1.69l1.02,1.69
			L486.54,234.04z M480.9,234.04l-1.01-1.92l-0.34-0.45l-1.47,2.37l0.45,0.23l1.02-1.69l0.9,1.69L480.9,234.04z M478.76,229.53
			l-1.02-2.03l-0.34-0.45l-1.47,2.48l0.45,0.23l1.01-1.7l0.91,1.7L478.76,229.53z M470.07,241.38h-4.06v5.53h4.06V241.38z
			 M498.27,241.38h-3.95v5.53h3.95V241.38z M492.75,241.38h-4.18v5.53h4.18V241.38z M487.11,241.38h-4.18v5.53h4.18V241.38z
			 M481.46,241.38h-4.17v5.53h4.17V241.38z M475.71,241.38h-4.06v5.53h4.06V241.38z M484.06,190.72h-3.27v-2.37h3.27V190.72z
			 M473.46,208.88l-1.24-1.24l-1.24,1.24l1.24,1.24L473.46,208.88z M493.87,208.88l-1.24-1.24l-1.24,1.24l1.24,1.24L493.87,208.88z
			 M491.96,213.73l-0.45,0.9l-0.45,0.9h-0.11l-0.34-0.9l-0.56-0.9l-0.57,0.9l-0.34,0.9l0,0l-0.45-0.9l-0.56-0.9l-0.45,0.9l-0.45,0.9
			l0,0l-0.45-0.9l-0.45-0.9l-0.57,0.9l-0.45,0.9l0,0l-0.45-0.9l-0.45-0.9l-0.56,0.9l-0.34,0.9h-0.11l-0.45-0.9l-0.45-0.9l-0.57,0.9
			l-0.34,0.9h-0.11l-0.45-0.9l-0.45-0.9l-0.56,0.9l-0.34,0.9h-0.11l-0.45-0.9l-0.45-0.9l-0.57,0.9l-0.34,0.9h-0.11l-0.46-0.9
			l-0.56-0.9l-0.45,0.9l-0.45,0.9l0,0l-0.34-0.9l-0.56-0.9l-0.56,0.9l-0.34,0.9h-0.11l-0.34-0.9l-0.57-0.9l-0.34,0.56v-3.95
			l-0.34,0.23l-0.34-0.23v5.19l0,0v8.69h21.1v-8.69l0,0v-5.19l-0.34,0.23l-0.34-0.23v3.95L491.96,213.73z M482.48,187
			c0,0.34-0.11,0.68-0.11,1.02h0.11C482.48,187.67,482.48,187.34,482.48,187L482.48,187z M482.03,191.06
			c-1.24,7.78-4.86,14.66-7.34,22v-0.11l0.9,1.58l0.11,0.22l0.9-1.8l0.9,1.58l0.12,0.22l0.11-0.22l0.91-1.58l0.9,1.8l0.11-0.22
			l0.9-1.58l0.9,1.8l0.11-0.22l0.91-1.58l0.79,1.58l0.11,0.22l0.11-0.22l0.9-1.58l0.9,1.8l0.11-0.22l0.91-1.58l0.9,1.8l0.11-0.22
			l0.9-1.58l0.68,1.58l0.22,0.22l0.11-0.22l0.79-1.58c0.22-0.34-6.88-18.73-7.33-21.88H482.03z M483.84,201.66l-1.13-1.8l-0.23-0.56
			l-1.47,2.37l0.45,0.34l1.02-1.69l0.9,1.69L483.84,201.66z M479.55,211.37l-1.02-2.03l-0.34-0.45l-1.47,2.48l0.45,0.23l1.02-1.81
			l0.9,1.81L479.55,211.37z M483.84,211.37l-1.13-2.03l-0.23-0.45l-1.47,2.48l0.45,0.23l1.02-1.81l0.9,1.81L483.84,211.37z
			 M488.12,211.37l-1.13-2.03l-0.34-0.45l-1.47,2.48l0.56,0.23l0.91-1.81l1.01,1.81L488.12,211.37z M481.35,206.74l-1.13-2.03
			l-0.34-0.45l-1.35,2.48l0.45,0.23l0.9-1.8l1.01,1.8L481.35,206.74z M486.32,206.74l-1.13-2.03l-0.23-0.45l-1.47,2.48l0.34,0.23
			l1.13-1.8l0.9,1.8L486.32,206.74z M471.88,207.53v-0.79h0.68v0.79l-0.34-0.34L471.88,207.53z M492.3,207.53v-0.79h0.67v0.79
			l-0.34-0.34L492.3,207.53z M476.16,217.23H473v5.64h3.16V217.23z M491.84,217.23h-3.16v5.64h3.16V217.23z M487.89,217.23h-3.16
			v5.64h3.16V217.23z M484.06,217.23h-3.16v5.64h3.16V217.23z M480.11,217.23h-3.16v5.64h3.16V217.23z M497.82,343.25h1.81v-25.72
			h-1.81V343.25z M465.22,343.25h1.8v-25.72h-1.8V343.25z M468.49,343.25h1.81v-25.72h-1.81V343.25z M471.76,343.25h1.81v-25.72
			h-1.81V343.25z M475.04,343.25h1.8v-25.72h-1.8V343.25z M478.31,343.25h1.8v-25.72h-1.8V343.25z M481.46,343.25h1.92v-25.72h-1.92
			V343.25z M484.73,343.25h1.81v-25.72h-1.81V343.25z M488.01,343.25h1.8v-25.72h-1.8V343.25z M491.28,343.25h1.8v-25.72h-1.8
			V343.25z M494.55,343.25h1.8v-25.72h-1.8V343.25z M497.82,316.17h1.81v-23.69h-1.81V316.17z M465.22,316.17h1.8v-23.69h-1.8
			V316.17z M468.49,316.17h1.81v-23.69h-1.81V316.17z M471.76,316.17h1.81v-23.69h-1.81V316.17z M475.04,316.17h1.8v-23.69h-1.8
			V316.17z M478.31,316.17h1.8v-23.69h-1.8V316.17z M481.46,316.17h1.92v-23.69h-1.92V316.17z M484.73,316.17h1.81v-23.69h-1.81
			V316.17z M488.01,316.17h1.8v-23.69h-1.8V316.17z M491.28,316.17h1.8v-23.69h-1.8V316.17z M494.55,316.17h1.8v-23.69h-1.8V316.17z
			 M500.98,291.47h-37.12v52.8h37.12V291.47z M468.6,285.82h-2.14v2.15h2.14V285.82z M498.27,285.82h-2.14v2.15h2.14V285.82z
			 M495.57,285.82h-2.14v2.15h2.14V285.82z M492.86,285.82h-2.14v2.15h2.14V285.82z M490.15,285.82h-2.14v2.15h2.14V285.82z
			 M487.45,285.82h-2.15v2.15h2.15V285.82z M484.73,285.82h-2.14v2.15h2.14V285.82z M482.03,285.82h-2.15v2.15h2.15V285.82z
			 M479.32,285.82h-2.15v2.15h2.15V285.82z M476.61,285.82h-2.03v2.15h2.03V285.82z M474.02,285.82h-2.14v2.15h2.14V285.82z
			 M471.31,285.82h-2.14v2.15h2.14V285.82z M482.48,270.03c-0.22,0-0.45-0.11-0.68-0.11l-0.79,0.79c-0.11,0.45-0.11,0.79-0.34,1.01
			c-0.11,0.11-0.34,0.11-0.56,0c-0.22-0.34-0.22-0.34-0.56-0.68c-0.23-0.11-0.23-0.34,0-0.56c0.22-0.23,0.56-0.34,0.9-0.34l0.9-0.79
			c-0.22-0.11-0.22-0.45-0.22-0.68c0-0.11,0-0.23,0-0.34l-8.12-8.69c0,0,0-0.11,0-0.22h0.23c0-0.11,0.11-0.11,0.11,0l8.57,8.01
			c0.12-0.11,0.34-0.11,0.57-0.11c0.23,0,0.56,0.11,0.79,0.22l1.35-1.24c-0.11,0-0.22-0.11-0.22-0.23c-0.23-0.11-0.23-0.45,0-0.56
			c0.22-0.23,0.79-0.34,1.35-0.34l0.22-0.22v-0.57h0.79v0.68h-0.45l-0.34,0.34c0,0.56,0,1.13-0.22,1.35c-0.22,0.11-0.56,0.11-0.67,0
			c-0.11-0.11-0.11-0.11-0.11-0.11l-1.35,1.35c0.11,0.22,0.23,0.45,0.23,0.68c0,0.22-0.11,0.34-0.11,0.45
			c0.34,0.56,1.01,1.01,1.69,1.24c0,0,0.11,0,0.11,0.12c0,0.11,0,0.23-0.11,0.23c-0.22,0-0.22,0.11-0.22,0.22
			c-0.11,0-0.11,0.11-0.11,0.23c0,0.11-0.11,0.23-0.11,0.23c-0.23,0-0.34,0-0.34,0.11c-0.11,0-0.22,0.11-0.22,0.23h-0.11
			c-0.11,0.11-0.11,0-0.23,0c-0.22-0.79-0.68-1.24-1.35-1.7C482.71,270.03,482.6,270.03,482.48,270.03L482.48,270.03z
			 M482.14,256.94c-0.23,0-0.57,0-0.79,0l-0.11-1.46h-0.11c0.34,0,0.68,0,1.02,0V256.94z M480.67,257.05
			c-0.34,0.11-0.67,0.11-1.01,0.23l-0.34-1.47l0,0c0.34-0.11,0.79-0.23,1.24-0.23l0,0L480.67,257.05z M479.1,257.39
			c-0.23,0.11-0.45,0.23-0.79,0.23l-0.57-1.35c0.34-0.11,0.68-0.22,1.02-0.34l0,0L479.1,257.39z M477.86,257.85
			c-0.34,0.23-0.68,0.34-1.02,0.45l-0.79-1.24c0.34-0.23,0.79-0.45,1.24-0.56L477.86,257.85z M476.27,258.64
			c-0.22,0.22-0.45,0.34-0.67,0.45l-0.9-1.24c0.34-0.11,0.56-0.34,0.9-0.57L476.27,258.64z M475.15,259.42
			c-0.23,0.22-0.34,0.34-0.57,0.45l0.23,0.22c0.11-0.11,0.34-0.34,0.45-0.45h0.11l0,0l0.11-0.11c0.34-0.22,0.56-0.45,0.9-0.68l0,0
			h0.11l2.37,4.18c-0.22,0.11-0.45,0.22-0.56,0.34l0.22,0.23c1.02-0.9,2.37-1.35,3.95-1.35c1.58,0,3.16,0.68,4.29,1.69h0.45l0,0
			c-0.34-0.34-0.68-0.68-1.13-0.9l2.26-4.18h0.11l0,0c0.45,0.34,0.79,0.56,1.24,0.9l0.11,0.11l0,0c0.23,0.22,0.45,0.45,0.79,0.67
			c0.23,0.34,0.56,0.68,0.9,1.02v0.11l0.11,0.11c0.22,0.34,0.45,0.57,0.56,0.91l-4.06,2.37c-0.23-0.34-0.56-0.79-0.79-1.13v0.56
			c0.9,1.02,1.58,2.6,1.58,4.18c0,1.81-0.79,3.38-1.92,4.62c-1.25,1.13-2.82,1.92-4.51,1.92c-1.81,0-3.39-0.79-4.62-1.92
			c-1.24-1.24-1.92-2.82-1.92-4.62c0-1.47,0.45-2.82,1.35-3.84l-0.23-0.22c-0.11,0.11-0.22,0.34-0.34,0.45l-4.06-2.37
			c0.23-0.45,0.57-0.91,0.91-1.24v-0.11l0,0c0.11,0,0.11-0.11,0.23-0.22l-0.23-0.23c-0.11,0.11-0.11,0.23-0.23,0.34l-1.24-1.01
			c0.23-0.11,0.34-0.23,0.45-0.45v-0.11c0,0,0-0.11,0-0.22v-0.22l0.34-0.11c0.11-0.23,0.34-0.23,0.57-0.23
			c0.22-0.22,0.45-0.34,0.79-0.56l0,0L475.15,259.42z M473.23,261.45h-0.11l-1.02-0.9l0,0l0,0l1.13,0.79V261.45z M473,261.68
			c-0.22,0.23-0.45,0.57-0.56,0.9l-0.68-0.45l-0.68-0.34l0,0c0.22-0.34,0.45-0.79,0.68-1.01h0.11L473,261.68z M472.1,263.04
			c-0.11,0.22-0.22,0.45-0.34,0.79l-1.47-0.68c0.11-0.22,0.34-0.56,0.45-0.79l0,0L472.1,263.04z M471.42,264.39
			c-0.11,0.34-0.22,0.68-0.34,1.02l-1.35-0.45h-0.11c0.11-0.45,0.34-0.79,0.45-1.24l0,0L471.42,264.39z M471.09,265.63
			L471.09,265.63l-1.35-0.34l0,0l0,0L471.09,265.63z M470.97,265.97c-0.11,0.23-0.11,0.45-0.22,0.79l-1.46-0.23
			c0.11-0.34,0.11-0.68,0.22-1.02v0.11L470.97,265.97z M470.75,266.99L470.75,266.99l-1.35-0.11l0,0v-0.11L470.75,266.99z
			 M470.75,267.32c-0.11,0.34-0.11,0.68-0.11,1.01h-1.47c0-0.45,0-0.79,0.12-1.24L470.75,267.32z M470.64,269.01
			c0,0.22,0,0.56,0.11,0.79l-1.58,0.11l0,0c0-0.34,0-0.56,0-0.9H470.64z M470.75,270.37c0.11,0.34,0.11,0.79,0.22,1.13l-1.46,0.34
			l0,0c-0.11-0.45-0.22-0.79-0.22-1.24l0,0L470.75,270.37z M471.09,271.72L471.09,271.72L471.09,271.72l-1.35,0.34l0,0
			L471.09,271.72z M471.09,272.06c0.11,0.23,0.22,0.45,0.34,0.68l-1.46,0.56v0.11c-0.11-0.34-0.23-0.68-0.34-1.01h0.11
			L471.09,272.06z M471.54,273.08L471.54,273.08L471.54,273.08l-1.24,0.56l0,0v-0.11L471.54,273.08z M471.65,273.3
			c0.11,0.34,0.22,0.68,0.45,1.02l-1.35,0.79l0,0c-0.22-0.34-0.34-0.79-0.57-1.13l0.11-0.11L471.65,273.3z M472.44,274.88
			c0.11,0.23,0.22,0.45,0.45,0.56l-1.35,0.9l0,0c-0.11-0.23-0.34-0.45-0.45-0.79l0,0L472.44,274.88z M473.23,275.9
			c0.23,0.34,0.45,0.57,0.68,0.9l-1.02,1.13h-0.11c-0.22-0.34-0.56-0.68-0.79-1.01l0,0L473.23,275.9z M474.36,277.25
			c0.22,0.11,0.34,0.34,0.56,0.45l-0.9,1.25h-0.11c-0.23-0.23-0.45-0.46-0.68-0.68l0,0L474.36,277.25z M475.37,278.15
			c0.34,0.22,0.56,0.34,0.9,0.56l-0.67,1.36h-0.11c-0.34-0.23-0.68-0.45-1.02-0.79l0,0L475.37,278.15z M476.84,279.06
			c0.22,0.11,0.45,0.22,0.68,0.34l-0.56,1.35c-0.34-0.11-0.68-0.23-0.9-0.45l0,0L476.84,279.06z M478.08,279.62
			c0.34,0.11,0.68,0.22,1.01,0.34l-0.34,1.47l0,0c-0.45-0.11-0.9-0.23-1.25-0.34L478.08,279.62z M479.32,280.07L479.32,280.07
			L479.32,280.07l-0.23,1.24l0,0h-0.11L479.32,280.07z M479.66,280.18c0.23,0,0.56,0.11,0.79,0.11l-0.23,1.46l0,0
			c-0.34,0-0.68-0.11-0.9-0.11l0,0L479.66,280.18z M480.67,280.41h0.11l-0.23,1.24l0,0L480.67,280.41z M481.01,280.41
			c0.34,0,0.79,0.11,1.13,0.11v1.47c-0.45,0-0.9,0-1.36-0.11l0,0L481.01,280.41z M482.71,280.52c0.22,0,0.56,0,0.79-0.11l0.23,1.47
			v0.11c-0.34,0-0.68,0-1.01,0V280.52z M484.17,280.41c0.34-0.11,0.68-0.11,1.02-0.22l0.34,1.46l0,0c-0.34,0.11-0.79,0.11-1.24,0.23
			l0,0L484.17,280.41z M485.53,280.07L485.53,280.07l0.34,1.24l0,0h-0.11L485.53,280.07L485.53,280.07z M485.75,279.96
			c0.22,0,0.46-0.11,0.79-0.23l0.57,1.35v0.11c-0.34,0.11-0.57,0.23-0.9,0.23l0,0L485.75,279.96z M486.77,279.62h0.11l0.45,1.24l0,0
			L486.77,279.62z M487.11,279.51c0.34-0.11,0.67-0.34,0.9-0.45l0.79,1.24v0.11c-0.34,0.11-0.79,0.34-1.13,0.56v-0.11L487.11,279.51
			z M488.57,278.71c0.23-0.11,0.45-0.23,0.68-0.45l0.9,1.24c-0.23,0.22-0.56,0.34-0.79,0.56l0,0L488.57,278.71z M489.47,278.15
			L489.47,278.15L489.47,278.15l0.79,1.02l0,0L489.47,278.15z M489.7,277.92c0.34-0.23,0.56-0.45,0.79-0.68l1.13,1.02l0,0
			c-0.34,0.34-0.67,0.68-1.02,0.9l0,0L489.7,277.92z M490.94,276.8c0.22-0.23,0.34-0.45,0.45-0.56l1.24,0.9
			c-0.11,0.23-0.34,0.45-0.56,0.68L490.94,276.8z M491.84,275.67c0.23-0.23,0.45-0.56,0.56-0.9l1.35,0.79
			c-0.22,0.45-0.45,0.79-0.68,1.13h-0.11L491.84,275.67z M492.75,274.32c0.11-0.23,0.22-0.45,0.34-0.68l1.47,0.56
			c-0.23,0.34-0.34,0.57-0.45,0.91h-0.11L492.75,274.32z M493.31,273.08c0.11-0.34,0.34-0.68,0.34-1.02l1.47,0.34h0.11
			c-0.23,0.45-0.34,0.9-0.45,1.24L493.31,273.08z M493.87,271.5c0-0.22,0.11-0.56,0.11-0.79l1.58,0.22
			c-0.11,0.23-0.11,0.56-0.22,0.9l0,0L493.87,271.5z M494.1,270.37L494.1,270.37l1.36,0.23l0,0h-0.11L494.1,270.37z M494.1,270.03
			c0.11-0.34,0.11-0.67,0.11-1.01h1.47c0,0.45,0,0.79-0.11,1.24L494.1,270.03z M494.21,268.34c0-0.22,0-0.45-0.11-0.68l1.58-0.22
			l0,0c0,0.22,0,0.56,0,0.9H494.21z M494.1,267.32L494.1,267.32v-0.11l1.36-0.11l0,0v0.11L494.1,267.32z M494.1,266.99
			c-0.11-0.34-0.11-0.68-0.23-1.02l1.47-0.34v-0.11c0.11,0.45,0.22,0.9,0.22,1.36l0,0L494.1,266.99z M493.76,265.4
			c-0.11-0.34-0.22-0.56-0.34-0.79l1.47-0.57l0,0c0.11,0.34,0.23,0.57,0.23,0.9l0,0L493.76,265.4z M493.31,264.28L493.31,264.28
			l1.24-0.56l0,0v0.11L493.31,264.28z M493.2,264.05c-0.11-0.34-0.23-0.68-0.45-1.01l1.24-0.68h0.11c0.22,0.34,0.34,0.79,0.57,1.13
			L493.2,264.05z M492.41,262.58c-0.11-0.22-0.23-0.45-0.34-0.67l1.13-0.91c0.22,0.22,0.45,0.56,0.56,0.79L492.41,262.58z
			 M491.62,261.34c-0.23-0.22-0.45-0.45-0.67-0.79l1.12-1.01c0.23,0.34,0.56,0.68,0.79,0.9v0.11L491.62,261.34z M490.49,260.21
			c-0.11-0.23-0.34-0.45-0.57-0.56l0.91-1.24c0.22,0.23,0.56,0.45,0.79,0.68L490.49,260.21z M489.7,259.42L489.7,259.42l0.9-1.01
			l0,0l-0.79,1.01H489.7z M489.47,259.31c-0.34-0.23-0.56-0.45-0.9-0.68l0.79-1.25c0.34,0.23,0.68,0.46,1.02,0.68L489.47,259.31z
			 M488.01,258.41c-0.23-0.23-0.45-0.34-0.68-0.45l0.56-1.36l0,0c0.34,0.11,0.57,0.22,0.9,0.45L488.01,258.41z M486.77,257.73
			c-0.34-0.12-0.68-0.23-1.02-0.34l0.46-1.46l0,0c0.34,0.11,0.79,0.34,1.13,0.45l0,0L486.77,257.73z M485.19,257.28
			c-0.23-0.11-0.56-0.11-0.79-0.23l0.22-1.47c0.34,0.11,0.68,0.11,0.9,0.23l0,0L485.19,257.28z M484.17,257.05h-0.11l0,0l0.23-1.35
			l0,0L484.17,257.05z M483.84,257.05c-0.34-0.11-0.79-0.11-1.13-0.11v-1.46c0.45,0,0.9,0,1.35,0L483.84,257.05z M476.95,258.64
			c0.34-0.23,0.56-0.34,0.91-0.56h0.11l0.34-0.11l0,0c0.34-0.11,0.56-0.23,0.9-0.34h0.11l0.23-0.11h0.22
			c0.34-0.11,0.68-0.11,1.02-0.22l0,0h0.11h0.34h0.11v-0.11c0.22,0,0.56,0,0.79,0v4.74c-1.02,0.11-2.03,0.34-2.82,0.79
			L476.95,258.64z M482.71,257.17c0.34,0,0.68,0,1.01,0.11l0,0h0.11h0.34h0.11c0.34,0.11,0.56,0.11,0.79,0.22l0,0h0.11l0.34,0.11
			h0.11c0.34,0.12,0.68,0.23,1.02,0.34v0.11h0.11c0.11,0,0.23,0.11,0.34,0.11l0,0l0.11,0.11l0,0c0.23,0,0.45,0.23,0.67,0.34
			l-2.37,4.06c-0.9-0.45-1.8-0.68-2.82-0.79V257.17z M492.52,263.26c0.23,0.34,0.34,0.68,0.45,1.02l0,0l0.11,0.11
			c0,0.11,0,0.23,0.11,0.23v0.11l0,0c0.11,0.34,0.22,0.79,0.34,1.24l0,0l0,0c0.22,0.79,0.34,1.58,0.34,2.48h-4.74
			c0-1.01-0.34-2.03-0.68-2.82L492.52,263.26z M493.87,269.01c0,0.34,0,0.68-0.11,1.01l0,0l0,0c0,0.46-0.11,0.91-0.22,1.36l0,0l0,0
			c-0.23,1.01-0.57,1.91-1.02,2.82l-4.17-2.37c0.45-0.9,0.68-1.81,0.79-2.82H493.87z M492.18,274.65c-0.11,0.34-0.34,0.68-0.56,1.02
			l-0.23,0.22l-0.11,0.11l0,0c-0.22,0.23-0.34,0.45-0.45,0.56l-0.23,0.11l-0.11,0.23l0,0l-0.23,0.11h0.12
			c-0.34,0.22-0.57,0.45-0.79,0.67h-0.11v0.11l-0.11,0.11c-0.34,0.23-0.56,0.34-0.9,0.56l-2.37-4.17c0.34-0.23,0.79-0.56,1.13-0.9
			c0.34-0.34,0.67-0.68,0.9-1.13L492.18,274.65L492.18,274.65L492.18,274.65z M487.89,278.83c-0.22,0.11-0.56,0.34-0.9,0.45v-0.11
			l-0.23,0.11l-0.11,0.11l-0.22,0.11l0,0l0,0c-0.23,0-0.46,0.11-0.68,0.22l0,0h-0.11c-0.11,0-0.34,0.11-0.45,0.11h-0.11l0,0
			c-0.45,0.11-0.79,0.23-1.24,0.23h-0.23l0,0c-0.34,0.11-0.56,0.11-0.9,0.11v-4.74c1.01-0.11,1.92-0.34,2.82-0.79L487.89,278.83z
			 M482.14,280.18c-0.34,0-0.68,0-1.02-0.11l0,0l0,0c-0.11,0-0.23,0-0.34,0h-0.11h-0.11c-0.34-0.11-0.56-0.11-0.79-0.23l0,0l0,0
			c-0.56-0.11-1.12-0.34-1.69-0.56h-0.11l0,0c-0.34-0.11-0.68-0.34-1.02-0.45l2.37-4.18c0.9,0.45,1.8,0.68,2.82,0.79V280.18z
			 M476.39,278.49c-0.23-0.11-0.56-0.34-0.9-0.56h0.11l-0.11-0.11l-0.34-0.11v-0.11h-0.11l0,0c-0.11-0.23-0.34-0.34-0.56-0.56h0.11
			l-0.11-0.11l-0.22-0.23l-0.23-0.11c-0.22-0.22-0.45-0.45-0.68-0.79h0.12h-0.12l-0.22-0.34l-0.11-0.11
			c-0.11-0.22-0.22-0.45-0.34-0.68l0,0l0,0h-0.11l4.17-2.37c0.34,0.45,0.56,0.79,1.01,1.13c0.34,0.34,0.68,0.68,1.13,1.01
			L476.39,278.49L476.39,278.49L476.39,278.49z M472.33,274.2c-0.23-0.34-0.34-0.68-0.45-1.13l0,0h-0.11
			c-0.11-0.34-0.23-0.79-0.34-1.13l0,0l0,0c-0.11-0.23-0.11-0.34-0.11-0.56l0,0l0,0c-0.22-0.79-0.34-1.58-0.34-2.37h4.74
			c0,1.01,0.34,1.92,0.79,2.82L472.33,274.2z M470.97,268.45c0-0.34,0-0.79,0.11-1.13l0,0l0,0c0-0.23,0-0.34,0-0.56l0,0l0,0
			c0.11-0.23,0.11-0.56,0.22-0.79l0,0l0,0c0-0.23,0-0.34,0.11-0.45v-0.11l0,0c0.11-0.34,0.23-0.68,0.34-0.9l0,0l0.11-0.22v-0.11
			c0-0.11,0.11-0.11,0.11-0.23l0,0l0,0c0.11-0.22,0.23-0.45,0.34-0.68l4.17,2.37c-0.45,0.91-0.79,1.81-0.79,2.82H470.97z
			 M497.71,253.33h-15.23c8.35,0,15.23,6.88,15.23,15.34V253.33z M485.75,255.93L485.75,255.93h0.11l-0.34,1.35L485.75,255.93z
			 M491.62,259.42L491.62,259.42h0.11l-0.9,1.01l-0.11-0.11L491.62,259.42z M495.12,265.29L495.12,265.29L495.12,265.29l-1.36,0.34
			L495.12,265.29z M495.12,272.06L495.12,272.06L495.12,272.06l-1.36-0.34l0,0L495.12,272.06z M491.73,277.92L491.73,277.92
			l-0.11,0.11l-0.9-1.01h0.11L491.73,277.92z M473.23,278.04L473.23,278.04l-0.11-0.11l0.9-0.9h0.11L473.23,278.04z M478.98,255.93
			L478.98,255.93h0.11l0.23,1.35L478.98,255.93z M487.67,256.6L487.67,256.6l-0.56,1.24L487.67,256.6z M492.97,260.78L492.97,260.78
			l-1.13,0.9v-0.11L492.97,260.78z M494.55,273.86L494.55,273.86L494.55,273.86l-1.35-0.56l0,0L494.55,273.86z M492.75,276.8
			L492.75,276.8L492.75,276.8l-1.13-0.79L492.75,276.8z M483.95,281.76L483.95,281.76l-0.11-1.35L483.95,281.76z M477.29,280.86
			L477.29,280.86l-0.11-0.11l0.56-1.24L477.29,280.86z M474.25,279.06L474.25,279.06v-0.11l0.9-1.02L474.25,279.06z M471.88,276.57
			L471.88,276.57L471.88,276.57l1.13-0.79L471.88,276.57z M469.4,270.25L469.4,270.25l1.35-0.11L469.4,270.25z M470.3,263.49
			L470.3,263.49l1.24,0.56L470.3,263.49z M474.58,258.18L474.58,258.18v-0.11l0.79,1.13v0.11L474.58,258.18z M477.51,256.49
			L477.51,256.49L477.51,256.49l0.57,1.24l-0.11,0.11L477.51,256.49z M480.9,255.7L480.9,255.7l0.11,1.35L480.9,255.7z
			 M482.48,253.33h-15.34v15.34C467.14,260.21,474.02,253.33,482.48,253.33L482.48,253.33z M467.14,268.68v15.34h15.34
			C474.02,284.02,467.14,277.13,467.14,268.68L467.14,268.68z M482.48,284.02h15.23v-15.34
			C497.71,277.13,490.83,284.02,482.48,284.02L482.48,284.02z M482.48,283.23c-8.01,0-14.55-6.54-14.55-14.55
			c0-7.9,6.54-14.44,14.55-14.44c7.9,0,14.44,6.54,14.44,14.44C496.92,276.68,490.38,283.23,482.48,283.23L482.48,283.23z
			 M495.34,282.32c-0.68,0-1.13-0.45-1.13-1.24c0-0.57,0.46-1.01,1.13-1.01c0.56,0,1.13,0.45,1.13,1.01
			C496.47,281.87,495.91,282.32,495.34,282.32L495.34,282.32z M495.34,257.05c-0.68,0-1.13-0.56-1.13-1.13
			c0-0.68,0.46-1.13,1.13-1.13c0.56,0,1.13,0.45,1.13,1.13C496.47,256.49,495.91,257.05,495.34,257.05L495.34,257.05z
			 M469.73,257.05c-0.68,0-1.13-0.56-1.13-1.13c0-0.68,0.45-1.13,1.13-1.13c0.68,0,1.13,0.45,1.13,1.13
			C470.86,256.49,470.41,257.05,469.73,257.05L469.73,257.05z M469.73,282.32c-0.68,0-1.13-0.45-1.13-1.24
			c0-0.57,0.45-1.01,1.13-1.01c0.68,0,1.13,0.45,1.13,1.01C470.86,281.87,470.41,282.32,469.73,282.32L469.73,282.32z
			 M498.16,252.88v31.59h-31.47v-31.59H498.16z M498.27,249.5h-2.14v2.25h2.14V249.5z M468.6,249.5h-2.14v2.25h2.14V249.5z
			 M471.31,249.5h-2.14v2.25h2.14V249.5z M474.02,249.5h-2.14v2.25h2.14V249.5z M476.61,249.5h-2.03v2.25h2.03V249.5z M479.32,249.5
			h-2.15v2.25h2.15V249.5z M482.03,249.5h-2.15v2.25h2.15V249.5z M484.73,249.5h-2.14v2.25h2.14V249.5z M487.45,249.5h-2.15v2.25
			h2.15V249.5z M490.15,249.5h-2.14v2.25h2.14V249.5z M492.86,249.5h-2.14v2.25h2.14V249.5z M495.57,249.5h-2.14v2.25h2.14V249.5z
			 M465.22,287.74h0.45V249.5h-0.45V287.74z M462.96,287.74h0.56V249.5h-0.56V287.74z M464.09,287.74h0.56V249.5h-0.56V287.74z
			 M499.18,287.74h0.67V249.5h-0.67V287.74z M501.43,287.74H502V249.5h-0.57V287.74z M500.31,287.74h0.56V249.5h-0.56V287.74z"/>
		<path class="st1" d="M918.4,284.36v-1.58l-4.62-2.26v7.79L918.4,284.36z M816.53,242.39h33.73v9.82h-33.73V242.39z M850.26,253.78
			v15h-33.73v-15H850.26z M850.26,271.16v26.96h-33.73v-26.96H850.26z M825.1,245.44h5.75v1.24h-5.75V245.44z M844.84,258.64v6.88
			h-5.42v-6.88c0-1.25,1.36-2.26,2.71-2.26C843.71,256.38,844.84,257.39,844.84,258.64L844.84,258.64z M836.27,258.64v6.88h-5.42
			v-6.88c0-1.25,1.13-2.26,2.71-2.26C835.03,256.38,836.27,257.39,836.27,258.64L836.27,258.64z M827.58,258.64v6.88h-5.42v-6.88
			c0-1.25,1.13-2.26,2.71-2.26C826.34,256.38,827.58,257.39,827.58,258.64L827.58,258.64z M836.04,278.71h5.75v1.13h-5.75V278.71z
			 M828.93,278.94h5.75v1.13h-5.75V278.94z M833,280.41h5.75v1.24H833V280.41z M836.38,282.55h5.75v1.24h-5.75V282.55z
			 M829.61,282.55h5.75v1.24h-5.75V282.55z M825.21,294.06h5.64v1.24h-5.64V294.06z M822.39,292.59h5.75v1.24h-5.75V292.59z
			 M819.57,291.01h5.75v1.13h-5.75V291.01z M841.46,290.67h5.75v1.24h-5.75V290.67z M838.19,244.08h5.75v1.25h-5.75V244.08z
			 M829.16,248.25h5.75v1.24h-5.75V248.25z M772.41,330.16h57.09v44.68h-57.09V330.16z M829.5,376.75v47.83h-57.09v-47.83H829.5z
			 M814.38,412.06h9.7v2.03h-9.7V412.06z M805.24,391.64h9.7v2.03h-9.7V391.64z M793.4,392.09h9.71v2.03h-9.71V392.09z
			 M800.17,394.69h9.7v2.03h-9.7V394.69z M805.81,398.3h9.71v2.03h-9.71V398.3z M794.42,398.3H804v2.03h-9.59V398.3z M786.74,417.82
			h9.7v2.03h-9.7V417.82z M782.12,415.22h9.7v2.03h-9.7V415.22z M777.49,412.51h9.7v2.15h-9.7V412.51z M790.8,357.8v11.62h-9.14
			V357.8c0-2.14,2.03-3.95,4.63-3.95C788.77,353.85,790.8,355.66,790.8,357.8L790.8,357.8z M820.36,357.8v11.62h-9.14V357.8
			c0-2.14,1.92-3.95,4.51-3.95C818.22,353.85,820.36,355.66,820.36,357.8L820.36,357.8z M805.58,357.8v11.62h-9.14V357.8
			c0-2.14,2.03-3.95,4.51-3.95C803.55,353.85,805.58,355.66,805.58,357.8L805.58,357.8z M786.63,335.46h9.7v2.03h-9.7V335.46z
			 M808.97,333.09h9.7v2.03h-9.7V333.09z M793.51,340.09h9.71v2.15h-9.71V340.09z M772.41,345.5h57.09v2.03h-57.09V345.5z
			 M833.56,219.15l-11.28,9.48h23.24L833.56,219.15z M843.26,228.97v12.63h-18.61v-12.63H843.26z M831.87,233.82h3.83v-3.73h-3.83
			V233.82z M930.47,274.65l-15.91,13.42h32.94L930.47,274.65z M943.89,288.98v17.94h10.04v77.96h-47.27v-77.96h11.39v-17.94H943.89z
			 M928.1,295.07h5.31v-5.3h-5.31V295.07z M918.51,311.32h8.01v1.58h-8.01V311.32z M946.38,329.82v9.47h-7.56v-9.47
			c0-1.81,1.58-3.27,3.72-3.27C944.57,326.55,946.38,328.01,946.38,329.82L946.38,329.82z M934.19,329.82v9.47h-7.56v-9.47
			c0-1.81,1.69-3.27,3.72-3.27C932.39,326.55,934.19,328.01,934.19,329.82L934.19,329.82z M922.01,329.82v9.47h-7.56v-9.47
			c0-1.81,1.7-3.27,3.73-3.27C920.32,326.55,922.01,328.01,922.01,329.82L922.01,329.82z M933.86,357.69h8.01v1.69h-8.01V357.69z
			 M924.04,358.02h8.01v1.7h-8.01V358.02z M929.68,360.17h8.12v1.8h-8.12V360.17z M934.42,363.21h8.01v1.69h-8.01V363.21z
			 M924.83,363.21h8.12v1.69h-8.12V363.21z M918.62,379.35h8.01v1.69h-8.01V379.35z M914.79,377.2h8.01v1.69h-8.01V377.2z
			 M910.95,375.06h8.01v1.7h-8.01V375.06z M941.53,374.61h8.01v1.58h-8.01V374.61z M936.9,309.4h8.01v1.58h-8.01V309.4z
			 M924.26,315.16h8.01v1.69h-8.01V315.16z M906.66,319.56h47.27v2.25h-47.27V319.56z M906.66,343.92h47.27v4.74h-47.27V343.92z
			 M801.07,291.12l-19.29,16.13h39.93L801.07,291.12z M817.43,308.16v20.42h-31.36v-20.42H817.43z M798.25,315.83h6.43v-6.43h-6.43
			V315.83z M830.97,361.64l1.58-0.79v12.07l2.59-1.13v-12.07l5.42-2.6v12.07l2.48-1.24v-12.07l5.42-2.6v12.07l2.6-1.24v-12.07
			l5.42-2.6v12.07l2.48-1.24v-12.07l5.41-2.6v12.07l2.6-1.13v-12.18l5.41-2.6v12.07l2.48-1.13v-12.07l5.41-2.71v12.07l2.6-1.13
			v-12.07l5.3-2.59v12.07l2.6-1.24v-12.07l5.42-2.59v12.07l2.48-1.24v-12.07l5.42-2.6v12.07l1.13-0.45v40.61l-74.23,35.65V361.64z
			 M913.77,288.31v2.48l-2.14-1.01v-10.38l-4.74-2.26v10.49l-2.14-1.13v-10.38l-4.62-2.26v10.5l-2.26-1.13v-10.38l-4.51-2.25v10.49
			l-2.26-1.13v-10.38l-4.63-2.14v10.26l-2.14-1.01v-10.38l-4.74-2.26v10.38l-2.14-1.01v-10.38l-4.63-2.26v10.38l-2.14-1.02v-10.38
			l-4.74-2.26v10.38l-2.14-1.01v-10.38l-4.63-2.25v10.38l-2.25-1.01v-10.38l-4.52-2.25v10.37l-0.56-0.22v34.97l53.36,25.61v-16.24
			h11.96v-17.15H913.77z"/>
		<path class="st1" d="M302.54,240.13l-1.81,16.92l-59.9-6.54l1.8-16.92L302.54,240.13z M254.82,394.58
			c31.25,0,58.21,12.41,69.15,30.01H185.44C196.61,406.99,223.46,394.58,254.82,394.58L254.82,394.58z M228.2,348.89l63.63,7
			l-0.34,3.83l-63.74-6.99L228.2,348.89z M252.79,206.85l45.8,4.96l0.34-3.38l-45.8-4.97L252.79,206.85z M241.39,227.84l63.74,6.88
			l-0.45,3.95l-63.63-6.99L241.39,227.84z M238.8,251.98l63.63,7l-0.34,3.95l-63.74-7L238.8,251.98z M236.2,276.23l63.63,6.99
			l-0.45,3.83l-63.63-6.88L236.2,276.23z M233.5,300.38l63.74,6.99l-0.56,3.95l-63.63-6.99L233.5,300.38z M230.9,324.63l63.63,7
			l-0.45,3.95l-63.63-7L230.9,324.63z M292.61,232.23l2.14-19.4l-38.47-4.18l-2.14,19.4L292.61,232.23z M266.44,218.25l-0.68,6.88
			l-6.66-0.68l0.68-6.88c0.23-1.92,1.92-3.39,3.72-3.16C265.31,214.64,266.67,216.33,266.44,218.25L266.44,218.25z M289.34,220.84
			l-0.79,6.88l-6.66-0.79l0.79-6.88c0.23-1.92,1.92-3.27,3.72-3.05C288.21,217.12,289.57,218.81,289.34,220.84L289.34,220.84z
			 M277.95,219.6l-0.79,6.88l-6.66-0.79l0.79-6.88c0.11-1.92,1.8-3.39,3.72-3.04C276.82,215.88,278.06,217.57,277.95,219.6
			L277.95,219.6z M248.84,237.65l-1.24,11.16l-3.95-0.45l1.24-11.17c0.11-0.9,1.02-1.58,2.14-1.47
			C248.16,235.84,248.95,236.64,248.84,237.65L248.84,237.65z M287.54,340.88L287.54,340.88l-1.35,11.17l-3.84-0.45l1.24-11.17
			c0.11-0.9,1.02-1.58,2.14-1.47C286.75,339.19,287.54,339.98,287.54,340.88L287.54,340.88z M282.01,340.2L282.01,340.2l-1.24,11.29
			l-3.95-0.45l1.24-11.17c0.11-0.9,1.02-1.58,2.14-1.47C281.33,338.51,282.12,339.41,282.01,340.2L282.01,340.2z M276.48,339.75
			L276.48,339.75l-1.24,11.06l-3.84-0.34l1.13-11.28c0.11-0.9,1.13-1.47,2.26-1.35C275.8,337.95,276.59,338.74,276.48,339.75
			L276.48,339.75z M271.07,339.07L271.07,339.07l-1.24,11.16l-3.95-0.45l1.24-11.16c0.11-0.91,1.02-1.47,2.14-1.47
			C270.39,337.38,271.18,338.17,271.07,339.07L271.07,339.07z M265.54,338.4L265.54,338.4l-1.24,11.28l-3.84-0.45l1.13-11.17
			c0.11-0.91,1.13-1.58,2.14-1.47C264.86,336.7,265.65,337.6,265.54,338.4L265.54,338.4z M260.12,337.95L260.12,337.95L258.88,349
			l-3.95-0.34l1.13-11.28c0.11-0.9,1.13-1.47,2.26-1.35C259.44,336.14,260.24,336.93,260.12,337.95L260.12,337.95z M254.59,337.27
			L254.59,337.27l-1.24,11.17l-3.95-0.45l1.24-11.06c0.11-1.01,1.13-1.58,2.14-1.58C253.92,335.58,254.71,336.36,254.59,337.27
			L254.59,337.27z M249.06,336.7L249.06,336.7l-1.13,11.17l-4.06-0.45l1.24-11.17c0.11-0.9,1.13-1.58,2.26-1.46
			C248.39,334.9,249.18,335.8,249.06,336.7L249.06,336.7z M243.65,336.14L243.65,336.14l-1.24,11.17l-3.95-0.45l1.24-11.17
			c0.11-0.9,1.13-1.58,2.14-1.46C242.86,334.34,243.76,335.12,243.65,336.14L243.65,336.14z M238.12,335.46L238.12,335.46
			l-1.13,11.17l-4.06-0.45l1.24-11.05c0.11-1.01,1.02-1.58,2.14-1.58C237.45,333.77,238.23,334.56,238.12,335.46L238.12,335.46z
			 M290.13,316.4L290.13,316.4L289,327.56l-4.06-0.45l1.24-11.17c0.11-0.9,1.02-1.46,2.14-1.46
			C289.45,314.7,290.24,315.49,290.13,316.4L290.13,316.4z M284.72,315.83L284.72,315.83L283.36,327l-3.84-0.45l1.24-11.17
			c0.11-0.9,1.01-1.58,2.14-1.46C283.92,314.03,284.72,314.93,284.72,315.83L284.72,315.83z M279.19,315.27L279.19,315.27
			l-1.24,11.17l-3.95-0.45l1.24-11.28c0.11-0.79,1.01-1.46,2.14-1.35C278.51,313.46,279.3,314.25,279.19,315.27L279.19,315.27z
			 M273.77,314.59L273.77,314.59l-1.35,11.17l-3.84-0.34l1.13-11.17c0.23-1.01,1.13-1.58,2.26-1.58
			C272.98,312.9,273.77,313.69,273.77,314.59L273.77,314.59z M268.25,314.03L268.25,314.03L267,325.2l-3.95-0.46l1.24-11.17
			c0.11-0.9,1.01-1.58,2.14-1.47C267.57,312.22,268.36,313.13,268.25,314.03L268.25,314.03z M262.72,313.46L262.72,313.46
			l-1.24,11.17l-3.83-0.45l1.13-11.28c0.11-0.79,1.13-1.47,2.14-1.35C262.04,311.66,262.83,312.45,262.72,313.46L262.72,313.46z
			 M257.3,312.79L257.3,312.79l-1.24,11.17l-3.95-0.34l1.24-11.17c0-1.02,1.01-1.58,2.14-1.58
			C256.62,311.09,257.41,311.88,257.3,312.79L257.3,312.79z M251.77,312.22L251.77,312.22l-1.24,11.17l-3.84-0.45l1.13-11.17
			c0.11-0.9,1.13-1.58,2.14-1.35C251.1,310.42,251.89,311.32,251.77,312.22L251.77,312.22z M246.25,311.66L246.25,311.66
			l-1.13,11.17l-4.06-0.45l1.24-11.28c0.11-0.79,1.13-1.47,2.26-1.35C245.57,309.85,246.47,310.64,246.25,311.66L246.25,311.66z
			 M240.83,310.98L240.83,310.98l-1.24,11.17l-3.95-0.34l1.24-11.17c0.11-1.02,1.13-1.58,2.15-1.58
			C240.04,309.29,240.94,310.08,240.83,310.98L240.83,310.98z M292.84,291.92L292.84,291.92l-1.24,11.17l-3.95-0.34l1.24-11.28
			c0.11-0.91,1.02-1.47,2.14-1.36C292.05,290.22,292.95,291.01,292.84,291.92L292.84,291.92z M287.31,291.35L287.31,291.35
			l-1.13,11.17l-4.06-0.45l1.24-11.17c0.11-0.9,1.13-1.58,2.14-1.47C286.63,289.55,287.42,290.45,287.31,291.35L287.31,291.35z
			 M281.9,290.79L281.9,290.79l-1.24,11.17l-3.95-0.45l1.24-11.17c0.11-0.9,1.02-1.58,2.14-1.47
			C281.11,288.98,281.9,289.77,281.9,290.79L281.9,290.79z M276.37,290.11L276.37,290.11l-1.24,11.17l-3.95-0.34l1.24-11.17
			c0.11-1.02,1.01-1.58,2.14-1.47C275.69,288.42,276.48,289.21,276.37,290.11L276.37,290.11z M270.95,289.55L270.95,289.55
			l-1.35,11.17l-3.84-0.45l1.13-11.17c0.22-0.9,1.13-1.58,2.26-1.47C270.16,287.74,270.95,288.64,270.95,289.55L270.95,289.55z
			 M265.42,288.98L265.42,288.98l-1.24,11.17l-3.95-0.45l1.24-11.16c0.11-0.9,1.02-1.58,2.14-1.47
			C264.75,287.18,265.54,288.08,265.42,288.98L265.42,288.98z M259.9,288.42L259.9,288.42l-1.24,11.05l-3.84-0.34l1.13-11.17
			c0.11-1.02,1.13-1.58,2.26-1.47C259.22,286.61,260.01,287.4,259.9,288.42L259.9,288.42z M254.48,287.74L254.48,287.74l-1.24,11.16
			l-3.95-0.45l1.24-11.16c0-0.91,1.02-1.58,2.14-1.36C253.8,286.05,254.59,286.84,254.48,287.74L254.48,287.74z M248.95,287.18
			L248.95,287.18l-1.24,11.17l-3.84-0.45l1.13-11.17c0.11-0.9,1.13-1.58,2.14-1.46C248.28,285.37,249.06,286.27,248.95,287.18
			L248.95,287.18z M243.54,286.61L243.54,286.61l-1.24,11.06l-4.06-0.34l1.24-11.17c0.11-1.01,1.13-1.58,2.26-1.46
			C242.86,284.81,243.65,285.6,243.54,286.61L243.54,286.61z M295.43,267.55L295.43,267.55l-1.13,11.05l-3.95-0.34l1.24-11.28
			c0-0.91,1.02-1.47,2.03-1.36C294.76,265.74,295.66,266.53,295.43,267.55L295.43,267.55z M290.02,266.87L290.02,266.87l-1.24,11.16
			l-3.95-0.45l1.24-11.06c0.11-1.02,1.02-1.58,2.14-1.58C289.23,265.18,290.13,265.97,290.02,266.87L290.02,266.87z M284.49,266.2
			L284.49,266.2l-1.13,11.28l-4.06-0.45l1.35-11.17c0-0.9,1.01-1.58,2.03-1.35C283.81,264.5,284.6,265.4,284.49,266.2L284.49,266.2z
			 M279.08,265.74L279.08,265.74l-1.24,11.17l-3.95-0.45l1.24-11.29c0.11-0.79,1.01-1.46,2.14-1.35
			C278.28,263.94,279.08,264.73,279.08,265.74L279.08,265.74z M273.55,265.06L273.55,265.06l-1.24,11.17l-3.95-0.45l1.24-11.06
			c0.11-1.01,1.02-1.58,2.14-1.58C272.87,263.37,273.66,264.16,273.55,265.06L273.55,265.06z M268.13,264.5L268.13,264.5
			l-1.35,11.17l-3.84-0.45l1.13-11.17c0.23-0.9,1.13-1.58,2.26-1.35C267.34,262.7,268.13,263.6,268.13,264.5L268.13,264.5z
			 M262.6,263.94L262.6,263.94l-1.24,11.17l-3.95-0.45l1.24-11.17c0.11-0.9,1.02-1.58,2.14-1.47
			C261.93,262.13,262.72,262.92,262.6,263.94L262.6,263.94z M257.08,263.26L257.08,263.26l-1.24,11.17l-3.84-0.45l1.13-11.05
			c0.23-1.01,1.13-1.58,2.26-1.58C256.4,261.57,257.19,262.36,257.08,263.26L257.08,263.26z M251.66,262.7L251.66,262.7l-1.24,11.16
			l-3.95-0.45l1.24-11.17c0.11-0.91,1.01-1.58,2.14-1.36C250.98,260.89,251.77,261.79,251.66,262.7L251.66,262.7z M246.13,262.13
			L246.13,262.13l-1.24,11.17l-3.83-0.45l1.13-11.17c0.11-0.9,1.13-1.58,2.14-1.47C245.46,260.33,246.25,261.12,246.13,262.13
			L246.13,262.13z M298.14,243.07L298.14,243.07l-1.24,11.17l-3.95-0.45l1.24-11.28c0.11-0.79,1.13-1.47,2.26-1.35
			C297.46,241.26,298.25,242.05,298.14,243.07L298.14,243.07z M292.61,242.39L292.61,242.39l-1.13,11.17l-3.95-0.34l1.24-11.16
			c0-1.02,1.02-1.58,2.03-1.58C291.94,240.7,292.84,241.49,292.61,242.39L292.61,242.39z M287.2,241.83L287.2,241.83l-1.24,11.17
			l-3.95-0.45l1.24-11.17c0.11-0.91,1.02-1.58,2.14-1.36C286.52,240.02,287.31,240.93,287.2,241.83L287.2,241.83z M281.67,241.26
			L281.67,241.26l-1.13,11.17l-4.06-0.45l1.35-11.17c0-0.9,1.02-1.58,2.03-1.46C280.99,239.46,281.9,240.24,281.67,241.26
			L281.67,241.26z M276.25,240.58L276.25,240.58l-1.24,11.17l-3.95-0.34l1.24-11.17c0.11-1.01,1.02-1.58,2.14-1.58
			C275.46,238.89,276.25,239.68,276.25,240.58L276.25,240.58z M270.73,240.02L270.73,240.02l-1.24,11.17l-3.95-0.45l1.24-11.17
			c0.11-0.9,1.01-1.58,2.14-1.35C270.05,238.22,270.84,239.12,270.73,240.02L270.73,240.02z M265.31,239.46L265.31,239.46
			l-1.24,11.17l-3.95-0.45l1.24-11.17c0.11-0.9,1.02-1.58,2.14-1.46C264.52,237.65,265.31,238.44,265.31,239.46L265.31,239.46z
			 M259.78,238.78L259.78,238.78l-1.24,11.17l-3.95-0.34l1.24-11.17c0.11-1.01,1.01-1.58,2.14-1.46
			C259.11,237.09,259.9,237.88,259.78,238.78L259.78,238.78z M254.37,238.22L254.37,238.22l-1.35,11.17l-3.83-0.45l1.13-11.17
			c0.22-0.9,1.13-1.58,2.26-1.36C253.58,236.41,254.37,237.31,254.37,238.22L254.37,238.22z M299.95,264.39l-1.8,16.81l-59.91-6.54
			l1.8-16.81L299.95,264.39z M297.35,288.64l-1.92,16.81l-59.9-6.55l1.92-16.81L297.35,288.64z M294.64,312.9l-1.81,16.81
			l-59.9-6.55l1.8-16.81L294.64,312.9z M292.05,337.04l-1.92,16.93l-59.79-6.54l1.8-16.92L292.05,337.04z M289.34,361.3l-3.84,35.65
			c-0.9-0.23-1.8-0.45-2.82-0.79l2.93-26.06c0.22-2.59-2.03-4.85-5.19-5.3c-3.16-0.34-5.86,1.46-6.09,4.17l-2.71,25.05
			c-1.02-0.11-1.92-0.23-2.93-0.34l2.71-25.04c0.23-2.6-2.03-4.96-5.08-5.3c-3.05-0.34-5.87,1.47-6.09,4.06l-2.82,25.5
			c-0.9-0.11-1.8-0.11-2.59-0.11h-0.34l2.82-25.73c0.22-2.59-2.03-4.96-5.08-5.3c-3.16-0.34-5.87,1.47-6.21,4.06l-2.93,27.53
			c-1.02,0.11-2.03,0.22-3.05,0.34l3.05-28.2c0.34-2.48-2.03-4.96-5.08-5.3c-3.05-0.34-5.87,1.47-6.09,4.17l-3.5,31.48
			c-1.13,0.22-2.37,0.56-3.5,0.9l4.51-41.96L289.34,361.3z"/>
		<path class="st1" d="M688.93,420.64l-43.21,0.45l5.76-6.99l0,0l2.14-2.48l0,0l1.36-1.69l0,0l2.14-2.48l0,0l1.35-1.69l0,0
			l2.03-2.37l28.54-34.3l28.77,33.73c-0.23,0.22-0.57,0.56-0.79,0.79l18.16-16.92v-0.45v0.45c3.61,3.16,7.22,6.32,10.83,9.36
			c2.48-3.95,6.77-8.91,12.19-8.35l0,0c9.36,0.34,10.72,14.78,10.72,14.78l-4.97,0.11l0.11,2.82c1.81,1.8,3.16,4.06,3.95,6.54
			c0.11,0.11,0.11,0.23,0.23,0.34l0.34,0.45l0.11,0.34c0.22,0.45,0.34,0.91,0.68,1.47l-19.97,0.11c6.66,0,13.31-0.11,19.97-0.11
			l-0.34-0.56l-0.23-0.56l-0.11-0.34c0.22,0.45,0.34,0.91,0.68,1.47c0.22,0.68,1.01,2.59,1.13,3.27l10.49,0.45
			c1.69,0.45,2.6,0.34,3.72,5.86l-32.49,0.23c0.11,0.56-15.34-0.23-15.34-0.23l-32.94-0.34c0,0,0-2.03-0.22-2.94L688.93,420.64z
			 M720.18,407.66L720.18,407.66c0.45,0.11,0.9,0.34,1.47,0.57C721.08,408,720.63,407.78,720.18,407.66L720.18,407.66z
			 M727.74,409.92c0.45,0,0.79,0,1.24,0.11C728.53,409.92,728.19,409.92,727.74,409.92L727.74,409.92z M734.62,420.18
			c-0.34-0.34-0.79-0.56-1.24-0.79C733.83,419.62,734.28,419.85,734.62,420.18L734.62,420.18z M768.24,412.29
			c-0.11-0.11-0.11-0.23-0.23-0.34l0,0L768.24,412.29z"/>
		<path class="st1" d="M751.32,343.7v3.39h-17.26v18.16h7.45l-5.19,1.69v57.65h-11.4v-57.53l-5.3-1.8h7.56v-18.16h-57.42v18.16h7.56
			l-5.19,1.69v57.65h-11.51v-57.53l-5.08-1.8h7.44v-18.16h-17.26v-3.39h-4.62v-2.48h21.89v-9.82h-5.19v-3.84
			c-7.1-1.01-14.44-2.25-21.77-3.72v-8.35c-2.71-0.45-5.53-1.01-8.35-1.69v-6.77c-3.16-0.56-6.43-1.24-9.59-1.91
			c0-2.03,0-4.06,0-6.1c54.26,9.14,107.85,8.57,160.76,0c0,2.03,0,4.06,0,6.1c-3.16,0.67-6.32,1.35-9.59,1.91v6.77
			c-2.71,0.68-5.53,1.24-8.35,1.8v8.24c-7.11,1.58-14.44,2.93-21.77,3.95v3.61h-5.08v9.82h21.78v2.48H751.32z M674.94,329.48v1.92
			h-5.19v9.82h23.58v-10.83C687.24,330.27,681.15,329.94,674.94,329.48L674.94,329.48z M727.18,331.4h-5.19v-1.8
			c-5.98,0.56-12.19,0.79-18.28,0.9v10.72h23.47V331.4z"/>
	</g>
</g>
</svg>
