<svg width="226" height="105" viewBox="0 0 226 105" fill="none" xmlns="http://www.w3.org/2000/svg">
<path d="M0.000244141 25.0037C0.000244141 11.1966 11.1931 0 25.0002 0H201C214.807 0 226 11.1953 226 25.0024C226 52.081 226 73.0833 226 105L10.2318 85.7438C8.41605 85.5818 6.60983 85.2522 4.94836 84.502C2.77448 83.5204 0.000244141 81.8963 0.000244141 80C0.000244141 59.2652 0.000244141 43.6331 0.000244141 25.0037Z" fill="#F1F1F1" fill-opacity="0.7"/>
<path d="M0 72C0 58.1929 11.1929 47 25 47H201C214.807 47 226 58.1929 226 72V104H25C11.1929 104 0 92.8071 0 79V72Z" fill="#ECCEB1"/>
</svg>
