<svg xmlns="http://www.w3.org/2000/svg" viewBox="0 0 10.69 16"><defs><style>.cls-1{fill:#cbd8d6;}.cls-2{fill:#25464c;}.cls-3{fill:#2f5961;}.cls-4{fill:#8daaa6;}</style></defs><g id="Capa_2" data-name="Capa 2"><g id="Capa_1_copia" data-name="Capa 1 copia"><path class="cls-1" d="M9.17,8.83a1,1,0,0,1,.89-1.15l-.5-3.82A2.77,2.77,0,0,0,6.47,1.49l-.29,0A1.76,1.76,0,0,0,2.69,2l-.3,0A2.76,2.76,0,0,0,0,5.11l.5,3.82a1,1,0,0,1,.27,2l.35,2.65A2.75,2.75,0,0,0,4.22,16l4.08-.53a2.76,2.76,0,0,0,2.37-3.09l-.35-2.65A1,1,0,0,1,9.17,8.83ZM4.53,2.48a.74.74,0,0,1-.82-.62A.73.73,0,0,1,4.34,1a.73.73,0,0,1,.19,1.44Z"/><path class="cls-2" d="M4.27.64a1.14,1.14,0,1,0,1.29,1A1.14,1.14,0,0,0,4.27.64ZM4.5,2.38a.61.61,0,0,1-.68-.53.6.6,0,0,1,.52-.68A.61.61,0,0,1,5,1.69.62.62,0,0,1,4.5,2.38Z"/><rect class="cls-2" x="2.05" y="3.42" width="6.7" height="10.62" rx="0.74" transform="translate(-1.09 0.78) rotate(-7.46)"/><path class="cls-3" d="M6.7,10.4,7,10.1l-.5-1.76.42-.48a.37.37,0,0,0,0-.54.36.36,0,0,0-.52.12L6,7.93,4.14,7.77l-.25.3,1.57.55-1.14,1.5L3.67,10l-.29.21.63.34.12.1.13.11.45.55L4.86,11l-.25-.62C4.93,10,5.43,9.47,5.87,9Z"/><path class="cls-3" d="M5.75,12A2.89,2.89,0,1,1,8.24,8.79,2.9,2.9,0,0,1,5.75,12ZM5,6.4A2.79,2.79,0,1,0,8.15,8.81,2.79,2.79,0,0,0,5,6.4Z"/><path class="cls-4" d="M2,4.37l-.18,0V4.33l.42,0v.06L2,4.36l.07.51H2Z"/><path class="cls-4" d="M2.84,4.48a.27.27,0,0,1-.23.33.26.26,0,0,1-.29-.25.27.27,0,0,1,.22-.34A.27.27,0,0,1,2.84,4.48Zm-.44.06c0,.13.09.23.21.21s.17-.13.15-.26a.21.21,0,0,0-.21-.21A.21.21,0,0,0,2.4,4.54Z"/><path class="cls-4" d="M3,4.41s0-.06,0-.06a0,0,0,0,1,.06.05s0,0,0,0A0,0,0,0,1,3,4.41Zm0,.3s0-.06,0-.06a0,0,0,0,1,.06,0s0,.06,0,.06A0,0,0,0,1,3,4.71Z"/></g></g></svg>