<?xml version="1.0" encoding="UTF-8" standalone="no"?>
<svg
   viewBox="0 0 40 30"
   version="1.1"
   id="svg489"
   sodipodi:docname="valija.svg"
   inkscape:version="1.1.1 (eb90963e84, 2021-10-02)"
   xmlns:inkscape="http://www.inkscape.org/namespaces/inkscape"
   xmlns:sodipodi="http://sodipodi.sourceforge.net/DTD/sodipodi-0.dtd"
   xmlns="http://www.w3.org/2000/svg"
   xmlns:svg="http://www.w3.org/2000/svg">
  <sodipodi:namedview
     id="namedview491"
     pagecolor="#ffffff"
     bordercolor="#666666"
     borderopacity="1.0"
     inkscape:pageshadow="2"
     inkscape:pageopacity="0.0"
     inkscape:pagecheckerboard="0"
     showgrid="false"
     inkscape:zoom="26.8"
     inkscape:cx="19.981343"
     inkscape:cy="15"
     inkscape:window-width="1920"
     inkscape:window-height="1019"
     inkscape:window-x="1920"
     inkscape:window-y="25"
     inkscape:window-maximized="1"
     inkscape:current-layer="Capa_1_copia" />
  <defs
     id="defs449">
    <style
       id="style447">.cls-1,.cls-5{fill:none;}.cls-2{fill:#fdca91;}.cls-3{fill:#e9ae8c;}.cls-4{fill:#25464c;}.cls-5{stroke:#1a474a;stroke-miterlimit:10;stroke-width:0.6px;}.cls-6{fill:#f6d5b6;}.cls-7{fill:#8daaa6;}</style>
  </defs>
  <g
     id="Capa_2"
     data-name="Capa 2">
    <g
       id="Capa_1_copia"
       data-name="Capa 1 copia">
      <rect
         class="cls-1"
         width="40"
         height="30"
         id="rect451" />
      <polygon
         class="cls-2"
         points="32.6 17.38 32.2 17.38 31.45 17.07 30.65 16.91 30.49 16.91 29.61 20.73 32.6 21.5 32.6 17.38"
         id="polygon453" />
      <polygon
         class="cls-3"
         points="14.49 15.93 14.27 16.55 14.38 20.03 14.9 20.03 16.09 19.73 16.69 19.25 17.18 18.35 17.03 17.89 16.04 16.6 14.95 16.05 14.49 15.93"
         id="polygon455" />
      <polygon
         class="cls-3"
         points="13.38 15.93 13.38 19.77 12.4 19.25 11.7 18.82 11.2 18.12 11.09 17.61 11.09 17.12 11.27 16.66 12.16 16.06 12.89 15.93 13.38 15.93"
         id="polygon457" />
      <path
         class="cls-4"
         d="M31.94,8.34a2.8,2.8,0,0,0-2-.84H24.58V7.4a2.59,2.59,0,0,0-.18-1.18,3.35,3.35,0,0,0-2.75-1.45,10,10,0,0,0-3,.06l-.25,0c-1.13.24-1.82.78-2,1.58a4.12,4.12,0,0,0-.05,1H11a3.68,3.68,0,0,0-.58,0,3,3,0,0,0-1,.41h0A.12.12,0,0,0,9.32,8a2.83,2.83,0,0,0-1.16,2.28l0,11.26a2.81,2.81,0,0,0,.83,2,2.78,2.78,0,0,0,2,.84l9,0h10a2.84,2.84,0,0,0,2.84-2.83l0-11.27A2.83,2.83,0,0,0,31.94,8.34ZM16.68,6.5c.15-.69.75-1.15,1.79-1.37l.25,0A9.41,9.41,0,0,1,21.6,5a3.1,3.1,0,0,1,2.56,1.31,2.44,2.44,0,0,1,.15,1.06v.09H22.84V7.34a1.46,1.46,0,0,0-.11-.69,1.92,1.92,0,0,0-1.59-.85,5.73,5.73,0,0,0-1.69,0l-.14,0a1.34,1.34,0,0,0-1.18.93,2.63,2.63,0,0,0,0,.68H16.63A3.69,3.69,0,0,1,16.68,6.5Zm5.9.84v.14h-4.2a2.16,2.16,0,0,1,0-.62c.08-.37.41-.62,1-.73l.13,0a5.51,5.51,0,0,1,1.61,0c.63.1,1.14.22,1.4.71A1.32,1.32,0,0,1,22.58,7.34Zm-7.82.39V9.81h-.22V7.73Zm-5.19.42a2.57,2.57,0,0,1,.9-.38,2.32,2.32,0,0,1,.53,0h2.3V9.8H9.56Zm1.39,16a2.58,2.58,0,0,1-2.57-2.59l0-11.26a2.58,2.58,0,0,1,.89-1.94V9.93a.13.13,0,0,0,.13.13h3.86V15.7A2.24,2.24,0,0,0,11,17c-.31,1.07.69,2.3,2.28,2.84v4.28ZM13.28,16v3.62c-1.41-.51-2.29-1.58-2-2.49C11.44,16.42,12.23,16,13.28,16Zm.24,8.18v-8.3h0l0-5.88h0V7.72h.71l0,16.41Zm1-8,.08,0a3.93,3.93,0,0,1,1.87,1.12,1.58,1.58,0,0,1,.46,1.47c-.22.75-1.21,1.2-2.42,1.12ZM25,24.17H20v-2h5Zm.26,0V22a.14.14,0,0,0-.13-.13H19.92a.1.1,0,0,0-.09,0,.11.11,0,0,0,0,.09v2.14l-5.29,0v-4a4.44,4.44,0,0,0,1.05-.06,2,2,0,0,0,1.62-1.25,1.84,1.84,0,0,0-.51-1.72,4.21,4.21,0,0,0-2-1.19l-.15,0,0-5.78h.38L15,10a.15.15,0,0,0,0-.09V7.73H26.54l0,16.42Zm1.46,0,0-16.42h.52l0,16.41Zm5.72-2.86-2.73-.63.88-3.61,1.86.45Zm0-4.06-1.93-.46a.13.13,0,0,0-.16.09l-.93,3.87a.17.17,0,0,0,0,.1.15.15,0,0,0,.09.06l2.91.67v0a2.6,2.6,0,0,1-2,2.52,3.17,3.17,0,0,1-.53.05H27.54l0-16.41h.94a.61.61,0,0,0,0,.23l.51,2.14a1,1,0,0,0,1.18.76h0l2.23-.52Zm0-7.16-2.28.54a.75.75,0,0,1-.9-.56L28.8,7.93a.47.47,0,0,1,0-.17h1.16a2.58,2.58,0,0,1,2.55,2.33Z"
         id="path459" />
      <rect
         class="cls-5"
         x="15.96"
         y="11.02"
         width="9.55"
         height="2.61"
         transform="translate(-1.83 3.79) rotate(-10.01)"
         id="rect461" />
      <rect
         class="cls-6"
         x="15.96"
         y="11.02"
         width="9.55"
         height="2.61"
         transform="translate(-1.83 3.79) rotate(-10.01)"
         id="rect463" />
      <rect
         class="cls-5"
         x="16.35"
         y="17.99"
         width="8.95"
         height="1.83"
         transform="translate(0.09 -0.1) rotate(0.28)"
         id="rect465" />
      <rect
         class="cls-7"
         x="16.35"
         y="17.99"
         width="8.95"
         height="1.83"
         transform="translate(0.09 -0.1) rotate(0.28)"
         id="rect467" />
    </g>
  </g>
</svg>
